<?xml version="1.0" encoding="UTF-8"?>
<svg xmlns="http://www.w3.org/2000/svg" xmlns:xlink="http://www.w3.org/1999/xlink" viewBox="0 0 2400 1800" preserveAspectRatio="xMidYMid meet" style="background:#f7f3ec">
<defs>
    <pattern id="ap-grid-p7" width="24" height="24" patternUnits="userSpaceOnUse">
      <path d="M24 0H0v24" fill="none" stroke="#17353b" stroke-width="0.63" opacity="0.07"></path>
    </pattern>
    <clipPath id="ap-clip-p7">
      <rect x="142" y="142" width="2116" height="1516"></rect>
    </clipPath>
  </defs>
<rect x="0" y="0" width="2400" height="1800" fill="#f7f3ec"></rect>

    <rect x="132" y="132" width="2136" height="1536" fill="none" stroke="#17353b" stroke-width="1.8"></rect>
    <rect x="138" y="138" width="2124" height="1524" fill="none" stroke="#17353b" stroke-width="0.72"></rect>
    <rect x="142" y="142" width="2116" height="1516" fill="url(#ap-grid-p7)"></rect>
<g clip-path="url(#ap-clip-p7)"><polygon points="1956.1461819531678,864 1963.8506632009758,904.987264024608 1966.6847118062312,946.8942310458458 1964.122333389749,989.0906323563179 1955.8350394787658,1030.8438678106852 1941.7239741452122,1071.3724894336028 1921.9321135163577,1109.9055145605123 1896.8354044702091,1145.7417896563315 1867.0137398364657,1178.3036045050249 1833.2046088958077,1207.1793049029282 1796.2439244536054,1232.1507169131046 1756.9997491503982,1253.202673109293 1716.3053050502651,1270.5136765676384 1674.897687831805,1284.428580854132 1633.368117088563,1295.4159235159384 1592.1283956806285,1304.014054294201 1551.396637755487,1310.7713000528333 1511.2034154254884,1316.1859982527633 1471.417455543374,1320.652251636775 1431.788088534412,1324.416706213276 1392,1327.550586115574 1351.7346246523823,1329.93973661131 1310.7318697478975,1331.2936750745546 1268.8458254374777,1331.1728000810438 1226.0887151811128,1329.031141533087 1182.6585020882371,1324.2705224058916 1138.9471826660322,1316.3008929484533 1095.5287094808014,1304.6009992244499 1053.1275012665528,1288.7735180478924 1012.5704251110044,1268.5893323139526 974.7267814195945,1244.016681207155 940.4420266787506,1215.2323948645721 910.4716131001343,1182.6141683527353 885.4213443461562,1146.7146744895836 865.7000401092655,1108.2200786650633 851.4891280859224,1067.897028957193 842.7321542044162,1026.533303962975 839.1452796183133,984.8779006475324 840.2478036490794,943.5863768510819 845.4098137762691,903.1767251796265 853.9124063004325,864.0000000000001 865.014706426652,826.2284509667779 878.0212629838677,789.8621792026497 892.343364698668,754.7534965458253 907.5484246636215,720.6464144001731 923.3927487770123,687.2271888744676 939.8346282289925,654.1807503719764 957.0266168410294,621.2472565534787 975.2878835593394,588.2729856965652 995.0594704036216,555.2503353589066 1016.8469472367043,522.3427555191415 1041.1561747491196,489.8919219824809 1068.4285471429366,458.4062003152559 1098.9821220718093,428.5312921204148 1132.9644544501698,401.00571370065944 1170.321791145107,376.60525976244804 1210.7876693047288,356.0817044176125 1253.8920506139673,340.10158033767186 1298.9901044998644,329.19089645926533 1345.30782321601,323.69110272237424 1392,323.7305404318331 1438.2148899707838,329.2141331204082 1483.1592207914068,339.83231989704495 1526.1571902489984,355.08838216595217 1566.697683631871,374.3415458978663 1604.4651066237582,396.8617278741385 1639.3508453044249,421.89068313317443 1671.4442752407967,448.7037104907326 1701.004259173881,476.6660417955096 1728.4139995122828,505.2785811871402 1754.1237586364953,534.2087198131917 1778.5871651709365,563.3034253205501 1802.1974693772604,592.5835495442755 1825.2301319753358,622.2201413867303 1847.7975253966304,652.4953144765269 1869.820353454122,683.7517283980574 1891.0187690195605,716.3358505524627 1910.9242483093942,750.54076483704 1928.9112524714428,786.5543250078856 1944.2457705505926,824.4179121217961" fill="none" stroke="#17353b" stroke-width="0.99" opacity="0.8107142857142857"></polygon><polygon points="1888.2927681320195,864 1893.4685568167506,899.9426428278246 1893.931983258873,936.4001612271695 1889.3821876593652,972.7492110445089 1879.7166847186172,1008.3197608816278 1865.0425709154665,1042.4459476982886 1845.6695668446491,1074.5172444355642 1822.0855944999985,1104.0249349131918 1794.9172697162153,1130.5993413847943 1764.8791367426588,1154.0341482841782 1732.7165440602253,1174.295424054848 1699.1476536861373,1191.5144383856398 1664.81013284224,1205.9649582649163 1630.217591988495,1218.027227658917 1595.7298548176454,1228.142143229601 1561.5397701093411,1236.7601041131961 1527.6776374279623,1244.2895425860443 1494.0325791976209,1251.050182363441 1460.3885212478704,1257.2356180423485 1426.4710062091683,1262.8889067881742 1392,1267.893599708526 1356.7432652868717,1271.9811387373982 1320.5648245602006,1274.7539518542792 1283.4635242346153,1275.7220506276976 1245.5976918932654,1274.3496186909354 1207.2932551647536,1270.107106260624 1169.0343276633716,1262.5238092078425 1131.437004288157,1251.2358637846578 1095.2087744837258,1236.0250343698071 1061.0973942047974,1216.844567740391 1029.8341145822296,1193.8296456483265 1002.0767436297417,1167.2914647503878 978.3580596050124,1137.6955627543657 959.0445961806456,1105.6265365569122 944.3098286790721,1071.7426129393432 934.1244038104387,1036.7245066587595 928.2644079554168,1001.2235395120565 926.3369219511029,965.8140448267452 927.8204342858628,930.9546403037807 932.1162434238742,896.9620618885068 938.6059145830707,864 946.7092708953288,832.0838899803656 955.937350792094,801.101027308881 965.9352574712536,770.8438602075247 976.5108142110485,741.0530067542 987.6463246265487,711.4655786948276 999.4923843966125,681.8638645931177 1012.3444396051018,652.1193828889866 1026.6044658606438,622.227765180905 1042.7315878521151,592.3308277186052 1061.186529912048,562.7234468841866 1082.3753801239395,533.8443492174663 1106.598206030126,506.25151189644936 1134.0075740795637,480.5843901653508 1164.5810455788803,457.5164949287108 1198.1103453212268,437.7028083857891 1234.208260346865,421.7270533737941 1272.3325861217168,410.0538709421254 1311.8247663572004,402.9905063315321 1351.9594344550956,400.66169996687944 1392,403.0002152264477 1431.2548370409443,409.75393191610345 1469.1285794508703,420.50884014346286 1505.1635173105192,434.72573920638183 1539.0670689743622,451.7871294786851 1570.722679952868,471.049810533217 1600.1831369021365,491.8981609069523 1627.6470221970883,513.7930262910916 1653.4207012958398,536.3115880013404 1677.869667766995,559.1744785722176 1701.364128730407,582.257668477665 1724.2242925202852,605.5881441848146 1746.6708634605836,629.3239865504762 1768.7857510755418,653.7209845327068 1790.4870111271084,679.0892330968964 1811.5206500993563,705.7441376552982 1831.4702784629858,733.9567853846286 1849.7838521392143,763.908693989761 1865.8150667526418,795.6555063854919 1878.875529345296,829.1033090410477" fill="none" stroke="#17353b" stroke-width="0.99" opacity="0.7714285714285715"></polygon><polygon points="1842.4763166780972,864 1845.2619201435996,896.487443293735 1843.5230193479197,929.1290224351128 1837.153169956065,961.3296938004506 1826.2338044163275,992.4936947692077 1811.0286151751352,1022.0702519076042 1791.9622723914783,1049.595335494199 1769.5855421776296,1074.725368029847 1744.5301754082216,1097.2595786928998 1717.4579116244329,1117.1488058702662 1689.008492630328,1134.4898772169058 1659.7516526795748,1149.5061111545638 1630.1476400687018,1162.5158467118808 1600.5199692512049,1173.8920865134592 1571.0428874062973,1184.017214995327 1541.7445840108378,1193.2372443956247 1512.5256190971338,1201.820096408184 1483.190547730683,1209.9220418276545 1453.4894215796007,1217.56563143517 1423.1648802427148,1224.63133564388 1392,1230.8637768935134 1359.8619990907193,1235.8920176356978 1326.7373130455228,1239.2619967703615 1292.754410188751,1240.47802238549 1258.191932032769,1239.0493443593336 1223.4711966555435,1234.537333159276 1189.133652617806,1226.5987295334517 1155.8053644278505,1215.0208096787192 1124.1519013500956,1199.7450946630302 1094.8279626530634,1180.8773446501866 1068.4266096294778,1158.6829090874398 1045.4330348418766,1133.5679233789895 1026.1873757216813,1106.048211960566 1010.8602139026274,1076.7089433376734 999.4431778733127,1046.158968813508 991.7556041584834,1014.984276930187 987.4666541648752,983.7050615015416 986.1307823651887,952.7405265008525 987.2331534782563,922.3847730868208 990.2406387240187,892.7960092986536 994.6534788022914,864 1000.052637130397,835.9072634177585 1006.1382874877045,808.3421596370487 1012.7557445794355,781.0808392551569 1019.9063697906927,753.8941426037824 1027.7424480660432,726.5910477035497 1036.5465924882383,699.0582068022397 1046.6977383480494,671.2914928137924 1058.6270913474987,643.4162609488337 1072.7683679317224,615.6941405702984 1089.5072147235226,588.5154991232082 1109.1347652913748,562.3781338629881 1131.8098794085506,537.854109442294 1157.5337533276934,515.5478365972349 1186.1393735484594,496.04936365487646 1217.296830375013,479.88734220698757 1250.5339539743138,467.48618273126675 1285.2702368574191,459.1315294310813 1320.8607094876086,454.9473934910455 1356.645467045564,454.88716718542776 1392,458.7394066851903 1426.3814122878703,466.14784917724575 1459.366025137515,476.643758826237 1490.6747210620147,489.6875099889166 1520.1835971555888,504.71543068241624 1547.918950291368,521.1874309706386 1574.037166475644,538.6308781930011 1598.7915803513617,556.6765597624944 1622.4896620102468,575.0833573934433 1645.4448500412632,593.7493673586109 1667.927887536283,612.7085309937422 1690.122578534587,632.1132580790216 1712.090459782404,652.2048942164997 1733.7480177322072,673.2750681216183 1754.8588577765527,695.6218401215485 1775.041771267575,719.5050727261324 1793.79408879051,745.1055093361163 1810.5282077418183,772.4916719555587 1824.6178853384715,801.5979102887566 1835.4499217372213,832.2158294226768" fill="none" stroke="#17353b" stroke-width="0.99" opacity="0.7321428571428572"></polygon><polygon points="1804.305735176354,864 1804.8352527678342,893.5898712596477 1801.1371861388975,923.0151638637644 1793.2725083707664,951.735487482028 1781.4680997869227,979.2471194720337 1766.0979582391383,1005.121050819562 1747.6519876046782,1029.0339407364445 1726.6953721367568,1050.7889460614608 1703.8224417550891,1070.324384307123 1679.6094496439196,1087.7093834067878 1654.570768529305,1103.1269499106172 1629.122657807857,1116.8461252053366 1603.5579953188237,1129.1859748979582 1578.0342795285105,1140.474964259497 1552.5758969807257,1151.0097332073133 1527.0902445664767,1161.0173523109106 1501.3959341618051,1170.624809746223 1475.2601218502086,1179.8387801146266 1448.4411112992639,1188.537727673914 1420.7318681961597,1196.4771962037998 1392,1203.3078526425663 1362.2201105220986,1208.6046073048278 1331.4951969609594,1211.904051490637 1300.064843474442,1212.7466393445684 1268.299273464776,1210.7195744517487 1236.6797240521034,1205.4962884277165 1205.7669631420883,1196.8687258050488 1176.160948806529,1184.7693448527766 1148.4555165301913,1169.2807396034839 1123.1924851052702,1150.6319869874376 1100.8196467238572,1129.1821074479158 1081.6567434389967,1105.3922722486052 1065.8727658714922,1079.7894743194863 1053.476815551398,1052.9251961771586 1044.3234564949414,1025.333078616291 1038.132073142282,997.4896718617711 1034.518388364062,969.7820294596703 1033.0351102813888,942.4852162343878 1033.2177861252826,915.7518129873251 1034.6314325178641,889.6143094203921 1036.9134343173214,864 1039.808566268117,838.7567604437655 1043.1927579179549,813.6870065940394 1047.083317870679,788.5863282033295 1051.634651500209,763.2828270039155 1057.1199180687345,737.6731168405051 1063.9004409273573,711.7512706948928 1072.3858746082462,685.6276931254142 1082.9890290076391,659.5358890293708 1096.0797661151776,633.8262934617537 1111.942468761536,608.947605479256 1130.741225711349,585.4173062773752 1152.4961181510957,563.7841168601021 1177.0729037555964,544.5859575817465 1204.1870828174528,528.3074317690389 1233.4219249031983,515.3409228700074 1264.2586718438715,505.9550621993944 1296.1159469559516,500.2736244806184 1328.3945072383892,498.2669091155557 1360.5229622022498,499.75646385584304 1392,504.4327215030903 1422.4290165160085,511.883874956871 1451.5418010218343,521.6332329322786 1479.209018368699,533.1814837105601 1505.4365357827096,546.0498269049199 1530.3480437153817,559.8198589868134 1554.1557773053612,574.1664243667744 1577.122324579443,588.8803381750262 1599.5173936979193,603.8788815656276 1621.573917201778,619.2031680594761 1643.4479464916265,635.0027630165545 1665.1864269677387,651.5091823035712 1686.706178618942,669.0009790417341 1707.7863130799085,687.7639432411117 1728.0750031722623,708.050408574739 1747.1101133126854,730.041737882714 1764.351836650776,753.817736991552 1779.2243007814764,779.3360569556893 1791.1622143462253,806.4236557175999 1799.6581190175814,834.7811986045099" fill="none" stroke="#17353b" stroke-width="0.99" opacity="0.6928571428571428"></polygon><polygon points="1769.2052696510616,864 1767.7346838680505,890.9306965645504 1762.4467369737706,917.4343384712091 1753.5369860386165,943.0475874902774 1741.3359393636824,967.3716516493843 1726.2809814954767,990.100884377136 1708.8795923079256,1011.0423045003868 1689.667389677744,1030.124131444678 1669.1650118715147,1047.39251050693 1647.8379508581472,1062.996765611808 1626.0631423772338,1077.1646475221237 1604.1054429086216,1090.1700331389832 1582.1061440756985,1102.2962793480401 1560.0844875445166,1113.7988693493671 1537.9518645110716,1124.8710677136103 1515.5371386536196,1135.6160145591255 1492.6204418538744,1146.0280669150966 1468.9719646517995,1155.9852971436599 1444.3917791566876,1165.2539718814269 1418.7466382152156,1173.504666419878 1392,1180.3385329398945 1364.2322016650753,1185.3212476166882 1335.6486829830178,1188.0214084225909 1306.575344928749,1188.0497161168767 1277.4414027413268,1185.0951883941134 1248.7513329384499,1178.9549395608033 1221.0485973260816,1169.5546778527205 1194.8746477979364,1156.9579690519022 1170.727192958215,1141.363400827057 1149.0217942768465,1123.0899511434577 1130.0605468131682,1102.5520020094361 1114.0109178649102,1080.2264356586816 1100.8968327236864,1056.61500686122 1090.6029062153973,1032.2056287022995 1082.8914382936337,1007.4362968061902 1077.430546912454,982.6651004041889 1073.8307236024043,958.1491552950941 1071.6862731452409,934.0344040185805 1070.6176192574094,910.3571498876464 1070.310370343133,887.0570298037593 1070.5473519681343,864 1071.2304953800474,841.0089199454509 1072.3904576138657,817.8985695865418 1074.183042236062,794.5114974542183 1076.8727740901313,770.7510148502678 1080.8052311212646,746.6079324238254 1086.3708294765775,722.1782524112972 1093.9635879172852,697.6699221579831 1103.9388832114134,673.3978347751254 1116.574302338354,649.76742497663 1132.0373910539631,627.2483382812879 1150.3634218190143,606.3406389513143 1171.445323664305,587.5367693183051 1195.0367283277533,571.2829070318064 1220.7678073152083,557.9434444207757 1248.1723286656704,547.7720276111827 1276.7232720352367,540.8919699695414 1305.8735128474993,537.2879554663336 1335.0976015578372,536.8098603215137 1363.930569770714,539.1883519040182 1392,544.0607864786573 1419.0482701095768,551.0049331008283 1444.9428605818682,559.5772968626777 1469.673796733049,569.3523744395502 1493.3385725599642,579.9590914485582 1516.1161429263989,591.1109526128603 1538.2326545219448,602.6270545598859 1559.9224070146993,614.4420067343414 1581.3880133696084,626.6038907973218 1602.7638153664539,639.260556955789 1624.0862981364387,652.6356927686004 1645.2745663847033,666.9970950235033 1666.1229613837875,682.6203311294154 1686.306707975856,699.7514194156043 1705.4002011249813,718.5722447171004 1722.9062972866657,739.1721484508781 1738.2938888759552,761.5285184959777 1751.0402169477954,785.4983139825215 1760.673898617314,810.8213810029789 1766.8145588311359,837.1352531846596" fill="none" stroke="#c88a4a" stroke-width="2.52" opacity="0.95"></polygon><polygon points="1735.3222624970765,864 1732.233099520509,888.3861287174145 1725.8281928403464,912.1523708190366 1716.399226507243,934.9276705547647 1704.3363303581255,956.4231340126 1690.094751557175,976.4503453094327 1674.15666446764,994.9297511754799 1656.991771112358,1011.8883120642986 1639.0204472372677,1027.446676257924 1620.5829261284714,1041.7971673908132 1601.9174098006497,1055.1747839255918 1583.1491141238625,1067.8241022155491 1564.2911774444258,1079.9653847544841 1545.2571967722379,1091.7632816247797 1525.8840157446537,1103.3012672643463 1505.9623858653238,1114.564400274634 1485.2723550058595,1125.4321850933939 1463.6197798254632,1135.6823299015591 1440.870256176561,1145.0051312825594 1416.977023524621,1153.027176871578 1392,1159.3421441242408 1366.113984825821,1163.5457756955188 1339.6051380523647,1165.2716980024402 1312.8560083890518,1164.224659877092 1286.3205144876956,1160.2080116374439 1260.4912819023286,1153.1427976944037 1235.862499229595,1143.0766440193054 1212.89190779994,1130.1816065033825 1191.9656353374519,1114.7412112985342 1173.3693155958597,1097.127959654415 1157.2683291864603,1077.7734859194736 1143.699114885091,1057.13425889583 1132.5724222562874,1035.6561352960614 1123.6882109756384,1013.7411690151707 1116.7607638464342,991.7198423482516 1111.4515806751724,969.8313387414386 1107.4068568599969,948.2136749744627 1104.295898618068,926.9045326025669 1101.846730655295,905.8525700330049 1099.8754213957645,884.9379616075065 1098.3062595287033,864 1097.1808042959437,842.8689023350878 1096.6549139359663,821.3985468910438 1096.9840264088396,799.4967765843307 1098.4981097507612,777.1501464963947 1101.5687045325458,754.4405418298113 1106.5712498104226,731.5518959966457 1113.8463416452173,708.7662172454532 1123.6636751470517,686.4491903119506 1136.1921572886333,665.0266532117394 1151.4790743773628,644.9541570222414 1169.4403142409578,626.6825091649824 1189.8625654253176,610.6226101723233 1212.417249520172,597.1129797886337 1236.6848022149532,586.393121772952 1262.1869153778962,578.5853217343465 1288.42358439983,573.6866627545442 1314.9113472304768,571.5720583833704 1341.2189985301375,572.0080379946419 1366.9973239675562,574.6759794349205 1392,579.2025699923292 1416.0936843828856,585.1945782588614 1439.2563956987883,592.2746047145226 1461.564440984038,600.1143883589034 1483.169285093725,608.4624892985942 1504.2667523897562,617.1637191541163 1525.0617127592952,626.168498527911 1545.7318550520058,635.5313046672366 1566.39424735656,645.3984367163732 1587.0781154787644,655.9863666038481 1607.706664609747,667.5528590161232 1628.089883724929,680.363744716756 1647.9291943465034,694.6586493500879 1666.8336404427791,710.619074196325 1684.3461785036516,728.3419871694173 1699.9776276998018,747.8215352618171 1713.2450774673612,768.9406874582573 1723.711098716471,791.4736386321329 1731.0200095596751,815.0987461050119 1734.9277166203296,839.4207352251797" fill="none" stroke="#17353b" stroke-width="0.99" opacity="0.6142857142857143"></polygon><polygon points="1701.9238696089826,864 1697.69215164412,885.9104142671679 1690.7028972291082,907.0857937722935 1681.3025520587335,927.254022902599 1669.8977449855804,946.2324463412633 1656.9206110923826,963.9360573821123 1642.792878969849,980.3759477454075 1627.8921447958319,995.6482054391454 1612.5235307319524,1009.9143910470659 1596.8993891280509,1023.3755561891802 1581.1289196376865,1036.24240895575 1565.218591424633,1048.7046168432141 1549.0832026278672,1060.9023300971792 1532.5663678767646,1072.9027980935086 1515.4683037618681,1084.6844588045915 1497.5780717819737,1096.1301545008446 1478.7070077697886,1107.0302365876976 1458.7199580775825,1117.0953558587646 1437.5611662805736,1125.977785952339 1415.2721876853109,1133.299290192865 1392,1138.682897232551 1367.9944493992741,1141.785562100156 1343.5952265584363,1142.328594523981 1319.2096034383167,1140.122945093244 1295.2830769525901,1135.0869316659323 1272.2657702742088,1127.2547154553454 1250.5778672182894,1116.7747274808 1230.5774580909942,1103.8982145552905 1212.5339463623582,1088.959025175414 1196.6096267875737,1072.346596760985 1182.8512498070713,1054.4747546399888 1171.1924120503666,1035.7493267794543 1161.4665539904263,1016.5376783095131 1153.4293069288778,997.1430668891919 1146.78801431784,977.7862340809344 1141.235546851435,958.595926968136 1136.4851060241942,939.6091590788162 1132.3026087328988,920.781057125343 1128.5334762192779,902.0031945281482 1125.1211918806712,883.1284768469618 1122.1157915015021,864 1119.6714283402816,844.480912611728 1118.0332186994747,824.4822171158265 1117.514617303433,803.9856497636688 1118.4674941008916,783.059267231165 1121.247794944176,761.8640892106478 1126.1800985989648,740.6510313921023 1133.5244897844395,719.7483247299413 1143.4489420671239,699.5405604925555 1156.009867632034,680.441333664504 1171.1426958211475,662.8620979799738 1188.6633666916548,647.1802311950561 1208.2805651562478,633.7094011345674 1229.6174792548932,622.675112279562 1252.2409446288268,614.1978195382509 1275.6951263387969,608.2852683658707 1299.5364581587003,604.834829531999 1323.3664503171885,603.6456295637588 1346.8591997558253,604.4393287199944 1369.7809701812985,606.8875600411551 1392,610.6433975275243 1413.4856669032865,615.373831948446 1434.2971930831843,620.7901372916365 1454.5631111987104,626.6732187982382 1474.4536265636784,632.8915246102338 1494.1487157173856,639.4098293203716 1513.8052263513307,646.2880882144595 1533.5263467128655,653.6705287413439 1553.3365838339773,661.766096212802 1573.1648515205516,670.8222111128268 1592.83747362361,681.0944436642122 1612.0819335463832,692.8151042547779 1630.541142655255,706.1638477550025 1647.7969619402702,721.2431861799876 1663.4007946887239,738.0613177276289 1676.9083629996417,756.5239587966714 1687.9153569088828,776.4359799687178 1696.0905434881993,797.5126839864128 1701.2031547489112,819.3996178716811 1703.1419151845098,841.6989751915219" fill="none" stroke="#17353b" stroke-width="0.99" opacity="0.575"></polygon><polygon points="1668.811065461988,864 1663.961388101444,883.4927695916568 1656.9285741802903,902.2140850236367 1648.0731016934708,919.9886310161894 1637.7793257951553,936.7283167457537 1626.4229249093337,952.431408861775 1614.3402111176176,967.1729963666054 1601.8022175431893,981.0877710261173 1588.996001176682,994.346867996331 1576.014888579837,1007.1311012653799 1562.8585137744712,1019.6032893303219 1549.4425383094533,1031.8824626969874 1535.616996832001,1044.022566669795 1521.1913700267896,1055.99783771742 1505.96383274564,1067.6963818768834 1489.7517223699733,1078.9226826506583 1472.4201601414372,1089.4088919489152 1453.9059471194414,1098.833896294567 1434.234327830236,1106.8483860139488 1413.52692215081,1113.1035623139658 1392,1117.2807540674976 1369.9532281662787,1119.119118415012 1347.7499603715623,1118.438776627721 1325.790978025311,1115.1571718654156 1304.4842379762429,1109.2970860931623 1284.21358121485,1100.9855560287053 1265.3094638353161,1090.4438042583809 1248.0245779990632,1077.969166074334 1232.5167550178567,1063.910760814042 1218.8408315069157,1048.6412536111666 1206.9502824608894,1032.5274213302614 1196.7084679749287,1015.9023393285064 1187.908396940998,999.0418337640866 1180.2990738606925,982.147414532039 1173.6158460336037,965.3372588361003 1167.6117715058429,948.6460182399428 1162.086922354987,932.0333509779982 1156.9127337320422,915.4002217360456 1152.0489876503736,898.6112472609174 1147.551735210333,881.5207728416503 1143.5713420672912,864 1140.3408034840772,845.9623852946488 1138.1554233659328,827.3847037289307 1137.3457936664718,808.3216007427617 1138.2466642435647,788.9121018682955 1141.1646948030836,769.3773454988855 1146.348190810049,750.0096736905698 1153.961733462637,731.1540731353658 1164.0681388295757,713.1837192497487 1176.6194695403995,696.4719659712239 1191.4579436135343,681.3634843623261 1208.3266250452818,668.1473489289283 1226.88883350242,657.0346920322518 1246.7543684212585,648.14311114406 1267.5099882386203,641.4893633824906 1288.7511822068002,636.9910802324666 1310.1121594916792,634.4773608930026 1331.2911687799913,633.7072407699786 1352.0687326831076,634.3942665223021 1372.3170884129186,636.234815608864 1392,638.9374345473274 1411.1630619041698,642.2503717099102 1429.9155555186908,645.9846571360742 1448.405756364761,650.0305163408273 1466.7922386260009,654.3655550372496 1485.214121378023,659.0539536105134 1503.763308342336,664.2367857639881 1522.4615796045946,670.114439500974 1541.2449183474373,676.9228861764988 1559.956744771087,684.9061398431074 1578.3508526218259,694.2876163622657 1596.1038870143661,705.2432040343502 1612.8362592881044,717.8786850175042 1628.1395579412447,732.2137166412873 1641.6078663411722,748.1739361600645 1652.870001612093,765.591954877053 1661.6195839065776,784.21713610054 1667.6400417590412,803.7331914626179 1670.8221384647309,823.7818659662113 1671.1723198276998,843.9903885446422" fill="none" stroke="#17353b" stroke-width="0.99" opacity="0.5357142857142857"></polygon><polygon points="1636.0162488357573,864 1631.0703076046357,881.1353090042525 1624.4915042560563,897.5352656405724 1616.6178783132696,913.111161716528 1607.7802665916674,927.8513248638397 1598.274630991221,941.8130220755988 1588.338587559544,955.1074082330049 1578.1343513900854,967.8790560503522 1567.7396809861584,980.2821420860981 1557.1476214719587,992.4556978789467 1546.2749851774336,1004.5004329294484 1534.9786548370373,1016.4594874097193 1523.0780323199533,1028.3050915475376 1510.381358912998,1039.9325327429551 1496.7132599493393,1051.1621168956342 1481.9407533428289,1061.749027018676 1465.9951192095598,1071.4002066312805 1448.8874405723736,1079.7967035713236 1430.7162525035724,1086.6193695042061 1411.66651732016,1091.575474489131 1392,1094.423697484377 1372.037966777562,1094.9951024072425 1352.1378876250853,1093.2080909222936 1332.6664156860413,1089.0759003603605 1313.9712855774617,1082.7059317868748 1296.3548816018535,1074.29097933198 1280.0520655523683,1064.0932107686199 1265.2144377142151,1052.4224449946635 1251.9025745901088,1039.6108167031318 1240.0870045215,1025.986259053317 1229.6578243966092,1011.8473384959452 1220.4420111239028,997.4418321703138 1212.226723800863,982.9510617577478 1204.7863008630763,968.481425383333 1197.910289061789,954.0638572787468 1191.4297340640965,939.6611632559092 1185.2391264982705,925.1824051921901 1179.3118165479411,910.5028155868374 1173.7073439182025,895.4871815747156 1168.5699163432437,880.0142995701332 1164.118132016157,864 1160.6268951911554,847.4163862258905 1158.4032363245346,830.3053084554565 1157.7583440255812,812.7846651669338 1158.9784875629748,795.046835162941 1162.2976194309722,777.349323064376 1167.8742867210756,759.9984733055917 1175.7750635066348,743.3277966708806 1185.9660848655674,727.6729914395136 1198.3134782869145,713.3460753800521 1212.5926267451325,700.6111422143172 1228.5053438578586,689.6641070090539 1245.7032786688014,680.6184236519995 1263.8152701825973,673.4981812776698 1282.475998068258,668.2392714891719 1301.353162271682,664.6985343477351 1320.170581498769,662.6700150158641 1338.7250129885053,661.9067705593218 1356.8951230454059,662.1461254951417 1374.6418177988212,663.1359381839974 1392,664.6593410950982 1409.0626662989007,666.5555661021087 1425.9590170832519,668.7348469132295 1442.8288432699094,671.1859673483586 1459.7958232882522,673.9757401714583 1476.9424726730003,677.2404866610389 1494.2893274334497,681.1703653621576 1511.7805264446156,685.988093529378 1529.2773282412606,691.9241488075936 1546.5603155006786,699.1908786526516 1563.3401828289102,707.958047780814 1579.2761543089473,718.3322096714189 1594.0003199214539,730.3419111111631 1607.1455887465268,743.9301660038611 1618.3745899002574,758.9549223513334 1627.4067456243454,775.197464244686 1634.0409055269631,792.3779154912914 1638.1713508356295,810.1763190372432 1639.795611849724,828.2572243895995 1639.0133287567237,846.2953767917711" fill="none" stroke="#17353b" stroke-width="0.99" opacity="0.49642857142857144"></polygon><polygon points="1603.5920856570046,864 1599.018281547276,878.8379874497352 1593.302345153861,893.0364486238171 1586.730888702542,906.5765759969285 1579.5599995067503,919.5006935950722 1571.994279655091,931.8992796592577 1564.1715144054763,943.8931103865523 1556.154400959216,955.6123439376204 1547.9300781735599,967.1746695107657 1539.4174355005323,978.6647429007073 1530.4814205201258,990.1170079736859 1520.9528830182437,1001.5036747084724 1510.6519561853856,1012.7291209540576 1499.4126346029182,1023.6313560496739 1487.1060974161294,1033.9904914687693 1473.6604541551874,1043.543474508589 1459.0749472158204,1052.0037232313307 1443.4271939435391,1059.0838149032206 1426.8727386464896,1064.519073731378 1409.6369432202514,1068.0898068806582 1392,1069.6400601874907 1374.2765279151324,1069.0910948617234 1356.791746571015,1066.4482916827164 1339.8565601995842,1061.8008205077172 1323.743991421963,1055.3141087430315 1308.6692728483713,1047.215834897242 1294.7755456176951,1037.7767948874753 1282.1265632194438,1027.2884787898292 1270.7071103231,1016.0395064657586 1260.4310873676395,1004.2931717454355 1251.1564567554415,992.2682268834371 1242.705569694863,980.1247135342027 1234.8888604642236,967.9561455232575 1227.5295594153688,955.7887213645566 1220.4869704314015,943.5875522810654 1213.6759933413502,931.2692022284083 1207.0809339847642,918.7192175825804 1200.762198957388,905.8128362882061 1194.8551644823651,892.4367570759465 1189.5612717360618,878.5097490273328 1185.132159791861,864 1181.8483279796346,848.9374275128116 1179.9943553705532,833.4196756449259 1179.8330438994344,817.6111472060734 1181.5809602043187,801.735110444756 1185.3877189720945,786.0596061306323 1191.3209903482525,770.8784965635346 1199.3586609939587,756.4894824476263 1209.388886683778,743.1712190099518 1221.2180115081305,731.1617591501172 1234.5855692860625,720.6404291712356 1249.1849008607328,711.7149135725351 1264.6873830864527,704.4148215615779 1280.7679239472382,698.6923785813146 1297.1292665516391,694.4301927737979 1313.5227734178732,691.4553567437172 1329.7637186586105,689.5585267237591 1345.7396642908354,688.5161348146764 1361.4111840030012,688.1135830358655 1376.8049558385312,688.167170595842 1392,688.5426277031636 1407.1085152968524,689.1684585769073 1422.2533012145034,690.0428009872039 1437.5440898522877,691.2331404191732 1453.055219979173,692.8689122354599 1468.8069535856855,695.1277171323704 1484.7523764821854,698.2164961925038 1500.7712738751238,702.34950132147 1516.6716834220329,707.7252070732787 1532.1990695251504,714.5044106094981 1547.0523079895045,722.791648080987 1560.9049936872648,732.6217297836124 1573.4300519540054,743.9526950224435 1584.3252993806261,756.6658598745624 1593.337494488625,770.5729384580476 1600.2825540243468,785.4295286997828 1605.0599732871958,800.9536344322642 1607.6600437604952,816.847407497351 1608.163154265673,832.8199840970552 1606.731225303703,848.609189090409" fill="none" stroke="#17353b" stroke-width="0.99" opacity="0.45714285714285713"></polygon><polygon points="1571.4128483566885,864 1567.5822854667135,876.5848197013265 1563.014268778516,888.6676064579955 1557.9249783281166,900.2783608529978 1552.4860996185726,911.4892827075214 1546.8113447393848,922.399515868103 1540.949074216709,933.1171525641863 1534.8816898366877,943.7403324870904 1528.5318078083887,954.3393643698337 1521.774560755202,964.9417006443157 1514.4547806991434,975.5213181367197 1506.4073416506637,985.9936268378608 1497.4786358260876,996.2164866910089 1487.547051527253,1005.9973121246675 1476.5404235306492,1015.1056444895795 1464.4487282060663,1023.290032371431 1451.3307658465335,1030.297631892637 1437.3141656495459,1035.8946655688667 1422.588706255691,1039.885785949014 1407.3936022401626,1042.1304883254998 1392,1042.5549958211134 1376.6903969524092,1041.1584730065174 1361.7369997494718,1038.0129686998132 1347.3811407540136,1033.2570916448076 1333.8157671773733,1027.0840255276762 1321.1727143460514,1019.725033467922 1309.516003252787,1011.4300336814068 1298.8418090791674,1002.4471053968813 1289.0850899538164,993.0028803260482 1280.1322083168964,983.2856807689396 1271.8382853486705,973.4329901288894 1264.0475600913749,963.5244122638921 1256.614725215518,953.580734814777 1249.425110367767,943.5691114556322 1242.411691755852,933.4137776760311 1235.5672127084974,923.0111729802547 1228.9501746015233,912.2479122625781 1222.684054457449,901.0197726252668 1216.9497664125101,889.2497660186988 1211.9720445265777,876.9034620708418 1208.0010195476839,864 1205.2907340433608,850.6176565455587 1204.0766426295058,836.8933763422731 1204.5542472775307,823.0162691226628 1206.8609117310298,809.2156758503438 1211.06259423025,795.744944679783 1217.1467637806597,782.8624845930187 1225.0221683927566,770.8119377258645 1234.5254623450248,759.803403876779 1245.4340381592176,749.9975533056434 1257.4838121848913,741.4941860969546 1270.3902386905527,734.3263651879465 1283.870522343518,728.460707786874 1297.6648925737497,723.8038193810876 1311.5549057583867,720.2142546281775 1325.3770421953618,717.5188488720403 1339.030334787672,715.5318357807678 1352.4773590436878,714.0748926477974 1365.7385712266623,712.996162134737 1378.8806387750058,712.1863968506605 1392,711.5906517271984 1405.2033604175658,711.2143815316782 1418.5871347785005,711.1233448855362 1432.2179473598715,711.4373187237384 1446.1161982362348,712.318229415807 1460.2444003567557,713.9538499685312 1474.5015210250497,716.5386438200047 1488.7239680326704,720.2536126533014 1502.6932034363863,725.2471014219132 1516.1493112770072,731.6184191190254 1528.8092538629223,739.4058580891243 1540.388082687359,748.5802649252197 1550.621070678882,759.0447743217222 1559.2846318116979,770.6407166944061 1566.2140021919013,783.1591097048633 1571.3159632176323,796.3566017919346 1574.5753624890658,809.9743054054006 1576.054785508035,823.7576808949318 1575.88739256152,837.4755359029763 1574.2635959499305,850.936298915074" fill="none" stroke="#17353b" stroke-width="0.99" opacity="0.41785714285714287"></polygon><polygon points="1538.9036215796857,864 1536.0565708536865,874.325221397854 1532.7762768443552,884.3059886208433 1529.2010866648227,893.9980785388864 1525.4208226502114,903.4804234196288 1521.4704458588703,912.8401632975539 1517.3293892167626,922.1568603955749 1512.9265916155896,931.4874900554386 1508.1507090103125,940.8537485259346 1502.86447508655,950.2329919758728 1496.921781529828,959.5537653218075 1490.185785586381,968.6964286975692 1482.5462559922219,977.4988877752946 1473.9344467745811,985.7669308099335 1464.3340340792697,993.2882195476188 1453.7870398702787,999.8486177021325 1442.3941599151822,1005.2493052388822 1430.3094634922475,1009.3230423804257 1417.7299848049593,1011.9480224514059 1404.8812270123165,1013.0579802009547 1392,1012.6475799643996 1379.3162733308109,1010.7725611017192 1367.0358207439847,1007.5446223947249 1355.3253528563048,1003.1215333054436 1344.3015882068585,997.6934188032689 1334.025323684653,991.4665310994601 1324.5010718653214,984.6460603364346 1315.6822832796745,977.4196238246768 1307.4816200588782,969.9430013396811 1299.7852478798427,962.3294594278954 1292.4697147142533,954.643652670948 1285.4197267182549,946.9006392130211 1278.545039111728,939.0700456968614 1271.7947622902773,931.0849122278636 1265.167632767706,922.8542904490773 1258.717190586198,914.2783019966008 1252.5513012986885,905.264126248702 1246.8260130265026,895.7412986215861 1241.7342934335602,885.6747721707022 1237.4906935321578,875.0744188054406 1234.3133859321517,864 1232.4052852508016,852.5610857321706 1231.9360524361603,840.9119004231649 1233.0267034743206,829.2415767929504 1235.7382942377478,817.7607534924206 1240.0657613413239,806.6858154588577 1245.9375020507373,796.2223114997191 1253.2207230324245,786.5491684738531 1261.7320320507874,777.8052472080527 1271.2522428366462,770.0795591514477 1281.5439604202481,763.4061068112975 1292.370251504659,757.7638600414066 1303.5126074863124,753.0818784014415 1314.786485822252,749.2490862074081 1326.0529607818594,746.1277508785603 1337.2254030277888,743.5693514450813 1348.2706007794243,741.4312882918172 1359.204285104553,739.5928005462184 1370.0815742349594,737.9685323653714 1380.9833525558797,736.518416526899 1392,735.2529010711097 1403.2141477872474,734.2329974276633 1414.6842313139846,733.5651323086904 1426.4305312439992,733.3912914712363 1438.4251473426164,733.8754018562038 1450.5869605271428,735.1872648424089 1462.7821451627315,737.485591667376 1474.8302442320037,740.9017792221515 1486.515268564788,745.5259919658281 1497.6007819615645,751.3968907717327 1507.847535823833,758.4959941604377 1517.0319589681587,766.7472063885959 1524.9637160712532,776.0215443789793 1531.5006308734423,786.146590646278 1536.559519933731,796.9197415532216 1540.1218751037445,808.1239541579046 1542.233829711152,819.544456321494 1543.000396217005,830.98479687565 1542.574517841755,842.2806839730238 1541.1419791350427,853.3102831397571" fill="none" stroke="#17353b" stroke-width="0.99" opacity="0.37857142857142856"></polygon><polygon points="1504.4377798689468,864 1502.6633708603524,871.9317715116688 1500.6598049177594,879.6734132459161 1498.4926473751543,887.2838884693242 1496.1845625033443,894.8291506506783 1493.714674660771,902.3698479389245 1491.02239557756,909.9495707401828 1488.015325677846,917.5848505302448 1484.5804412355017,925.2579467638169 1480.5974603590155,932.9131850600226 1475.9530704051624,940.4572605475587 1470.5546179102685,947.7635295556265 1464.341917371656,954.6799190230521 1457.2960216996332,961.0397246757244 1449.4440965437368,966.6742813420623 1440.859923588223,971.4262999882721 1431.6599867630741,975.1625947430429 1421.995528097139,977.7849764397217 1412.0413542512101,979.2382619418853 1401.982491996685,979.5146239543286 1392,978.6538573242049 1382.2573247882021,976.7395307478054 1372.8885328653816,973.8913889823538 1363.9895641532487,970.2547314575514 1355.613352600579,965.9877833818597 1347.7692773341053,961.2482667359266 1340.4269796471215,956.1804523000842 1333.5241494548184,950.9039229248342 1326.9774919588983,945.5051076618689 1320.6957697379235,940.0323728621676 1314.5936083221438,934.4951067066189 1308.6046749201837,928.8668420864201 1302.6928981281517,923.0920676018403 1296.8605855825176,917.0960163401509 1291.152598198483,910.7964322213646 1285.6561244169009,904.1161223684584 1280.4960281661015,896.9950298126549 1275.826177959643,889.40061104795 1271.8175592714413,881.3354724855911 1268.6442894273694,872.841492025002 1266.4688626764405,864 1265.4280324214394,854.9279834979691 1265.620679982671,845.7706712259545 1267.0988303075555,836.6912141214594 1269.8626731317092,827.8584646360365 1273.860062692741,819.4340468067988 1278.9905378049953,811.5599812835053 1285.113469011662,804.3480772858743 1292.0595430937592,797.8721320938532 1299.6444760984539,792.1637048719879 1307.683635346721,787.211882190764 1316.0061690763482,782.9670617469008 1324.4672973418922,779.3483867868225 1332.95760401954,776.2541052118783 1341.408468905032,773.573839442048 1349.7931615607906,771.2015640888163 1358.1235472175852,769.0480169224468 1366.4427876367386,767.0513216103014 1374.8148139939974,765.1847731617155 1383.3116659424265,763.4610121617471 1392,761.9321648810294 1400.9281508424604,760.6859189552239 1410.1150731225944,759.837900202184 1419.542304613649,759.5210766281311 1429.149792146068,759.8732055612635 1438.8360393615374,761.0235308364707 1448.4626072858262,763.08001040007 1457.8625671349116,766.1183034609882 1466.8521119886623,770.1735754256393 1475.244218571844,775.2359050534419 1482.8630433805852,781.2497283498242 1489.5576591807453,788.1173618983854 1495.213796269894,795.7062529318766 1499.7624422487015,803.8592430957804 1503.1844559710478,812.406842764687 1505.5107363849309,821.1803212363326 1506.8179175377365,830.0243437980131 1507.2199950272418,838.8079367000853 1506.8566842065297,847.4327304656296 1505.8796278662824,855.8377040113023" fill="none" stroke="#17353b" stroke-width="0.99" opacity="0.33928571428571425"></polygon><polygon points="1462.791388110613,864 1462.0247201046457,869.0190056178525 1461.1527247412212,873.9747945688894 1460.1867806689186,878.9085728950315 1459.110343698439,883.8585553021021 1457.8813283414222,888.8524272324067 1456.4371123931733,893.9008889548032 1454.7016698143213,898.9929511906287 1452.594130585023,904.0934795302502 1450.03792821812,909.1432633801068 1446.969639662205,914.0616361209367 1443.3466538135913,918.7514209694227 1439.1529206458238,923.1057464498306 1434.4022216701744,927.0160890266898 1429.1386455455554,930.3807766304444 1423.434226331637,933.113137717138 1417.3839793134014,935.1485110229194 1411.0988233515063,936.449438397614 1404.697084466708,937.0085366154531 1398.2954127216196,936.8487669628674 1392,936.0210719542624 1385.8989546034818,934.5996022777801 1380.0565728370682,932.6749892564102 1374.5100593251968,930.3463060616834 1369.2690051995976,927.7124862950277 1364.317660347412,924.8640191286132 1359.6197593977074,921.8757110574828 1355.1254082021433,918.8011983341681 1350.779333068496,915.669721721939 1346.5296590299465,912.4854531925821 1342.3363293637929,909.2294143294029 1338.1783117732136,905.8637729116119 1334.0588539279759,902.3380722120984 1330.0082409985655,898.5967595979866 1326.083751864885,894.5872554278851 1322.3667849795288,890.2677522269496 1318.957402587241,885.6139626202539 1315.9667959691737,880.6241396589805 1313.5083797276839,875.3218646195864 1311.6883597353815,869.7563182411111 1310.596673837391,864 1310.2991713431102,858.1441120021709 1310.8317799533515,852.2920546729359 1312.1972184661186,846.5516680205073 1314.3645689432124,841.0269765273216 1317.2717468679891,835.8102454834615 1320.830629028748,830.9751269204909 1324.9343436225774,826.5715671188299 1329.4660202839473,822.6229753363217 1334.30815955197,819.1259318140959 1339.3517251388607,816.0524639657482 1344.5040936626772,813.3546673627503 1349.6951121191573,810.9712174256365 1354.8807019050619,808.8351312449229 1360.0436911549377,806.8820149949858 1365.1918306857365,805.0579831609758 1370.3532261489365,803.3264661565522 1375.5696729010485,801.6732299629213 1380.8885857574257,800.1091047550717 1386.354353065185,798.6701421978976 1392,797.4151714554354 1397.8400142599164,796.4209775128103 1403.8650715463505,795.775557396029 1410.0392097756546,795.5700976269907 1416.2997583640624,795.8904414286606 1422.5600559933125,796.808864572451 1428.7147137883248,798.3769494220242 1434.6469279672556,800.6202405524012 1440.2371415951627,803.535192697745 1445.3722191808604,807.0886995859097 1449.9542438871372,811.2202421742144 1453.9080804393636,815.8464413456011 1457.1869642290517,820.8675680181699 1459.7755671903094,826.1753755261878 1461.6902352293102,831.6614933935728 1462.9763664529619,837.2255704780042 1463.7031773424678,842.7823838454734 1463.9563581719735,848.2672347844564 1463.8293245155535,853.6391247236329 1463.4139084969172,858.8814246254295" fill="none" stroke="#17353b" stroke-width="0.99" opacity="0.3"></polygon><circle cx="1392" cy="864" r="2.5" fill="#17353b"></circle><g opacity="0.55"><line x1="1748.4" y1="864" x2="1910.4" y2="864" stroke="#17353b" stroke-width="0.9"></line><polygon points="1910.4,864 1904.4,861 1904.4,867" fill="#17353b"></polygon></g><g opacity="0.55"><line x1="1570.2" y1="1172.6514539087739" x2="1651.2" y2="1312.947569321853" stroke="#17353b" stroke-width="0.9"></line><polygon points="1651.2,1312.947569321853 1650.7980762113534,1306.2514168991465 1645.6019237886467,1309.2514168991465" fill="#17353b"></polygon></g><g opacity="0.55"><line x1="1213.8000000000002" y1="1172.6514539087739" x2="1132.8000000000002" y2="1312.947569321853" stroke="#17353b" stroke-width="0.9"></line><polygon points="1132.8000000000002,1312.947569321853 1138.3980762113536,1309.2514168991465 1133.2019237886468,1306.2514168991465" fill="#17353b"></polygon></g><g opacity="0.55"><line x1="1035.6" y1="864" x2="873.6" y2="864.0000000000001" stroke="#17353b" stroke-width="0.9"></line><polygon points="873.6,864.0000000000001 879.6,867.0000000000001 879.6,861.0000000000001" fill="#17353b"></polygon></g><g opacity="0.55"><line x1="1213.7999999999997" y1="555.3485460912261" x2="1132.7999999999997" y2="415.0524306781472" stroke="#17353b" stroke-width="0.9"></line><polygon points="1132.7999999999997,415.0524306781472 1133.2019237886464,421.7485831008538 1138.398076211353,418.7485831008538" fill="#17353b"></polygon></g><g opacity="0.55"><line x1="1570.2" y1="555.348546091226" x2="1651.2" y2="415.05243067814695" stroke="#17353b" stroke-width="0.9"></line><polygon points="1651.2,415.05243067814695 1645.6019237886467,418.7485831008536 1650.7980762113534,421.7485831008536" fill="#17353b"></polygon></g><text x="1392" y="882" font-family="&#39;Fraunces&#39;, serif" font-style="italic" font-size="84.0" fill="#17353b" text-anchor="middle" opacity="0.8">L</text></g>
<g font-family="&#39;JetBrains Mono&#39;, &#39;Courier New&#39;, monospace" fill="#17353b">
    <text x="146" y="160" font-size="35.28" letter-spacing="2.5">PLATE VIII · 2024</text>
    <text x="2254" y="160" font-size="35.28" letter-spacing="2.5" text-anchor="end">ACUTE</text>
    <text x="146" y="1697.04" font-size="35.28" letter-spacing="2">STRESS · EFFORT</text>
    
  </g>
<text x="1200" y="1753.8" font-family="&#39;Fraunces&#39;, &#39;Times New Roman&#39;, serif" fill="#17353b" font-size="52.08" text-anchor="middle" font-style="italic">Acute stress and effort — a pressure gradient.</text>
</svg>