<?xml version="1.0" encoding="UTF-8"?>
<svg xmlns="http://www.w3.org/2000/svg" xmlns:xlink="http://www.w3.org/1999/xlink" viewBox="0 0 2400 1800" preserveAspectRatio="xMidYMid meet" style="background:#f7f3ec">
<defs>
    <pattern id="ap-grid-p1" width="24" height="24" patternUnits="userSpaceOnUse">
      <path d="M24 0H0v24" fill="none" stroke="#17353b" stroke-width="0.63" opacity="0.07"></path>
    </pattern>
    <clipPath id="ap-clip-p1">
      <rect x="142" y="142" width="2116" height="1516"></rect>
    </clipPath>
  </defs>
<rect x="0" y="0" width="2400" height="1800" fill="#f7f3ec"></rect>

    <rect x="132" y="132" width="2136" height="1536" fill="none" stroke="#17353b" stroke-width="1.8"></rect>
    <rect x="138" y="138" width="2124" height="1524" fill="none" stroke="#17353b" stroke-width="0.72"></rect>
    <rect x="142" y="142" width="2116" height="1516" fill="url(#ap-grid-p1)"></rect>
<g clip-path="url(#ap-clip-p1)"><polygon points="1005.2285473528616,1116 1010.7627082565964,1146.8582841378925 1012.7984171493856,1178.4089896185571 1010.9578500823809,1210.1776029237371 1005.0050524202445,1241.6125677594882 994.8690155389527,1272.125551524549 980.652439784999,1301.1361006879388 962.6253693634671,1328.1163343206726 941.204343704236,1352.6313088757727 916.9191044229694,1374.3711002173998 890.3700911622104,1393.1714506548374 862.1808369247339,1409.0209410128768 832.9498485824284,1422.0539617851086 803.206585024947,1432.5301445809741 773.3757217437187,1440.8022395804073 743.7530584447916,1447.2755568150267 714.495267426889,1452.3629178422045 685.6243087653837,1456.4395084503033 657.0458884129672,1459.8020387200208 628.5799493722095,1462.63620225131 600,1464.995621909599 571.0772135260372,1466.7943534570707 541.6247642514817,1467.8136998027778 511.5378445252785,1467.722696048717 480.82523450954466,1466.1102949877554 449.62913192861424,1462.5261441254024 418.23110950291704,1456.5260097879727 387.0434397464446,1447.7174529469578 356.5864756468586,1435.8013389306593 327.4541592701138,1420.605171211439 300.2709127106568,1402.1050378671005 275.6440308768014,1380.4340698773217 254.1161582321978,1355.8766243944497 236.12244606555936,1328.8487949357534 221.95655126121864,1299.8671782312765 211.74879408764144,1269.5089644103987 205.45862335046849,1238.3672522408112 202.88215642653904,1207.0059427712479 203.67410402044487,1175.9185890744404 207.3819973505383,1145.4951748050132 213.48944490140394,1116 221.46427322842948,1087.562747108572 230.80693686482158,1060.1834922634685 241.0945620559291,1033.7510447480417 252.01641982810975,1008.0726771621232 263.3974636951943,982.9121795909416 275.20773404570764,958.0323440292651 287.5568109236948,933.2375416903099 300.673954709839,908.4120393408102 314.8759677200671,883.5501132924177 330.5260028882341,858.7748209387689 347.98742205094334,834.3434014328337 367.5772804981821,810.6385904722754 389.5240403645666,788.146520615737 413.93369095844116,767.423202283811 440.7676211810121,749.0527118732574 469.834429658221,733.6010412769849 500.7964859146553,721.5700062432356 533.1906054695409,713.3556257211189 566.4608153414927,709.2149688153324 599.9999999999999,709.2446604786624 633.1963475567538,713.373120021093 665.480047194908,721.3672868038758 696.3656673760066,732.8531938416493 725.4860722782125,747.3484184225355 752.6145691923936,764.303299183633 777.6731402881944,783.1469724913763 800.7259844068249,803.3338289817207 821.9590437311048,824.3859676178258 841.6475741439043,845.9276316313956 860.1150009846331,867.7084081510319 877.6871675797038,889.6130829523397 894.6465472265945,911.6573548594872 911.1910045053314,933.9700023053902 927.40125700051,956.7634215726025 943.2203459313998,980.295592476791 958.4472559426033,1004.8273616434462 972.7454444529908,1030.5793845955525 985.6655843050087,1057.6930917193515 996.6804323787053,1086.1996377756925" fill="none" stroke="#17353b" stroke-width="0.99" opacity="0.788888888888889"></polygon><polygon points="944.1187991518927,1116 947.707580414125,1142.1213082337931 948.028910405208,1168.6168021825922 944.8741793701736,1195.0334666118754 938.1723261924856,1220.8843563417088 927.9976092818106,1245.6855555454556 914.5647822795017,1268.9933638094403 898.2121598687038,1290.438071754978 879.3742240777935,1309.7510161564246 858.5464246187544,1326.7822572187636 836.2455701994003,1341.5071351903366 812.9696190146356,1354.021050290328 789.1607158885035,1364.5229626208516 765.1749873375752,1373.2892144056486 741.2619274206073,1380.6402272025177 717.5552533600386,1386.9033284904644 694.0759742262784,1392.3753463417615 670.7472098777705,1397.2886399003062 647.4191391024473,1401.7839039993603 623.9014590256954,1405.8924304249692 600,1409.5295899686962 575.5537336214596,1412.5002081116718 550.4683759909042,1414.5153494703004 524.7431272368907,1415.2189150534532 498.48776832195676,1414.2215004275506 471.9282904983777,1411.1382553971637 445.40036780031267,1405.6270958340508 419.33118726419275,1397.423583834733 394.21130695116096,1386.3691167066406 370.5592048599293,1372.4297165547102 348.88191489707015,1355.7036266891605 329.63554708128345,1336.4170092158738 313.1895184704416,1314.9081935676056 299.79797567993876,1291.6020354179668 289.5812027910076,1266.976900944003 282.5188468597732,1241.5274994545075 278.45565096785,1215.7271789305278 277.1191733647547,1189.9933359989268 278.1478091135408,1164.6592709789243 281.1264313641172,1139.9551716532237 285.6262306551665,1116 291.2449247452896,1092.8049736509322 297.6434781324464,1070.2881846189189 304.57581295855033,1048.2987946922533 311.90867799174134,1026.648298112752 319.6298029368987,1005.1456408961895 327.84360761936296,983.6326013013161 336.75494803970673,962.0158053809407 346.6425454943329,940.2920784001562 357.82474723055685,918.5644852890953 370.621009654418,897.047327397399 385.3129055645068,876.0594491470486 402.1084953819367,856.0063603366391 421.113565421917,837.3527849325153 442.31255717400074,820.5881968451125 465.56105706080723,806.1886042521396 490.5905798911808,794.5782276046873 517.0251726286426,786.0947446892112 544.4082064166943,780.9614459208151 572.2367275579364,779.2689863774444 599.9999999999999,780.9685018581848 627.2184650892185,785.8767640641471 653.4793086766571,793.692891391755 678.4651644860184,804.0250198423581 701.9731626570542,816.4243816904765 723.9224867976089,830.4235311588387 744.349738046919,845.5750654766455 763.3926091798509,861.4871543615998 781.2635274577277,877.8525144224282 798.215918310058,894.4681154114306 814.5064754420523,911.2438188962227 830.3572244694809,928.1992372862054 845.9211970539022,945.4492558113373 861.2551875089356,963.1797690439292 876.3023774511464,981.6161384358786 890.886653204685,1000.987584805241 904.7192991685943,1021.4911207015708 917.4175397763781,1043.2586640793045 928.5332413863025,1066.3306534152507 937.5890870329526,1090.6388370703628" fill="none" stroke="#17353b" stroke-width="0.99" opacity="0.7277777777777779"></polygon><polygon points="900.8374273817709,1116 902.6977111508425,1138.7399707685913 901.5364371338153,1161.5878307495807 897.2825195960722,1184.1270721098883 889.9903408155321,1205.940683746066 879.8360000770335,1226.6431452688664 867.103100920621,1245.909653578029 852.1594563792352,1263.4997175331262 835.426962789785,1279.272805219282 817.3475435426785,1293.1945053830618 798.3484314832348,1305.3325936885421 778.8101069626268,1315.843384510377 759.0399333390562,1324.949703022599 739.2539602744192,1332.9126368307593 719.568553648968,1339.9998404504515 700.0025389800127,1346.4535092465046 680.4895081946934,1352.461178182225 660.8989391121238,1358.1322308514577 641.0639110522181,1363.482451940586 620.81255340129,1368.428175299388 600,1372.7906463794363 578.5375764345681,1376.3102230497484 556.4162240710281,1378.6690798646764 533.7217367208724,1379.5202513986092 510.64019696522234,1378.5202312905697 487.452969754892,1375.3619956033476 464.5216456686519,1369.805275957469 442.2643235700315,1361.7011738070703 421.1254844180495,1351.0087561309435 401.5423499630147,1337.8020510085403 383.91097883659654,1322.2667929287034 368.555392695194,1304.687261178543 355.70274237013064,1285.4245131821285 345.4669458143636,1264.8881445665938 337.8424123589492,1243.5043280138552 332.70849118806194,1221.6832331453872 329.8442414273622,1199.7889757832195 328.95211853288214,1178.1149827141965 329.6883048259171,1156.8671135281727 331.6967658497856,1136.1561078162695 334.64375197856657,1116 338.2494218913199,1096.3361562523112 342.3135454193623,1077.041635334212 346.7328205145905,1057.95975120463 351.5081563382116,1038.9301008391906 356.74125193467376,1019.8189761406492 362.6208421821749,1000.547038007161 369.3999879271995,981.1113976359504 377.36665728098,961.5997988916102 386.81049508107446,942.1953723458982 397.989044140694,923.171360316117 411.0967294951222,904.8762018879369 426.2396409957812,887.7103204914667 443.418577524997,872.096780581089 462.5220040032964,858.4485934728439 483.3295998933087,847.1357951106158 505.52604038749047,838.4554566356916 528.7236505447104,832.6075180918613 552.4917063313557,829.67878257679 576.3895096223296,829.6366264607527 600,832.333047130923 622.9606202135283,837.518674211113 644.9884287918904,844.8654105008802 665.8970252882856,853.9955386390127 685.6036647724251,864.5145097440363 704.1259088415958,876.0442814674589 721.5681953143234,888.254028979861 738.0997063194536,900.8853175573997 753.9257767613244,913.7693735998114 769.2557274305193,926.8348683861 784.2703661791372,940.105559556278 799.0924411567979,953.6881281413793 813.7630478789355,967.7515068544567 828.2264142663992,982.4998246694179 842.3246710973953,998.1417124429868 855.8032393304214,1014.8590640171699 868.3264259046827,1032.778392876344 879.5018176143639,1051.9476618089382 888.9111965403699,1072.320918112804 896.1450551093081,1093.7522932999893" fill="none" stroke="#17353b" stroke-width="0.99" opacity="0.6666666666666667"></polygon><polygon points="863.4182080941202,1116 863.7565118410773,1135.8145382285459 861.3938522860495,1155.5188681350278 856.3691845500243,1174.7511231616443 848.8274603112459,1193.1739908724294 839.0076232358807,1210.5001900069124 827.2226682460894,1226.5131988928024 813.8336861793805,1241.0812036297007 799.2203887620565,1254.1628992049682 783.75093866626,1265.8045763937878 767.753963728643,1276.1287835591593 751.4954081139426,1285.3156813646951 735.1623886847764,1293.5789286537226 718.8555297115145,1301.1384786532153 702.5904115247794,1308.1929730852364 686.3078708800327,1314.8944673082065 669.8920206321151,1321.3279975848566 653.1940990199884,1327.4980334900279 636.0596885583792,1333.323189924442 618.3565169962809,1338.6397694160971 600,1343.2138448469889 580.9739121864158,1346.7607594929384 561.3440574848793,1348.970196714851 541.2635039324482,1349.5344265858137 520.968783735419,1348.177024437691 500.76735470735287,1344.679307273137 481.0174861233635,1338.9019529918037 462.1024854825255,1330.7997330018345 444.4017486213605,1320.427955506557 428.2614384068256,1307.9400194022435 413.96764500642496,1293.5763388575035 401.7246485731597,1277.6457322363663 391.64041560547753,1260.5010946719544 383.72076098426237,1242.5117204850058 377.8727670443707,1224.0349564795492 373.9171511767337,1205.3899193751547 371.6084023826173,1186.8357954054432 370.6607501398563,1168.5567787641157 370.777459997021,1150.6550435395886 371.68062521603804,1133.1523461104173 373.13857443574375,1116 374.9882466707138,1099.0961368229587 377.1503744904156,1082.308446478626 379.6360161970267,1065.5000478488755 382.5438199136462,1048.5558311122659 386.04830449177484,1031.4065648446938 390.38031597979295,1014.0482800823274 395.8015787574382,996.5549080471907 402.5758331365064,979.082812775934 410.93938042023274,961.8666593244752 421.0739100911487,945.2069141779148 433.0842568984726,929.4501030389418 446.9832505210262,914.9636710111522 462.68512481555143,902.1078306595433 480.00811562809105,891.207091376499 498.6859778529463,882.5242085070146 518.3872818357531,876.2390681144205 538.7405915494687,872.4345546076211 559.3630563469108,871.0907793013369 579.8896202856656,872.0882435716592 600,875.2196490821748 619.4408088970309,880.2092336485005 638.0406896963478,886.7377860917459 655.7170114029677,894.4709477034069 672.4735225317808,903.0880949672548 688.3892477344392,912.3090484719452 703.5997820200517,921.9160712830662 718.2728903784885,931.7690850081623 732.5808867851106,941.8126978639864 746.6725896222957,952.0744410764902 760.6476986439192,962.6544694762589 774.5362068191869,973.7078151670537 788.2849712310276,985.4210082429202 801.7528684062045,997.9854249024954 814.715119310667,1011.5700376690742 826.8764699208393,1026.296294212936 837.8920427802169,1042.2176356452796 847.3939184928539,1059.305703451347 855.0209377926549,1077.4446218831868 860.4488903864014,1096.4339447048299" fill="none" stroke="#c88a4a" stroke-width="2.52" opacity="0.95"></polygon><polygon points="827.8896955072714,1116 827.0012366938043,1133.053321834597 823.8065077105352,1149.8362198981438 818.4236549483346,1166.0552945776606 811.0523559890362,1181.4580188791424 801.9568580188355,1195.8508482599475 791.4437565263166,1209.1115812743838 779.8366466588798,1221.1947643176857 767.4500735875152,1232.1296179708227 754.5652656820018,1242.0106986051394 741.409949800453,1250.9822248095234 728.1441397799006,1259.2176236220175 714.853197378576,1266.896325090171 701.5487475067617,1274.1801088108734 688.1772568896375,1281.1913556855823 674.6353330049076,1287.9953771193766 660.7901418691699,1294.5885998145063 646.502843407574,1300.8938155471133 631.6526505850425,1306.7630173668465 616.1590617340717,1311.9876037040735 600,1316.3150122009606 583.2240013154984,1319.4702160327538 565.9551827356141,1321.1800385439485 548.3904383122493,1321.197963821889 530.7890797199902,1319.3270685776924 513.4558879607442,1315.438879527403 496.71919711530313,1309.486352905853 480.906126969943,1301.509740465764 466.3173696713235,1291.6347938533572 453.20398792844173,1280.0634994482607 441.7484933778674,1267.0582563211265 432.0520618900288,1252.9210405529973 424.12914800164504,1237.9695782581896 417.91004141355756,1222.5128305825876 413.25113492948196,1206.8281494441014 409.9519210155127,1191.1422876447675 407.77707696106427,1175.6180585917755 406.48150078270004,1160.3478774624477 405.83587032974833,1145.354732599427 405.6502449762527,1130.600400284892 405.7934181360878,1116 406.206141278245,1101.441361067084 406.9069359424059,1086.8071966132932 407.989931320761,1071.9978036633004 409.61494089124534,1056.9519560440494 411.9907466063919,1041.6638347839673 415.353219552969,1026.1942313679808 419.9404073478632,1010.6748242692239 425.967011931826,995.3050132156848 433.6007383113884,980.3415315838132 442.94280975769107,966.0817729505234 454.0145362337495,952.8423929500684 466.7512304922411,940.9352207824678 481.0040484083731,930.6427894685396 496.5495569876915,922.1958431201142 513.106080791976,915.7549980438622 530.3552188990726,911.3983399484333 547.9664243544349,909.1161702662478 565.6222452390084,908.813426133632 583.041769501439,910.3195580801306 600,913.4049292557397 616.3412935481309,917.8021704088108 631.9855880816482,923.230447310734 646.9268573653883,929.4203185410233 661.2240026900876,936.1368087116193 674.9851401736757,943.1985004518888 688.3468970172491,950.4908403403848 701.4508260683316,957.97242112343 714.4193365576584,965.6736895456538 727.3335914745929,973.6882687763115 740.2156334206293,982.1578044621265 753.0165892606421,991.2518735316712 765.6122096573341,1001.1449735030517 777.806280724574,1011.9928905341258 789.3416719028296,1023.9107995376984 799.9180324279562,1036.9552741687871 809.2144920588551,1051.1119957566825 816.9152244102736,1066.2903865480878 822.7354420978777,1082.3257093145762 826.4453403918119,1098.988439517379" fill="none" stroke="#17353b" stroke-width="0.99" opacity="0.5444444444444445"></polygon><polygon points="792.3219343205822,1116 790.5914499798236,1130.3180600368823 787.0035555248808,1144.2721601404835 781.7216462463015,1157.644438813862 774.964264700366,1170.2652750226905 766.986430805015,1182.0240423548175 758.0582485306268,1192.8740319411938 748.4428351039415,1202.8310733297203 738.375676205417,1211.9660038954287 728.0473633895521,1220.391744445741 717.5913324314967,1228.2462718664285 707.0777266367338,1235.6731866014397 696.5139058314483,1242.8018134668055 685.8514688718674,1249.7288250337215 674.9990189839156,1256.5032324440303 663.8393395464539,1263.1162630120814 652.2492179880577,1269.4971690306659 640.1198992790762,1275.5154341866782 627.3760930335784,1280.9892193631572 613.9916049803694,1285.6992794015162 600,1289.4070462759692 585.4991969529141,1291.8751645208922 570.649496700451,1292.8885217247293 555.6651950101864,1292.2737642569346 540.8005675952827,1289.915431316567 526.331572964105,1285.7671649565345 512.5350452087231,1279.8569282670344 499.6674014267338,1272.2857420623545 487.9449422747017,1263.2200757527064 477.52767379367066,1252.8786395449526 468.508238735184,1241.5148630255062 460.90704933759264,1229.3967570701175 454.6741093779234,1216.7861017773216 449.6973604599249,1203.9189588801396 445.8167497995443,1190.9893675964038 442.8426566844262,1178.1377619811155 440.576887193484,1165.4451771407976 438.8341936019683,1152.9337374059046 437.4622210515996,1140.5732980980476 436.35793492934386,1128.293504837122 435.47892334605655,1116 434.8484669177982,1103.5930973498316 434.55387416247896,1090.9870030482996 434.7382360705348,1078.127608029131 435.58639381866044,1065.0070182492295 437.3064766459502,1051.6733117475574 440.108797641303,1038.234483100345 444.1841515780129,1024.8561104967544 449.6836160030998,1011.7529018988918 456.70180906184555,999.1748836370541 465.265219552384,987.3895277545483 475.32672959906176,976.6615211068108 486.76684659698094,967.2321196373209 499.40150780876,959.3000816680623 512.9956821030261,953.0060293224033 527.281431291229,948.4217613147924 541.9786632730033,945.5455650072197 556.8165527426912,944.3039972007191 571.5535475084332,944.5599780626828 585.9940250225067,946.1264319332192 600,948.7841721639219 613.4967769107766,952.3023170525952 626.4720422255962,956.459280424255 638.9685415465713,961.0623272709754 651.0711223103369,965.9638272931206 662.8894812193298,971.0726632592456 674.5383820896125,976.3597251454072 686.1173624898411,981.8569986966954 697.6920015091689,987.6503819232219 709.2786708313427,993.8669740503235 720.8343516142967,1000.6581189136259 732.2526036652991,1008.1798962614306 743.3661695802405,1016.5729997807846 753.9560439858535,1025.9439960471736 763.7662006888679,1036.3498187555547 772.5226108434908,1047.7870313738554 779.9547580751896,1060.1869203673366 785.817603777735,1073.4169066211734 789.9119024140012,1087.2881410058635 792.1009179913692,1101.5685421500712" fill="none" stroke="#17353b" stroke-width="0.99" opacity="0.4833333333333334"></polygon><polygon points="755.254676337817,1116 753.134820246008,1127.504154830931 749.6335912718913,1138.6223765797422 744.9245395014304,1149.2117898035897 739.2113634460604,1159.1764905629234 732.7105388244432,1168.4718457304289 725.6333282796774,1177.1036790603118 718.1688865627435,1185.122441963846 710.4700629604865,1192.612962502577 702.6432342272548,1199.6808036721372 694.7431033353973,1206.4365986383339 686.7729109773109,1212.9799331150107 678.6899757442576,1219.3843935759517 670.4159572356382,1225.6852895877755 661.8507750394084,1231.8712999175252 652.8887606610023,1237.88091040831 643.4354038122431,1243.604044186977 633.4230000086046,1248.8887772401376 622.8236183724356,1253.552534384361 611.65807580847,1257.3967208680708 600,1260.2234063053354 587.9745500289185,1261.8524734964064 575.7518920909293,1262.1375949462213 563.5360468590446,1260.9795094693995 551.550183588441,1258.3353295149725 540.0197890337106,1254.222991571142 529.1553519910236,1248.7204299666303 519.1362558510593,1241.9595628934997 510.0974568164405,1234.1156789039471 502.12025556181516,1225.3932537472615 495.2280714659708,1216.009568146119 489.38764012173124,1206.1777037753106 484.51552444019745,1196.090547235929 480.489309251409,1185.9073252327078 477.1623898499047,1175.7439390480693 474.3809114808439,1165.6679878776908 472.0012039932415,1155.6989058295712 469.90600473007044,1145.8131319959894 468.0178783033617,1135.9537365469594 466.30851302849146,1126.043486930189 464.80297405944685,1116 463.57848363240686,1105.7514213681648 462.7578314255348,1095.2510224895254 462.49804087764187,1084.4892139063277 462.9753793251965,1073.501729061463 464.3681559063951,1062.373112019176 466.838966588032,1051.2351071140051 470.5180993951881,1040.2600533840823 475.4896997721524,1029.6498820865825 481.782027096098,1019.6217530014004 489.3627350471854,1010.3917016359497 498.13961979844373,1002.1578717625429 507.9667486417874,995.0849559870873 518.6553596758855,989.2913563823817 529.988461571849,984.8403183027727 541.7377062968322,981.7359085319914 553.680891763094,979.924241162516 565.6183966876633,979.2998467356122 577.3869617064944,979.716581803748 588.8694978950958,981.0020359187243 600,982.9740541305274 610.7631279422926,985.4577885470599 621.1885487568705,988.3016423656084 631.3406501799858,991.3905789648742 641.3046956375899,994.6555264905114 651.1708433978805,998.0779896948233 661.017665458583,1001.6894483518778 670.8968534108119,1005.5656296881058 680.8206839189106,1009.8162413150826 690.7535467406823,1014.5711923947937 700.6084397541825,1019.9646711437348 710.248847252888,1026.1186531045737 719.4958876285316,1033.1274668199346 728.1400964189644,1041.0449366529438 735.95675154155,1049.8753671017625 742.723294398892,1059.5692541664375 748.2371881141055,1070.0241443281109 752.332503353859,1081.0905560987271 754.8936381497182,1092.5823824567426 755.8648496420926,1104.2907534674227" fill="none" stroke="#17353b" stroke-width="0.99" opacity="0.4222222222222222"></polygon><polygon points="714.4198072420346,1116 712.4151939226451,1124.445119105881 709.5081814739755,1132.5560105776356 705.847773414464,1140.2567201794316 701.5928428822895,1147.5090831192622 696.8986764906739,1154.3123484339656 691.9042887818534,1160.699047958765 686.7217112516032,1166.7275360491067 681.4282638754657,1172.471955928661 676.0625231720035,1178.010644113879 670.6243378641959,1183.4141406885506 665.0788466674866,1188.7340148662888 659.3640614285847,1193.9936381089512 653.4012310206202,1199.1818485295828 647.106931052618,1204.2501687766123 640.4056579619833,1209.1138925644088 633.2416596366896,1213.6569764025762 625.5888128052986,1217.7402999086698 617.4575522884799,1221.2125268764582 608.8981496418834,1223.9225424354859 600,1225.732284335979 590.886970579325,1226.5287440592504 581.7092535795557,1226.2339902840433 572.6325119287262,1224.8122557816278 563.825374521478,1222.27341069424 555.4465019665204,1218.6724928761537 547.6324882346738,1214.1053456133486 540.4877835882614,1208.7007875400752 534.0776275733931,1202.610072400615 528.4246868957251,1195.9946550064863 523.5097304521393,1189.0134391138672 519.2762781610016,1181.810727514077 515.6387702827018,1174.5060201451538 512.4934578702886,1167.1866198942835 509.73094677466503,1159.9037262873446 507.24916358082254,1152.6723518950776 504.9654681157327,1145.4750189027693 502.82671812073795,1138.2688208870738 500.8162894978435,1130.9951039100497 498.95735095992984,1123.5907639896466 497.31205612529504,1116 495.9767135465496,1108.1853175426706 495.07338704314077,1100.1366545347842 494.7387267433613,1091.8776857674734 495.1111014445279,1083.4686431730086 496.3172688843637,1075.0053335612924 498.45986608497407,1066.614412278621 501.60692265687896,1058.4453426267758 505.784403611497,1050.659800494075 510.9724940448279,1043.4195391119445 517.1059748013881,1036.8738850376888 524.0786414273648,1031.1480779721667 531.7513271637805,1026.3335896751628 539.9627426734163,1022.481368507346 548.5420746258003,1019.5986743841366 557.3221185715636,1017.6498216674764 566.1516749310906,1016.5607686665311 574.906014849914,1016.2271189953444 583.4944173864451,1016.5247685561161 591.864071813758,1017.3221748037582 600,1018.4930673609094 607.9210484074503,1019.9283764275228 615.6723884815905,1021.5462319637012 623.3153098841107,1023.2990748683026 630.9153592270769,1025.177202958195 638.5300413569399,1027.2084219792214 646.1973446614915,1029.4538512208728 653.9262719354654,1032.0003075178386 661.6903618381973,1034.9500239668266 669.4248921358469,1038.408718112364 677.0280935149469,1042.4731834630052 684.366307288177,1047.2196225121425 691.2826305466706,1052.6938647105678 697.6082464650126,1058.9044264719523 703.1753694715444,1065.8190906072005 707.8305711871326,1073.3653370224042 711.4472095534943,1081.4345789565157 713.9357647918406,1089.889786475116 715.2510839286781,1098.5757478671983 715.3958313360254,1107.330962426436" fill="none" stroke="#17353b" stroke-width="0.99" opacity="0.36111111111111116"></polygon><polygon points="661.8350507397413,1116 660.581722207558,1120.5511628973775 658.9146174929863,1124.9070151404444 656.919397658238,1129.0439957047695 654.6798985599988,1132.9590043924263 652.2711185608329,1136.6672513997494 649.7532708655199,1140.1982596242278 647.1674616650699,1143.5904277882369 644.5333953890887,1146.8847054090757 641.8493096340464,1150.1180194648548 639.0941241898213,1153.3171185448293 636.2315723593429,1156.4934607412156 633.2158895894888,1159.6396703622781 629.9984831745846,1162.727935589762 626.5349122158225,1165.7105294102741 622.7914783259688,1168.5224280774007 618.750767510962,1171.085795365257 614.4155882693467,1173.3159171174811 609.810909926832,1175.1280270740176 604.9836029451653,1176.4443757384802 600,1177.200867892558 594.9415117105227,1177.3526338679299 589.8987229208856,1176.878001028483 584.9645455410069,1175.7804852284646 580.227097422836,1174.0886123464575 575.7630044008312,1171.85358878275 571.6317817366424,1169.1450466776682 567.8718457708735,1166.0452743793553 564.4985469202971,1162.6424873434787 561.5044169056064,1159.02378509226 558.8616056777746,1155.2684673075787 556.5262682400233,1151.442343956615 554.4444695447092,1147.5935743406299 552.5590257184137,1143.7504179557968 550.8166067580032,1139.9210909788674 549.1743987123673,1136.0957145796 547.6056649302152,1132.2501354608723 546.1036522024665,1128.3512151937193 544.6834482157122,1124.3630410452631 543.381595997735,1120.253421167543 542.2534895250669,1116 541.3687910377799,1111.5953681550513 540.8053037310888,1107.0506411084828 540.6418844988953,1102.397132866926 540.9510755380351,1097.6859395190777 541.7921616888497,1092.985454665324 543.2053196506143,1088.3770438312647 545.2074196572711,1083.9492879644026 547.7898801525291,1079.7913490140759 550.9187771106428,1075.9860993516693 554.5371913500509,1072.6036826523211 558.5695608121962,1069.696134241603 562.9276114613937,1067.2935876364713 567.517289073425,1065.402440945954 572.2460194803373,1064.0056668869552 577.0295960327611,1063.0652419723258 581.7980328817395,1062.526464298837 586.4998272011298,1062.3237454653813 591.1042323695387,1062.3873184831155 595.6013417865381,1062.6502141673284 600,1063.0548321876418 604.3237728691499,1063.558472296778 608.6054004781788,1064.1372924375808 612.8803066092238,1064.7883135763648 617.1798320520585,1065.5292812800374 621.5248866940389,1066.3964026776753 625.9206744721276,1067.4401841543493 630.3530398720332,1068.7197797355473 634.7868250483923,1070.296404617672 639.166428452753,1072.2264585926473 643.4185385175451,1074.5550314150705 647.456800763427,1077.3104238434296 651.1879847812688,1080.5002179456299 654.5190677262125,1084.1092781319624 657.3645579729088,1088.0998751859042 659.6533555843504,1092.4139178451746 661.334487952179,1096.9770705875237 662.3811653618093,1101.704352355876 662.7927619776098,1106.5066670133015 662.5945271675129,1111.297626425217" fill="none" stroke="#17353b" stroke-width="0.99" opacity="0.3"></polygon><circle cx="600" cy="1116" r="2.5" fill="#17353b"></circle><polygon points="2205.2285473528614,684 2210.7627082565964,714.8582841378925 2212.7984171493854,746.4089896185571 2210.957850082381,778.1776029237371 2205.0050524202447,809.6125677594882 2194.8690155389527,840.1255515245491 2180.652439784999,869.1361006879389 2162.625369363467,896.1163343206726 2141.2043437042357,920.6313088757727 2116.9191044229697,942.3711002173998 2090.3700911622104,961.1714506548374 2062.1808369247337,977.0209410128768 2032.9498485824283,990.0539617851086 2003.206585024947,1000.5301445809741 1973.3757217437187,1008.8022395804073 1943.7530584447916,1015.2755568150267 1914.495267426889,1020.3629178422045 1885.6243087653836,1024.4395084503033 1857.0458884129673,1027.8020387200208 1828.5799493722095,1030.63620225131 1800,1032.995621909599 1771.0772135260372,1034.7943534570707 1741.6247642514818,1035.8136998027778 1711.5378445252786,1035.722696048717 1680.8252345095448,1034.1102949877554 1649.6291319286142,1030.5261441254024 1618.231109502917,1024.5260097879727 1587.0434397464446,1015.7174529469578 1556.5864756468586,1003.8013389306593 1527.454159270114,988.6051712114389 1500.2709127106568,970.1050378671005 1475.6440308768015,948.4340698773218 1454.116158232198,923.8766243944497 1436.1224460655594,896.8487949357534 1421.9565512612187,867.8671782312765 1411.7487940876415,837.5089644103987 1405.4586233504685,806.3672522408114 1402.882156426539,775.0059427712479 1403.674104020445,743.9185890744403 1407.3819973505383,713.4951748050132 1413.4894449014039,684 1421.4642732284294,655.562747108572 1430.8069368648216,628.1834922634685 1441.0945620559291,601.7510447480419 1452.0164198281097,576.0726771621232 1463.3974636951943,550.9121795909416 1475.2077340457076,526.0323440292651 1487.5568109236947,501.2375416903098 1500.673954709839,476.4120393408103 1514.8759677200671,451.5501132924177 1530.526002888234,426.774820938769 1547.9874220509432,402.34340143283373 1567.577280498182,378.6385904722753 1589.5240403645666,356.146520615737 1613.933690958441,335.42320228381095 1640.7676211810121,317.0527118732574 1669.8344296582209,301.60104127698486 1700.7964859146552,289.5700062432357 1733.1906054695407,281.355625721119 1766.4608153414927,277.2149688153325 1800,277.2446604786623 1833.1963475567538,281.37312002109303 1865.480047194908,289.3672868038758 1896.3656673760067,300.8531938416493 1925.4860722782125,315.3484184225355 1952.6145691923934,332.3032991836331 1977.6731402881944,351.14697249137635 2000.7259844068249,371.33382898172067 2021.9590437311047,392.3859676178259 2041.6475741439042,413.9276316313956 2060.1150009846333,435.7084081510319 2077.687167579704,457.6130829523397 2094.6465472265945,479.65735485948716 2111.1910045053314,501.97000230539015 2127.4012570005098,524.7634215726025 2143.2203459313996,548.295592476791 2158.4472559426035,572.8273616434462 2172.745444452991,598.5793845955525 2185.665584305009,625.6930917193515 2196.6804323787055,654.1996377756925" fill="none" stroke="#17353b" stroke-width="0.99" opacity="0.788888888888889"></polygon><polygon points="2144.1187991518927,684 2147.707580414125,710.1213082337931 2148.028910405208,736.6168021825922 2144.874179370174,763.0334666118754 2138.1723261924853,788.8843563417088 2127.9976092818106,813.6855555454556 2114.5647822795017,836.9933638094403 2098.2121598687036,858.438071754978 2079.3742240777938,877.7510161564247 2058.5464246187544,894.7822572187636 2036.2455701994004,909.5071351903366 2012.9696190146356,922.021050290328 1989.1607158885035,932.5229626208516 1965.1749873375752,941.2892144056486 1941.2619274206074,948.6402272025177 1917.5552533600385,954.9033284904644 1894.0759742262785,960.3753463417615 1870.7472098777705,965.2886399003062 1847.4191391024474,969.7839039993603 1823.9014590256954,973.8924304249692 1800,977.5295899686963 1775.5537336214595,980.5002081116719 1750.4683759909042,982.5153494703003 1724.7431272368906,983.2189150534533 1698.4877683219568,982.2215004275506 1671.9282904983777,979.1382553971637 1645.4003678003126,973.6270958340508 1619.3311872641927,965.4235838347332 1594.2113069511609,954.3691167066406 1570.5592048599294,940.4297165547102 1548.8819148970701,923.7036266891604 1529.6355470812834,904.4170092158739 1513.1895184704417,882.9081935676057 1499.7979756799386,859.6020354179668 1489.5812027910076,834.9769009440031 1482.5188468597732,809.5274994545074 1478.45565096785,783.7271789305278 1477.1191733647547,757.9933359989268 1478.147809113541,732.6592709789242 1481.1264313641173,707.9551716532238 1485.6262306551666,684 1491.2449247452896,660.8049736509323 1497.6434781324465,638.288184618919 1504.5758129585504,616.2987946922532 1511.9086779917413,594.648298112752 1519.6298029368986,573.1456408961895 1527.843607619363,551.6326013013161 1536.7549480397067,530.0158053809407 1546.6425454943328,508.2920784001563 1557.8247472305568,486.5644852890953 1570.621009654418,465.04732739739904 1585.3129055645068,444.05944914704855 1602.1084953819368,424.00636033663903 1621.113565421917,405.35278493251525 1642.3125571740009,388.5881968451125 1665.5610570608071,374.18860425213956 1690.5905798911808,362.57822760468736 1717.0251726286426,354.09474468921115 1744.4082064166942,348.96144592081504 1772.2367275579363,347.26898637744443 1800,348.9685018581848 1827.2184650892184,353.8767640641471 1853.4793086766572,361.69289139175504 1878.4651644860185,372.0250198423581 1901.9731626570542,384.4243816904765 1923.9224867976088,398.4235311588387 1944.3497380469191,413.5750654766454 1963.392609179851,429.4871543615998 1981.2635274577276,445.85251442242816 1998.215918310058,462.46811541143063 2014.5064754420523,479.2438188962227 2030.357224469481,496.1992372862054 2045.9211970539022,513.4492558113373 2061.2551875089357,531.1797690439292 2076.302377451146,549.6161384358786 2090.886653204685,568.987584805241 2104.7192991685943,589.4911207015708 2117.417539776378,611.2586640793046 2128.5332413863025,634.3306534152507 2137.5890870329526,658.6388370703628" fill="none" stroke="#17353b" stroke-width="0.99" opacity="0.7277777777777779"></polygon><polygon points="2100.837427381771,684 2102.6977111508427,706.7399707685913 2101.5364371338155,729.5878307495807 2097.2825195960722,752.1270721098882 2089.9903408155324,773.940683746066 2079.8360000770335,794.6431452688664 2067.103100920621,813.9096535780291 2052.159456379235,831.4997175331262 2035.426962789785,847.272805219282 2017.3475435426785,861.1945053830619 1998.3484314832347,873.3325936885423 1978.8101069626268,883.8433845103772 1959.0399333390562,892.9497030225988 1939.2539602744191,900.9126368307593 1919.568553648968,907.9998404504515 1900.0025389800126,914.4535092465047 1880.4895081946934,920.4611781822249 1860.8989391121238,926.1322308514576 1841.0639110522181,931.4824519405861 1820.81255340129,936.428175299388 1800,940.7906463794363 1778.537576434568,944.3102230497484 1756.4162240710282,946.6690798646763 1733.7217367208723,947.520251398609 1710.6401969652222,946.5202312905697 1687.452969754892,943.3619956033477 1664.521645668652,937.8052759574689 1642.2643235700316,929.7011738070703 1621.1254844180494,919.0087561309435 1601.5423499630147,905.8020510085404 1583.9109788365965,890.2667929287034 1568.5553926951939,872.6872611785429 1555.7027423701306,853.4245131821285 1545.4669458143635,832.8881445665938 1537.8424123589493,811.5043280138551 1532.708491188062,789.6832331453874 1529.8442414273622,767.7889757832196 1528.9521185328822,746.1149827141965 1529.6883048259172,724.8671135281727 1531.6967658497856,704.1561078162696 1534.6437519785666,684 1538.2494218913198,664.3361562523111 1542.3135454193623,645.0416353342121 1546.7328205145905,625.95975120463 1551.5081563382116,606.9301008391906 1556.7412519346738,587.8189761406492 1562.6208421821748,568.547038007161 1569.3999879271996,549.1113976359504 1577.36665728098,529.5997988916102 1586.8104950810744,510.1953723458983 1597.989044140694,491.171360316117 1611.0967294951222,472.8762018879369 1626.2396409957812,455.7103204914667 1643.418577524997,440.096780581089 1662.5220040032964,426.44859347284387 1683.3295998933088,415.13579511061585 1705.5260403874904,406.4554566356916 1728.7236505447104,400.60751809186127 1752.4917063313558,397.67878257679 1776.3895096223296,397.63662646075267 1800,400.333047130923 1822.9606202135283,405.51867421111297 1844.9884287918906,412.86541050088016 1865.8970252882855,421.99553863901264 1885.603664772425,432.5145097440363 1904.125908841596,444.04428146745886 1921.5681953143235,456.25402897986106 1938.0997063194536,468.88531755739973 1953.9257767613244,481.76937359981133 1969.2557274305193,494.8348683861 1984.2703661791372,508.10555955627797 1999.0924411567978,521.6881281413793 2013.7630478789356,535.7515068544567 2028.2264142663992,550.4998246694179 2042.3246710973951,566.1417124429868 2055.8032393304215,582.8590640171699 2068.3264259046828,600.778392876344 2079.501817614364,619.9476618089382 2088.91119654037,640.320918112804 2096.145055109308,661.7522932999892" fill="none" stroke="#17353b" stroke-width="0.99" opacity="0.6666666666666667"></polygon><polygon points="2063.41820809412,684 2063.7565118410776,703.8145382285459 2061.3938522860494,723.5188681350277 2056.3691845500243,742.7511231616443 2048.827460311246,761.1739908724294 2039.0076232358806,778.5001900069125 2027.2226682460894,794.5131988928025 2013.8336861793805,809.0812036297007 1999.2203887620565,822.1628992049682 1983.75093866626,833.8045763937877 1967.7539637286432,844.1287835591593 1951.4954081139426,853.315681364695 1935.1623886847763,861.5789286537226 1918.8555297115145,869.1384786532153 1902.5904115247793,876.1929730852364 1886.3078708800329,882.8944673082065 1869.892020632115,889.3279975848566 1853.1940990199885,895.498033490028 1836.0596885583793,901.323189924442 1818.356516996281,906.6397694160971 1800,911.2138448469888 1780.9739121864156,914.7607594929384 1761.3440574848794,916.9701967148511 1741.2635039324482,917.5344265858138 1720.968783735419,916.177024437691 1700.767354707353,912.679307273137 1681.0174861233636,906.9019529918038 1662.1024854825255,898.7997330018345 1644.4017486213606,888.427955506557 1628.2614384068256,875.9400194022435 1613.9676450064248,861.5763388575035 1601.7246485731598,845.6457322363663 1591.6404156054775,828.5010946719544 1583.7207609842624,810.5117204850056 1577.8727670443707,792.0349564795494 1573.9171511767336,773.3899193751548 1571.6084023826172,754.8357954054433 1570.6607501398564,736.5567787641158 1570.777459997021,718.6550435395886 1571.680625216038,701.1523461104173 1573.1385744357437,684 1574.9882466707138,667.0961368229587 1577.1503744904155,650.308446478626 1579.6360161970267,633.5000478488754 1582.5438199136463,616.5558311122658 1586.0483044917748,599.4065648446938 1590.3803159797928,582.0482800823274 1595.8015787574382,564.5549080471907 1602.5758331365064,547.082812775934 1610.9393804202327,529.8666593244752 1621.0739100911487,513.2069141779148 1633.0842568984726,497.45010303894185 1646.983250521026,482.96367101115214 1662.6851248155515,470.1078306595433 1680.008115628091,459.20709137649897 1698.6859778529463,450.5242085070146 1718.3872818357531,444.23906811442055 1738.7405915494687,440.4345546076211 1759.3630563469108,439.0907793013368 1779.8896202856656,440.0882435716591 1800,443.2196490821748 1819.4408088970308,448.2092336485004 1838.0406896963477,454.7377860917459 1855.7170114029677,462.4709477034068 1872.4735225317806,471.08809496725485 1888.3892477344393,480.3090484719452 1903.5997820200516,489.91607128306623 1918.2728903784885,499.7690850081623 1932.5808867851106,509.8126978639864 1946.6725896222956,520.0744410764902 1960.6476986439193,530.6544694762589 1974.5362068191869,541.7078151670537 1988.2849712310276,553.4210082429202 2001.7528684062045,565.9854249024954 2014.715119310667,579.5700376690742 2026.8764699208393,594.2962942129359 2037.892042780217,610.2176356452796 2047.393918492854,627.305703451347 2055.020937792655,645.4446218831868 2060.4488903864017,664.4339447048299" fill="none" stroke="#17353b" stroke-width="0.99" opacity="0.6055555555555556"></polygon><polygon points="2027.8896955072714,684 2027.0012366938042,701.053321834597 2023.8065077105352,717.8362198981439 2018.4236549483346,734.0552945776606 2011.0523559890362,749.4580188791424 2001.9568580188354,763.8508482599475 1991.4437565263167,777.1115812743838 1979.8366466588798,789.1947643176857 1967.4500735875151,800.1296179708227 1954.5652656820018,810.0106986051394 1941.409949800453,818.9822248095234 1928.1441397799006,827.2176236220175 1914.8531973785762,834.8963250901711 1901.5487475067616,842.1801088108734 1888.1772568896376,849.1913556855823 1874.6353330049076,855.9953771193766 1860.79014186917,862.5885998145063 1846.5028434075741,868.8938155471134 1831.6526505850425,874.7630173668465 1816.1590617340717,879.9876037040736 1800,884.3150122009605 1783.2240013154983,887.4702160327538 1765.9551827356142,889.1800385439485 1748.3904383122494,889.1979638218891 1730.7890797199902,887.3270685776923 1713.4558879607441,883.4388795274031 1696.7191971153031,877.4863529058531 1680.906126969943,869.509740465764 1666.3173696713236,859.6347938533571 1653.2039879284418,848.0634994482607 1641.7484933778674,835.0582563211266 1632.0520618900289,820.9210405529973 1624.129148001645,805.9695782581897 1617.9100414135576,790.5128305825878 1613.2511349294819,774.8281494441015 1609.9519210155127,759.1422876447675 1607.7770769610643,743.6180585917755 1606.4815007827,728.3478774624479 1605.8358703297483,713.354732599427 1605.6502449762527,698.600400284892 1605.7934181360877,684 1606.206141278245,669.441361067084 1606.9069359424059,654.8071966132933 1607.9899313207611,639.9978036633005 1609.6149408912454,624.9519560440494 1611.990746606392,609.6638347839673 1615.353219552969,594.1942313679808 1619.9404073478631,578.6748242692239 1625.967011931826,563.3050132156848 1633.6007383113883,548.3415315838132 1642.942809757691,534.0817729505234 1654.0145362337494,520.8423929500684 1666.7512304922411,508.9352207824678 1681.0040484083731,498.64278946853955 1696.5495569876914,490.19584312011415 1713.106080791976,483.7549980438622 1730.3552188990725,479.3983399484333 1747.9664243544348,477.1161702662477 1765.6222452390084,476.813426133632 1783.0417695014391,478.3195580801306 1800,481.4049292557397 1816.341293548131,485.80217040881075 1831.9855880816483,491.230447310734 1846.9268573653883,497.42031854102333 1861.2240026900874,504.13680871161927 1874.9851401736757,511.1985004518887 1888.3468970172491,518.4908403403848 1901.4508260683315,525.97242112343 1914.4193365576584,533.6736895456538 1927.333591474593,541.6882687763115 1940.2156334206293,550.1578044621265 1953.0165892606421,559.2518735316712 1965.612209657334,569.1449735030517 1977.806280724574,579.9928905341258 1989.3416719028296,591.9107995376984 1999.9180324279562,604.9552741687872 2009.214492058855,619.1119957566824 2016.9152244102736,634.2903865480878 2022.7354420978777,650.3257093145762 2026.445340391812,666.988439517379" fill="none" stroke="#17353b" stroke-width="0.99" opacity="0.5444444444444445"></polygon><polygon points="1992.3219343205822,684 1990.5914499798237,698.3180600368823 1987.0035555248808,712.2721601404836 1981.7216462463016,725.644438813862 1974.9642647003661,738.2652750226905 1966.9864308050148,750.0240423548175 1958.0582485306268,760.8740319411938 1948.4428351039414,770.8310733297204 1938.375676205417,779.9660038954287 1928.0473633895522,788.3917444457411 1917.5913324314965,796.2462718664286 1907.0777266367338,803.6731866014397 1896.5139058314483,810.8018134668054 1885.8514688718674,817.7288250337215 1874.9990189839154,824.5032324440305 1863.8393395464539,831.1162630120815 1852.2492179880576,837.4971690306659 1840.1198992790762,843.5154341866782 1827.3760930335784,848.9892193631572 1813.9916049803694,853.6992794015163 1800,857.4070462759692 1785.499196952914,859.8751645208922 1770.649496700451,860.8885217247293 1755.6651950101864,860.2737642569346 1740.8005675952827,857.9154313165669 1726.331572964105,853.7671649565347 1712.5350452087232,847.8569282670344 1699.667401426734,840.2857420623545 1687.9449422747016,831.2200757527064 1677.5276737936706,820.8786395449525 1668.508238735184,809.5148630255062 1660.9070493375925,797.3967570701176 1654.6741093779235,784.7861017773216 1649.697360459925,771.9189588801397 1645.8167497995444,758.9893675964038 1642.8426566844262,746.1377619811155 1640.576887193484,733.4451771407977 1638.8341936019683,720.9337374059046 1637.4622210515995,708.5732980980476 1636.3579349293439,696.293504837122 1635.4789233460565,684 1634.848466917798,671.5930973498316 1634.553874162479,658.9870030482996 1634.7382360705349,646.127608029131 1635.5863938186603,633.0070182492295 1637.3064766459502,619.6733117475574 1640.108797641303,606.2344831003448 1644.184151578013,592.8561104967544 1649.6836160030998,579.7529018988918 1656.7018090618456,567.1748836370541 1665.265219552384,555.3895277545483 1675.3267295990618,544.6615211068108 1686.766846596981,535.2321196373209 1699.40150780876,527.3000816680623 1712.995682103026,521.0060293224033 1727.281431291229,516.4217613147924 1741.9786632730033,513.5455650072197 1756.8165527426913,512.3039972007191 1771.5535475084332,512.5599780626828 1785.9940250225068,514.1264319332192 1800,516.7841721639219 1813.4967769107766,520.3023170525952 1826.4720422255962,524.459280424255 1838.9685415465713,529.0623272709754 1851.071122310337,533.9638272931206 1862.8894812193298,539.0726632592456 1874.5383820896125,544.3597251454072 1886.117362489841,549.8569986966954 1897.692001509169,555.6503819232219 1909.2786708313427,561.8669740503235 1920.8343516142966,568.6581189136259 1932.2526036652991,576.1798962614306 1943.3661695802405,584.5729997807846 1953.9560439858535,593.9439960471735 1963.766200688868,604.3498187555547 1972.5226108434908,615.7870313738554 1979.9547580751896,628.1869203673367 1985.817603777735,641.4169066211734 1989.9119024140014,655.2881410058635 1992.1009179913692,669.5685421500713" fill="none" stroke="#17353b" stroke-width="0.99" opacity="0.4833333333333334"></polygon><polygon points="1955.254676337817,684 1953.134820246008,695.5041548309309 1949.6335912718912,706.6223765797422 1944.9245395014304,717.2117898035897 1939.2113634460604,727.1764905629235 1932.7105388244433,736.471845730429 1925.6333282796772,745.1036790603117 1918.1688865627434,753.1224419638462 1910.4700629604865,760.6129625025768 1902.6432342272549,767.6808036721372 1894.7431033353973,774.4365986383337 1886.7729109773109,780.9799331150108 1878.6899757442575,787.3843935759517 1870.4159572356382,793.6852895877755 1861.8507750394085,799.8712999175251 1852.8887606610022,805.88091040831 1843.435403812243,811.604044186977 1833.4230000086045,816.8887772401375 1822.8236183724357,821.552534384361 1811.65807580847,825.3967208680709 1800,828.2234063053354 1787.9745500289184,829.8524734964064 1775.7518920909292,830.1375949462214 1763.5360468590447,828.9795094693997 1751.5501835884409,826.3353295149725 1740.0197890337106,822.222991571142 1729.1553519910235,816.7204299666303 1719.1362558510593,809.9595628934997 1710.0974568164406,802.1156789039471 1702.1202555618152,793.3932537472616 1695.2280714659707,784.0095681461188 1689.3876401217312,774.1777037753106 1684.5155244401974,764.0905472359291 1680.489309251409,753.9073252327078 1677.1623898499047,743.7439390480693 1674.380911480844,733.6679878776907 1672.0012039932415,723.6989058295712 1669.9060047300704,713.8131319959892 1668.0178783033616,703.9537365469594 1666.3085130284915,694.043486930189 1664.8029740594468,684 1663.578483632407,673.7514213681648 1662.7578314255347,663.2510224895256 1662.4980408776419,652.4892139063277 1662.9753793251966,641.5017290614629 1664.368155906395,630.3731120191759 1666.838966588032,619.2351071140051 1670.518099395188,608.2600533840824 1675.4896997721523,597.6498820865826 1681.782027096098,587.6217530014004 1689.3627350471854,578.3917016359497 1698.1396197984436,570.1578717625429 1707.9667486417875,563.0849559870873 1718.6553596758856,557.2913563823817 1729.988461571849,552.8403183027727 1741.7377062968324,549.7359085319914 1753.680891763094,547.924241162516 1765.6183966876633,547.2998467356122 1777.3869617064943,547.716581803748 1788.8694978950957,549.0020359187243 1800,550.9740541305274 1810.7631279422926,553.4577885470599 1821.1885487568707,556.3016423656084 1831.3406501799857,559.3905789648742 1841.30469563759,562.6555264905114 1851.1708433978804,566.0779896948233 1861.017665458583,569.6894483518778 1870.896853410812,573.5656296881058 1880.8206839189106,577.8162413150826 1890.7535467406824,582.5711923947937 1900.6084397541827,587.9646711437348 1910.248847252888,594.1186531045737 1919.4958876285316,601.1274668199347 1928.1400964189643,609.0449366529438 1935.95675154155,617.8753671017625 1942.723294398892,627.5692541664376 1948.2371881141055,638.0241443281108 1952.332503353859,649.0905560987271 1954.893638149718,660.5823824567426 1955.8648496420926,672.2907534674227" fill="none" stroke="#17353b" stroke-width="0.99" opacity="0.4222222222222222"></polygon><polygon points="1914.4198072420345,684 1912.4151939226451,692.4451191058812 1909.5081814739754,700.5560105776354 1905.847773414464,708.2567201794316 1901.5928428822895,715.5090831192622 1896.8986764906738,722.3123484339656 1891.9042887818534,728.6990479587652 1886.7217112516032,734.7275360491067 1881.4282638754657,740.4719559286609 1876.0625231720035,746.0106441138789 1870.624337864196,751.4141406885507 1865.0788466674865,756.7340148662888 1859.3640614285846,761.9936381089512 1853.4012310206201,767.1818485295827 1847.106931052618,772.2501687766124 1840.4056579619833,777.1138925644088 1833.2416596366895,781.6569764025762 1825.5888128052986,785.7402999086697 1817.45755228848,789.2125268764582 1808.8981496418835,791.9225424354859 1800,793.732284335979 1790.886970579325,794.5287440592505 1781.7092535795557,794.2339902840434 1772.6325119287262,792.8122557816279 1763.825374521478,790.27341069424 1755.4465019665204,786.6724928761537 1747.6324882346737,782.1053456133486 1740.4877835882614,776.7007875400752 1734.077627573393,770.6100724006151 1728.4246868957252,763.9946550064863 1723.5097304521391,757.0134391138671 1719.2762781610015,749.8107275140769 1715.638770282702,742.5060201451538 1712.4934578702885,735.1866198942834 1709.730946774665,727.9037262873446 1707.2491635808226,720.6723518950776 1704.9654681157326,713.4750189027693 1702.826718120738,706.268820887074 1700.8162894978436,698.9951039100497 1698.95735095993,691.5907639896465 1697.312056125295,684 1695.9767135465495,676.1853175426706 1695.0733870431407,668.1366545347842 1694.7387267433614,659.8776857674735 1695.1111014445278,651.4686431730086 1696.3172688843638,643.0053335612923 1698.459866084974,634.614412278621 1701.606922656879,626.4453426267758 1705.784403611497,618.6598004940751 1710.972494044828,611.4195391119445 1717.1059748013881,604.8738850376888 1724.0786414273648,599.1480779721667 1731.7513271637804,594.3335896751628 1739.9627426734162,590.481368507346 1748.5420746258003,587.5986743841366 1757.3221185715636,585.6498216674764 1766.1516749310906,584.5607686665311 1774.906014849914,584.2271189953444 1783.494417386445,584.5247685561161 1791.864071813758,585.3221748037582 1800,586.4930673609094 1807.9210484074501,587.9283764275228 1815.6723884815906,589.5462319637012 1823.3153098841108,591.2990748683026 1830.915359227077,593.1772029581949 1838.5300413569398,595.2084219792213 1846.1973446614916,597.4538512208729 1853.9262719354654,600.0003075178385 1861.6903618381973,602.9500239668266 1869.424892135847,606.4087181123641 1877.028093514947,610.4731834630051 1884.366307288177,615.2196225121425 1891.2826305466706,620.6938647105679 1897.6082464650126,626.9044264719523 1903.1753694715444,633.8190906072005 1907.8305711871326,641.3653370224042 1911.4472095534943,649.4345789565157 1913.9357647918407,657.8897864751159 1915.251083928678,666.5757478671983 1915.3958313360254,675.3309624264359" fill="none" stroke="#17353b" stroke-width="0.99" opacity="0.36111111111111116"></polygon><polygon points="1861.8350507397413,684 1860.581722207558,688.5511628973775 1858.9146174929863,692.9070151404444 1856.919397658238,697.0439957047694 1854.6798985599987,700.9590043924263 1852.2711185608327,704.6672513997495 1849.7532708655199,708.198259624228 1847.16746166507,711.590427788237 1844.5333953890888,714.8847054090758 1841.8493096340464,718.1180194648548 1839.0941241898213,721.3171185448294 1836.2315723593429,724.4934607412156 1833.2158895894888,727.6396703622783 1829.9984831745846,730.727935589762 1826.5349122158225,733.7105294102741 1822.791478325969,736.5224280774006 1818.750767510962,739.085795365257 1814.4155882693467,741.3159171174811 1809.810909926832,743.1280270740177 1804.9836029451653,744.4443757384802 1800,745.2008678925582 1794.9415117105227,745.3526338679299 1789.8987229208856,744.878001028483 1784.964545541007,743.7804852284647 1780.227097422836,742.0886123464575 1775.763004400831,739.8535887827501 1771.6317817366426,737.1450466776682 1767.8718457708735,734.0452743793553 1764.4985469202973,730.6424873434787 1761.5044169056064,727.02378509226 1758.8616056777746,723.2684673075787 1756.5262682400235,719.442343956615 1754.4444695447094,715.5935743406297 1752.5590257184137,711.7504179557968 1750.8166067580032,707.9210909788674 1749.1743987123673,704.0957145796002 1747.6056649302152,700.2501354608723 1746.1036522024665,696.3512151937193 1744.6834482157121,692.3630410452632 1743.3815959977348,688.253421167543 1742.253489525067,684 1741.36879103778,679.5953681550515 1740.8053037310888,675.0506411084826 1740.6418844988953,670.397132866926 1740.951075538035,665.6859395190777 1741.7921616888498,660.985454665324 1743.2053196506145,656.3770438312648 1745.2074196572712,651.9492879644026 1747.7898801525291,647.7913490140759 1750.9187771106428,643.9860993516694 1754.5371913500508,640.6036826523213 1758.5695608121962,637.6961342416031 1762.9276114613936,635.2935876364713 1767.517289073425,633.4024409459539 1772.2460194803373,632.0056668869553 1777.0295960327612,631.0652419723258 1781.7980328817396,630.5264642988369 1786.4998272011298,630.3237454653813 1791.1042323695387,630.3873184831155 1795.6013417865381,630.6502141673284 1800,631.0548321876418 1804.32377286915,631.5584722967781 1808.6054004781788,632.1372924375808 1812.8803066092237,632.7883135763648 1817.1798320520584,633.5292812800375 1821.5248866940387,634.3964026776753 1825.9206744721278,635.4401841543493 1830.3530398720332,636.7197797355473 1834.7868250483923,638.2964046176718 1839.166428452753,640.2264585926474 1843.4185385175451,642.5550314150706 1847.456800763427,645.3104238434296 1851.1879847812688,648.5002179456299 1854.5190677262126,652.1092781319625 1857.3645579729086,656.0998751859042 1859.6533555843503,660.4139178451746 1861.334487952179,664.9770705875236 1862.3811653618093,669.704352355876 1862.7927619776096,674.5066670133015 1862.594527167513,679.2976264252169" fill="none" stroke="#17353b" stroke-width="0.99" opacity="0.3"></polygon><circle cx="1800" cy="684" r="2.5" fill="#17353b"></circle><line x1="0" y1="1044" x2="1200" y2="900" stroke="#17353b" stroke-width="0.9" stroke-dasharray="3 5" opacity="0.55"></line><line x1="1200" y1="900" x2="2400" y2="756" stroke="#17353b" stroke-width="0.9" stroke-dasharray="3 5" opacity="0.55"></line><circle cx="1200" cy="900" r="3.5" fill="#17353b"></circle><text x="1200" y="873" font-family="&#39;JetBrains Mono&#39;, monospace" font-size="33.6" fill="#17353b" opacity="0.6" text-anchor="middle">(horizons do not meet)</text></g>
<g font-family="&#39;JetBrains Mono&#39;, &#39;Courier New&#39;, monospace" fill="#17353b">
    <text x="146" y="170" font-size="35.28" letter-spacing="2.5">PLATE II · MMXXVI</text>
    <text x="2254" y="170" font-size="35.28" letter-spacing="2.5" text-anchor="end">COGNITION · MERITOCRACY</text>
    <text x="1200" y="1730" font-family="&#39;Fraunces&#39;, &#39;Times New Roman&#39;, serif" fill="#17353b" font-size="52.08" text-anchor="middle" font-style="italic">contours that do not converge</text>
    
  </g>
</svg>