<?xml version="1.0" encoding="UTF-8"?>
<svg xmlns="http://www.w3.org/2000/svg" xmlns:xlink="http://www.w3.org/1999/xlink" viewBox="0 0 2400 1800" preserveAspectRatio="xMidYMid meet" style="background:#f7f3ec">
<defs>
    <pattern id="ap-grid-p4" width="24" height="24" patternUnits="userSpaceOnUse">
      <path d="M24 0H0v24" fill="none" stroke="#17353b" stroke-width="0.63" opacity="0.07"></path>
    </pattern>
    <clipPath id="ap-clip-p4">
      <rect x="142" y="142" width="2116" height="1516"></rect>
    </clipPath>
  </defs>
<rect x="0" y="0" width="2400" height="1800" fill="#f7f3ec"></rect>

    <rect x="132" y="132" width="2136" height="1536" fill="none" stroke="#17353b" stroke-width="1.8"></rect>
    <rect x="138" y="138" width="2124" height="1524" fill="none" stroke="#17353b" stroke-width="0.72"></rect>
    <rect x="142" y="142" width="2116" height="1516" fill="url(#ap-grid-p4)"></rect>
<g clip-path="url(#ap-clip-p4)"><polygon points="859.5506296523413,900 864.0785794826697,928.654120985186 865.7441594858608,957.951204645803 864.2382409764934,987.4506312863274 859.3677701620184,1016.6402414909534 851.0746490773249,1044.9737264156527 839.4429052786356,1071.9120934959433 824.6934840246549,1096.9651675834816 807.1671903034658,1119.7290725275031 787.2974490733386,1139.9160216304426 765.5755291327177,1157.3734898937773 742.5115938475095,1172.0908737976713 718.5953306583505,1184.1929645147436 694.2599332022294,1193.9208485394759 669.8528632448607,1201.602079610378 645.6161387275567,1207.6130170425247 621.6779460765456,1212.3369951391899 598.056252626223,1216.122400703853 574.6739087015186,1219.2447502400194 551.3835949408987,1221.8764735190734 528,1224.0673632017706 504.3359019758486,1225.7376139244227 480.23844347848507,1226.684149816865 455.6218727934097,1226.5996463309514 430.49337368962745,1225.1024167743442 404.9692897597753,1221.7742766878737 379.2799986842048,1216.2027233745462 353.7628143380001,1208.0233491650322 328.8434800747025,1196.958386149898 305.0079484937295,1182.8476589820502 282.76711039962834,1165.668963733736 262.6178434446557,1145.5459220289417 245.00412946270734,1122.742579794846 230.28200132636675,1097.6453095831994 218.6917237591789,1070.733808357614 210.33992243534306,1042.5440383810844 205.19341910492875,1013.6267342236105 203.0854007126229,984.5055182875873 203.73335783490944,955.6386898548375 206.76708874134954,927.3883766046552 211.7640912829669,900 218.28895082326045,873.5939794579597 225.93294834394493,848.1703856732207 234.35009622757832,823.6259701231817 243.28616167754433,799.7817716505431 252.59792484152257,776.4184524773029 262.2608733101244,753.3157480271748 272.36466348302304,730.2920029981449 283.0968720353228,707.2397508164668 294.71670086187305,684.1536766286736 307.52127509037336,661.1480480145713 321.8078907689536,638.4617299019171 337.8359567712399,616.4501197242557 355.79239666191813,595.5646262860416 375.76392896599725,576.3215449778245 397.71896278446445,559.2632324537391 421.5008969930899,544.9152526143432 446.83348847562706,533.7435772258617 473.33776811144253,526.1159381696106 500.5588489157667,522.2710424713803 527.9999999999999,522.2986133016151 555.1606480009805,526.1321828767293 581.5745840685611,533.5553377464562 606.8446369440054,544.22082285296 630.670422773083,557.6806742494973 652.8664657028675,573.424492099088 673.3689329630681,590.9221887419924 692.2303508783112,609.6671269115978 709.602853961813,629.2155413594098 725.7116515722853,649.2185150862961 740.8213644419725,669.4435218545298 755.1985916561212,689.7835770271726 769.07444773085,710.2532580838096 782.6108218679984,730.9721449978623 795.87375572769,752.1374628888452 808.8166466711452,773.9887644427345 821.2750275894027,796.7682643832002 832.9735454615379,820.6808571244416 843.5445689768253,845.8578708822549 852.5567174007589,872.3282350774288" fill="none" stroke="#17353b" stroke-width="0.99" opacity="0.788888888888889"></polygon><polygon points="809.5517447606396,900 812.4880203388296,924.2555005028079 812.7509266951702,948.8584591695499 810.1697831210511,973.3882189967414 804.6864487029427,997.3926166030152 796.3616803214815,1020.4223015779231 785.3711855014105,1042.0652663944802 771.9917671653031,1061.9782094867653 756.5789106091039,1079.9116578595372 739.5379837789809,1095.7263817031376 721.2918301631457,1109.3994826767412 702.2478701028836,1121.0195466981618 682.7678584542302,1130.7713224336478 663.1431714580161,1138.9114133766736 643.5779406168606,1145.7373538309093 624.1815709309407,1151.5530907411455 604.9712516396824,1156.6342501744928 585.8840808090849,1161.1965941931414 566.7974774474569,1165.3707679994059 547.5557392028418,1169.1858282517571 528,1172.563190685218 507.99850932664873,1175.321621817981 487.4741258107398,1177.192824508136 466.4261950120015,1177.846135406778 444.94453771796464,1176.9199646827255 423.214055862309,1174.0569514402234 401.50939183661944,1168.9394461316185 380.1800623070668,1161.3218992751094 359.6274329600408,1151.0570369418806 340.2757130672149,1138.1133082293738 322.53974855214824,1122.581939068506 306.7927203392319,1104.6729371290257 293.33687874854314,1084.700465455634 282.38016191994984,1063.059032888112 274.02098410173346,1040.19283659086 268.2426928852689,1016.5612494934711 264.91825988278634,992.6038090069186 263.8247782075266,968.7080977132891 264.6663892747152,945.1836087661438 267.1034438433686,922.2440879637078 270.78509780877255,900 275.38221115523686,878.4617612472942 280.61739119927427,857.5533142889961 286.2893015115411,837.1345950713779 292.2889183568792,817.0305625332696 298.6062024029171,797.0638094036045 305.32658805220603,777.0874154940792 312.6176847597601,757.0146764251592 320.707537222636,736.8426442287166 329.85661137045554,716.6670220541599 340.326280626342,696.6868040118705 352.34692273459643,677.1980599222593 366.08876894885725,658.5773345983077 381.63837170884113,641.2561574373356 398.9830013241824,625.6890399276044 418.0045012315695,612.3179896627009 438.48320172914794,601.5369256329241 460.11150487798034,593.6594057828389 482.5158052500226,588.8927712121854 505.28459527467527,587.3212016361983 528,588.8993231540287 550.2696532548151,593.4569952024224 571.755798008174,600.7148277209154 592.198770943106,610.3089469964755 611.4325876284989,621.8226401411567 629.39112556168,634.8218503617788 646.1043311292974,648.8911322283136 661.6848620562416,663.6666433357711 676.3065224654135,678.8630491065404 690.176660435502,694.2918214534714 703.5052980889519,709.8692604036354 716.4740927477571,725.6135774800479 729.2082521350109,741.6314518248131 741.7542443254928,758.0954998265057 754.065581550938,775.2149856904588 765.9981708038331,793.2027573191524 777.3157902288499,812.2417549371729 787.7052598170367,832.4544737879257 796.7999247706111,853.87846388559 804.2092530269613,876.450348708194" fill="none" stroke="#17353b" stroke-width="0.99" opacity="0.7277777777777779"></polygon><polygon points="774.139713312358,900 775.6617636688712,921.1156871422634 774.7116303822125,942.3315571246106 771.2311523967863,963.2608526734676 765.2648243036172,983.5163491927756 756.9567273357547,1002.7400634639473 746.5389007532355,1020.6303926081698 734.3122824921015,1036.9640234236172 720.6220604643696,1051.6104619893333 705.8298083531006,1064.5377549985574 690.2850803044648,1075.8088369965035 674.2991784239674,1085.5688570453501 658.1235818228643,1094.0247242352702 641.935058406343,1101.4188770571336 625.8288166218829,1107.9998518468478 609.8202591654649,1113.9925443003258 593.8550521592946,1119.5710940263516 577.8264047281012,1124.837071504925 561.5977454063603,1129.80513394483 545.0284527828736,1134.3975913494317 528,1138.4484573523337 510.4398352646466,1141.716635689052 492.34054696720483,1143.9070027314851 473.77233004435016,1144.6973762987084 454.8874338806364,1143.7687861983861 435.91606616309343,1140.8361387745372 417.154073728897,1135.6763276747924 398.94353746638944,1128.151089963708 381.64812361476777,1118.2224164073045 365.6255590606484,1105.9590473650733 351.1998917753972,1091.5334505766532 338.6362303869769,1075.20959966579 328.1204255755614,1057.322762240548 319.74568293902473,1038.2532770975513 313.50742829368573,1018.3968760128655 309.306947335687,998.1344307778596 306.9634702587509,977.804048941561 306.23355152690357,957.6781982346109 306.83588576665943,937.9480339904461 308.4791720589154,918.7163858293932 310.89034252791805,900 313.8404360928981,881.7407165200032 317.16562807038736,863.8243756674826 320.7813986028467,846.1054832614421 324.68849154944587,828.4350936363912 328.9701152192785,810.68904927346 333.7806890581431,792.7936781495066 339.32726284952685,774.7462978048112 345.84544686625634,756.6283846850667 353.5722232481518,738.6099886069056 362.7183088423859,720.9448345792515 373.44277867782716,703.9564731816557 385.8324335420027,688.0167261706476 399.88792706590664,673.5184391110112 415.51800327542435,660.845122510498 432.54239991270714,650.3403811741433 450.7031239534013,642.2800668759994 469.6829868093085,636.849838228157 489.1295779074728,634.1302981070194 508.68232605463334,634.0911531421275 528,636.5949723358572 546.7859619928868,641.4101974817479 564.8087144660922,648.2321668936745 581.9157479631427,656.7101430219403 598.0393620865296,666.4777590480337 613.1939254158511,677.1839756483547 627.4648870753555,688.5215983384425 640.9906688068257,700.2506520175855 653.9392718956292,712.2144183426819 666.4819588067885,724.3466635013787 678.7666632374759,736.6694481594011 690.8938154919256,749.281833274138 702.8970391736746,762.3406849362813 714.7307025815993,776.0355514787452 726.2656399887779,790.5601615542021 737.293559452163,806.0834165873721 747.5398030129222,822.7227933851766 756.6833053208431,840.5228288225854 764.3818880784845,859.440852533318 770.3004996348885,879.3414152071329" fill="none" stroke="#17353b" stroke-width="0.99" opacity="0.6666666666666667"></polygon><polygon points="743.5239884406438,900 743.800782415427,918.399214069364 741.8676973249496,936.6960918396686 737.7566055409291,954.554614364384 731.5861038910193,971.6615629529701 723.5516917384479,987.7501764349902 713.9094558377094,1002.619398971888 702.9548341467658,1016.146831941865 690.998499896228,1028.2941206903276 678.3416770905764,1039.1042495085171 665.253243050708,1048.6910133049337 651.9507884568623,1057.2217041243596 638.5874089239079,1064.894719464171 625.2454334003301,1071.914301606557 611.9376094293649,1078.464903579148 598.6155307200269,1084.6877196433345 585.184380517185,1090.6617120430813 571.5224446527178,1096.3910310978831 557.5033815477649,1101.8001049298389 543.0189684515026,1106.7369287435185 528,1110.9842845007752 512.4332008797948,1114.2778481005855 496.3724106694467,1116.329468378076 479.9428668538212,1116.8533961153985 463.33809578352464,1115.5929512635703 446.80965385147056,1112.3450710393415 430.65067046457017,1106.9803849209607 415.17476084933907,1099.4568949302748 400.69233978111316,1089.82595868466 387.4866314237664,1078.2300180163688 375.7917095507113,1064.8923146533962 365.77471246894885,1050.0996085051972 357.5239764044816,1034.179587909672 351.0442589871237,1017.475169021791 346.25953667266697,1000.3181738738673 343.02312369005483,983.0049251340722 341.13414740395956,965.7760957336259 340.35879556897333,948.8027231381076 340.45428545210814,932.1796832867609 341.193238813122,915.9271785311017 342.3861063565176,900 343.89947454876585,884.3035556213188 345.6684882194309,868.714986015867 347.7021950702946,853.1071872882414 350.0813072020742,837.3732717471039 352.9486127659976,821.4489530700728 356.49298580164873,805.3305457907327 360.928564437904,789.0867003295342 366.47113620259614,772.8626118633673 373.31403852564495,756.8761836584413 381.6059264382126,741.4064203080637 391.43257382602303,726.7750956790175 402.80447769902145,713.3234087960699 415.6514657581784,701.3858427552902 429.824821877529,691.263727706749 445.10670915241064,683.2010507565135 461.22595786561624,677.3648489633906 477.8786658132017,673.8320864213624 494.7515915565633,672.584295065527 511.5460529609992,673.5105118879692 528,676.4182455763053 543.906116370298,681.0514312450362 559.1242006606482,687.1136585137641 573.5866456933372,694.2944514388778 587.2965184350934,702.2960881838795 600.3184754190867,710.8584021525205 612.7634580164059,719.7792090485616 624.7687284914906,728.9284360790078 636.4752710059996,738.2546480165588 648.0048460546057,747.7834095710266 659.4390261632066,757.6077216565261 670.8023510338801,767.8715426551213 682.0513400981134,778.7480790827116 693.0705286959856,790.4150374094601 703.6760067087275,803.0293206927117 713.626202662505,816.7037017691547 722.6389440929048,831.4878045277596 730.4132060396078,847.3552960619651 736.6534945576268,864.1985774629592 741.0945466797831,881.8315200830564" fill="none" stroke="#17353b" stroke-width="0.99" opacity="0.6055555555555556"></polygon><polygon points="714.4552054150403,900 713.7282845676581,915.8352274178401 711.1144153995289,931.4193470482764 706.7102631395464,946.4799163935419 700.6792003546659,960.7824461020608 693.2374292881382,974.1472162413797 684.6358007942591,986.4607540404992 675.1390745390834,997.680852580708 665.0046056625124,1007.834645258621 654.462490103456,1017.0099344190579 643.6990498367343,1025.3406373231287 632.8452052744642,1032.987793363302 621.9707978551986,1040.1180161551588 611.0853388691687,1046.8815296100968 600.1450283642489,1053.3919731366123 589.0652724585608,1059.709993039421 577.7373888020481,1065.8322712563272 566.0477809698333,1071.6871144366053 553.8976232059438,1077.1370875549287 541.221050509695,1081.9884891537827 528,1086.006797043749 514.2741828944987,1088.9366291732713 500.145149510957,1090.524321505095 485.7739949827495,1090.5409664060398 471.3728834072648,1088.8037065364285 457.19118105879073,1085.1932452754456 443.49752491252076,1079.6658991268635 430.55955842995337,1072.2590447182095 418.6233024583556,1063.0894514352601 407.8941719414524,1052.3446780590994 398.52149458189155,1040.2683808696174 390.5880506372963,1027.1409662277833 384.1056665468005,1013.2574655254618 379.0173066110925,998.90477125526 375.2054740332125,984.3404244838085 372.50611719451035,969.774981384427 370.72669933177986,955.3596258352201 369.6666824585728,941.1801719294158 369.13843936070316,927.2579659851822 368.98656407147945,913.5575145502569 369.10370574770815,900 369.4413883185641,886.4812638480066 370.0147657710594,872.8923968552009 370.9008528988045,859.1408176873505 372.23040618374614,845.1696734694746 374.17424722341156,830.9735608708269 376.92536145242923,816.6089291274108 380.6785151027972,802.1980511071365 385.6093733987667,787.9260837002787 391.85514952749963,774.0314221849694 399.49866252901995,760.7902177397717 408.55734782761317,748.4965077393493 418.9782794936518,737.4398478694345 430.6396759704871,727.8825902207867 443.3587284444749,720.0389971829632 456.90497519343484,714.0582124693007 471.0179063719685,710.0127442378309 485.4270744718104,707.8935866758014 499.8727461046432,707.6124671240868 514.1250841375411,709.0110182172642 528,711.8760057374726 541.3701492666526,715.9591582367528 554.1700266122576,720.9997010742532 566.3947014807723,726.747438645236 578.0923658373443,732.9841795179323 589.3514783239166,739.5414647053253 600.2838248322947,746.3129231732146 611.0052213286349,753.2601053288993 621.6158208199023,760.4112831495356 632.1820293883034,767.8533924351464 642.7218818896058,775.7179612862603 653.1953912132527,784.1624539936946 663.5008988105461,793.3489039671194 673.4778660473787,803.4219697816883 682.9159133750424,814.48859957072 691.5692992592369,826.6013260138739 699.1754935026996,839.7468532026337 705.4760926993148,853.8410732232244 710.2380889891726,868.7310157921065 713.2734603205733,884.2035509804233" fill="none" stroke="#17353b" stroke-width="0.99" opacity="0.5444444444444445"></polygon><polygon points="685.3543098986581,900 683.9384590744011,913.2953414628194 681.0029090658115,926.252720130449 676.6813469287922,938.6698360414433 671.1525802093904,950.3891839496412 664.6252615677395,961.3080393294734 657.3203851614219,971.38302965968 649.4532287214067,980.6288538061689 641.2164623498866,989.1112893314696 632.7660245914517,996.9351912710453 624.2110901712246,1004.2286810188266 615.6090490664186,1011.1251018441941 606.9659229530031,1017.7445410763193 598.2421108951642,1024.1767661027413 589.3628337141128,1030.4672872694568 580.2321869016441,1036.6079585112184 570.7493601720472,1042.5330855284756 560.825372137426,1048.1214746019155 550.3986215729278,1053.2042751229317 539.4476768021204,1057.577902301408 528,1061.0208286848283 516.1357065978387,1063.3126527693998 503.98595184582354,1064.25362731582 491.726068644698,1063.682781095725 479.56410075977675,1061.4929005082408 467.7258324251768,1057.6409388882107 456.43776426168256,1052.152861962246 445.9096920764186,1045.1224747721863 436.31858913384684,1036.7043560560846 427.79536946754877,1027.1015938631701 420.4158316924233,1016.5495156665414 414.1966767307576,1005.2969887079663 409.0969985819374,993.5870945075129 405.02511310357494,981.639033245844 401.850068017809,969.6329841966606 399.4167191054396,957.6993504110359 397.5629077037597,945.9133787735979 396.1370674925195,934.2956133054828 395.0145444967633,922.8180625196156 394.11103766946314,911.4153973487562 393.3918463740463,900 392.8760183872894,888.4793046819865 392.6349879511192,876.7736456877068 392.78582951225576,864.8327788841931 393.4797767607222,852.6493740885703 394.8871172557774,840.2680751941605 397.1799253428843,827.7891628788917 400.514305836556,815.3663883184148 405.01386763889985,803.1991231918281 410.75602559605545,791.519534805836 417.7624523610414,780.5759900577949 425.9945969446869,770.6142695991815 435.3546926702571,761.8583968060836 445.69214275262186,754.4929329774864 456.81464899338494,748.6484557993745 468.50298923827825,744.391635506593 480.52799722336636,741.7208817924183 492.6680886076565,740.5679974006678 504.72562977962724,740.8056939153482 516.5405659275054,742.2602582237037 528,744.7281598664989 539.0428174724536,747.9950086916956 549.6589436391241,751.8550461082368 559.8833521744674,756.1293038944771 569.7854637084574,760.6806967721835 579.4550300885426,765.4246158835853 588.9859489824103,770.3340304921638 598.4596602189608,775.4386416469315 607.9298194165927,780.8182117858489 617.4098215892803,786.5907616181576 626.8644695026063,792.8968247055097 636.2066757261538,799.881332242757 645.299593292924,807.6749283678714 653.9640359884256,816.3765677580898 661.9905278363465,826.0391174158722 669.1548634174015,836.6593862757228 675.2357111524279,848.1735689125269 680.0325849090559,860.4585561482324 683.3824656114556,873.3389880768733 685.1734783565748,886.5993605679233" fill="none" stroke="#17353b" stroke-width="0.99" opacity="0.4833333333333334"></polygon><polygon points="655.0265533673049,900 653.2921256558247,910.6824294858644 650.427483767911,921.0064925383319 646.574623228443,930.8395191033333 641.9002064558676,940.0924555227147 636.5813499472717,948.723856749684 630.7909049560997,956.7391305560037 624.6836344604264,964.1851246807144 618.3845969676709,971.1406080381071 611.9808280041176,977.7036034098418 605.5170845471432,983.9768415927384 598.9960180723452,990.0527950353671 592.3827074271198,995.9997940348122 585.6130559200676,1001.8506260457915 578.6051795776978,1007.5947784948447 571.2726223590018,1013.1751310934308 563.5380576645625,1018.4894696021929 555.3460909161311,1023.3967217229849 546.6738695774474,1027.7273533569066 537.5384256614755,1031.29695509178 528,1033.921734426383 518.160995478206,1035.4344396752344 508.1606389834877,1035.6991953072056 498.1658565210366,1034.6238302215854 488.3592411178153,1032.168520263903 478.92528193667226,1028.3499207446318 470.0361970835648,1023.240399254728 461.8387547872304,1016.9624512582496 454.44337375890586,1009.6788446965222 447.91657273239423,1001.5794499081715 442.2775130176125,992.8660275642532 437.49897828141644,983.7364392199313 433.512701814707,974.3697938619341 430.2185257511528,964.9139448589428 427.49650078628565,955.47651483035 425.22074575705415,946.1202744578557 423.2737123581067,936.8632696988876 421.55945841551215,927.6836225677043 420.0146277027505,918.528469650748 418.6160561142203,909.3260950066041 417.3842515031838,900 416.382395699242,890.4834626990101 415.7109529845285,880.7330923117023 415.49839708170697,870.73998434159 415.8889467206153,860.537319842787 417.02849119614143,850.2036040178062 419.05006357202615,839.8611708915762 422.06026314151745,829.6700495709337 426.1279361772156,819.8177476518267 431.27620398771654,810.5059135013004 437.47860140224265,801.9351515190963 444.65968892599943,794.2894523509327 452.7000670705533,787.7217448451524 461.44529428027,782.3419737836401 470.7178321951492,778.2088669954319 480.33085060649915,775.3262007797064 490.1025478061678,773.6439382223364 499.8695972899064,773.0641433973542 509.49842321440445,773.4511116749088 518.893225550533,774.6447476388155 528,776.4759074069184 536.8061955891485,778.78223222227 545.3360853465305,781.4229536252078 553.6423501472611,784.2912518959546 561.7947509762099,787.3229888840463 569.8670536891749,790.5009904309073 577.9235444661133,793.8544877553152 586.0065164270279,797.4537989960983 594.1260141154723,801.4007955068624 602.2529018787401,805.8161072237369 610.315996162513,810.8243374906109 618.2036022978174,816.5387493113899 625.7693626051622,823.0469334756536 632.8418970700618,830.3988697491621 639.237342170359,838.5985551659223 644.7736045081843,847.6000217259777 649.284972093359,857.30813401896 652.6356845622482,867.584087805961 654.731158486133,878.2550694241181 655.5257860708031,889.1271282197497" fill="none" stroke="#17353b" stroke-width="0.99" opacity="0.4222222222222222"></polygon><polygon points="621.6162059253011,900 619.9760677548915,907.8418963126039 617.5976030241617,915.3734383935187 614.6027237027432,922.5240973094722 611.1214169036914,929.2584343250292 607.2807353105513,935.5757521172537 603.1944180942437,941.5062588188533 598.9541273876753,947.1041406170276 594.6231249890175,952.4382447908994 590.2329735043664,957.5813123914589 585.7835491616148,962.5988449250827 581.2463290915799,967.5387280901253 576.5705957142966,972.4226639583119 571.6919162895983,977.2402879203268 566.5420344975965,981.9465852925687 561.059174696168,986.4629002383797 555.1977215209279,990.6814780881065 548.9363013861533,994.473135629479 542.2834518723927,997.6973463852827 535.28030425245,1000.2137894043797 528,1001.8942640262662 520.5438850194477,1002.633833769304 513.0348438378184,1002.3601338351832 505.608418850776,1001.0399517972259 498.40257915393653,998.6824527875086 491.5471379726076,995.3387433849998 485.1538540101876,991.0978209266809 479.3081865722139,986.0793027157841 474.0635134691398,980.423638657714 469.4383801874115,974.2807510774514 465.4170521881139,967.7981934628766 461.95331849536495,961.1099612630715 458.97717568584693,954.3270187062143 456.4037382575088,947.5304327589774 454.1435019065441,940.7677458382486 452.112952020673,934.0528981882862 450.2444739128722,927.3696604097144 448.4945875533311,920.6781908237115 446.84969140732653,913.9240250593318 445.3287416944881,907.0485665618146 443.98259137524144,900 442.89003835626784,892.7435091467655 442.150953035297,885.2697506394425 441.8771400627502,877.600708212654 442.1818102727956,869.7923115177937 443.1686745417521,861.9335240212 444.9217086149788,854.1419542587195 447.49657308290097,846.556389582006 450.91451204577027,839.3269576016411 455.15931330940464,832.6038577468056 460.1776157465903,826.5257503921396 465.8825248042075,821.2089295455834 472.1601767703658,816.7383332697941 478.87860764188605,813.1612707568213 485.89806105747294,810.4844833566983 493.08173337673384,808.6748344055138 500.3059158527105,807.663570904636 507.46855760447505,807.3537533528199 514.4954324070915,807.6301422306792 521.3433314839838,808.3705908892041 528,809.4578482637016 534.4808577879138,810.7906352541283 540.8228633031194,812.2929296805797 547.0761626324543,813.9205695205667 553.2943848221539,815.6645456040382 559.5245792920417,817.5506775521341 565.7978274503112,819.6357189908106 572.1214952199261,822.0002855522786 578.4739324130705,824.7393079691963 584.8021844747839,827.9509525329095 591.0229856031384,831.7250989299333 597.0269786903267,836.132506618418 602.6857886290941,841.2157315169559 607.8612925622831,846.9826817239558 612.416211385809,853.4034412781147 616.2250127894722,860.4106700922325 619.184080543768,867.9035376024789 621.2201711933242,875.7548017268933 622.2963413961912,883.8203373052555 622.4147710931117,891.9501793959762" fill="none" stroke="#17353b" stroke-width="0.99" opacity="0.36111111111111116"></polygon><polygon points="578.5923142416065,900 577.5668636243656,904.2260798332791 576.2028688578979,908.2707997732698 574.5704162658311,912.1122817258573 572.7380988218172,915.7476469358245 570.7672788224995,919.1910191569102 568.7072216172435,922.4698125082116 566.5915595441481,925.61968294622 564.4364144092544,928.6786550227132 562.240344246038,931.6810180745081 559.9861016098538,934.6516100773416 557.6440137485532,937.6010706882716 555.1766369368545,940.522551050687 552.5442135064784,943.390225904779 549.7103827220366,946.1597773095403 546.6475731757927,948.7708260718721 543.3415370544234,951.15109569631 539.7945722203746,953.2219230376611 536.0271081219535,954.9045965687308 532.0774933187716,956.1269203285887 528,956.8293773288041 523.861236854064,956.9703028773633 519.7353187534519,956.5295723835914 515.6982645335512,955.5104505692887 511.822170618684,953.9394257502819 508.1697308734073,951.8640467268393 504.7896396027075,949.3489719149776 501.7133283579874,946.4706119236871 498.95335657115226,943.3108811046588 496.50361383185975,939.95065758567 494.3413137363611,936.4635767856089 492.43058310547366,932.910747959714 490.727293263853,929.3368904591563 489.18465740597486,925.7682452446684 487.75904189291174,922.212441623234 486.4154171283005,918.660306395343 485.1319076701761,915.0894114993814 483.9029881656544,911.4689855370251 482.7410030855827,907.7656809706016 481.67585127087403,903.9496053698614 480.75285506596384,900 480.02901084909274,895.9099847154049 479.5679757799817,891.6898810293053 479.4342691354598,887.3687662335742 479.68724362202863,882.9940866962863 480.37540501814976,878.629350760658 481.53162516868446,874.3501121290316 483.1697069923127,870.2386245383739 485.28262921570564,866.3776812273561 487.84263581779874,862.8442351122644 490.8031565591325,859.7034196057268 494.1023679372514,857.0035532243458 497.66804574114025,854.7726170910091 501.4232365146204,853.0165523069572 505.29219775663955,851.7195478236014 509.2060331177137,850.8462961171597 513.1074814486959,850.3460025632057 516.9544040736517,850.1577636464255 520.7216446659862,850.2167957343215 524.4010978253493,850.4609131553764 528,850.8366298885245 531.5376323474864,851.3042957041511 535.040782209419,851.8417715491821 538.538432680274,852.446291178053 542.0562262244115,853.1343326171776 545.6112709314863,853.939516772127 549.2078245681045,854.9087424290386 552.8343053498453,856.0969383258654 556.4619477668665,857.5609471449809 560.0452596431616,859.353140121744 563.5242587870823,861.5153863139941 566.828291533713,864.0739649974703 569.8810784574018,867.0359166637992 572.6065099578102,870.3871868368223 574.9346383414708,874.092741244054 576.8072909326503,878.0986379990907 578.1827628699646,882.3358512598434 579.0391352960257,886.725470044742 579.3758961634989,891.1847622266371 579.2137040461469,895.6335102519872" fill="none" stroke="#17353b" stroke-width="0.99" opacity="0.3"></polygon><circle cx="528" cy="900" r="2.5" fill="#17353b"></circle><polygon points="1596.8604700426424,900 1596.710418957909,927.4441051595152 1592.9856562567911,954.6403600862247 1585.7818508633961,981.094247595069 1575.3309697259942,1006.3562792509928 1561.9818229671628,1030.055529411627 1546.1708336255879,1051.925628029206 1528.3858443146187,1071.8206663792787 1509.1264348217703,1089.7194600844362 1488.8645474391856,1105.7177577807074 1468.0091693964464,1120.0091693964462 1446.8784091170705,1132.8566990238742 1425.6815658040678,1144.5576947737281 1404.5128024692121,1155.4056807666386 1383.3568879811642,1165.6528503443164 1362.1062861783978,1175.4769436439135 1340.5877558851566,1184.9558120317479 1318.5956938589316,1194.0522273999804 1295.9287944511575,1202.6104985625448 1272.4262794101771,1210.3653071287195 1248,1216.961983576184 1222.659126474732,1221.9863272055663 1196.5248762752926,1225.0011403849558 1169.8337197412393,1225.5859891906398 1142.9286436858656,1223.3763835566863 1116.2392367876955,1218.0986215357752 1090.2524701964248,1209.5969592099832 1065.4769730808573,1197.8505094178568 1042.4042550327927,1182.9782662986663 1021.4706411035551,1165.2318015756543 1003.0236297455986,1144.9763702544014 987.2959642009723,1122.6622815983258 974.3899647492522,1098.7893266987144 964.2736752246519,1073.8677154383797 956.7892294626612,1048.3792987556565 951.6726540667438,1022.7428055875786 948.5832094371451,997.2864126367145 947.1394404470934,972.2302297936112 946.9584526088757,947.6802969979756 947.6946132963984,923.6345465022006 949.0739316732679,900 950.9207902984997,876.6193591343833 953.1744451148751,853.3042194961487 955.893706114481,829.8714834444729 959.2493612415203,806.1792301675371 963.5050987313605,782.158353468535 968.9888016570767,757.8366937503431 976.0570237729869,733.3531298389677 985.0561165536274,708.9600861973255 996.2837992277201,685.0140547021515 1009.9549153541019,661.954915354102 1026.1747060385146,640.2759508124086 1044.9221919169572,620.4873765055854 1066.0452659289008,603.0768602250068 1089.2679537023007,588.4708183758055 1114.2091102353054,577.0002194081112 1140.410706801701,568.874203547274 1167.3729297083355,564.1640826510654 1194.5926538610813,562.7992874206287 1221.601533385045,564.57567846931 1248,569.1754452068094 1273.4838724998638,576.196698546157 1297.8610168653688,585.1899292430397 1321.056483891835,595.6978444417246 1343.1056927693212,607.2947750722121 1364.1364127307877,619.621897299973 1384.3414044752883,632.4149272414722 1403.9445096211684,645.5216888762247 1423.1636289199032,658.9079480305235 1442.1743441821109,672.6510533641886 1461.077883787943,686.9221162120571 1479.8767124124379,701.9585785197696 1498.4602830173949,718.0299528116036 1516.6024957662835,735.4001788980685 1533.9712614311723,754.2903644767931 1550.149378302546,774.8456296444863 1564.664817921619,797.1093635532588 1577.0275851960084,821.0074656430152 1586.7696637507916,846.3441564078994 1593.4842419558076,872.8098004770685" fill="none" stroke="#17353b" stroke-width="0.99" opacity="0.788888888888889"></polygon><polygon points="1538.9248002156241,900 1537.2881710893814,922.7674728289065 1532.7418940498183,945.0986855260289 1525.470534307262,966.6147815577842 1515.7566439294349,986.9994074098945 1503.9566862833342,1006.0207308386326 1490.4710587164063,1023.545175181867 1475.7110867514352,1039.5415334294798 1460.0661446832946,1054.0750728625515 1443.8740316560213,1067.2922272212675 1427.3974018240992,1079.3974018240992 1410.8084446070025,1090.6241967275664 1394.1831954717047,1101.2039073239578 1377.5059090685788,1111.334436206708 1360.6829378225302,1121.1527175616814 1343.5646270432444,1130.7134186909275 1325.9729534699065,1139.9760752392633 1307.7320745878505,1148.8019965477977 1288.6986757021386,1156.9613253596467 1268.7890279077249,1164.1496448616017 1248,1170.012592624848 1226.4218685011847,1174.1761566480486 1204.2415832403003,1176.2797700963354 1181.7360914366247,1176.0090431043202 1159.2563081602482,1173.1249994033583 1137.203248677348,1167.4870197100258 1115.9986174407813,1159.0673001519272 1096.0527028010497,1147.9554532887669 1077.7327013654558,1134.3528314880527 1061.334564179144,1118.5571445390574 1047.06112143621,1100.93887856379 1035.0086359100255,1081.9118102397642 1025.16311694686,1061.9004723462633 1017.4067766985531,1041.307708978854 1011.5340212272881,1020.4854341243062 1007.2754379960734,999.7113783783495 1004.3274592334046,979.1740079261826 1002.384824348646,958.9669865816219 1001.1726885404274,939.0936055823345 1000.4752561495159,919.4806198223596 1000.1581532637572,900 1000.1823619057886,880.4963289007401 1000.6083585539225,860.8170133285947 1001.590052697752,840.8422056266795 1003.3591135833715,820.51135749936 1006.20120836477,799.8436611392617 1010.4264612672018,778.9502358891891 1016.3370043458923,758.0367336803051 1024.1947712968267,737.3959833571787 1034.192659247496,717.3912798529802 1046.4318522872954,698.4318522872956 1060.9074972387152,680.942824319041 1077.5041059663317,665.33253393749 1096.001109319404,651.9603538011651 1116.087998529852,641.108120112477 1137.3875573438734,632.9579407723631 1159.484903559372,627.5785448931998 1181.9594986567458,624.9215149382876 1204.4170035047046,624.8277898637509 1226.5178839795583,627.0438356780089 1248,631.245945672981 1268.693012429351,637.0703474644561 1288.5232554377346,644.1462346004395 1307.5086673677292,652.12856149481 1325.7443580707825,660.7274690572947 1343.380318376719,669.7315417914615 1360.593556733459,679.0227027027227 1377.5575025502244,688.5813708832238 1394.4117908708286,698.4814581015848 1411.2355115474313,708.8757721305319 1428.0266709730138,719.9733290269862 1444.6900083185506,732.010862871477 1461.0344903333278,745.2213828408903 1476.7808591040962,759.802909229679 1491.5786186764926,775.890494831628 1505.0309159146375,793.5343086789783 1516.7249895794682,812.6859580156482 1526.265305958156,833.1944106505172 1533.3062240363233,854.8119333849 1537.5810653331087,877.209475894193" fill="none" stroke="#17353b" stroke-width="0.99" opacity="0.7277777777777779"></polygon><polygon points="1497.1596021999983,900 1494.514374129577,919.4011020008003 1489.518204203423,938.2527256009462 1482.407069068595,956.2761582615954 1473.4812304840868,973.2632929151114 1463.0795831874882,989.0888803458099 1451.5512929358206,1003.7145640282961 1439.2274340424417,1017.1843222951851 1426.3953252136141,1029.6117905650378 1413.2779892958263,1041.1607383898029 1400.0206535585364,1052.0206535585364 1386.6855122806865,1062.3798718799371 1373.2551607619735,1072.3989387184906 1359.644259010146,1082.1868724239503 1345.7181775331724,1091.7827218054215 1331.3166957105348,1101.1442967564851 1316.2803317889604,1110.1452530597478 1300.4766306174192,1118.5808974458557 1283.8237453997626,1126.182226779084 1266.3089218159764,1132.636909092413 1248,1137.6152329294478 1229.048742192406,1140.798561711317 1209.68560339995,1141.9075795674257 1190.2064096055378,1140.7276287827538 1170.9522098071504,1137.128715452266 1152.2842457071433,1131.0782721465853 1134.5564696784859,1122.6454643905959 1118.088289845612,1111.9966433932245 1103.1402062570287,1099.382401111009 1089.894725496233,1085.1174920528397 1078.4444296336853,1069.5555703663147 1068.7883791417926,1053.0611839855967 1060.8372163824968,1035.9817219579813 1054.4264861022255,1018.6220018795723 1049.3368852754127,1001.2239128280087 1045.3194753948337,983.9530221203537 1042.123402496911,966.893361522168 1039.523421708023,950.0507982136065 1037.3445383817514,933.3645473897132 1035.4813556475024,916.7255800425957 1033.9102314155582,900 1032.6930465536036,883.0549752725601 1031.9722018915977,865.7845581020588 1031.9573152746552,848.1327403428025 1032.9048977299153,830.1113647092182 1035.092971071012,811.8110210930523 1038.793081240728,793.4037506818377 1044.242414399867,775.1371909547488 1051.618711615501,757.3206422841763 1061.0204041908776,740.3043386436626 1072.4538820964576,724.4538820964576 1085.8291125345463,710.1222867749883 1100.964012481112,697.6223251203774 1117.5971276697096,687.2018527813757 1135.407364186714,679.0245101103293 1154.0388364577768,673.1576846400089 1173.1284035830672,669.5689203055764 1192.3332126986263,668.1311436519161 1211.355577900875,668.6362244672587 1229.9627950877361,670.8155815164399 1248,674.3658621450077 1265.3948689206463,678.9772341353439 1282.1537708988374,684.3615772556005 1298.3498275243303,690.2778749888141 1314.1041380130437,696.5523826980948 1329.562104959901,703.0916600301091 1344.8672830249443,709.8872526955035 1360.1354211860482,717.0116237506497 1375.4313545378902,724.6057875128956 1390.751125242373,732.859906947891 1406.0112010957641,741.9887989042359 1421.0459642467413,752.2047842394566 1435.6138299806098,763.6905736771197 1449.4115057448,776.5748705391359 1462.0950969705048,790.9130994815501 1473.3060875113097,806.6751628675959 1482.6997352510825,823.7414333162747 1489.9731755019627,841.9073802948137 1494.8905406935767,860.8963798908256 1497.3026832234755,880.3794533143554" fill="none" stroke="#17353b" stroke-width="0.99" opacity="0.6666666666666667"></polygon><polygon points="1461.541682446096,900 1458.3284883968838,916.5532110306767 1453.2819300321803,932.5134635968875 1446.6560309875779,947.6930934032788 1438.7388909020524,961.9748224916964 1429.828159104653,975.3156895224802 1420.2064149747716,987.7435509958447 1410.1187983302818,999.3465273890953 1399.7550061449017,1010.2564658019859 1389.2373391412707,1020.6280834268126 1378.6158857686323,1030.615885768632 1367.8712301215257,1040.3511777771648 1356.9243330912748,1049.9214827662104 1345.6525345884631,1059.3544533205861 1333.9100276171534,1068.6079227296632 1321.5507206560628,1077.5671473301818 1308.4511755874587,1086.0495879084124 1294.5313065889623,1093.8168406370112 1279.7707509667277,1100.5926270385403 1264.2192535874321,1106.0851567498491 1248,1110.0117447132611 1231.305531228766,1112.123338168972 1214.386607046249,1112.2266106751124 1197.5350822625305,1110.201510249514 1181.0624537105248,1106.0125842340244 1165.2761659265661,1099.713002151586 1150.4559887462742,1091.4409012356748 1136.8327779794336,1081.408418807682 1124.5717010917535,1069.8844790918224 1113.7615757703115,1057.1730007649617 1104.4113728273348,1043.5886271726652 1096.454234473857,1029.432311299654 1089.7586231530818,1014.9690899694089 1084.1455169436326,1000.4101563572032 1079.409973546845,985.9009090088214 1075.344954312718,971.5160615358185 1071.7650749149193,957.2621983242734 1068.5279523191184,943.0874264967935 1065.5510484738313,928.8970750752707 1062.8223472799527,914.5737973348441 1060.4038003619698,900 1058.4271805302228,885.0802955401733 1057.0827209266615,869.761673605686 1056.6016205169435,854.0493145637627 1057.2340942131073,838.0163998401275 1059.2250801322027,821.8068679548642 1062.789944938711,805.630763444009 1068.09252862142,789.7525597469439 1075.2276424512697,774.4735345770995 1084.2097005763394,760.1098687959734 1094.9685691561367,746.9685691561368 1107.3530154906866,735.3235392122335 1121.1414018663882,725.3941190725786 1136.0585669463114,717.3281836117242 1151.7972400653175,711.1914526936024 1168.0418990884466,706.9640683577315 1184.49275293589,704.5447912194672 1200.8875277494462,703.7624301663766 1217.0189609755262,704.3934179330215 1232.7463380969289,706.183848883188 1248,708.8738626291349 1262.7784467192696,712.2220303023109 1277.1383970374504,716.0274015695937 1291.1788611020463,720.1470997788796 1305.0208763620935,724.5077875450793 1318.7849874941821,729.1099231791356 1332.5687762981102,734.024431199614 1346.426745621585,739.3821490988203 1360.35463231664,745.3571153981904 1374.2797904011509,752.1453622000303 1388.0586894398302,759.9413105601698 1401.4818730387883,768.9140966688148 1414.2859868467137,779.1861587445223 1426.1717866524943,790.8161887150515 1436.8264435829058,803.7881214569854 1445.9480332851683,818.0072399682023 1453.2698716038647,833.3037756727045 1458.582362789753,849.4436476572773 1461.75025757935,866.1452850840691 1462.723655146614,883.1008818443407" fill="none" stroke="#17353b" stroke-width="0.99" opacity="0.6055555555555556"></polygon><polygon points="1428.943079932683,900 1425.5819836319138,913.976005213133 1420.8629033280079,927.378794196481 1415.0286540077443,940.1000319850014 1408.3307588174525,952.094621451758 1401.0082190143505,963.3780794702968 1393.2681470550515,974.0178179254478 1385.2700978165435,984.1192241300233 1377.1155673156532,993.807950682361 1368.8436201157674,1003.2102019023614 1360.4330056227877,1012.4330056227877 1351.8104884699972,1021.546465383027 1342.864511269416,1030.5697982055578 1333.4627884862707,1039.4625955780516 1323.4720488153525,1048.1222358770085 1312.7779374023492,1056.387775019307 1301.303078578185,1064.050007420839 1289.0214853422358,1070.8667834647824 1275.9678653049561,1076.5821519313945 1262.2408784269269,1080.947516915505 1248,1083.7427957967877 1233.456274189456,1084.7955577755595 1218.8578470802229,1083.996312138134 1204.471684309957,1081.3084833361593 1190.5632563723066,1076.772120291908 1177.3761774223283,1070.5009902936463 1165.1137909779077,1062.673344588254 1153.924507482529,1053.517251182107 1143.8923326836682,1043.291911076627 1135.0335180056188,1032.266756428381 1127.2996642781952,1020.7003357218048 1120.58697708255,1008.8210019503081 1114.7507676348382,996.8112341373584 1109.6237767985851,984.7970586376541 1105.0365221542806,972.843530310627 1100.837666160972,960.9566345466025 1096.9123972294635,949.0913379967608 1093.1970057561346,937.1649107599536 1089.6882053832376,925.0741249871489 1086.4462600777697,912.71455507578 1083.591580265351,900 1081.29508738282,886.8800388409792 1079.7632536995384,873.3539170951805 1079.2192437670024,859.4793254869784 1079.8819646465327,845.3751390216784 1081.945036949624,831.217782205171 1085.5577077132216,817.2315180056739 1090.8095383802572,803.6735612313419 1097.7203350519076,790.8154323208144 1106.236279539811,778.9223444555105 1116.2326183150735,768.2326183150735 1127.5226310231462,758.9391248070707 1139.871992907869,751.1745659418123 1153.017125587589,745.0020361417654 1166.6857488955784,740.4117965351786 1180.6176401372234,737.3245929545802 1194.5835961481055,735.6012132499193 1208.400778844213,735.0573732240405 1221.9429882036554,735.4825023029249 1235.1449120547727,736.6606206664111 1248,738.3912961294557 1260.55224056161,740.5086615264655 1272.8827241815236,742.8966625096646 1285.0923908079799,745.4990730954173 1297.2827388023861,748.3233261209883 1309.536474687454,751.4378082289197 1321.9000908976818,754.962905246424 1334.3701703812105,759.0566917458207 1346.8848510452149,763.8966788128812 1359.3213754524697,769.6594158524247 1371.5000515859094,776.4999484140905 1383.1943176585064,784.533144503457 1394.1459998985838,793.8187157758116 1404.0843362348714,804.3513957389725 1412.7469614961105,816.057230390853 1419.9008482256986,828.7963372814766 1425.3611914003832,842.3718555666811 1429.0064159968765,856.5442042619306 1430.787855011707,871.0492478858482 1430.7331563268635,885.6185887036261" fill="none" stroke="#17353b" stroke-width="0.99" opacity="0.5444444444444445"></polygon><polygon points="1397.8933903851487,900 1394.7627051080706,911.5504753902034 1390.6927135609917,922.600305575747 1385.8914882577517,933.1048173886314 1380.5568558014443,943.0703333205945 1374.8599476113275,952.5471108225522 1368.9318251219415,961.617842553439 1362.854438002711,970.3828901294303 1356.6567486220333,978.9437488286951 1350.316350115194,987.3864184405048 1343.7663684782792,995.7663684782792 1336.9069235880775,1004.0966329075012 1329.6199803120455,1012.3402652507125 1321.786092249736,1020.4079591243719 1313.3013591821182,1028.1611335545904 1304.0929026265217,1035.4202462738222 1294.1313134930977,1041.977584085977 1283.4388269241792,1047.6133376395583 1272.0924023525422,1052.1134418455244 1260.2213900945146,1055.2874847015603 1248,1056.9849739930878 1235.6353003981797,1057.1084046420262 1223.3519165069931,1055.6218744878092 1211.374923362344,1052.5544232983734 1199.912607195481,1047.997777180148 1189.1407834821887,1042.0987187879546 1179.190208175597,1035.0468203161956 1170.1383157588834,1027.058720791555 1162.0060933782354,1018.3604583448833 1154.7603960195706,1009.1695498649907 1148.321472898878,999.678527101122 1142.574962375088,990.0414883996965 1137.3871720665454,980.3649236365942 1132.6221357023978,970.7036461754727 1128.1587605220452,961.0621614129744 1123.9063662799622,951.401266090999 1119.817070508275,941.6491585126954 1115.893779741997,931.7158974263059 1112.1929732006138,921.5097199317602 1108.8219723013049,910.9535483323714 1105.9309268605368,900 1103.700264420959,888.6433645155885 1102.3247924462994,876.9273137824465 1101.9959708412152,864.9475338588619 1102.884052352776,852.8489703719137 1105.1218032993654,840.8179131591864 1108.791365303404,829.0696578327113 1113.9155151178604,817.8329219868881 1120.4541539110464,807.3325185459491 1128.3063511197977,797.7719663187731 1137.3177306680961,789.3177306680961 1147.292471466346,782.086633912105 1158.0087500292996,776.1376705397258 1169.2361241071935,771.4690362395213 1180.7531744613905,768.0206737360529 1192.363704963156,765.6821019618601 1203.909950544417,764.3047806373089 1215.28154339441,763.7178202230218 1226.4194105592417,763.745520730832 1237.3142792198996,764.2250440144487 1248,765.022510468476 1258.5424112727947,766.0459639549146 1269.0249083002936,767.2539533731168 1279.5322068921132,768.658905881837 1290.1339701441618,770.3249737314796 1300.8699811455544,772.3605744759925 1311.7383928963247,774.9063604976582 1322.6882839014258,778.1197979067044 1333.6173236609811,782.1578636338966 1344.3748481413022,787.1595508695945 1354.770110709061,793.2298892909389 1364.5849613704843,800.4270362779648 1373.589766777532,808.7536933538481 1381.5610585872485,818.1536780329303 1388.299220340583,828.5139766922466 1393.644510591924,839.672068427633 1397.489873956943,851.4277955640146 1399.7892971585334,863.5586138965364 1400.560894315306,875.8367281384595 1399.8844129884164,888.0464374577564" fill="none" stroke="#17353b" stroke-width="0.99" opacity="0.4833333333333334"></polygon><polygon points="1367.2164039054078,900 1364.6277064255917,909.1787995587346 1361.4474258350726,917.9683070471473 1357.8326729224846,926.3684918216824 1353.9190304003594,934.4151791829687 1349.8095737625747,942.1709062318824 1345.5673890508663,949.7130677621404 1341.2122821716684,957.1205599791202 1336.7219645554455,964.4602804177155 1332.0375629353048,971.7748593564644 1327.0728795460907,979.0728795460907 1321.7264642799464,986.3225987131871 1315.8952878871887,993.449846733112 1309.4886517440157,1000.3403600877467 1302.4409499398068,1006.846380281545 1294.7220152848947,1012.7969229621959 1286.3440208477766,1018.0107617123069 1277.364249191068,1022.3109004044336 1267.8834491435448,1025.5391571470202 1258.0399347165214,1027.5694660459483 1248,1028.3186220114324 1237.9455864460049,1027.753437119231 1228.0604093130835,1025.89362090152 1218.5159016996329,1022.8101078718422 1209.4583526655497,1018.6189934968522 1200.9984986573672,1013.4716619932813 1193.2045863056933,1007.542054569947 1186.0995832924325,1001.0122994382192 1179.6628058544545,994.0580785176572 1173.8357966167255,986.8351253523892 1168.531867480562,979.468132519438 1163.6483603362494,972.0431062239835 1159.0804089578808,964.6038644649442 1154.7348350545667,957.1529665845624 1150.5427949319505,949.6569262187686 1146.4699122951633,942.0551393162732 1142.5228758579974,934.27159513574 1138.751823924131,926.2281665440606 1135.2482484533296,917.8581230643306 1132.138588243656,909.1184908603342 1129.5741020412868,900 1127.717976469009,890.5335994477922 1126.7308950516901,880.7928606841045 1126.7564467757486,870.8919981954577 1127.907770665107,860.979669324574 1130.2567150114444,851.2291344793798 1133.8265476667927,841.8257203795919 1138.5889108527595,832.9527983393227 1144.4653037649903,824.777640061149 1151.332938918904,817.4385302101185 1159.0343964011902,811.0343964011902 1167.3901351336008,805.6179746967861 1176.2126475306222,801.1931859426568 1185.320890104218,797.7169887688377 1194.5536025572583,795.1055388974715 1203.780243532392,793.2440642110657 1212.908510989382,791.9995019770547 1221.8877555648435,791.2346742576975 1230.708002780502,790.8226263636377 1239.3947346055788,790.6597360893655 1248,790.6763201473113 1256.5907865569475,790.8437071626482 1265.2358556761262,791.1770901181375 1273.9923953258576,791.7338817251061 1282.8938625239443,792.6077337615999 1291.94027040987,793.918803242151 1301.0919336882419,795.8012131858736 1310.2673449322301,798.3889281193102 1319.345446211021,801.8014177272021 1328.172125763071,806.1305013359882 1336.5703506254627,811.4296493745373 1344.3529843526503,817.7067770776376 1351.337069748336,824.9212241083776 1357.3582063734757,832.9852049447647 1362.283636316024,841.76957883622 1366.0227710462937,851.1133675637705 1368.5341355932496,860.8360852773453 1369.828050070867,870.751672917836 1369.964779236712,880.6826767012877 1369.0483182002388,890.4732907493917" fill="none" stroke="#17353b" stroke-width="0.99" opacity="0.4222222222222222"></polygon><polygon points="1335.0010996902645,900 1333.1842237184842,906.7041438011748 1331.04517352632,913.1530633306202 1328.6821915972548,919.3700804385331 1326.1693057054028,925.3987470645367 1323.5506518736547,931.2941046521961 1320.8379192475368,937.1127735448401 1318.0111432916765,942.902883787717 1315.022747154469,948.694876151472 1311.8044146880072,954.4941182323286 1308.2761033501279,960.2761033501278 1304.3562979192031,965.9847469664079 1299.9724868281771,971.5339912322291 1295.0708235469992,976.8126028197122 1289.6240176226001,981.6917342674465 1283.636675594346,986.03454553776 1277.1475637707877,989.7069771661188 1270.228568062207,992.5886494389493 1262.9804509675741,994.582844987036 1255.5258205551065,995.6246167808957 1248,995.686241574564 1240.5406921261188,994.7794930356955 1233.2774512697129,992.9545143457274 1226.3219931010367,990.2953971522703 1219.760290021595,986.9128904951406 1213.6472235514937,982.9349388071553 1208.0043130187084,978.4959554443784 1202.8207365875899,973.7258572227774 1198.0575359652214,968.739904561251 1193.6545818556667,963.6303092544972 1189.5396042346374,958.4603957653626 1185.638386597478,953.2618495214338 1181.8851066379136,948.0352817620951 1178.2317888553357,942.7540147765635 1174.6559191121705,937.370675782127 1171.1654489805057,931.8259130911221 1167.8006715011986,926.0583414539136 1164.6327549579005,920.0147047376352 1161.7590476506118,913.6592249709129 1159.2955825399354,906.9811890569906 1157.367485140205,900 1156.0981943198606,892.7671710327087 1155.5985235374553,885.3650438653191 1155.9566079572617,877.9023366568548 1157.229699074507,870.5069413963192 1159.4385911048555,863.3166633327619 1162.5652097682719,856.4688001047166 1166.553588986902,850.0895751400047 1171.314134211222,844.2844572075413 1176.7307544930457,839.1303139449562 1182.6701699351033,834.6701699351033 1188.9924936318307,830.9110867714461 1195.5620678842463,827.8253782889819 1202.257514899287,825.3550485149378 1208.9800441824766,823.4190247881816 1215.6592342749116,821.9224847689608 1222.25575810257,820.7673705352229 1228.7608242805286,819.8630657989563 1235.192431502273,819.1361949981713 1241.5888477866404,818.5385873822721 1248,818.0526270245043 1254.477664894585,817.6934636370719 1261.065470735014,817.5078643568627 1267.789736882715,817.5698135122773 1274.6520956898123,817.9732838642448 1281.6246648709277,818.8228780383562 1288.648286458832,820.2232459651135 1295.6340452353022,822.2683029180031 1302.4679549091522,825.0312916180038 1309.0183861430392,828.5566490595354 1315.145537649662,832.854462350338 1320.7120467924397,837.8980452340613 1325.5937195811607,843.6248628181644 1329.68934316011,849.9407061288512 1332.9286285914354,856.7267023420034 1335.277509749305,863.8484717716877 1336.7402781320945,871.1665357856962 1337.3583385978936,878.5469609559569 1337.2056976394765,885.8712055056117 1336.381611938559,893.0442162885244" fill="none" stroke="#17353b" stroke-width="0.99" opacity="0.36111111111111116"></polygon><polygon points="1294.8461743286935,900 1293.9864377393744,903.6192111408728 1293.0043508660142,907.1279889240827 1291.938867496341,910.5487887839072 1290.8124855460196,913.9106197985884 1289.6297902833132,917.243623734096 1288.3778423110728,920.5735382531645 1287.0283626054168,923.9166113644104 1285.54149198631,927.2754904928265 1283.8707493927857,930.6365142294786 1281.9686971863368,933.9686971863367 1279.792753732728,937.2245319134875 1277.3105803219069,940.3425528335907 1274.504512323063,943.251433150916 1271.3745991004455,945.8752337565054 1267.9399543322477,948.1393081820128 1264.238284522224,949.9763009460165 1260.3236423779706,951.3316647636373 1256.2626258167995,952.168166266011 1252.1293955921876,952.4689458309927 1248,952.238835524997 1243.946562519741,951.5038065094536 1240.0319009808823,950.308597251036 1236.3051036850486,948.7127489318982 1232.79849310734,946.7854275037961 1229.5262706526466,944.5995279379905 1226.4849699145295,942.2256240720038 1223.6556672663949,939.726340443358 1221.0077249353492,937.1516793913702 1218.5036900160567,934.535741746621 1216.104858072791,931.8951419272089 1213.776943340613,929.2292516903044 1211.4952856432542,926.5222274528637 1209.249068207383,923.7466015436723 1207.0441163016444,920.8680650508462 1204.9039847317924,917.8509540083295 1202.8692091967243,914.6638828385512 1200.9947760383823,911.2849558389881 1199.3460394494844,907.7060303113656 1197.9934676665137,903.9355994470259 1197.006715153051,900 1196.4485849641017,895.9428156474505 1196.3694577880979,891.8225254681156 1196.8027203659694,887.7086206371843 1197.7616303462312,883.676564192861 1199.2379164789634,879.802083676017 1201.2022458625138,876.1553532877675 1203.6065100535814,872.7956343725525 1206.387706792761,869.7668992971123 1209.4730409645463,867.0948684181768 1212.7857521356154,864.7857521356154 1216.2511079214262,862.826823485248 1219.8019891261927,861.188767640042 1223.383535331205,859.8295805990806 1226.9564141350484,858.6996373079464 1230.4984142741687,857.7474343776629 1234.0042289164965,856.925445746228 1237.4834742312476,856.1955176332659 1240.9571623608324,855.5332731880948 1244.4530000987652,854.9310930557198 1248,854.3993763493544 1251.6229580131635,853.9659537341807 1255.3373644368494,853.6737041731199 1259.1452718317714,853.5766018015269 1263.0325487130674,853.7345723040074 1266.9678107107256,854.2076541336407 1270.9031548799264,855.0500276234447 1274.7766442582529,856.3044878915226 1278.5163161310634,857.9978941978214 1282.0453358273585,860.1380333183816 1285.2878031235125,862.7121968764876 1288.1746517688523,865.6876058790026 1290.6490708368028,869.0136362571495 1292.6709207592185,872.6256245518144 1294.2197127502036,876.4498800854492 1295.2958585361423,880.4094139502505 1295.9200643965128,884.4298272328238 1296.1309231687537,888.4447876922652 1295.9809325274005,892.4005668553983 1295.5313204417864,896.2592039536036" fill="none" stroke="#17353b" stroke-width="0.99" opacity="0.3"></polygon><circle cx="1248" cy="900" r="2.5" fill="#17353b"></circle><polygon points="2301.3506456736504,900 2295.1194562141527,928.7844779304971 2285.742966766384,956.479795216581 2273.698347254867,982.7925737901955 2259.5098667837333,1007.5556067138589 2243.7043632723808,1030.7306690300982 2226.7679131252135,1052.3984073549523 2209.107819569834,1072.7363621975665 2191.0235069800083,1091.9873513123805 2172.6890286886382,1110.4213983607024 2154.148753679895,1128.2950348378974 2135.3265049301313,1145.8120712482246 2116.0471055167154,1163.089799304064 2096.068076697603,1180.1340633082918 2075.1182434394955,1196.8257768156127 2052.93933389751,1212.9203442965086 2029.3263753389472,1228.0601859207272 2004.162817451929,1241.799280078114 1977.4468419764914,1253.637458403812 1949.306193099876,1263.0612273257716 1920,1269.5872425717575 1889.907349638589,1272.8042921325532 1859.5036780815785,1272.4097755410849 1829.3272536626976,1268.2371902354269 1799.9390069268316,1260.2719982922474 1771.8796241158634,1248.654364815201 1745.6280979581734,1233.668523641899 1721.5657943767078,1215.7198133996699 1699.9495595170908,1195.3016116755844 1680.8965104124027,1172.9553616136416 1664.3820108516625,1149.227539419629 1650.251043384553,1124.6276894249465 1638.2418752857702,1099.591528710528 1628.0197093831648,1074.4526084060399 1619.2170282451457,1049.4251644115707 1611.4766787142455,1024.5996803853275 1604.4934681824602,999.9514293157115 1598.0501816031967,975.360980064604 1592.0444658759604,950.6444773804811 1586.5039136316568,925.590543436106 1581.5878252632347,900 1577.5754243703648,873.724336403271 1574.8416210531443,846.6989762439987 1573.8226308671835,818.9679126270498 1574.9747462454286,790.6971368734486 1578.7302252326006,762.1753950917484 1585.454544271312,733.8020618861839 1595.4091300791322,706.0631976122296 1608.7231533487386,679.4980296013441 1625.3770862314543,654.6590533589336 1645.1995825217346,632.0695929586914 1667.877945953958,612.1829273524702 1692.9811345310372,595.346954513576 1719.9930360972571,581.7778410548576 1748.352760907425,571.545242183059 1777.4980272940743,564.5705597077231 1806.9074319128854,560.6384433958804 1836.1375239512668,559.4204566001229 1864.8511302097402,560.508646333403 1892.8342530719515,563.4557962780782 1920,567.8184926716019 1946.3792896665134,573.1988610848599 1972.0993898483298,579.2809634706759 1997.3525471633595,585.8583667574355 2022.3579503528933,592.8502557674005 2047.3209307192992,600.3045802264153 2072.393580490244,608.3879890093451 2097.6408349770536,617.3635911462354 2123.0155305027693,627.5587668850962 2148.345069388576,639.3262177178872 2173.331182009823,653.0020975404227 2197.562985841737,668.8653444231775 2220.54222891704,687.1022069994916 2241.7183988738666,707.7794438207027 2260.5303970990467,730.828818942802 2276.4508167540257,756.0444064469775 2289.0285887207647,783.0929594753011 2297.92589799088,811.5363189014583 2302.9458115892003,840.8636584078986 2304.047945475445,870.5304019088798" fill="none" stroke="#17353b" stroke-width="0.99" opacity="0.788888888888889"></polygon><polygon points="2231.658579221941,900 2225.5826816084823,923.4486316531658 2217.2922626747604,945.9093069206431 2207.2142280765397,967.2301845800998 2195.7784208101984,987.3656946993093 2183.381489690769,1006.3687804802472 2170.3550592088586,1024.373217224683 2156.9412108306055,1041.5678167213293 2143.27756512516,1058.1651304475922 2129.39331152541,1074.36781346311 2115.216460274698,1090.3360487678303 2100.591494054232,1106.1593356455876 2085.3055821735966,1121.8355242902826 2069.1206871781515,1137.2592738335338 2051.8083236081384,1152.2211906106959 2033.1834769939019,1166.4178580653404 2013.1342823499774,1179.4719013467784 1991.6444862218611,1190.9602429384597 1968.806432860635,1200.4478971647259 1944.8232529109491,1207.5241003617537 1920,1211.8373339190066 1894.7245720788726,1213.1258929112646 1869.4402631885698,1211.2410745028706 1844.6126185135454,1206.1607667039168 1820.6938299701262,1197.9921405248474 1798.0881557437453,1186.9631971219324 1777.1217509168416,1173.4039938423186 1758.0198669634863,1157.7193645425564 1740.8936574246618,1140.3557634683516 1725.7378860591675,1121.7654190242351 1712.4397643655093,1102.3712297436284 1700.7980523779618,1082.5357459379584 1690.5505471949439,1062.5371658531715 1681.4072567995618,1042.5545755507544 1673.0859935443161,1022.6637458726576 1665.3468775715842,1002.8437575852433 1658.0223395915432,982.9936592937303 1651.0396454162487,962.9573764659597 1644.4336893576733,942.5542804862977 1638.348749384925,921.6122732988774 1633.0289714976445,900 1628.7984491822683,877.6548923976521 1626.0327787904316,854.6041620400894 1625.1248040659732,830.9765606547364 1626.4478315367946,807.0036406295637 1630.3198475590304,783.0102883059287 1636.9721731541867,759.395366324282 1646.5255637133357,736.6042836597234 1658.9760391401956,715.0961168167717 1674.1917866270483,695.3084538141322 1691.9214052338048,677.6233701029597 1711.812663645024,662.3378488696851 1733.4399271676264,649.6415364549424 1756.3375763457348,639.6040178941957 1780.036168838496,632.1728767073911 1804.0978439946005,627.1827569868956 1828.1475602271614,624.3745768052095 1851.8971796317448,623.4230545281573 1875.1601304190413,623.9699003775054 1897.8553152129862,625.6594737461949 1920,628.1734663878174 1941.6925097768353,631.2612662957059 1963.0865656301632,634.7630777156501 1984.3599251036615,638.6235782936143 2005.6805520929422,642.8948159832786 2027.1737887430465,647.7280960434878 2048.893905686484,653.3556799390137 2070.8029777959027,660.0641086032181 2092.759312430632,668.1617756330115 2114.5167164683753,677.9439322483327 2135.7348194064025,689.6585510787576 2155.999577276323,703.4763862889806 2174.852073179908,719.4681522223507 2191.822903916832,737.5910424891482 2206.4688795989878,757.6858949722563 2218.4085197033223,779.4852654109245 2227.352928864947,802.6316052239846 2233.1290694268155,826.7037525405963 2235.693173242002,851.2491356057438 2235.132981811139,875.8185340433637" fill="none" stroke="#17353b" stroke-width="0.99" opacity="0.7277777777777779"></polygon><polygon points="2182.286632712199,900 2176.6900058471347,919.696893045366 2169.5632190225197,938.5387575012096 2161.2676895596223,956.4751663277108 2152.1368416373575,973.5401862675445 2142.448578729125,989.8376877842173 2132.403959187021,1005.519592209684 2122.114074856639,1020.7592727571636 2111.5963286213946,1035.7228089293055 2100.7803874574124,1050.5410113070286 2089.5231428059874,1065.2850642358376 2077.631132172961,1079.948284142776 2064.8881505972463,1094.4358951982408 2051.0852787803674,1108.5639400021028 2036.050325130323,1122.0675475863588 2019.6737439701026,1134.6178618924969 2001.9284450772425,1145.846080974581 1982.8815157536337,1155.3723540337585 1962.6966761994327,1162.836798925114 1941.6272035722068,1167.929684547903 1920,1170.4178920676593 1898.192352780742,1170.165119622608 1876.6036554152092,1167.1438929447427 1855.6248553264325,1161.4382309256396 1835.6086193401138,1153.2367138630116 1816.843139125671,1142.8166252602732 1799.5321425418526,1130.5206955574808 1783.783068082002,1116.728684411745 1769.6045580157588,1101.8265280866715 1756.913509936263,1086.176002476695 1745.5509860287248,1070.0877886219932 1735.305406693009,1053.8004827317054 1725.9407357959615,1037.4675006877208 1717.2268694296936,1021.153045871408 1708.9692173364529,1004.83741553396 1701.034538175101,988.4310023796824 1693.3704497496376,971.7954945091293 1686.0166482116094,954.770071924194 1679.1066763324773,937.199910390823 1672.860001540271,918.9640812108289 1667.5651096183767,900 1663.5551974293871,880.3219224231059 1661.1787720093805,860.0315760440816 1660.7679631219116,839.3197969156853 1662.6075830216114,818.4589307111602 1666.9078985997073,797.7866735937299 1673.7837239702515,777.6828777510208 1683.2418308093338,758.5415471383577 1695.1778690679355,740.740731625039 1709.3830706741362,724.6132449153766 1725.5600634036775,710.4210618185857 1743.3462435661384,698.3359002790816 1762.3424302851781,688.4278971336181 1782.144021735438,680.6635020559802 1802.3716436342581,674.912818250009 1822.6983448003716,670.9656987663145 1842.8707470706943,668.5550538242287 1862.7221625105306,667.3851207569904 1882.1764900895578,667.1619630873033 1901.2426183186064,667.6232463405989 1920,668.5644070511827 1938.5769380343422,669.8586814153039 1957.1238415250841,671.4690571069322 1975.7842085695354,673.4509976488715 1994.6663173466616,675.9456867126594 2013.8185382954018,679.1644621340909 2033.2108240379175,683.3659662211309 2052.7243251269315,688.8282464656224 2072.150278327827,695.8185300220488 2091.198398543085,704.5636186130005 2109.5140654310344,715.2237862047413 2126.7027234762854,727.8727163400533 2142.3591953494206,742.4854233834542 2156.099113476999,758.9353202526019 2167.589452553222,777.0007010752965 2176.575218304519,796.3799881891947 2182.8997083653835,816.7142389527448 2186.51637464932,837.6147025121685 2187.4911233456164,858.6927289336949 2185.994809958019,879.5891105885686" fill="none" stroke="#c88a4a" stroke-width="2.52" opacity="0.95"></polygon><polygon points="2141.8136642572695,900 2137.016512480428,916.6525806928024 2131.2141842406913,932.6167143505762 2124.687923080873,947.9126920076437 2117.67121843706,962.621590442344 2110.331151528179,976.866800697434 2102.7567971943627,990.7912582576544 2094.95574943974,1004.532695617628 2086.8590448563045,1018.199437463698 2078.333938921808,1031.8492101093068 2069.203225411499,1045.4731447762113 2059.2691535245613,1058.986647277666 2048.3395528272818,1072.2281341880048 2036.253566058605,1084.9658634597859 2022.9044345751406,1096.9122912512325 2008.2570761344152,1107.7446444246227 1992.3587107429457,1117.1297825041706 1975.3414767108322,1124.7509942145912 1957.416768474231,1130.3341741627114 1938.861842725098,1133.6708744824566 1920,1134.6360197180798 1901.176280552146,1133.1985823707278 1882.731054141138,1129.424191782564 1864.9740901176197,1123.4694245375424 1848.1616465962322,1115.56832466834 1832.4788202719308,1106.012448617038 1818.028880686549,1095.1263502721308 1804.8306252580903,1083.2408550161995 1792.8240015557117,1070.666676352174 1781.8834285958615,1057.67088450895 1771.8374892668576,1044.458447964814 1762.4930359106786,1031.1605644583103 1753.6613124828734,1017.8308272704423 1745.183492723129,1004.4495011031584 1736.9530845877625,990.9353853076393 1728.9329520654749,977.1639985126438 1721.1652271799471,962.9902006355998 1713.773076611111,948.2729362597117 1706.9540814217683,932.899579613004 1700.9658072894185,916.8074056987933 1696.1049063860182,900 1692.681725961916,882.5569222447572 1690.9928407901152,864.6356085267747 1691.294133669057,846.4652649315012 1693.7769998937874,828.3332992364778 1698.5499526699011,810.5655773325166 1705.6273860431843,793.502405076499 1714.9265608743378,777.4725640052973 1726.2730851967137,762.7679286367377 1739.4143405163288,749.621144259231 1754.0395402865038,738.1885517793413 1769.8044706014066,728.5400388323236 1786.3585181329634,720.6568235199037 1803.3713797895477,714.437404608519 1820.5568928508785,709.7111153788335 1837.691718837064,706.2579755378017 1854.6271300189806,703.8329194244801 1871.2928335558145,702.1920495380707 1887.692557372896,701.1183642983996 1903.8919366245386,700.4444576269071 1920,700.0699807936096 1936.1461866527052,699.9721655151783 1952.455265242473,700.2083819182523 1969.0227332726374,700.9104798610218 1985.8932273201976,702.2714615886493 2003.044177569282,704.525779730217 2020.3764224108108,707.9251743997318 2037.7128115271476,712.7123961649324 2054.80503625003,719.0953656840728 2071.348111519016,727.2242760636076 2087.001174391852,737.173854967944 2101.412634316158,748.9324986082345 2114.247272142464,762.3993184434819 2125.212681288531,777.3893694908274 2134.082495738941,793.6465321264836 2140.7141509237526,810.8627751477262 2145.0594457232196,828.7019094297336 2147.166866022927,846.8255091835694 2147.1754248723446,864.9184737892023 2145.3005938079305,882.711747250748" fill="none" stroke="#17353b" stroke-width="0.99" opacity="0.6055555555555556"></polygon><polygon points="2106.477788093373,900 2102.7061313686536,914.0198022763851 2098.316397264702,927.5364792119211 2093.5027580319716,940.612968674161 2088.402344830458,953.349307759041 2083.085074322058,965.8632483647002 2077.550453641727,978.2690665671059 2071.7316293340023,990.6567304905917 2065.5062398320088,1003.0735595448995 2058.712968908241,1015.5102658786271 2051.1721438912055,1027.892840293925 2042.7083313365595,1040.081171591209 2033.17269236607,1051.874626472112 2022.4628885017294,1063.0241315328951 2010.538573541548,1073.24965669644 1997.4309437174904,1082.2614636083601 1983.2454041348146,1089.7831056300215 1968.1570868307574,1095.5739851367684 1952.3996582802622,1099.4493067534097 1936.2485129501904,1101.295508898418 1920,1101.0796869107446 1903.9487185124956,1098.8520971367475 1888.3651046875366,1094.7414964907607 1873.475503850061,1088.943761288991 1859.4466739483134,1081.7048753427193 1846.3762296186364,1073.2999173435371 1834.2899498047586,1064.0100588170405 1823.1461948374297,1054.0997692253989 1812.8469772285416,1043.7963961848095 1803.2545730596703,1033.2740491667405 1794.2120122750507,1022.6432880318256 1785.5654003088664,1011.9475451778549 1777.185838251119,1001.1665480591985 1768.9887425079683,990.2263221688912 1760.9486145234498,979.0147104607097 1753.1077523418148,967.4008066240759 1745.5779855749306,955.256319244742 1738.5351961060805,942.4766988121796 1732.2070920897597,928.9998877508735 1726.855363555324,914.8207922384111 1722.7538995741152,900 1720.1651355363267,884.6658387065517 1719.3167865664027,869.0095290188456 1720.3811910978138,853.2738699679695 1723.4592401961027,837.7365351264547 1728.570427583473,822.6895929941472 1735.6499654841384,808.4172416540175 1744.5532299603508,795.1739290170201 1755.0670928722914,783.1649979865572 1766.9270349349558,772.5317536445386 1779.8383802159672,763.342420710568 1793.4996008400583,755.5898859672565 1807.625449742129,749.1964581863874 1821.9677075031943,744.0251921435852 1836.331573630688,739.8966807427912 1850.5861689784615,736.6096830382398 1864.6682014347261,733.9635786115252 1878.5785240551763,731.7804573759646 1892.3720170565948,729.9246863225678 1906.1418836477972,728.3180379618994 1920,726.9488956044681 1934.0553478148888,725.874626200229 1948.392745911204,725.2168760599188 1963.0540666256418,725.1502335281873 1978.0238766484017,725.8853483242228 1993.2210043576652,727.6481367734166 2008.4969497156187,730.6570828633916 2023.6413758359647,735.1008298360887 2038.3942198524824,741.118227899085 2052.4633035561715,748.7827635427877 2065.5457759502888,758.0928684484685 2077.351334282151,768.9690329437663 2087.6249852108367,781.2579865008561 2096.1671418816195,794.7435206953195 2102.8491026810384,809.162885547621 2107.6223990804,824.2271512535228 2110.521090209286,839.6435466121558 2111.6567630402383,855.1376001059881 2111.206702788059,870.4729375577979 2109.3963593876506,885.4668286685775" fill="none" stroke="#17353b" stroke-width="0.99" opacity="0.5444444444444445"></polygon><polygon points="2074.2618336396017,900 2071.6163663650314,911.6341551450878 2068.615070741536,922.9498569331098 2065.3677177027407,934.027208744473 2061.927241061548,944.9620821515704 2058.286873139222,955.8482908936226 2054.3834136666856,966.759975021786 2050.106283880596,977.7360024713872 2045.3114549377278,988.7679987270245 2039.8388664571678,999.79325967868 2033.531613348494,1010.6933230147816 2026.2550099917544,1021.298416537476 2017.9136567001417,1031.3974221780638 2008.4648325187939,1040.7524490424253 1997.926901164682,1049.116651015085 1986.3819076614461,1056.2535992281498 1973.9721138255427,1061.956359032736 1960.8908152758806,1066.064440880749 1947.3683428094655,1068.4769929707238 1933.654621937915,1069.1609613897558 1920,1068.1534259511864 1906.6362177126857,1065.557879947473 1893.7593849440984,1061.5348049788224 1881.5166206205886,1056.287440999331 1869.9976536670488,1050.044113175833 1859.2321913660444,1043.0388060657936 1849.1932916475243,1035.491839930988 1839.8063825111794,1027.5924877461903 1830.9630132681614,1019.485176321161 1822.537953400332,1011.2605600993197 1814.4079216366886,1002.9522764042285 1806.4700631187684,994.5396331543427 1798.6583125548634,985.9558989401053 1790.955984238132,977.1013176995242 1783.4032959968197,967.859509581511 1776.0990278332874,958.1155909523725 1769.1960889701486,947.7741819384897 1762.8913632520894,936.7754853874269 1757.4107640440056,925.1078150111921 1752.990901016345,912.815303616624 1749.859096390033,900 1748.213654490463,886.818118364255 1748.2062695029888,873.4707824903675 1749.928253906589,860.1901515872227 1753.4019038963613,847.2222722904995 1758.5778239037086,834.8083267583096 1765.338458312755,823.1661082409977 1773.5074806752061,812.473536983633 1782.864127481076,802.8558325873831 1793.1610897956164,794.3776032134708 1804.144238003846,787.04063205375 1815.5722854120527,780.7875842924634 1827.234511941535,775.5112779078282 1838.9648679159689,771.0686159171705 1850.6511403638735,767.2978195450027 1862.2383547021507,764.0372762235244 1873.726154993675,761.1441552966786 1885.1605002428034,758.5109636795014 1896.6205741502426,756.0784117631404 1908.2022765216761,753.8433173120516 1920,751.8607571328569 1932.0885631289245,750.2402358697686 1944.5071536033213,749.1362237712392 1957.2469356536656,748.7339637980833 1970.2436124989163,749.2319094397758 1983.3757443253398,750.8224830611681 1996.4690524483328,753.6730084609056 2009.3063471140042,757.9086546209354 2021.642158026768,763.5990320509254 2033.220677980034,770.749727854307 2043.7952969813366,779.2995854431969 2053.14783978032,789.1239766891334 2061.1056400115153,800.0437328004638 2067.5547874435215,811.8388522117699 2072.44825135075,824.2656428007225 2075.808077068801,837.0756268170594 2077.7214261353356,850.0343720774188 2078.330827048241,862.9384282301767 2077.8195652825525,875.6287405684498 2076.3936128909136,887.9992668357911" fill="none" stroke="#17353b" stroke-width="0.99" opacity="0.4833333333333334"></polygon><polygon points="2043.3809563140198,900 2041.825742602597,909.348196531051 2040.0699730609208,918.5417850959602 2038.151419976959,927.6565051343314 2036.0591569039202,936.7671583561123 2033.7360976526934,945.9332583246579 2031.0862690501474,955.1862491411746 2027.9860934414091,964.5196140898215 2024.298567489011,973.8829112685337 2019.8889433801721,983.18038680155 2014.6403744230622,992.2743650624857 2008.467993183251,1000.9931436476202 2001.3300460678913,1009.14267487396 1993.2349982614346,1016.5209390830513 1984.2439186803579,1022.9336449739665 1974.4679173359552,1028.209755128013 1964.0608918281762,1032.2153443775164 1953.2082981982298,1034.8644539289257 1942.1130491507827,1036.1258901305919 1930.9799217692846,1036.0253056380182 1920,1034.6423545619664 1909.336670410462,1032.1031877106304 1899.1145337696478,1028.569002945416 1889.4123052046718,1024.2217451461115 1880.2603805326255,1019.2483232931393 1871.6432846433981,1013.8248520945803 1863.5067348428995,1008.1024187954231 1855.7685952653837,1002.1957230282649 1848.332612680152,996.1756537895828 1841.103547151712,990.0664806456055 1834.002170298541,983.8478839589226 1826.9786132345705,977.4615755270958 1820.0227048717907,970.8218128269476 1813.1702336910455,963.8287308661588 1806.504463813837,956.3831424885942 1800.152700367953,948.4013174983512 1794.2781843480366,939.8282567976983 1789.0680559608663,930.6481291826408 1784.7185129098038,920.8908205535754 1781.4185682679506,910.6339303312238 1779.333954242774,900 1778.592709317505,889.1492297441966 1779.2738277460512,878.2683848693305 1781.4000575916966,867.556970372588 1784.935534975862,857.2120226761847 1789.788476818104,847.4130055927801 1795.818667512288,838.308289476747 1802.8490141981767,830.0045389800409 1810.6800554996162,822.5600508822533 1819.1060278063933,815.9826968930086 1827.930948706506,810.2326749888434 1836.9831830206447,805.2298009631858 1846.127112338373,800.8646256843001 1855.2708186616596,797.0122868208999 1864.3690882553037,793.5477334745536 1873.421504277619,790.3608248142885 1882.4658808744043,787.3698129976598 1891.5677497246468,784.5318756032951 1900.8069976362906,781.8496484485942 1910.2630327571262,779.3730981850535 1920,777.1965275425017 1930.0535594226203,775.4509802576657 1940.4205852841399,774.2927612634182 1951.0528536782547,773.8891668204808 1961.8553914863971,774.4027919132826 1972.6896977017345,775.9759217808557 1983.3815652679534,778.7165072960103 1993.7327748651587,782.6870707661134 2003.5355464096701,787.897604599923 2012.5883573143185,794.303137961171 2020.711596015097,801.8061938852803 2027.7615288083493,810.2638856185545 2033.6412168611853,819.4989524406673 2038.3073129342777,829.313655756378 2041.7720653516963,839.5051828241667 2044.1003212025423,849.8810647664733 2045.4018062760945,860.2731211177708 2045.8194183461287,870.5485944208974 2045.5146582246734,880.6174203269456 2044.6516015530426,890.4349635443695" fill="none" stroke="#17353b" stroke-width="0.99" opacity="0.4222222222222222"></polygon><polygon points="2011.1726073723296,900 2010.5338184666573,906.9470368877091 2009.7709054598445,913.8628567532172 2008.8715301545833,920.8027625101369 2007.7887143928403,927.8111753528691 2006.4462038204965,934.9120102871656 2004.7468588283768,942.1011643043254 2002.5832504433283,949.3419039348582 1999.8494251935947,956.563653158931 1996.452690429114,963.6643470910434 1992.3242711735475,970.5161643942087 1987.4278012860877,976.9741165827448 1981.7648245194457,982.8866880948985 1975.3767740929063,988.1075151754774 1968.3432439338146,992.5069844543351 1960.7767270283994,995.9826342356187 1952.814340892307,998.4673528288218 1944.6073533016104,999.9345779734884 1936.309534446386,1000.3999891191509 1928.065473768156,999.9195219676235 1920,998.583889319069 1912.20973138537,996.5101292681021 1904.75757070559,993.8309882687851 1897.670667470739,990.6831545591432 1890.9420261298783,987.195466608649 1884.5355781596259,983.4782209840333 1878.3941928357913,979.6145943747349 1872.4498100659841,975.6549862254404 1866.6346674905985,971.6148018747258 1860.8924839132235,967.4758593250873 1855.1884628708228,963.1912487009478 1849.517093707756,958.6931366965487 1843.9069418285906,953.902721776327 1838.4219139491343,948.7413375412449 1833.1588293898765,943.141591827502 1828.2414909914783,937.0574284221019 1823.8117935971154,930.4721067354731 1820.0187005217147,923.4033016522151 1817.0061303559503,915.9048107404203 1814.9009070436355,908.0646910513506 1813.80192453893,900 1813.771563579298,891.8486497218709 1814.8301832499947,883.759168999141 1816.9542149990355,875.8793734133187 1820.0780403585115,868.3450525456335 1824.099469632942,861.2697821911119 1828.8882927403047,854.7368597441915 1834.2970789935791,848.7941528998367 1840.1731885899867,843.4523659696727 1846.3708457680455,838.68689244639 1852.7621229346312,834.4430698612654 1859.2457965223405,830.6443180382029 1865.7532479150782,827.2023574063808 1872.2508755954482,824.0284980119719 1878.738829000344,821.0448825184648 1885.2462366734726,818.1945684027529 1891.8234457053986,815.4494456453514 1898.532082433079,812.8151956968293 1905.433957262718,810.3327849645474 1912.57994846986,808.0763234524479 1920,806.1474735565045 1927.6952566836658,804.6669307529264 1935.633147889258,803.7637841141816 1943.7459383392704,803.563772282484 1951.9329213167864,804.1775594251785 1960.0660685145526,805.6901551511676 1967.998607769262,808.1524924388646 1975.575708563442,811.5759690619349 1982.646244094966,815.930471186208 1989.0744886769705,821.1460607805454 1994.7506111097389,827.1181541680045 1999.5989383688245,833.7156820518952 2003.5831784321983,840.7914345870687 2006.7080853988834,848.1935865062231 2009.0173954779486,855.777287267368 2010.5882251790329,863.4152003260482 2011.5224676314442,871.0059839282375 2011.9360156772625,878.4799125553969 2011.9468525657999,885.801122986344 2011.663161930995,892.966303885512" fill="none" stroke="#17353b" stroke-width="0.99" opacity="0.36111111111111116"></polygon><polygon points="1970.0071683981473,900 1969.960243428324,903.833657520403 1969.8354197296794,907.695826185668 1969.6044378328947,911.6112475827935 1969.2228156349388,915.5936257462369 1968.6344449993117,919.6414205492732 1967.7774240755934,923.7352181408577 1966.5905581489642,927.8369624847254 1965.019897219884,931.8911481882591 1963.024675541554,935.8278807689144 1960.582077263825,939.5675253322295 1957.690367350697,943.0265065027062 1954.3700867745627,946.123706890495 1950.6631999850772,948.7868497627053 1946.6302822994521,950.9582500103357 1942.346025625433,952.5993761768055 1937.8935041479833,953.6937795601599 1933.3577613303128,954.2481031931228 1928.8193441100655,954.2910685525321 1924.3484132326669,953.870533091462 1920,953.0488980592415 1915.810865115348,951.8973053740455 1911.7982560459895,950.4891789797956 1907.9606710490025,948.8937287588417 1904.2805392017326,947.1700375692968 1900.7285359649225,945.362294094263 1897.2690916213032,943.4966215941129 1893.866531306124,941.5797963541634 1890.4912219414337,939.5999648996319 1887.1250994549882,937.5292739631419 1883.7660094356067,935.3281408002834 1880.4304100305828,932.9507319614734 1877.154146129832,930.3511016107456 1873.991193035065,927.4893773402529 1871.0104673699316,924.3373782930112 1868.290993410333,920.8831075306229 1865.915875649065,917.1336723237504 1863.9656473125597,913.1163414125818 1862.5116280485533,908.8776320262812 1861.6099258458394,904.4805135351098 1861.2966582029887,900 1861.5848514557986,895.5175624025288 1862.4633163097726,891.1149074417036 1863.8976076880376,886.8677320905102 1865.8329765240626,882.8400655066988 1868.1990296611452,879.079752153021 1870.9156502438611,875.6155177616777 1873.899610869147,872.4559040768794 1877.0712470048297,869.590174392902 1880.3605550657326,866.9910978066707 1883.7121383185793,864.6193348606148 1887.0885386714729,862.4289890387802 1890.471652112658,860.3737729308172 1893.8621144385684,858.4131761648836 1897.276743449011,856.5180205243968 1900.7443144497895,854.6748462220933 1904.3001090305083,852.8886864270555 1907.979796722843,851.1839438018872 1911.8132736034352,849.6032677181229 1915.819084906642,848.2045259182497 1920,847.0561506189621 1924.3401934413725,846.2312982008332 1928.8043265526196,845.8013781453865 1933.3386356564724,845.829569367606 1937.8739343192076,846.3649444361926 1942.3302471405657,847.4377641395506 1946.6226304717443,849.0563921081739 1950.6676168526328,851.2061227563416 1954.3896566033384,853.8500309399541 1957.7269281342124,856.931756499216 1960.6359483808526,860.3799503286687 1963.0945305064042,864.1139489992298 1965.1027963448862,868.0501278153885 1966.6821403148822,872.1083189324067 1967.8722412016639,876.2176779138312 1968.7264087484994,880.3214391343705 1969.305714759941,884.3801120842122 1969.6724774574168,888.3728259202986 1969.8837314684602,892.2967132823168 1969.9853178183648,896.1644184172357" fill="none" stroke="#17353b" stroke-width="0.99" opacity="0.3"></polygon><circle cx="1920" cy="900" r="2.5" fill="#17353b"></circle><line x1="523" y1="895" x2="533" y2="905" stroke="#17353b" stroke-width="1.26"></line><line x1="523" y1="905" x2="533" y2="895" stroke="#17353b" stroke-width="1.26"></line><line x1="1243" y1="895" x2="1253" y2="905" stroke="#17353b" stroke-width="1.26"></line><line x1="1243" y1="905" x2="1253" y2="895" stroke="#17353b" stroke-width="1.26"></line><line x1="1915" y1="895" x2="1925" y2="905" stroke="#17353b" stroke-width="1.26"></line><line x1="1915" y1="905" x2="1925" y2="895" stroke="#17353b" stroke-width="1.26"></line><text x="528" y="1206" font-family="&#39;JetBrains Mono&#39;, monospace" font-size="22.8" fill="#17353b" opacity="0.65" text-anchor="middle">−0.8</text><text x="1248" y="1206" font-family="&#39;JetBrains Mono&#39;, monospace" font-size="22.8" fill="#17353b" opacity="0.65" text-anchor="middle">−0.4</text><text x="1920" y="1206" font-family="&#39;JetBrains Mono&#39;, monospace" font-size="22.8" fill="#17353b" opacity="0.65" text-anchor="middle">−1.1</text></g>
<g font-family="&#39;JetBrains Mono&#39;, &#39;Courier New&#39;, monospace" fill="#17353b">
    <text x="146" y="160" font-size="25.200000000000003" letter-spacing="2.5">PLATE 04</text>
    <text x="2254" y="160" font-size="25.200000000000003" letter-spacing="2.5" text-anchor="end">MHLTH · AGE</text>
    <text x="146" y="1697.04" font-size="25.200000000000003" letter-spacing="2">DISPARITY · AGING</text>
    
  </g>
<text x="1200" y="1753.8" font-family="&#39;Fraunces&#39;, &#39;Times New Roman&#39;, serif" fill="#17353b" font-size="37.2" text-anchor="middle" font-style="italic">Racial disparities in mental health and aging — uneven valleys.</text>
</svg>