<?xml version="1.0" encoding="UTF-8"?>
<svg xmlns="http://www.w3.org/2000/svg" xmlns:xlink="http://www.w3.org/1999/xlink" viewBox="0 0 2400 1800" preserveAspectRatio="xMidYMid meet" style="background:#f7f3ec">
<defs>
    <pattern id="ap-grid-p6" width="24" height="24" patternUnits="userSpaceOnUse">
      <path d="M24 0H0v24" fill="none" stroke="#17353b" stroke-width="0.63" opacity="0.07"></path>
    </pattern>
    <clipPath id="ap-clip-p6">
      <rect x="142" y="142" width="2116" height="1516"></rect>
    </clipPath>
  </defs>
<rect x="0" y="0" width="2400" height="1800" fill="#f7f3ec"></rect>

    <rect x="132" y="132" width="2136" height="1536" fill="none" stroke="#17353b" stroke-width="1.8"></rect>
    <rect x="138" y="138" width="2124" height="1524" fill="none" stroke="#17353b" stroke-width="0.72"></rect>
    <rect x="142" y="142" width="2116" height="1516" fill="url(#ap-grid-p6)"></rect>
<g clip-path="url(#ap-clip-p6)"><polyline points="0,450 216,450 216,477 432,477 432,504 648,504 648,531 864,531 864,558 1080,558 1152,451.8 1368,451.8 1392,480.6 1608,480.6 1632,509.4 1848,509.4 1872,538.2 2088,538.2 2112,567 2328,567" fill="none" stroke="#17353b" stroke-width="1.08" opacity="0.35"></polyline><polyline points="0,594 216,594 216,621 432,621 432,648 648,648 648,675 864,675 864,702 1080,702 1152,597.6 1368,597.6 1392,628.2 1608,628.2 1632,658.8 1848,658.8 1872,689.4 2088,689.4 2112,720 2328,720" fill="none" stroke="#17353b" stroke-width="1.08" opacity="0.4333333333333333"></polyline><polyline points="0,738 216,738 216,765 432,765 432,792 648,792 648,819 864,819 864,846 1080,846 1152,743.4 1368,743.4 1392,775.8 1608,775.8 1632,808.2 1848,808.2 1872,840.6 2088,840.6 2112,873 2328,873" fill="none" stroke="#c88a4a" stroke-width="2.16" opacity="0.95"></polyline><polyline points="0,882 216,882 216,909 432,909 432,936 648,936 648,963 864,963 864,990 1080,990 1152,889.2 1368,889.2 1392,923.4 1608,923.4 1632,957.6 1848,957.6 1872,991.8 2088,991.8 2112,1026 2328,1026" fill="none" stroke="#17353b" stroke-width="1.08" opacity="0.6"></polyline><polyline points="0,1026 216,1026 216,1053 432,1053 432,1080 648,1080 648,1107 864,1107 864,1134 1080,1134 1152,1035 1368,1035 1392,1071 1608,1071 1632,1107 1848,1107 1872,1143 2088,1143 2112,1179 2328,1179" fill="none" stroke="#17353b" stroke-width="1.08" opacity="0.6833333333333333"></polyline><polyline points="0,1170 216,1170 216,1197 432,1197 432,1224 648,1224 648,1251 864,1251 864,1278 1080,1278 1152,1180.8 1368,1180.8 1392,1218.6 1608,1218.6 1632,1256.4 1848,1256.4 1872,1294.2 2088,1294.2 2112,1332 2328,1332" fill="none" stroke="#17353b" stroke-width="1.08" opacity="0.7666666666666666"></polyline><line x1="1128" y1="270" x2="1128" y2="1530" stroke="#17353b" stroke-width="0.72" stroke-dasharray="2 4" opacity="0.4"></line><text x="528" y="252.00000000000003" font-family="&#39;JetBrains Mono&#39;, monospace" font-size="24" fill="#17353b" opacity="0.65" letter-spacing="2">REGULATED</text><text x="1728" y="252.00000000000003" font-family="&#39;JetBrains Mono&#39;, monospace" font-size="24" fill="#17353b" opacity="0.65" letter-spacing="2">DYSREGULATED</text></g>
<g font-family="&#39;JetBrains Mono&#39;, &#39;Courier New&#39;, monospace" fill="#17353b">
    <text x="146" y="160" font-size="25.200000000000003" letter-spacing="2.5">PLATE 06</text>
    <text x="2254" y="160" font-size="25.200000000000003" letter-spacing="2.5" text-anchor="end">SC · AGE</text>
    <text x="146" y="1697.04" font-size="25.200000000000003" letter-spacing="2">SELF-CONTROL · AGING</text>
    
  </g>
<text x="1200" y="1753.8" font-family="&#39;Fraunces&#39;, &#39;Times New Roman&#39;, serif" fill="#17353b" font-size="37.2" text-anchor="middle" font-style="italic">Self-control and biological aging — asymmetric erosion.</text>
</svg>