<?xml version="1.0" encoding="UTF-8"?>
<svg xmlns="http://www.w3.org/2000/svg" xmlns:xlink="http://www.w3.org/1999/xlink" viewBox="0 0 2400 1800" preserveAspectRatio="xMidYMid meet" style="background:#f7f3ec">
<defs>
    <pattern id="ap-grid-p8" width="24" height="24" patternUnits="userSpaceOnUse">
      <path d="M24 0H0v24" fill="none" stroke="#17353b" stroke-width="0.35" opacity="0.07"></path>
    </pattern>
    <clipPath id="ap-clip-p8">
      <rect x="142" y="142" width="2116" height="1516"></rect>
    </clipPath>
  </defs>
<rect x="0" y="0" width="2400" height="1800" fill="#f7f3ec"></rect>

    <rect x="132" y="132" width="2136" height="1536" fill="none" stroke="#17353b" stroke-width="1"></rect>
    <rect x="138" y="138" width="2124" height="1524" fill="none" stroke="#17353b" stroke-width="0.4"></rect>
    <rect x="142" y="142" width="2116" height="1516" fill="url(#ap-grid-p8)"></rect>
<g clip-path="url(#ap-clip-p8)"><polygon points="1008,864 1007.7158488936711,873.0418348122212 1006.8645169892848,882.0479856332598 1005.4493641049312,890.9829093003443 1003.4759752025229,899.8113437517391 1000.9521383465021,908.4984471899925 997.8878139679082,917.0099355865937 994.2950955551069,925.3122179853705 990.1881619263163,933.372529070647 985.5832212722902,941.1590584769755 980.4984471899925,948.6410763301161 974.9539069597137,955.7890545238113 968.9714823486833,962.5747832537312 962.5747832537312,968.9714823486833 955.7890545238113,974.9539069597137 948.6410763301161,980.4984471899925 941.1590584769755,985.5832212722902 933.372529070647,990.1881619263164 925.3122179853705,994.2950955551069 917.0099355865937,997.8878139679082 908.4984471899925,1000.9521383465021 899.8113437517391,1003.4759752025229 890.9829093003443,1005.4493641049312 882.0479856332598,1006.8645169892848 873.0418348122212,1007.7158488936711 864,1008 854.9581651877788,1007.7158488936711 845.9520143667402,1006.8645169892848 837.0170906996557,1005.4493641049312 828.1886562482609,1003.4759752025229 819.5015528100075,1000.9521383465021 810.9900644134063,997.8878139679082 802.6877820146295,994.2950955551069 794.627470929353,990.1881619263163 786.8409415230244,985.5832212722902 779.3589236698839,980.4984471899925 772.2109454761887,974.9539069597137 765.4252167462688,968.9714823486833 759.0285176513167,962.5747832537312 753.0460930402863,955.7890545238114 747.5015528100075,948.6410763301161 742.4167787277099,941.1590584769756 737.8118380736837,933.372529070647 733.7049044448931,925.3122179853705 730.1121860320918,917.0099355865937 727.0478616534979,908.4984471899925 724.5240247974771,899.8113437517391 722.5506358950688,890.9829093003444 721.1354830107152,882.0479856332598 720.2841511063289,873.0418348122212 720,864 720.2841511063289,854.9581651877788 721.1354830107152,845.9520143667402 722.5506358950688,837.0170906996557 724.5240247974771,828.1886562482608 727.0478616534979,819.5015528100075 730.1121860320918,810.9900644134063 733.7049044448931,802.6877820146296 737.8118380736836,794.6274709293531 742.4167787277098,786.8409415230245 747.5015528100075,779.3589236698839 753.0460930402863,772.2109454761887 759.0285176513167,765.4252167462688 765.4252167462688,759.0285176513167 772.2109454761887,753.0460930402863 779.3589236698839,747.5015528100075 786.8409415230245,742.4167787277098 794.627470929353,737.8118380736837 802.6877820146296,733.7049044448931 810.9900644134063,730.1121860320918 819.5015528100075,727.0478616534979 828.1886562482608,724.5240247974772 837.0170906996557,722.5506358950688 845.9520143667402,721.1354830107152 854.958165187779,720.2841511063289 864,720 873.041834812221,720.2841511063289 882.0479856332598,721.1354830107152 890.9829093003443,722.5506358950688 899.8113437517391,724.5240247974771 908.4984471899924,727.0478616534979 917.0099355865937,730.1121860320918 925.3122179853704,733.7049044448931 933.3725290706469,737.8118380736836 941.1590584769754,742.4167787277098 948.6410763301161,747.5015528100075 955.7890545238113,753.0460930402863 962.5747832537312,759.0285176513167 968.9714823486833,765.4252167462688 974.9539069597137,772.2109454761887 980.4984471899925,779.3589236698838 985.5832212722902,786.8409415230245 990.1881619263163,794.627470929353 994.2950955551069,802.6877820146296 997.8878139679082,810.9900644134062 1000.9521383465021,819.5015528100075 1003.4759752025228,828.1886562482608 1005.4493641049312,837.0170906996557 1006.8645169892848,845.9520143667402 1007.7158488936711,854.958165187779" fill="none" stroke="#17353b" stroke-width="0.5" opacity="0.7450000000000001"></polygon><polygon points="1062,864 1061.6092922287978,876.432522866804 1060.4387108602666,888.8159802457322 1058.4928756442803,901.1015002879735 1055.779465903469,913.2405976586413 1052.3091902264405,925.1853648862395 1048.0957442058739,936.8886614315662 1043.1557563882718,948.3042997298844 1037.508722648685,959.3872274721397 1031.176929249399,970.0937054058413 1024.1853648862395,980.3814799539097 1016.5616220696063,990.2099499702406 1008.3357882294395,999.5403269738804 999.5403269738804,1008.3357882294395 990.2099499702406,1016.5616220696063 980.3814799539097,1024.1853648862395 970.0937054058413,1031.176929249399 959.3872274721396,1037.508722648685 948.3042997298844,1043.1557563882718 936.8886614315662,1048.0957442058739 925.1853648862395,1052.3091902264405 913.2405976586413,1055.779465903469 901.1015002879735,1058.4928756442803 888.8159802457322,1060.4387108602666 876.4325228668041,1061.6092922287978 864,1062 851.5674771331959,1061.6092922287978 839.1840197542678,1060.4387108602666 826.8984997120265,1058.4928756442803 814.7594023413587,1055.779465903469 802.8146351137605,1052.3091902264405 791.1113385684338,1048.0957442058739 779.6957002701156,1043.1557563882718 768.6127725278603,1037.5087226486849 757.9062945941587,1031.1769292493989 747.6185200460903,1024.1853648862395 737.7900500297594,1016.5616220696063 728.4596730261196,1008.3357882294395 719.6642117705605,999.5403269738804 711.4383779303937,990.2099499702406 703.8146351137605,980.3814799539097 696.8230707506011,970.0937054058414 690.491277351315,959.3872274721397 684.8442436117282,948.3042997298844 679.9042557941262,936.8886614315663 675.6908097735596,925.1853648862397 672.2205340965311,913.2405976586413 669.5071243557197,901.1015002879735 667.5612891397334,888.8159802457322 666.3907077712022,876.4325228668041 666,864 666.3907077712022,851.567477133196 667.5612891397334,839.1840197542678 669.5071243557197,826.8984997120265 672.2205340965311,814.7594023413587 675.6908097735596,802.8146351137603 679.9042557941262,791.1113385684337 684.8442436117281,779.6957002701157 690.4912773513149,768.6127725278604 696.823070750601,757.9062945941587 703.8146351137603,747.6185200460903 711.4383779303937,737.7900500297594 719.6642117705605,728.4596730261196 728.4596730261196,719.6642117705605 737.7900500297594,711.4383779303937 747.6185200460903,703.8146351137605 757.9062945941587,696.823070750601 768.6127725278603,690.491277351315 779.6957002701157,684.8442436117281 791.1113385684337,679.9042557941262 802.8146351137603,675.6908097735596 814.7594023413586,672.2205340965311 826.8984997120265,669.5071243557196 839.1840197542676,667.5612891397334 851.567477133196,666.3907077712022 864,666 876.432522866804,666.3907077712022 888.8159802457322,667.5612891397334 901.1015002879734,669.5071243557196 913.2405976586413,672.2205340965311 925.1853648862395,675.6908097735595 936.8886614315663,679.9042557941262 948.3042997298842,684.8442436117281 959.3872274721396,690.4912773513149 970.0937054058412,696.8230707506009 980.3814799539097,703.8146351137603 990.2099499702405,711.4383779303937 999.5403269738804,719.6642117705605 1008.3357882294395,728.4596730261196 1016.5616220696063,737.7900500297594 1024.1853648862395,747.6185200460902 1031.176929249399,757.9062945941587 1037.508722648685,768.6127725278603 1043.1557563882718,779.6957002701157 1048.0957442058736,791.1113385684337 1052.3091902264405,802.8146351137603 1055.779465903469,814.7594023413586 1058.4928756442803,826.8984997120265 1060.4387108602666,839.1840197542676 1061.6092922287978,851.567477133196" fill="none" stroke="#17353b" stroke-width="0.5" opacity="0.6900000000000001"></polygon><polygon points="1116,864 1115.5027355639245,879.8232109213869 1114.0129047312485,895.5839748582047 1111.5363871836296,911.2200912756026 1108.0829566044151,926.6698515655435 1103.6662421063788,941.8722825824867 1098.3036744438393,956.7673872765388 1092.016417221437,971.2963814743983 1084.8292833710536,985.4019258736323 1076.770637226508,999.0283523347072 1067.8722825824868,1012.1218835777032 1058.1693371794988,1024.63084541667 1047.7000941101958,1036.5058706940295 1036.5058706940295,1047.7000941101958 1024.63084541667,1058.1693371794988 1012.1218835777032,1067.8722825824868 999.0283523347072,1076.770637226508 985.4019258736322,1084.8292833710536 971.2963814743983,1092.016417221437 956.7673872765389,1098.3036744438393 941.8722825824867,1103.6662421063788 926.6698515655435,1108.0829566044151 911.2200912756026,1111.5363871836296 895.5839748582047,1114.0129047312485 879.823210921387,1115.5027355639245 864,1116 848.1767890786131,1115.5027355639245 832.4160251417953,1114.0129047312485 816.7799087243974,1111.5363871836296 801.3301484344566,1108.0829566044151 786.1277174175133,1103.6662421063788 771.2326127234611,1098.3036744438393 756.7036185256017,1092.016417221437 742.5980741263677,1084.8292833710536 728.9716476652927,1076.770637226508 715.8781164222968,1067.8722825824868 703.3691545833301,1058.1693371794988 691.4941293059704,1047.7000941101958 680.2999058898043,1036.5058706940297 669.8306628205012,1024.63084541667 660.1277174175133,1012.1218835777033 651.2293627734922,999.0283523347073 643.1707166289464,985.4019258736323 635.9835827785631,971.2963814743983 629.6963255561607,956.7673872765389 624.3337578936213,941.8722825824868 619.917043395585,926.6698515655435 616.4636128163704,911.2200912756027 613.9870952687515,895.5839748582048 612.4972644360755,879.823210921387 612,864 612.4972644360755,848.1767890786131 613.9870952687515,832.4160251417953 616.4636128163704,816.7799087243974 619.917043395585,801.3301484344565 624.3337578936213,786.1277174175132 629.6963255561607,771.2326127234611 635.983582778563,756.7036185256018 643.1707166289464,742.5980741263678 651.2293627734921,728.971647665293 660.1277174175132,715.8781164222968 669.8306628205011,703.3691545833302 680.2999058898042,691.4941293059704 691.4941293059703,680.2999058898043 703.3691545833302,669.8306628205011 715.8781164222967,660.1277174175133 728.971647665293,651.2293627734921 742.5980741263677,643.1707166289464 756.7036185256018,635.983582778563 771.232612723461,629.6963255561607 786.1277174175132,624.3337578936213 801.3301484344564,619.917043395585 816.7799087243974,616.4636128163704 832.4160251417952,613.9870952687515 848.1767890786131,612.4972644360755 864,612 879.8232109213868,612.4972644360755 895.5839748582047,613.9870952687515 911.2200912756025,616.4636128163704 926.6698515655435,619.917043395585 941.8722825824867,624.3337578936213 956.7673872765389,629.6963255561607 971.2963814743981,635.983582778563 985.4019258736322,643.1707166289464 999.028352334707,651.2293627734921 1012.1218835777032,660.1277174175132 1024.6308454166697,669.830662820501 1036.5058706940295,680.2999058898042 1047.7000941101956,691.4941293059703 1058.169337179499,703.3691545833302 1067.8722825824868,715.8781164222967 1076.770637226508,728.971647665293 1084.8292833710536,742.5980741263677 1092.016417221437,756.7036185256018 1098.3036744438393,771.232612723461 1103.6662421063788,786.1277174175132 1108.082956604415,801.3301484344564 1111.5363871836296,816.7799087243974 1114.0129047312485,832.4160251417952 1115.5027355639245,848.1767890786131" fill="none" stroke="#17353b" stroke-width="0.5" opacity="0.635"></polygon><polygon points="1170,864 1169.3961788990512,883.2138989759699 1167.5870986022303,902.3519694706771 1164.5798987229787,921.3386822632317 1160.3864473053611,940.0991054724456 1155.023293986317,958.5592002787339 1148.511604681805,976.6461131215115 1140.877078054602,994.2884632189123 1132.1498440934222,1011.4166242751248 1122.3643452036167,1027.962999263573 1111.559200278734,1043.8622872014967 1099.7770522893916,1059.051740863099 1087.0643999909519,1073.4714144141788 1073.4714144141788,1087.0643999909519 1059.051740863099,1099.7770522893916 1043.8622872014967,1111.559200278734 1027.962999263573,1122.3643452036167 1011.4166242751248,1132.1498440934224 994.2884632189123,1140.877078054602 976.6461131215115,1148.5116046818048 958.5592002787339,1155.023293986317 940.0991054724457,1160.3864473053611 921.3386822632318,1164.5798987229787 902.3519694706771,1167.5870986022303 883.21389897597,1169.3961788990512 864,1170 844.7861010240301,1169.3961788990512 825.6480305293229,1167.58709860223 806.6613177367682,1164.5798987229787 787.9008945275544,1160.3864473053611 769.4407997212661,1155.023293986317 751.3538868784885,1148.5116046818048 733.7115367810877,1140.877078054602 716.583375724875,1132.1498440934222 700.037000736427,1122.3643452036165 684.1377127985032,1111.559200278734 668.9482591369009,1099.7770522893916 654.5285855858212,1087.0643999909519 640.9356000090481,1073.4714144141788 628.2229477106085,1059.051740863099 616.4407997212661,1043.8622872014969 605.6356547963835,1027.962999263573 595.8501559065778,1011.416624275125 587.122921945398,994.2884632189123 579.4883953181951,976.6461131215115 572.976706013683,958.5592002787339 567.6135526946389,940.0991054724456 563.4201012770213,921.3386822632318 560.4129013977698,902.3519694706772 558.6038211009488,883.21389897597 558,864 558.6038211009488,844.7861010240301 560.4129013977697,825.6480305293229 563.4201012770213,806.6613177367682 567.6135526946389,787.9008945275543 572.976706013683,769.440799721266 579.4883953181951,751.3538868784884 587.122921945398,733.711536781088 595.8501559065777,716.5833757248752 605.6356547963833,700.0370007364271 616.4407997212661,684.1377127985032 628.2229477106084,668.948259136901 640.9356000090481,654.5285855858212 654.5285855858212,640.9356000090481 668.948259136901,628.2229477106084 684.1377127985031,616.4407997212661 700.0370007364271,605.6356547963833 716.5833757248752,595.8501559065778 733.711536781088,587.1229219453979 751.3538868784883,579.4883953181952 769.4407997212661,572.976706013683 787.9008945275543,567.6135526946389 806.6613177367683,563.4201012770213 825.6480305293228,560.4129013977698 844.7861010240301,558.6038211009488 864,558 883.2138989759698,558.6038211009488 902.3519694706771,560.4129013977697 921.3386822632316,563.4201012770213 940.0991054724457,567.6135526946389 958.5592002787339,572.976706013683 976.6461131215116,579.4883953181951 994.2884632189119,587.1229219453979 1011.4166242751248,595.8501559065777 1027.9629992635728,605.6356547963833 1043.8622872014967,616.4407997212661 1059.051740863099,628.2229477106084 1073.4714144141788,640.9356000090481 1087.0643999909519,654.5285855858212 1099.7770522893916,668.948259136901 1111.559200278734,684.1377127985031 1122.3643452036167,700.0370007364271 1132.1498440934222,716.5833757248752 1140.877078054602,733.711536781088 1148.5116046818048,751.3538868784883 1155.023293986317,769.440799721266 1160.3864473053611,787.9008945275542 1164.5798987229787,806.6613177367683 1167.58709860223,825.6480305293228 1169.3961788990512,844.7861010240301" fill="none" stroke="#17353b" stroke-width="0.5" opacity="0.5800000000000001"></polygon><polygon points="1224,864 1223.2896222341778,886.6045870305528 1221.1612924732121,909.1199640831495 1217.623410262328,931.4572732508609 1212.6899380063073,953.5283593793478 1206.3803458662553,975.2461179749811 1198.7195349197705,996.524838966484 1189.7377388877671,1017.2805449634261 1179.470404815791,1037.4313226766176 1167.9580531807255,1056.8976461924387 1155.2461179749812,1075.6026908252902 1141.384767399284,1093.4726363095283 1126.4287058717082,1110.4369581343278 1110.4369581343278,1126.4287058717082 1093.4726363095283,1141.384767399284 1075.6026908252902,1155.2461179749812 1056.8976461924387,1167.9580531807255 1037.4313226766176,1179.470404815791 1017.2805449634261,1189.7377388877671 996.5248389664841,1198.7195349197705 975.2461179749811,1206.3803458662553 953.5283593793478,1212.6899380063073 931.4572732508609,1217.623410262328 909.1199640831495,1221.1612924732121 886.6045870305529,1223.2896222341778 864,1224 841.3954129694472,1223.2896222341778 818.8800359168504,1221.161292473212 796.5427267491391,1217.623410262328 774.4716406206524,1212.6899380063073 752.7538820250189,1206.3803458662553 731.4751610335159,1198.7195349197705 710.7194550365739,1189.7377388877671 690.5686773233824,1179.470404815791 671.1023538075611,1167.9580531807255 652.3973091747097,1155.2461179749812 634.5273636904717,1141.384767399284 617.5630418656721,1126.4287058717082 601.5712941282919,1110.436958134328 586.6152326007159,1093.4726363095283 572.753882025019,1075.6026908252904 560.0419468192747,1056.897646192439 548.5295951842093,1037.4313226766176 538.2622611122331,1017.2805449634262 529.2804650802295,996.5248389664841 521.6196541337447,975.2461179749811 515.3100619936928,953.5283593793478 510.3765897376721,931.457273250861 506.838707526788,909.1199640831496 504.7103777658222,886.6045870305529 504,864 504.7103777658222,841.3954129694472 506.83870752678797,818.8800359168505 510.3765897376721,796.5427267491391 515.3100619936928,774.4716406206522 521.6196541337447,752.7538820250188 529.2804650802295,731.4751610335159 538.2622611122329,710.719455036574 548.529595184209,690.5686773233826 560.0419468192745,671.1023538075613 572.7538820250188,652.3973091747097 586.6152326007159,634.5273636904717 601.5712941282918,617.5630418656721 617.563041865672,601.5712941282919 634.5273636904717,586.6152326007159 652.3973091747096,572.753882025019 671.1023538075613,560.0419468192745 690.5686773233825,548.529595184209 710.719455036574,538.2622611122329 731.4751610335157,529.2804650802295 752.7538820250189,521.6196541337447 774.4716406206521,515.3100619936929 796.5427267491391,510.3765897376721 818.8800359168504,506.838707526788 841.3954129694472,504.7103777658222 863.9999999999999,504 886.6045870305526,504.7103777658222 909.1199640831495,506.83870752678797 931.4572732508607,510.3765897376721 953.5283593793478,515.3100619936928 975.246117974981,521.6196541337447 996.5248389664841,529.2804650802295 1017.2805449634259,538.2622611122329 1037.4313226766174,548.529595184209 1056.8976461924385,560.0419468192745 1075.6026908252902,572.7538820250188 1093.472636309528,586.6152326007157 1110.4369581343278,601.5712941282918 1126.428705871708,617.563041865672 1141.384767399284,634.5273636904717 1155.246117974981,652.3973091747096 1167.9580531807255,671.1023538075613 1179.470404815791,690.5686773233824 1189.7377388877671,710.719455036574 1198.7195349197705,731.4751610335156 1206.3803458662553,752.7538820250188 1212.689938006307,774.4716406206521 1217.623410262328,796.5427267491391 1221.161292473212,818.8800359168504 1223.2896222341778,841.3954129694472" fill="none" stroke="#17353b" stroke-width="0.5" opacity="0.525"></polygon><polygon points="1278,864 1277.1830655693043,889.9952750851357 1274.7354863441938,915.8879586956219 1270.666921801677,941.57586423849 1264.9934287072533,966.9576132862499 1257.7373977461934,991.9330356712283 1248.9274651577362,1016.4035648114566 1238.5983997209319,1040.2726267079402 1226.7909655381595,1063.44602107811 1213.5517611578343,1085.8322931213047 1198.9330356712283,1107.3430944490838 1182.9924825091766,1127.8935317559576 1165.7930117524643,1147.4025018544771 1147.4025018544771,1165.7930117524643 1127.8935317559576,1182.9924825091766 1107.3430944490838,1198.9330356712283 1085.8322931213045,1213.5517611578343 1063.44602107811,1226.7909655381595 1040.2726267079402,1238.598399720932 1016.4035648114567,1248.927465157736 991.9330356712283,1257.7373977461934 966.95761328625,1264.9934287072533 941.57586423849,1270.666921801677 915.8879586956219,1274.7354863441938 889.9952750851357,1277.1830655693043 864,1278 838.0047249148643,1277.1830655693043 812.112041304378,1274.7354863441938 786.4241357615099,1270.666921801677 761.0423867137501,1264.9934287072533 736.0669643287719,1257.7373977461934 711.5964351885434,1248.927465157736 687.72737329206,1238.5983997209319 664.5539789218899,1226.7909655381595 642.1677068786953,1213.551761157834 620.6569055509162,1198.9330356712283 600.1064682440425,1182.9924825091766 580.5974981455229,1165.7930117524643 562.2069882475357,1147.4025018544771 545.0075174908234,1127.8935317559576 529.0669643287719,1107.3430944490838 514.4482388421659,1085.8322931213047 501.20903446184064,1063.4460210781103 489.401600279068,1040.2726267079402 479.072534842264,1016.4035648114567 470.2626022538065,991.9330356712283 463.0065712927468,966.9576132862499 457.333078198323,941.5758642384901 453.26451365580624,915.887958695622 450.81693443069565,889.9952750851359 450.00000000000006,864 450.81693443069565,838.0047249148643 453.26451365580624,812.1120413043781 457.333078198323,786.42413576151 463.0065712927468,761.04238671375 470.2626022538065,736.0669643287716 479.072534842264,711.5964351885432 489.4016002790679,687.7273732920601 501.2090344618405,664.55397892189 514.4482388421658,642.1677068786955 529.0669643287717,620.6569055509162 545.0075174908234,600.1064682440425 562.2069882475357,580.5974981455229 580.5974981455229,562.2069882475357 600.1064682440426,545.0075174908233 620.6569055509161,529.0669643287719 642.1677068786955,514.4482388421657 664.5539789218899,501.20903446184053 687.7273732920602,489.40160027906785 711.5964351885431,479.0725348422641 736.0669643287717,470.2626022538065 761.0423867137499,463.00657129274686 786.42413576151,457.33307819832294 812.112041304378,453.26451365580624 838.0047249148644,450.81693443069565 863.9999999999999,450.00000000000006 889.9952750851355,450.81693443069565 915.8879586956219,453.26451365580624 941.5758642384899,457.33307819832294 966.95761328625,463.0065712927468 991.9330356712281,470.26260225380645 1016.4035648114568,479.072534842264 1040.2726267079397,489.4016002790678 1063.4460210781099,501.2090344618404 1085.8322931213042,514.4482388421657 1107.3430944490838,529.0669643287717 1127.8935317559574,545.0075174908231 1147.4025018544771,562.2069882475357 1165.7930117524643,580.5974981455229 1182.9924825091766,600.1064682440425 1198.933035671228,620.656905550916 1213.5517611578343,642.1677068786955 1226.7909655381595,664.5539789218899 1238.598399720932,687.7273732920601 1248.927465157736,711.5964351885431 1257.7373977461934,736.0669643287716 1264.993428707253,761.0423867137499 1270.666921801677,786.42413576151 1274.7354863441938,812.1120413043778 1277.1830655693043,838.0047249148643" fill="none" stroke="#17353b" stroke-width="0.5" opacity="0.47000000000000003"></polygon><polygon points="1332,864 1331.0765089044312,893.3859631397187 1328.3096802151756,922.6559533080944 1323.7104333410264,951.6944552261191 1317.2969194081993,980.386867193152 1309.0944496261318,1008.6199533674753 1299.1353953957016,1036.2822906564293 1287.459060554097,1063.264708452454 1274.111526260528,1089.4607194796029 1259.1454691349431,1114.7669400501704 1242.6199533674753,1139.0834980728773 1224.6001976190694,1162.3144272023867 1205.1573176332206,1184.3680455746262 1184.3680455746262,1205.1573176332206 1162.3144272023867,1224.6001976190694 1139.0834980728773,1242.6199533674753 1114.7669400501704,1259.1454691349431 1089.4607194796026,1274.111526260528 1063.264708452454,1287.459060554097 1036.2822906564293,1299.1353953957016 1008.6199533674754,1309.0944496261318 980.3868671931522,1317.2969194081993 951.6944552261192,1323.7104333410261 922.6559533080944,1328.3096802151756 893.3859631397187,1331.0765089044312 864,1332 834.6140368602813,1331.0765089044312 805.3440466919055,1328.3096802151756 776.3055447738808,1323.7104333410261 747.6131328068481,1317.2969194081993 719.3800466325247,1309.0944496261318 691.7177093435707,1299.1353953957016 664.735291547546,1287.459060554097 638.5392805203971,1274.111526260528 613.2330599498295,1259.1454691349431 588.9165019271227,1242.6199533674753 565.6855727976132,1224.6001976190694 543.6319544253737,1205.1573176332206 522.8426823667795,1184.3680455746264 503.3998023809307,1162.314427202387 485.3800466325246,1139.0834980728775 468.85453086505703,1114.7669400501707 453.8884737394719,1089.4607194796029 440.54093944590295,1063.2647084524542 428.8646046042984,1036.2822906564293 418.90555037386815,1008.6199533674754 410.70308059180064,980.386867193152 404.28956665897374,951.6944552261193 399.6903197848244,922.6559533080945 396.9234910955689,893.3859631397188 396,864.0000000000001 396.9234910955689,834.6140368602813 399.69031978482434,805.3440466919056 404.28956665897374,776.3055447738808 410.70308059180064,747.6131328068478 418.90555037386815,719.3800466325245 428.86460460429845,691.7177093435705 440.5409394459028,664.7352915475462 453.8884737394718,638.5392805203974 468.8545308650569,613.2330599498297 485.38004663252457,588.9165019271227 503.3998023809306,565.6855727976133 522.8426823667794,543.6319544253737 543.6319544253736,522.8426823667795 565.6855727976133,503.39980238093057 588.9165019271225,485.3800466325246 613.2330599498297,468.85453086505686 638.5392805203973,453.88847373947186 664.7352915475462,440.5409394459027 691.7177093435704,428.86460460429845 719.3800466325246,418.90555037386815 747.6131328068477,410.7030805918007 776.3055447738809,404.2895666589737 805.3440466919054,399.6903197848244 834.6140368602814,396.9234910955689 863.9999999999999,396 893.3859631397185,396.9234910955689 922.6559533080944,399.69031978482434 951.694455226119,404.2895666589737 980.386867193152,410.70308059180064 1008.6199533674753,418.9055503738681 1036.2822906564295,428.86460460429845 1063.2647084524535,440.54093944590267 1089.4607194796026,453.88847373947175 1114.7669400501702,468.85453086505674 1139.0834980728773,485.38004663252457 1162.3144272023865,503.39980238093045 1184.3680455746262,522.8426823667794 1205.1573176332204,543.6319544253736 1224.6001976190694,565.6855727976133 1242.6199533674753,588.9165019271225 1259.1454691349431,613.2330599498297 1274.111526260528,638.5392805203973 1287.4590605540973,664.7352915475462 1299.1353953957016,691.7177093435704 1309.0944496261318,719.3800466325245 1317.2969194081993,747.6131328068477 1323.7104333410264,776.3055447738809 1328.3096802151756,805.3440466919054 1331.0765089044312,834.6140368602814" fill="none" stroke="#17353b" stroke-width="0.5" opacity="0.41500000000000004"></polygon><polygon points="1386,864 1384.9699522395576,896.7766511943016 1381.8838740861574,929.4239479205668 1376.7539448803755,961.8130462137483 1369.6004101091453,993.8161211000543 1360.4515015060701,1025.3068710637226 1349.3433256336673,1056.161016501402 1336.3197213872622,1086.256790196968 1321.4320869828969,1115.4754178810954 1304.739177112052,1143.7015869790362 1286.3068710637226,1170.8239016966709 1266.2079127289621,1196.735322648816 1244.521623513977,1221.3335892947755 1221.3335892947755,1244.521623513977 1196.735322648816,1266.2079127289621 1170.8239016966709,1286.3068710637226 1143.7015869790362,1304.739177112052 1115.4754178810954,1321.4320869828969 1086.2567901969678,1336.3197213872622 1056.161016501402,1349.343325633667 1025.3068710637226,1360.4515015060701 993.8161211000543,1369.6004101091453 961.8130462137483,1376.7539448803755 929.4239479205668,1381.8838740861574 896.7766511943016,1384.9699522395576 864,1386 831.2233488056984,1384.9699522395576 798.5760520794331,1381.8838740861574 766.1869537862517,1376.7539448803755 734.1838788999459,1369.6004101091455 702.6931289362775,1360.4515015060701 671.838983498598,1349.343325633667 641.7432098030321,1336.3197213872622 612.5245821189045,1321.4320869828966 584.2984130209636,1304.739177112052 557.1760983033291,1286.3068710637226 531.264677351184,1266.2079127289621 506.6664107052245,1244.5216235139767 483.4783764860233,1221.3335892947755 461.79208727103804,1196.7353226488162 441.6931289362775,1170.823901696671 423.2608228879482,1143.7015869790364 406.5679130171033,1115.4754178810956 391.6802786127379,1086.256790196968 378.6566743663328,1056.161016501402 367.54849849392986,1025.3068710637226 358.3995898908546,993.8161211000543 351.24605511962454,961.8130462137485 346.11612591384255,929.423947920567 343.03004776044224,896.7766511943017 342,864.0000000000001 343.03004776044224,831.2233488056984 346.11612591384255,798.5760520794331 351.24605511962454,766.1869537862517 358.3995898908546,734.1838788999457 367.54849849392986,702.6931289362773 378.6566743663329,671.8389834985979 391.6802786127377,641.7432098030323 406.56791301710314,612.5245821189048 423.26082288794805,584.2984130209638 441.6931289362774,557.1760983033291 461.792087271038,531.264677351184 483.4783764860232,506.6664107052245 506.6664107052244,483.4783764860233 531.264677351184,461.79208727103793 557.1760983033289,441.6931289362775 584.2984130209638,423.260822887948 612.5245821189046,406.5679130171032 641.7432098030323,391.68027861273765 671.8389834985978,378.65667436633294 702.6931289362774,367.54849849392986 734.1838788999455,358.39958989085466 766.1869537862517,351.24605511962454 798.576052079433,346.11612591384255 831.2233488056985,343.03004776044224 863.9999999999999,342 896.7766511943013,343.03004776044224 929.4239479205668,346.11612591384255 961.8130462137481,351.24605511962454 993.8161211000543,358.3995898908546 1025.3068710637224,367.5484984939298 1056.1610165014022,378.6566743663329 1086.2567901969676,391.6802786127376 1115.4754178810952,406.5679130171031 1143.701586979036,423.2608228879479 1170.8239016966709,441.6931289362774 1196.7353226488158,461.7920872710378 1221.3335892947755,483.4783764860232 1244.5216235139767,506.6664107052244 1266.2079127289621,531.264677351184 1286.3068710637226,557.1760983033289 1304.739177112052,584.2984130209638 1321.4320869828969,612.5245821189046 1336.3197213872622,641.7432098030323 1349.343325633667,671.8389834985977 1360.4515015060701,702.6931289362773 1369.6004101091453,734.1838788999455 1376.7539448803755,766.1869537862517 1381.8838740861574,798.576052079433 1384.9699522395576,831.2233488056985" fill="none" stroke="#17353b" stroke-width="0.5" opacity="0.36"></polygon><polygon points="1440,864 1438.8633955746845,900.1673392488844 1435.4580679571393,936.1919425330393 1429.7974564197248,971.9316372013774 1421.9039008100915,1007.2453750069564 1411.8085533860085,1041.9937887599697 1399.5512558716327,1076.0397423463744 1385.1803822204272,1109.2488719414819 1368.7526477052654,1141.4901162825881 1350.3328850891608,1172.6362339079021 1329.9937887599697,1202.5643053204644 1307.8156278388547,1231.156218095245 1283.885929394733,1258.2991330149246 1258.2991330149246,1283.885929394733 1231.156218095245,1307.8156278388547 1202.5643053204644,1329.9937887599697 1172.636233907902,1350.3328850891608 1141.490116282588,1368.7526477052654 1109.2488719414819,1385.1803822204274 1076.0397423463746,1399.5512558716327 1041.9937887599697,1411.8085533860085 1007.2453750069565,1421.9039008100915 971.9316372013775,1429.7974564197248 936.1919425330393,1435.4580679571393 900.1673392488846,1438.8633955746845 864,1440 827.8326607511154,1438.8633955746845 791.8080574669607,1435.458067957139 756.0683627986225,1429.7974564197248 720.7546249930438,1421.9039008100917 686.0062112400303,1411.8085533860085 651.9602576536255,1399.5512558716327 618.7511280585181,1385.1803822204272 586.5098837174119,1368.7526477052654 555.3637660920979,1350.3328850891608 525.4356946795356,1329.9937887599697 496.8437819047547,1307.8156278388547 469.7008669850753,1283.885929394733 444.1140706052671,1258.2991330149248 420.18437216114546,1231.1562180952453 398.0062112400303,1202.5643053204647 377.6671149108395,1172.6362339079024 359.2473522947347,1141.4901162825881 342.8196177795728,1109.2488719414819 328.44874412836725,1076.0397423463746 316.1914466139916,1041.9937887599697 306.0960991899085,1007.2453750069564 298.20254358027535,971.9316372013776 292.5419320428608,936.1919425330394 289.13660442531557,900.1673392488847 288,864.0000000000001 289.13660442531557,827.8326607511156 292.5419320428607,791.8080574669607 298.20254358027535,756.0683627986225 306.0960991899085,720.7546249930435 316.1914466139916,686.0062112400301 328.44874412836725,651.9602576536253 342.8196177795727,618.7511280585184 359.2473522947345,586.5098837174121 377.66711491083925,555.3637660920981 398.0062112400302,525.4356946795356 420.1843721611454,496.8437819047548 444.11407060526693,469.7008669850753 469.70086698507515,444.1140706052671 496.84378190475485,420.18437216114535 525.4356946795353,398.0062112400303 555.3637660920981,377.6671149108392 586.509883717412,359.2473522947346 618.7511280585185,342.8196177795726 651.9602576536251,328.44874412836737 686.0062112400302,316.1914466139916 720.7546249930433,306.0960991899086 756.0683627986226,298.20254358027535 791.8080574669606,292.5419320428608 827.8326607511156,289.13660442531557 863.9999999999999,288 900.1673392488842,289.13660442531557 936.1919425330392,292.5419320428607 971.9316372013772,298.20254358027535 1007.2453750069565,306.0960991899085 1041.9937887599697,316.1914466139915 1076.0397423463746,328.44874412836725 1109.2488719414814,342.8196177795726 1141.4901162825877,359.24735229473447 1172.6362339079017,377.6671149108391 1202.5643053204644,398.0062112400302 1231.156218095245,420.1843721611452 1258.2991330149246,444.11407060526693 1283.8859293947328,469.70086698507515 1307.8156278388547,496.8437819047548 1329.9937887599697,525.4356946795353 1350.3328850891608,555.3637660920981 1368.7526477052654,586.509883717412 1385.1803822204274,618.7511280585184 1399.5512558716327,651.960257653625 1411.8085533860085,686.0062112400301 1421.9039008100913,720.7546249930433 1429.7974564197248,756.0683627986226 1435.458067957139,791.8080574669605 1438.8633955746845,827.8326607511156" fill="none" stroke="#17353b" stroke-width="0.5" opacity="0.305"></polygon><polygon points="1494,864 1492.756838909811,903.5580273034674 1489.0322618281211,942.9599371455117 1482.8409679590739,982.0502281890065 1474.2073915110377,1020.6746289138586 1463.1656052659469,1058.6807064562167 1449.7591861095984,1095.918468191347 1434.0410430535921,1132.240953685996 1416.0732084276342,1167.5048146840807 1395.9265930662696,1201.5708808367679 1373.680706456217,1234.304708944258 1349.4233429487472,1265.5771135416744 1323.2502352754893,1295.2646767350739 1295.2646767350739,1323.2502352754893 1265.5771135416744,1349.4233429487472 1234.304708944258,1373.680706456217 1201.5708808367679,1395.9265930662696 1167.5048146840804,1416.0732084276342 1132.2409536859957,1434.0410430535924 1095.918468191347,1449.7591861095984 1058.680706456217,1463.1656052659469 1020.6746289138587,1474.2073915110377 982.0502281890066,1482.8409679590739 942.9599371455117,1489.0322618281211 903.5580273034675,1492.756838909811 864,1494 824.4419726965325,1492.756838909811 785.0400628544883,1489.0322618281211 745.9497718109933,1482.8409679590739 707.3253710861416,1474.2073915110377 669.3192935437831,1463.1656052659469 632.0815318086529,1449.7591861095984 595.7590463140042,1434.0410430535921 560.4951853159193,1416.073208427634 526.4291191632319,1395.9265930662696 493.695291055742,1373.680706456217 462.4228864583255,1349.4233429487472 432.7353232649261,1323.250235275489 404.74976472451084,1295.2646767350739 378.5766570512528,1265.5771135416746 354.3192935437832,1234.3047089442582 332.07340693373067,1201.570880836768 311.926791572366,1167.5048146840809 293.95895694640785,1132.240953685996 278.2408138904017,1095.9184681913473 264.83439473405326,1058.680706456217 253.7926084889624,1020.6746289138586 245.15903204092615,982.0502281890067 238.96773817187898,942.9599371455118 235.2431610901889,903.5580273034675 234,864.0000000000001 235.2431610901889,824.4419726965326 238.96773817187898,785.0400628544883 245.15903204092615,745.9497718109934 253.7926084889624,707.3253710861413 264.83439473405326,669.3192935437829 278.2408138904017,632.0815318086527 293.9589569464076,595.7590463140045 311.9267915723659,560.4951853159196 332.07340693373044,526.4291191632323 354.31929354378303,493.695291055742 378.57665705125277,462.42288645832554 404.7497647245107,432.7353232649261 432.73532326492597,404.74976472451084 462.4228864583256,378.5766570512527 493.69529105574185,354.3192935437832 526.4291191632324,332.0734069337303 560.4951853159193,311.9267915723659 595.7590463140045,293.9589569464075 632.0815318086525,278.2408138904018 669.319293543783,264.83439473405326 707.3253710861411,253.79260848896251 745.9497718109935,245.15903204092615 785.0400628544882,238.96773817187898 824.4419726965327,235.2431610901889 863.9999999999999,234 903.558027303467,235.2431610901889 942.9599371455116,238.96773817187898 982.0502281890062,245.15903204092615 1020.6746289138587,253.7926084889624 1058.6807064562167,264.83439473405315 1095.9184681913473,278.2408138904017 1132.2409536859952,293.9589569464075 1167.5048146840804,311.9267915723658 1201.5708808367674,332.0734069337302 1234.304708944258,354.31929354378303 1265.5771135416742,378.57665705125254 1295.2646767350739,404.7497647245107 1323.250235275489,432.73532326492597 1349.4233429487472,462.42288645832554 1373.6807064562167,493.6952910557418 1395.9265930662696,526.4291191632324 1416.0732084276342,560.4951853159193 1434.0410430535924,595.7590463140045 1449.7591861095982,632.0815318086525 1463.1656052659469,669.319293543783 1474.2073915110375,707.3253710861411 1482.8409679590739,745.9497718109934 1489.0322618281211,785.040062854488 1492.756838909811,824.4419726965326" fill="none" stroke="#17353b" stroke-width="0.5" opacity="0.25"></polygon><polygon points="1680,936 1679.7158488936711,945.0418348122212 1678.8645169892848,954.0479856332598 1677.4493641049312,962.9829093003443 1675.475975202523,971.8113437517391 1672.9521383465021,980.4984471899925 1669.8878139679082,989.0099355865937 1666.2950955551069,997.3122179853705 1662.1881619263163,1005.372529070647 1657.58322127229,1013.1590584769755 1652.4984471899925,1020.6410763301161 1646.9539069597135,1027.7890545238113 1640.9714823486834,1034.574783253731 1634.574783253731,1040.9714823486834 1627.7890545238113,1046.9539069597135 1620.6410763301162,1052.4984471899925 1613.1590584769756,1057.58322127229 1605.372529070647,1062.1881619263163 1597.3122179853704,1066.2950955551069 1589.0099355865937,1069.8878139679082 1580.4984471899925,1072.9521383465021 1571.811343751739,1075.475975202523 1562.9829093003443,1077.4493641049312 1554.0479856332597,1078.8645169892848 1545.0418348122212,1079.7158488936711 1536,1080 1526.9581651877788,1079.7158488936711 1517.95201436674,1078.8645169892848 1509.0170906996557,1077.4493641049312 1500.188656248261,1075.475975202523 1491.5015528100075,1072.9521383465021 1482.9900644134063,1069.8878139679082 1474.6877820146294,1066.2950955551069 1466.627470929353,1062.1881619263163 1458.8409415230244,1057.58322127229 1451.3589236698838,1052.4984471899925 1444.2109454761887,1046.9539069597135 1437.425216746269,1040.9714823486834 1431.0285176513169,1034.5747832537313 1425.0460930402865,1027.7890545238113 1419.5015528100075,1020.6410763301161 1414.41677872771,1013.1590584769756 1409.8118380736837,1005.372529070647 1405.7049044448931,997.3122179853705 1402.1121860320918,989.0099355865937 1399.0478616534979,980.4984471899925 1396.524024797477,971.8113437517391 1394.5506358950688,962.9829093003444 1393.1354830107152,954.0479856332598 1392.2841511063289,945.0418348122212 1392,936 1392.2841511063289,926.9581651877788 1393.1354830107152,917.9520143667402 1394.5506358950688,909.0170906996557 1396.524024797477,900.1886562482608 1399.0478616534979,891.5015528100075 1402.1121860320918,882.9900644134063 1405.7049044448931,874.6877820146296 1409.8118380736837,866.6274709293531 1414.4167787277097,858.8409415230245 1419.5015528100075,851.3589236698839 1425.0460930402865,844.2109454761887 1431.0285176513166,837.4252167462688 1437.4252167462687,831.0285176513167 1444.2109454761887,825.0460930402863 1451.3589236698838,819.5015528100075 1458.8409415230244,814.4167787277098 1466.627470929353,809.8118380736837 1474.6877820146296,805.7049044448931 1482.9900644134063,802.1121860320918 1491.5015528100075,799.0478616534979 1500.188656248261,796.5240247974772 1509.0170906996557,794.5506358950688 1517.95201436674,793.1354830107152 1526.9581651877788,792.2841511063289 1536,792 1545.041834812221,792.2841511063289 1554.0479856332597,793.1354830107152 1562.9829093003443,794.5506358950688 1571.811343751739,796.5240247974771 1580.4984471899925,799.0478616534979 1589.0099355865937,802.1121860320918 1597.3122179853704,805.7049044448931 1605.372529070647,809.8118380736836 1613.1590584769754,814.4167787277098 1620.641076330116,819.5015528100075 1627.7890545238113,825.0460930402863 1634.574783253731,831.0285176513167 1640.9714823486831,837.4252167462688 1646.9539069597135,844.2109454761887 1652.4984471899925,851.3589236698838 1657.5832212722903,858.8409415230245 1662.1881619263163,866.627470929353 1666.2950955551069,874.6877820146296 1669.8878139679082,882.9900644134062 1672.9521383465021,891.5015528100075 1675.475975202523,900.1886562482608 1677.4493641049312,909.0170906996557 1678.8645169892848,917.9520143667402 1679.7158488936711,926.958165187779" fill="none" stroke="#17353b" stroke-width="0.5" opacity="0.7450000000000001"></polygon><polygon points="1734,936 1733.6092922287978,948.432522866804 1732.4387108602666,960.8159802457322 1730.4928756442803,973.1015002879735 1727.779465903469,985.2405976586413 1724.3091902264405,997.1853648862395 1720.0957442058739,1008.8886614315662 1715.1557563882718,1020.3042997298844 1709.508722648685,1031.3872274721396 1703.176929249399,1042.0937054058413 1696.1853648862395,1052.3814799539098 1688.5616220696063,1062.2099499702406 1680.3357882294395,1071.5403269738804 1671.5403269738804,1080.3357882294395 1662.2099499702406,1088.5616220696063 1652.3814799539098,1096.1853648862395 1642.0937054058413,1103.176929249399 1631.3872274721396,1109.508722648685 1620.3042997298844,1115.1557563882718 1608.8886614315663,1120.0957442058739 1597.1853648862395,1124.3091902264405 1585.2405976586413,1127.779465903469 1573.1015002879735,1130.4928756442803 1560.8159802457321,1132.4387108602666 1548.432522866804,1133.6092922287978 1536,1134 1523.567477133196,1133.6092922287978 1511.1840197542676,1132.4387108602666 1498.8984997120265,1130.4928756442803 1486.7594023413587,1127.779465903469 1474.8146351137605,1124.3091902264405 1463.1113385684337,1120.0957442058739 1451.6957002701156,1115.1557563882718 1440.6127725278604,1109.5087226486849 1429.9062945941587,1103.1769292493989 1419.6185200460905,1096.1853648862395 1409.7900500297594,1088.5616220696063 1400.4596730261196,1080.3357882294395 1391.6642117705605,1071.5403269738804 1383.4383779303937,1062.2099499702406 1375.8146351137605,1052.3814799539098 1368.8230707506011,1042.0937054058413 1362.4912773513151,1031.3872274721398 1356.8442436117282,1020.3042997298844 1351.9042557941261,1008.8886614315663 1347.6908097735595,997.1853648862397 1344.220534096531,985.2405976586413 1341.5071243557197,973.1015002879735 1339.5612891397334,960.8159802457322 1338.3907077712022,948.4325228668041 1338,936 1338.3907077712022,923.567477133196 1339.5612891397334,911.1840197542678 1341.5071243557197,898.8984997120265 1344.220534096531,886.7594023413587 1347.6908097735595,874.8146351137603 1351.9042557941261,863.1113385684337 1356.8442436117282,851.6957002701157 1362.491277351315,840.6127725278604 1368.823070750601,829.9062945941587 1375.8146351137605,819.6185200460903 1383.4383779303937,809.7900500297594 1391.6642117705605,800.4596730261196 1400.4596730261196,791.6642117705605 1409.7900500297594,783.4383779303937 1419.6185200460902,775.8146351137605 1429.9062945941587,768.823070750601 1440.6127725278604,762.491277351315 1451.6957002701156,756.8442436117281 1463.1113385684337,751.9042557941262 1474.8146351137605,747.6908097735596 1486.7594023413587,744.2205340965311 1498.8984997120265,741.5071243557196 1511.1840197542676,739.5612891397334 1523.567477133196,738.3907077712022 1536,738 1548.432522866804,738.3907077712022 1560.8159802457321,739.5612891397334 1573.1015002879735,741.5071243557196 1585.2405976586413,744.2205340965311 1597.1853648862395,747.6908097735595 1608.8886614315663,751.9042557941262 1620.3042997298842,756.8442436117281 1631.3872274721396,762.4912773513149 1642.0937054058413,768.8230707506009 1652.3814799539095,775.8146351137603 1662.2099499702406,783.4383779303937 1671.5403269738804,791.6642117705605 1680.3357882294395,800.4596730261196 1688.5616220696063,809.7900500297594 1696.1853648862395,819.6185200460902 1703.176929249399,829.9062945941587 1709.508722648685,840.6127725278603 1715.1557563882718,851.6957002701157 1720.0957442058736,863.1113385684337 1724.3091902264405,874.8146351137603 1727.779465903469,886.7594023413586 1730.4928756442803,898.8984997120265 1732.4387108602666,911.1840197542676 1733.6092922287978,923.567477133196" fill="none" stroke="#17353b" stroke-width="0.5" opacity="0.6900000000000001"></polygon><polygon points="1788,936 1787.5027355639245,951.8232109213869 1786.0129047312485,967.5839748582047 1783.5363871836296,983.2200912756026 1780.0829566044151,998.6698515655435 1775.6662421063788,1013.8722825824867 1770.3036744438393,1028.7673872765388 1764.016417221437,1043.2963814743982 1756.8292833710536,1057.4019258736323 1748.770637226508,1071.028352334707 1739.8722825824868,1084.1218835777033 1730.1693371794988,1096.63084541667 1719.7000941101958,1108.5058706940295 1708.5058706940295,1119.7000941101958 1696.63084541667,1130.1693371794988 1684.1218835777033,1139.8722825824868 1671.028352334707,1148.770637226508 1657.4019258736323,1156.8292833710536 1643.2963814743982,1164.016417221437 1628.7673872765388,1170.3036744438393 1613.8722825824868,1175.6662421063788 1598.6698515655435,1180.0829566044151 1583.2200912756027,1183.5363871836296 1567.5839748582048,1186.0129047312485 1551.823210921387,1187.5027355639245 1536,1188 1520.176789078613,1187.5027355639245 1504.4160251417952,1186.0129047312485 1488.7799087243973,1183.5363871836296 1473.3301484344565,1180.0829566044151 1458.1277174175132,1175.6662421063788 1443.2326127234612,1170.3036744438393 1428.7036185256018,1164.016417221437 1414.5980741263677,1156.8292833710536 1400.9716476652927,1148.770637226508 1387.878116422297,1139.8722825824868 1375.36915458333,1130.1693371794988 1363.4941293059705,1119.7000941101958 1352.2999058898044,1108.5058706940297 1341.8306628205012,1096.63084541667 1332.1277174175132,1084.1218835777033 1323.2293627734923,1071.0283523347073 1315.1707166289464,1057.4019258736323 1307.983582778563,1043.2963814743985 1301.6963255561607,1028.767387276539 1296.3337578936212,1013.8722825824868 1291.9170433955849,998.6698515655435 1288.4636128163704,983.2200912756027 1285.9870952687515,967.5839748582048 1284.4972644360755,951.823210921387 1284,936 1284.4972644360755,920.1767890786131 1285.9870952687515,904.4160251417953 1288.4636128163704,888.7799087243974 1291.9170433955849,873.3301484344565 1296.3337578936212,858.1277174175132 1301.6963255561607,843.2326127234611 1307.983582778563,828.7036185256018 1315.1707166289464,814.5980741263678 1323.229362773492,800.971647665293 1332.1277174175132,787.8781164222968 1341.8306628205012,775.3691545833302 1352.2999058898042,763.4941293059704 1363.4941293059703,752.2999058898043 1375.3691545833303,741.8306628205011 1387.8781164222967,732.1277174175133 1400.971647665293,723.2293627734921 1414.5980741263677,715.1707166289464 1428.7036185256018,707.983582778563 1443.232612723461,701.6963255561607 1458.1277174175132,696.3337578936213 1473.3301484344565,691.917043395585 1488.7799087243975,688.4636128163704 1504.4160251417952,685.9870952687515 1520.1767890786132,684.4972644360755 1536,684 1551.8232109213868,684.4972644360755 1567.5839748582048,685.9870952687515 1583.2200912756025,688.4636128163704 1598.6698515655435,691.917043395585 1613.8722825824866,696.3337578936213 1628.767387276539,701.6963255561607 1643.296381474398,707.983582778563 1657.401925873632,715.1707166289464 1671.028352334707,723.2293627734921 1684.121883577703,732.1277174175132 1696.6308454166697,741.830662820501 1708.5058706940295,752.2999058898042 1719.7000941101956,763.4941293059703 1730.169337179499,775.3691545833302 1739.8722825824868,787.8781164222967 1748.770637226508,800.971647665293 1756.8292833710536,814.5980741263677 1764.016417221437,828.7036185256018 1770.3036744438393,843.232612723461 1775.6662421063788,858.1277174175132 1780.082956604415,873.3301484344564 1783.5363871836296,888.7799087243974 1786.0129047312485,904.4160251417952 1787.5027355639245,920.1767890786131" fill="none" stroke="#17353b" stroke-width="0.5" opacity="0.635"></polygon><polygon points="1842,936 1841.3961788990512,955.2138989759699 1839.5870986022303,974.3519694706771 1836.5798987229787,993.3386822632317 1832.3864473053611,1012.0991054724456 1827.023293986317,1030.559200278734 1820.511604681805,1048.6461131215115 1812.877078054602,1066.2884632189123 1804.1498440934222,1083.4166242751248 1794.3643452036167,1099.962999263573 1783.559200278734,1115.8622872014967 1771.7770522893916,1131.051740863099 1759.0643999909519,1145.4714144141788 1745.4714144141788,1159.0643999909519 1731.051740863099,1171.7770522893916 1715.8622872014967,1183.559200278734 1699.962999263573,1194.3643452036167 1683.4166242751248,1204.1498440934224 1666.2884632189123,1212.877078054602 1648.6461131215115,1220.5116046818048 1630.559200278734,1227.023293986317 1612.0991054724457,1232.3864473053611 1593.3386822632317,1236.5798987229787 1574.3519694706772,1239.5870986022303 1555.2138989759699,1241.3961788990512 1536,1242 1516.7861010240301,1241.3961788990512 1497.6480305293228,1239.58709860223 1478.6613177367683,1236.5798987229787 1459.9008945275546,1232.3864473053611 1441.440799721266,1227.023293986317 1423.3538868784885,1220.5116046818048 1405.7115367810877,1212.877078054602 1388.5833757248752,1204.1498440934222 1372.037000736427,1194.3643452036165 1356.1377127985033,1183.559200278734 1340.948259136901,1171.7770522893916 1326.5285855858212,1159.0643999909519 1312.9356000090481,1145.4714144141788 1300.2229477106084,1131.051740863099 1288.440799721266,1115.8622872014969 1277.6356547963835,1099.962999263573 1267.8501559065778,1083.416624275125 1259.122921945398,1066.2884632189123 1251.4883953181952,1048.6461131215115 1244.976706013683,1030.559200278734 1239.6135526946389,1012.0991054724456 1235.4201012770213,993.3386822632318 1232.41290139777,974.3519694706772 1230.6038211009488,955.21389897597 1230,936 1230.6038211009488,916.7861010240301 1232.4129013977697,897.6480305293229 1235.4201012770213,878.6613177367682 1239.6135526946389,859.9008945275543 1244.976706013683,841.440799721266 1251.4883953181952,823.3538868784884 1259.122921945398,805.711536781088 1267.8501559065776,788.5833757248752 1277.6356547963833,772.0370007364271 1288.440799721266,756.1377127985032 1300.2229477106084,740.948259136901 1312.9356000090481,726.5285855858212 1326.5285855858212,712.9356000090481 1340.948259136901,700.2229477106084 1356.1377127985031,688.4407997212661 1372.0370007364272,677.6356547963833 1388.5833757248752,667.8501559065778 1405.711536781088,659.1229219453979 1423.3538868784883,651.4883953181952 1441.440799721266,644.976706013683 1459.9008945275543,639.6135526946389 1478.6613177367683,635.4201012770213 1497.6480305293228,632.4129013977698 1516.7861010240301,630.6038211009488 1536,630 1555.2138989759696,630.6038211009488 1574.3519694706772,632.4129013977697 1593.3386822632317,635.4201012770213 1612.0991054724457,639.6135526946389 1630.559200278734,644.976706013683 1648.6461131215115,651.4883953181951 1666.288463218912,659.1229219453979 1683.4166242751248,667.8501559065777 1699.9629992635728,677.6356547963833 1715.8622872014967,688.4407997212661 1731.051740863099,700.2229477106084 1745.4714144141788,712.9356000090481 1759.0643999909519,726.5285855858212 1771.7770522893916,740.948259136901 1783.559200278734,756.1377127985031 1794.3643452036167,772.0370007364271 1804.1498440934222,788.5833757248752 1812.877078054602,805.711536781088 1820.5116046818048,823.3538868784883 1827.023293986317,841.440799721266 1832.3864473053611,859.9008945275542 1836.5798987229787,878.6613177367683 1839.58709860223,897.6480305293228 1841.3961788990512,916.7861010240301" fill="none" stroke="#17353b" stroke-width="0.5" opacity="0.5800000000000001"></polygon><polygon points="1896,936 1895.2896222341778,958.6045870305528 1893.1612924732121,981.1199640831495 1889.623410262328,1003.4572732508609 1884.6899380063073,1025.5283593793476 1878.3803458662553,1047.246117974981 1870.7195349197705,1068.5248389664841 1861.7377388877671,1089.280544963426 1851.470404815791,1109.4313226766176 1839.9580531807255,1128.8976461924387 1827.2461179749812,1147.6026908252902 1813.384767399284,1165.4726363095283 1798.4287058717082,1182.4369581343278 1782.4369581343278,1198.4287058717082 1765.4726363095283,1213.384767399284 1747.6026908252902,1227.2461179749812 1728.8976461924387,1239.9580531807255 1709.4313226766176,1251.470404815791 1689.280544963426,1261.7377388877671 1668.5248389664841,1270.7195349197705 1647.2461179749812,1278.3803458662553 1625.5283593793479,1284.6899380063073 1603.457273250861,1289.623410262328 1581.1199640831496,1293.1612924732121 1558.604587030553,1295.2896222341778 1536,1296 1513.395412969447,1295.2896222341778 1490.8800359168504,1293.161292473212 1468.542726749139,1289.623410262328 1446.4716406206524,1284.6899380063073 1424.753882025019,1278.3803458662553 1403.4751610335159,1270.7195349197705 1382.719455036574,1261.7377388877671 1362.5686773233824,1251.470404815791 1343.102353807561,1239.9580531807255 1324.3973091747098,1227.2461179749812 1306.5273636904717,1213.384767399284 1289.563041865672,1198.4287058717082 1273.5712941282918,1182.436958134328 1258.615232600716,1165.4726363095283 1244.753882025019,1147.6026908252904 1232.0419468192747,1128.897646192439 1220.5295951842093,1109.4313226766176 1210.262261112233,1089.280544963426 1201.2804650802295,1068.5248389664841 1193.6196541337447,1047.2461179749812 1187.3100619936927,1025.5283593793476 1182.376589737672,1003.457273250861 1178.838707526788,981.1199640831496 1176.7103777658222,958.6045870305529 1176,936 1176.7103777658222,913.3954129694472 1178.8387075267879,890.8800359168505 1182.376589737672,868.5427267491391 1187.3100619936927,846.4716406206522 1193.6196541337447,824.7538820250188 1201.2804650802295,803.4751610335159 1210.2622611122329,782.719455036574 1220.529595184209,762.5686773233826 1232.0419468192745,743.1023538075613 1244.7538820250188,724.3973091747097 1258.615232600716,706.5273636904717 1273.5712941282918,689.5630418656721 1289.563041865672,673.5712941282919 1306.5273636904717,658.6152326007159 1324.3973091747096,644.753882025019 1343.1023538075613,632.0419468192745 1362.5686773233824,620.529595184209 1382.7194550365741,610.2622611122329 1403.4751610335156,601.2804650802295 1424.7538820250188,593.6196541337447 1446.4716406206521,587.3100619936929 1468.542726749139,582.376589737672 1490.8800359168504,578.8387075267881 1513.3954129694473,576.7103777658222 1536,576 1558.6045870305527,576.7103777658222 1581.1199640831496,578.838707526788 1603.4572732508607,582.376589737672 1625.5283593793479,587.3100619936928 1647.246117974981,593.6196541337447 1668.5248389664841,601.2804650802295 1689.2805449634259,610.2622611122329 1709.4313226766174,620.529595184209 1728.8976461924385,632.0419468192745 1747.6026908252902,644.7538820250188 1765.472636309528,658.6152326007157 1782.4369581343278,673.5712941282918 1798.428705871708,689.563041865672 1813.384767399284,706.5273636904717 1827.246117974981,724.3973091747096 1839.9580531807255,743.1023538075613 1851.470404815791,762.5686773233824 1861.7377388877671,782.719455036574 1870.7195349197705,803.4751610335156 1878.3803458662553,824.7538820250188 1884.689938006307,846.4716406206521 1889.623410262328,868.5427267491391 1893.161292473212,890.8800359168504 1895.2896222341778,913.3954129694472" fill="none" stroke="#17353b" stroke-width="0.5" opacity="0.525"></polygon><polygon points="1950,936 1949.1830655693043,961.9952750851357 1946.7354863441938,987.8879586956219 1942.666921801677,1013.57586423849 1936.9934287072533,1038.9576132862499 1929.7373977461934,1063.9330356712283 1920.9274651577362,1088.4035648114566 1910.5983997209319,1112.2726267079402 1898.7909655381595,1135.44602107811 1885.5517611578343,1157.8322931213047 1870.9330356712283,1179.3430944490838 1854.9924825091766,1199.8935317559576 1837.7930117524643,1219.4025018544771 1819.4025018544771,1237.7930117524643 1799.8935317559576,1254.9924825091766 1779.3430944490838,1270.9330356712283 1757.8322931213045,1285.5517611578343 1735.44602107811,1298.7909655381595 1712.2726267079402,1310.598399720932 1688.4035648114568,1320.927465157736 1663.9330356712283,1329.7373977461934 1638.9576132862499,1336.9934287072533 1613.57586423849,1342.666921801677 1587.887958695622,1346.7354863441938 1561.9952750851357,1349.1830655693043 1536,1350 1510.0047249148643,1349.1830655693043 1484.112041304378,1346.7354863441938 1458.42413576151,1342.666921801677 1433.0423867137501,1336.9934287072533 1408.0669643287717,1329.7373977461934 1383.5964351885434,1320.927465157736 1359.7273732920598,1310.5983997209319 1336.55397892189,1298.7909655381595 1314.1677068786953,1285.551761157834 1292.6569055509162,1270.9330356712283 1272.1064682440424,1254.9924825091766 1252.5974981455229,1237.7930117524643 1234.2069882475357,1219.4025018544771 1217.0075174908234,1199.8935317559576 1201.066964328772,1179.3430944490838 1186.448238842166,1157.8322931213047 1173.2090344618407,1135.4460210781103 1161.4016002790681,1112.2726267079402 1151.072534842264,1088.4035648114568 1142.2626022538066,1063.9330356712283 1135.0065712927467,1038.9576132862499 1129.333078198323,1013.5758642384901 1125.2645136558062,987.887958695622 1122.8169344306957,961.9952750851359 1122,936 1122.8169344306957,910.0047249148643 1125.2645136558062,884.1120413043781 1129.333078198323,858.42413576151 1135.0065712927467,833.04238671375 1142.2626022538066,808.0669643287716 1151.072534842264,783.5964351885432 1161.401600279068,759.7273732920601 1173.2090344618405,736.55397892189 1186.4482388421657,714.1677068786955 1201.0669643287717,692.6569055509162 1217.0075174908234,672.1064682440425 1234.2069882475357,652.5974981455229 1252.5974981455229,634.2069882475357 1272.1064682440426,617.0075174908233 1292.6569055509162,601.0669643287719 1314.1677068786955,586.4482388421657 1336.55397892189,573.2090344618405 1359.72737329206,561.4016002790679 1383.5964351885432,551.0725348422641 1408.0669643287717,542.2626022538066 1433.04238671375,535.0065712927469 1458.4241357615101,529.3330781983229 1484.112041304378,525.2645136558062 1510.0047249148643,522.8169344306957 1536,522 1561.9952750851355,522.8169344306957 1587.887958695622,525.2645136558062 1613.5758642384899,529.3330781983229 1638.9576132862499,535.0065712927468 1663.933035671228,542.2626022538064 1688.4035648114568,551.0725348422641 1712.2726267079397,561.4016002790678 1735.4460210781099,573.2090344618405 1757.8322931213042,586.4482388421657 1779.3430944490838,601.0669643287717 1799.8935317559574,617.0075174908231 1819.4025018544771,634.2069882475357 1837.7930117524643,652.5974981455229 1854.9924825091766,672.1064682440425 1870.933035671228,692.656905550916 1885.5517611578343,714.1677068786955 1898.7909655381595,736.5539789218899 1910.598399720932,759.7273732920601 1920.927465157736,783.5964351885431 1929.7373977461934,808.0669643287716 1936.993428707253,833.0423867137499 1942.666921801677,858.42413576151 1946.7354863441938,884.1120413043778 1949.1830655693043,910.0047249148643" fill="none" stroke="#17353b" stroke-width="0.5" opacity="0.47000000000000003"></polygon><polygon points="2004,936 2003.0765089044312,965.3859631397187 2000.3096802151756,994.6559533080944 1995.7104333410264,1023.6944552261191 1989.2969194081993,1052.386867193152 1981.0944496261318,1080.6199533674753 1971.1353953957016,1108.2822906564293 1959.459060554097,1135.264708452454 1946.111526260528,1161.4607194796029 1931.1454691349431,1186.7669400501704 1914.6199533674753,1211.0834980728773 1896.6001976190694,1234.3144272023867 1877.1573176332206,1256.3680455746262 1856.3680455746262,1277.1573176332206 1834.3144272023867,1296.6001976190694 1811.0834980728773,1314.6199533674753 1786.7669400501704,1331.1454691349431 1761.4607194796026,1346.111526260528 1735.264708452454,1359.459060554097 1708.2822906564293,1371.1353953957016 1680.6199533674753,1381.0944496261318 1652.386867193152,1389.2969194081993 1623.694455226119,1395.7104333410261 1594.6559533080945,1400.3096802151756 1565.3859631397188,1403.0765089044312 1536,1404 1506.6140368602814,1403.0765089044312 1477.3440466919055,1400.3096802151756 1448.3055447738807,1395.7104333410261 1419.613132806848,1389.2969194081993 1391.3800466325247,1381.0944496261318 1363.7177093435707,1371.1353953957016 1336.735291547546,1359.459060554097 1310.5392805203971,1346.111526260528 1285.2330599498296,1331.1454691349431 1260.9165019271227,1314.6199533674753 1237.685572797613,1296.6001976190694 1215.6319544253738,1277.1573176332206 1194.8426823667796,1256.3680455746264 1175.3998023809306,1234.314427202387 1157.3800466325247,1211.0834980728775 1140.854530865057,1186.7669400501707 1125.888473739472,1161.4607194796029 1112.540939445903,1135.2647084524542 1100.8646046042984,1108.2822906564293 1090.9055503738682,1080.6199533674753 1082.7030805918007,1052.386867193152 1076.2895666589739,1023.6944552261193 1071.6903197848244,994.6559533080945 1068.9234910955688,965.3859631397188 1068,936.0000000000001 1068.9234910955688,906.6140368602813 1071.6903197848244,877.3440466919056 1076.2895666589739,848.3055447738808 1082.7030805918007,819.6131328068478 1090.9055503738682,791.3800466325245 1100.8646046042984,763.7177093435705 1112.5409394459027,736.7352915475462 1125.888473739472,710.5392805203974 1140.8545308650569,685.2330599498297 1157.3800466325247,660.9165019271227 1175.3998023809306,637.6855727976133 1194.8426823667794,615.6319544253737 1215.6319544253736,594.8426823667795 1237.6855727976133,575.3998023809306 1260.9165019271225,557.3800466325247 1285.2330599498298,540.8545308650569 1310.5392805203974,525.8884737394719 1336.7352915475462,512.5409394459027 1363.7177093435705,500.86460460429845 1391.3800466325245,490.90555037386815 1419.6131328068477,482.7030805918007 1448.305544773881,476.2895666589737 1477.3440466919055,471.6903197848244 1506.6140368602814,468.9234910955689 1536,468 1565.3859631397183,468.9234910955689 1594.6559533080945,471.69031978482434 1623.6944552261189,476.2895666589737 1652.386867193152,482.70308059180064 1680.6199533674753,490.9055503738681 1708.2822906564295,500.86460460429845 1735.2647084524535,512.5409394459027 1761.4607194796026,525.8884737394717 1786.7669400501702,540.8545308650567 1811.0834980728773,557.3800466325246 1834.3144272023865,575.3998023809304 1856.3680455746262,594.8426823667794 1877.1573176332204,615.6319544253736 1896.6001976190694,637.6855727976133 1914.6199533674753,660.9165019271225 1931.1454691349431,685.2330599498297 1946.111526260528,710.5392805203973 1959.4590605540973,736.7352915475462 1971.1353953957016,763.7177093435704 1981.0944496261318,791.3800466325245 1989.2969194081993,819.6131328068477 1995.7104333410264,848.3055447738809 2000.3096802151756,877.3440466919054 2003.0765089044312,906.6140368602814" fill="none" stroke="#17353b" stroke-width="0.5" opacity="0.41500000000000004"></polygon><polygon points="2058,936 2056.9699522395576,968.7766511943016 2053.8838740861574,1001.4239479205668 2048.7539448803755,1033.8130462137483 2041.6004101091453,1065.8161211000543 2032.4515015060701,1097.3068710637226 2021.3433256336673,1128.161016501402 2008.3197213872622,1158.256790196968 1993.4320869828969,1187.4754178810954 1976.739177112052,1215.7015869790362 1958.3068710637226,1242.8239016966709 1938.2079127289621,1268.735322648816 1916.521623513977,1293.3335892947755 1893.3335892947755,1316.521623513977 1868.735322648816,1338.2079127289621 1842.8239016966709,1358.3068710637226 1815.7015869790362,1376.739177112052 1787.4754178810954,1393.4320869828969 1758.2567901969678,1408.3197213872622 1728.161016501402,1421.343325633667 1697.3068710637226,1432.4515015060701 1665.8161211000543,1441.6004101091453 1633.8130462137483,1448.7539448803755 1601.423947920567,1453.8838740861574 1568.7766511943016,1456.9699522395576 1536,1458 1503.2233488056984,1456.9699522395576 1470.576052079433,1453.8838740861574 1438.1869537862517,1448.7539448803755 1406.183878899946,1441.6004101091455 1374.6931289362774,1432.4515015060701 1343.838983498598,1421.343325633667 1313.743209803032,1408.3197213872622 1284.5245821189046,1393.4320869828966 1256.2984130209636,1376.739177112052 1229.1760983033291,1358.3068710637226 1203.264677351184,1338.2079127289621 1178.6664107052245,1316.5216235139767 1155.4783764860233,1293.3335892947755 1133.792087271038,1268.7353226488162 1113.6931289362774,1242.823901696671 1095.2608228879483,1215.7015869790364 1078.5679130171034,1187.4754178810956 1063.6802786127378,1158.256790196968 1050.656674366333,1128.161016501402 1039.5484984939299,1097.3068710637226 1030.3995898908547,1065.8161211000543 1023.2460551196245,1033.8130462137485 1018.1161259138426,1001.423947920567 1015.0300477604422,968.7766511943017 1014,936.0000000000001 1015.0300477604422,903.2233488056984 1018.1161259138426,870.5760520794331 1023.2460551196245,838.1869537862517 1030.3995898908547,806.1838788999457 1039.5484984939299,774.6931289362773 1050.656674366333,743.8389834985979 1063.6802786127378,713.7432098030323 1078.5679130171031,684.5245821189048 1095.260822887948,656.2984130209638 1113.6931289362774,629.1760983033291 1133.7920872710379,603.264677351184 1155.478376486023,578.6664107052245 1178.6664107052243,555.4783764860233 1203.264677351184,533.7920872710379 1229.176098303329,513.6931289362775 1256.2984130209638,495.260822887948 1284.5245821189046,478.5679130171032 1313.7432098030324,463.68027861273765 1343.8389834985978,450.65667436633294 1374.6931289362774,439.54849849392986 1406.1838788999455,430.39958989085466 1438.1869537862517,423.24605511962454 1470.5760520794329,418.11612591384255 1503.2233488056986,415.03004776044224 1536,414 1568.7766511943014,415.03004776044224 1601.423947920567,418.11612591384255 1633.813046213748,423.24605511962454 1665.8161211000543,430.3995898908546 1697.3068710637224,439.5484984939298 1728.1610165014022,450.6566743663329 1758.2567901969676,463.6802786127376 1787.4754178810952,478.5679130171031 1815.701586979036,495.2608228879479 1842.8239016966709,513.6931289362774 1868.7353226488158,533.7920872710379 1893.3335892947755,555.4783764860232 1916.5216235139767,578.6664107052244 1938.2079127289621,603.264677351184 1958.3068710637226,629.1760983033289 1976.739177112052,656.2984130209638 1993.4320869828969,684.5245821189046 2008.3197213872622,713.7432098030323 2021.343325633667,743.8389834985977 2032.4515015060701,774.6931289362773 2041.6004101091453,806.1838788999455 2048.7539448803755,838.1869537862517 2053.8838740861574,870.576052079433 2056.9699522395576,903.2233488056985" fill="none" stroke="#17353b" stroke-width="0.5" opacity="0.36"></polygon><polygon points="2112,936 2110.8633955746845,972.1673392488844 2107.458067957139,1008.1919425330393 2101.7974564197248,1043.9316372013773 2093.9039008100917,1079.2453750069562 2083.8085533860085,1113.9937887599697 2071.5512558716327,1148.0397423463744 2057.1803822204274,1181.2488719414819 2040.7526477052654,1213.4901162825881 2022.3328850891608,1244.6362339079021 2001.9937887599697,1274.5643053204644 1979.8156278388547,1303.156218095245 1955.885929394733,1330.2991330149246 1930.2991330149246,1355.885929394733 1903.156218095245,1379.8156278388547 1874.5643053204644,1401.9937887599697 1844.636233907902,1422.3328850891608 1813.490116282588,1440.7526477052654 1781.2488719414819,1457.1803822204274 1748.0397423463746,1471.5512558716327 1713.9937887599697,1483.8085533860085 1679.2453750069565,1493.9039008100915 1643.9316372013775,1501.7974564197248 1608.1919425330393,1507.4580679571393 1572.1673392488847,1510.8633955746845 1536,1512 1499.8326607511156,1510.8633955746845 1463.8080574669607,1507.458067957139 1428.0683627986225,1501.7974564197248 1392.7546249930438,1493.9039008100917 1358.0062112400303,1483.8085533860085 1323.9602576536254,1471.5512558716327 1290.7511280585181,1457.1803822204272 1258.5098837174119,1440.7526477052654 1227.3637660920979,1422.3328850891608 1197.4356946795356,1401.9937887599697 1168.8437819047547,1379.8156278388547 1141.7008669850752,1355.885929394733 1116.114070605267,1330.2991330149248 1092.1843721611453,1303.1562180952453 1070.0062112400303,1274.5643053204647 1049.6671149108395,1244.6362339079024 1031.2473522947348,1213.4901162825881 1014.8196177795728,1181.2488719414819 1000.4487441283673,1148.0397423463746 988.1914466139916,1113.9937887599697 978.0960991899085,1079.2453750069565 970.2025435802753,1043.9316372013777 964.5419320428608,1008.1919425330394 961.1366044253156,972.1673392488847 960,936.0000000000001 961.1366044253156,899.8326607511156 964.5419320428607,863.8080574669607 970.2025435802753,828.0683627986225 978.0960991899085,792.7546249930435 988.1914466139916,758.0062112400301 1000.4487441283673,723.9602576536253 1014.8196177795727,690.7511280585184 1031.2473522947346,658.5098837174121 1049.6671149108392,627.3637660920981 1070.00621124003,597.4356946795356 1092.1843721611453,568.8437819047548 1116.114070605267,541.7008669850753 1141.7008669850752,516.1140706052671 1168.843781904755,492.18437216114535 1197.4356946795353,470.0062112400303 1227.363766092098,449.6671149108392 1258.5098837174119,431.2473522947346 1290.7511280585184,414.8196177795726 1323.9602576536251,400.44874412836737 1358.00621124003,388.1914466139916 1392.7546249930433,378.0960991899086 1428.0683627986227,370.20254358027535 1463.8080574669605,364.5419320428608 1499.8326607511156,361.13660442531557 1536,360 1572.1673392488842,361.13660442531557 1608.1919425330393,364.5419320428607 1643.9316372013773,370.20254358027535 1679.2453750069565,378.0960991899085 1713.9937887599697,388.1914466139915 1748.0397423463746,400.44874412836725 1781.2488719414814,414.8196177795726 1813.4901162825877,431.24735229473447 1844.6362339079017,449.6671149108391 1874.5643053204644,470.0062112400302 1903.156218095245,492.1843721611452 1930.2991330149246,516.114070605267 1955.8859293947328,541.7008669850752 1979.8156278388547,568.8437819047548 2001.9937887599697,597.4356946795353 2022.3328850891608,627.3637660920981 2040.7526477052654,658.509883717412 2057.1803822204274,690.7511280585184 2071.5512558716327,723.960257653625 2083.8085533860085,758.0062112400301 2093.9039008100913,792.7546249930433 2101.7974564197248,828.0683627986226 2107.458067957139,863.8080574669605 2110.8633955746845,899.8326607511156" fill="none" stroke="#17353b" stroke-width="0.5" opacity="0.305"></polygon><polygon points="2166,936 2164.756838909811,975.5580273034674 2161.032261828121,1014.9599371455117 2154.840967959074,1054.0502281890065 2146.2073915110377,1092.6746289138584 2135.165605265947,1130.6807064562167 2121.7591861095984,1167.918468191347 2106.041043053592,1204.240953685996 2088.073208427634,1239.5048146840807 2067.9265930662696,1273.5708808367679 2045.680706456217,1306.304708944258 2021.4233429487472,1337.5771135416744 1995.2502352754893,1367.2646767350739 1967.2646767350739,1395.2502352754893 1937.5771135416744,1421.4233429487472 1906.304708944258,1445.680706456217 1873.5708808367679,1467.9265930662696 1839.5048146840804,1488.0732084276342 1804.2409536859957,1506.0410430535924 1767.918468191347,1521.7591861095984 1730.680706456217,1535.1656052659469 1692.6746289138587,1546.2073915110377 1654.0502281890067,1554.8409679590739 1614.9599371455117,1561.0322618281211 1575.5580273034675,1564.756838909811 1536,1566 1496.4419726965325,1564.756838909811 1457.0400628544883,1561.0322618281211 1417.9497718109933,1554.8409679590739 1379.3253710861416,1546.2073915110377 1341.3192935437833,1535.1656052659469 1304.081531808653,1521.7591861095984 1267.759046314004,1506.0410430535921 1232.4951853159193,1488.073208427634 1198.429119163232,1467.9265930662696 1165.695291055742,1445.680706456217 1134.4228864583256,1421.4233429487472 1104.7353232649261,1395.250235275489 1076.749764724511,1367.2646767350739 1050.5766570512528,1337.5771135416746 1026.3192935437833,1306.3047089442582 1004.0734069337307,1273.570880836768 983.926791572366,1239.5048146840809 965.9589569464079,1204.240953685996 950.2408138904017,1167.9184681913473 936.8343947340533,1130.680706456217 925.7926084889624,1092.6746289138584 917.1590320409261,1054.0502281890067 910.967738171879,1014.9599371455118 907.2431610901889,975.5580273034675 906,936.0000000000001 907.2431610901889,896.4419726965326 910.967738171879,857.0400628544883 917.1590320409261,817.9497718109934 925.7926084889624,779.3253710861413 936.8343947340533,741.3192935437829 950.2408138904017,704.0815318086527 965.9589569464076,667.7590463140045 983.9267915723659,632.4951853159196 1004.0734069337304,598.4291191632323 1026.319293543783,565.695291055742 1050.5766570512528,534.4228864583256 1076.7497647245107,504.7353232649261 1104.735323264926,476.74976472451084 1134.4228864583256,450.5766570512527 1165.6952910557418,426.3192935437832 1198.4291191632324,404.0734069337303 1232.4951853159193,383.9267915723659 1267.7590463140045,365.9589569464075 1304.0815318086525,350.2408138904018 1341.319293543783,336.83439473405326 1379.325371086141,325.7926084889625 1417.9497718109935,317.15903204092615 1457.040062854488,310.967738171879 1496.4419726965327,307.2431610901889 1535.9999999999998,306 1575.558027303467,307.2431610901889 1614.9599371455117,310.967738171879 1654.0502281890062,317.15903204092615 1692.6746289138587,325.7926084889624 1730.6807064562167,336.83439473405315 1767.9184681913473,350.2408138904017 1804.2409536859952,365.9589569464075 1839.5048146840804,383.9267915723658 1873.5708808367674,404.0734069337302 1906.304708944258,426.31929354378303 1937.5771135416742,450.57665705125254 1967.2646767350739,476.7497647245107 1995.250235275489,504.73532326492597 2021.4233429487472,534.4228864583256 2045.6807064562167,565.6952910557418 2067.9265930662696,598.4291191632324 2088.073208427634,632.4951853159193 2106.041043053592,667.7590463140045 2121.759186109598,704.0815318086525 2135.165605265947,741.319293543783 2146.2073915110377,779.3253710861411 2154.840967959074,817.9497718109934 2161.032261828121,857.040062854488 2164.756838909811,896.4419726965326" fill="none" stroke="#17353b" stroke-width="0.5" opacity="0.25"></polygon><circle cx="864" cy="864" r="3" fill="#17353b"></circle><circle cx="1536" cy="936" r="3" fill="#17353b"></circle><circle cx="1536" cy="936" r="10" fill="none" stroke="#c88a4a" stroke-width="1.3"></circle><circle cx="1200" cy="540" r="2" fill="#17353b"></circle><circle cx="1200" cy="720" r="2" fill="#17353b"></circle><circle cx="1200" cy="900" r="2" fill="#17353b"></circle><circle cx="1200" cy="1080" r="2" fill="#17353b"></circle><circle cx="1200" cy="1260" r="2" fill="#17353b"></circle><line x1="1200" y1="270" x2="1200" y2="1530" stroke="#17353b" stroke-width="0.4" stroke-dasharray="2 4" opacity="0.4"></line></g>
<g font-family="&#39;JetBrains Mono&#39;, &#39;Courier New&#39;, monospace" fill="#17353b">
    <text x="146" y="160" font-size="25.200000000000003" letter-spacing="2.5">PLATE 08</text>
    <text x="2254" y="160" font-size="25.200000000000003" letter-spacing="2.5" text-anchor="end">VC · DHH</text>
    <text x="146" y="1697.04" font-size="25.200000000000003" letter-spacing="2">VISUAL CORTEX · DEV.</text>
    
  </g>
<text x="1200" y="1753.8" font-family="&#39;Fraunces&#39;, &#39;Times New Roman&#39;, serif" fill="#17353b" font-size="37.2" text-anchor="middle" font-style="italic">Visual cortex development — two foci, interfering.</text>
</svg>