<?xml version="1.0" encoding="UTF-8"?>
<svg xmlns="http://www.w3.org/2000/svg" xmlns:xlink="http://www.w3.org/1999/xlink" viewBox="0 0 3200 2400" preserveAspectRatio="xMidYMid meet" style="background:#f7f3ec">
<defs>
    <pattern id="ap-grid-hero-gaussian" width="24" height="24" patternUnits="userSpaceOnUse">
      <path d="M24 0H0v24" fill="none" stroke="#17353b" stroke-width="0.35" opacity="0.07"></path>
    </pattern>
    <clipPath id="ap-clip-hero-gaussian">
      <rect x="186" y="186" width="2828" height="2028"></rect>
    </clipPath>
  </defs>
<rect x="0" y="0" width="3200" height="2400" fill="#f7f3ec"></rect>

    <rect x="176" y="176" width="2848" height="2048" fill="none" stroke="#17353b" stroke-width="1"></rect>
    <rect x="182" y="182" width="2836" height="2036" fill="none" stroke="#17353b" stroke-width="0.4"></rect>
    <rect x="186" y="186" width="2828" height="2028" fill="url(#ap-grid-hero-gaussian)"></rect>
<g clip-path="url(#ap-clip-hero-gaussian)"><polygon points="4332.188363524688,1728 4312.203795048257,1796.2300022290235 4284.394318269344,1862.8827073453178 4249.23944652566,1927.5774403697076 4207.280828111133,1989.984378948452 4159.1079722814175,2049.8291091401393 4105.343067255191,2106.895596018884 4046.6253281228837,2161.027498607469 3983.59532475563,2212.1278069751 3916.879738831476,2260.1568282514127 3847.0769849968847,2305.1285963891337 3774.7441043773574,2347.105826344893 3700.385299931615,2386.193575599508 3624.442433648009,2422.531813369241 3547.287746764274,2456.2871293730577 3469.2189977795365,2487.6438386962463 3390.4571409703626,2516.7947564068395 3311.1465925352204,2543.9319246386212 3231.3580545920813,2569.237575589756 3151.0937912980908,2592.8756062799225 3070.295178576589,2614.983825186261 2988.8522814604507,2635.6672075024694 2906.6151528710016,2654.9923654231716 2823.4064965145008,2672.9834034386868 2739.0352959935008,2689.6192872029337 2653.310983389206,2704.832809325586 2566.0577043198523,2718.511187765947 2477.1282332965807,2730.4982837697153 2386.417103176731,2740.598377921477 2293.8725353634727,2748.581396305212 2199.506792451541,2754.1894353398584 2103.404621244999,2757.1443948621836 2005.7295101203804,2757.1564956101747 1906.727548935087,2753.933430398997 1806.7287502045335,2747.189878768124 1706.145765025511,2736.657103287312 1605.470004016548,2722.0923423831937 1505.2652501276903,2703.2877195879373 1406.1589242969956,2680.0784023719843 1308.8312344256958,2652.349764818904 1214.0025009703643,2620.0433367167875 1122.419006765476,2583.1613563507335 1034.8377628995938,2541.7697843708315 952.0106152747139,2495.9996804079733 874.6681369167557,2446.0468913207187 803.5037585733899,2392.170048699921 739.1585844106762,2334.6869221083016 682.207320865956,2273.9692220609586 633.1457154762425,2210.4359915697846 592.37985968936,2144.5457658689693 560.2176565289944,2076.787715517164 536.8626920760896,2007.6720173938625 522.4106808563956,1937.719720315697 516.8485813997079,1867.4523864434968 520.0564016179001,1797.381795911134 531.8116364753125,1728.0000000000002 551.7962049517425,1659.7699977709767 579.6056817306564,1593.117292654682 614.7605534743398,1528.4225596302929 656.7191718888671,1466.0156210515481 704.8920277185825,1406.170890859861 758.6569327448087,1349.1044039811156 817.3746718771156,1294.9725013925313 880.4046752443708,1243.8721930248994 947.120261168523,1195.8431717485876 1016.9230150031151,1150.8714036108663 1089.2558956226424,1108.894173655107 1163.6147000683852,1069.806424400492 1239.5575663519905,1033.4681866307596 1316.7122532357264,999.7128706269423 1394.7810022204635,968.3561613037539 1473.5428590296383,939.2052435931603 1552.85340746478,912.068075361379 1632.6419454079191,886.762424410244 1712.9062087019092,863.1243937200776 1793.70482142341,841.0161748137392 1875.1477185395484,820.3327924975308 1957.3848471289982,801.0076345768285 2040.5935034854997,783.016596561313 2124.964704006499,766.3807127970664 2210.689016610794,751.1671906744143 2297.9422956801473,737.4888122340532 2386.871766703419,725.5017162302847 2477.5828968232695,715.4016220785228 2570.127464636528,707.4186036947879 2664.493207548459,701.8105646601414 2760.5953787550015,698.8556051378164 2858.270489879619,698.8435043898251 2957.2724510649127,702.0665696010028 3057.271249795467,708.8101212318759 3157.8542349744903,719.342896712688 3258.529995983452,733.9076576168064 3358.734749872309,752.7122804120623 3457.841075703004,775.9215976280155 3555.1687655743026,803.6502351810955 3649.9974990296364,835.9566632832124 3741.5809932345237,872.8386436492665 3829.162237100406,914.2302156291685 3911.9893847252856,960.0003195920261 3989.3318630832446,1009.9531086792812 4060.496241426609,1063.8299513000777 4124.841415589323,1121.3130778916984 4181.792679134044,1182.0307779390419 4230.854284523758,1245.5640084302158 4271.62014031064,1311.4542341310305 4303.782343471006,1379.2122844828364 4327.13730792391,1448.3279826061369 4341.589319143604,1518.2802796843027 4347.151418600292,1588.5476135565036 4343.9435983820995,1658.6182040888664" fill="none" stroke="#17353b" stroke-width="0.45" opacity="0.50625"></polygon><polygon points="3847.707852319796,1728 3826.116592962791,1778.5905681585589 3800.707833529351,1827.6629153579277 3771.9173714798317,1875.1557751060932 3740.1603187731203,1921.0497773940533 3705.820339060627,1965.3635415410345 3669.240192096613,2008.1486850941567 3630.713856525929,2049.4839094844365 3590.480454735738,2089.4683500435667 3548.720149453994,2128.214399346267 3505.5521228302405,2165.8402280360424 3461.0346865742395,2202.4622358736947 3415.1675081796548,2238.1876674673813 3367.8958751886025,2273.1076219511706 3319.116858709469,2307.290673929118 3268.6871807676152,2340.7773046453076 3216.43253920868,2373.5753181162245 3162.158100280018,2405.6563875814454 3105.6598339673005,2436.9538439542525 3046.736341689845,2467.361780973728 2985.2008108086097,2496.735512559234 2920.8927260210794,2524.893377597375 2853.6889742379894,2551.619847232291 2783.5139967689092,2576.6698508610802 2710.348670084104,2599.7742005981836 2634.2376332665876,2620.6459610354505 2555.2948254427642,2638.987582655647 2473.7070486604216,2654.4985940927722 2389.735429341342,2666.883631253942 2303.7147128841348,2675.8605706305125 2216.050389431426,2681.168530246363 2127.2137123861125,2682.575504735128 2037.734733101747,2679.885410919261 1948.1935334704544,2672.9443366953487 1859.2098911797457,2661.645808533589 1771.4316586524994,2645.934920818216 1685.5221747665432,2625.8112027749034 1602.1470572548517,2601.3301349008125 1521.9607423691173,2572.6032655762374 1445.5931463993466,2539.7969187607355 1373.6368207435469,2503.129524185618 1306.634958497241,2462.86764106453 1245.0705863821493,2419.3207838967546 1189.3572419616294,2372.835193336131 1139.8313934869086,2323.7867253367526 1096.7468096276998,2272.5730569813304 1060.271030227647,2219.605426813276 1030.4840287295935,2165.3001405624777 1007.3790938065829,2110.070079496419 990.8658938567482,2054.3164480586556 980.7756252414101,1998.4209899940827 976.8680853007838,1942.7388880249214 978.8404560199224,1887.5925417483286 986.3375353506528,1833.266392374594 998.9631120507217,1780.0029319782022 1016.2921476802044,1728 1037.8834070372093,1677.4094318414413 1063.2921664706494,1628.3370846420723 1092.0826285201683,1580.844224893907 1123.8396812268797,1534.9502226059467 1158.1796609393728,1490.6364584589658 1194.7598079033871,1447.851314905843 1233.286143474071,1406.516090515564 1273.5195452642622,1366.5316499564328 1315.2798505460057,1327.7856006537334 1358.4478771697597,1290.1597719639576 1402.9653134257603,1253.5377641263055 1448.8324918203452,1217.8123325326187 1496.104124811397,1182.8923780488294 1544.8831412905308,1148.709326070882 1595.3128192323848,1115.2226953546929 1647.5674607913209,1082.4246818837748 1701.841899719982,1050.3436124185544 1758.3401660327,1019.0461560457471 1817.2636583101546,988.6382190262719 1878.7991891913894,959.2644874407663 1943.1072739789201,931.1066224026252 2010.3110257620103,904.3801527677091 2080.486003231091,879.3301491389195 2153.6513299158955,856.2257994018166 2229.7623667334124,835.3540389645493 2308.705174557235,817.012417344353 2390.292951339578,801.5014059072279 2474.264570658658,789.1163687460578 2560.2852871158657,780.1394293694872 2647.9496105685735,774.8314697536373 2736.786287613888,773.4244952648718 2826.265266898253,776.1145890807386 2915.8064665295456,783.055663304651 3004.790108820255,794.3541914664113 3092.5683413475017,810.065079181784 3178.4778252334563,830.1887972250966 3261.8529427451476,854.6698650991875 3342.0392576308823,883.3967344237627 3418.406853600652,916.203081239264 3490.363179256454,952.8704758143822 3557.3650415027587,993.13235893547 3618.9294136178505,1036.6792161032454 3674.64275803837,1083.1648066638686 3724.1686065130916,1132.2132746632471 3767.2531903722993,1183.4269430186687 3803.7289697723527,1236.3945731867238 3833.515971270406,1290.6998594375225 3856.6209061934173,1345.9299205035811 3873.1341061432513,1401.6835519413444 3883.22437475859,1457.5790100059176 3887.131914699216,1513.2611119750782 3885.1595439800776,1568.4074582516714 3877.6624646493465,1622.7336076254062 3865.036887949278,1675.997068021798" fill="none" stroke="#17353b" stroke-width="0.45" opacity="0.46249999999999997"></polygon><polygon points="3529.690427908351,1728 3522.032118465645,1767.5557620235043 3512.688841877225,1806.6907168482696 3501.7420814296247,1845.4839049832794 3489.222265474975,1884.017974308681 3475.1088227763084,1922.3727830327095 3459.3320483979987,1960.619118221559 3441.776721364374,1998.8127267598443 3422.2873629768214,2036.988846295107 3400.6749756183312,2075.157408880282 3376.7250575249145,2113.299070088542 3350.206650667928,2151.362191920215 3320.8821476961325,2189.2608795688743 3288.517560748109,2226.8741408917203 3252.892940545186,2264.0462041538253 3213.812628936952,2300.5879952626024 3171.1150321519226,2336.2797412857262 3124.6816152880206,2370.8746335624355 3074.4448406747133,2404.1034521571664 3020.3948030058773,2435.6800246919547 2962.5843516953937,2465.307367572859 2901.132534648104,2492.6843370306688 2836.226246287671,2517.512601832549 2768.12001481675,2539.503739447071 2697.133917778118,2558.3862531573955 2623.6496694548073,2573.91230924416 2548.1049768985304,2585.8640008552707 2470.9863118498492,2594.0589583272313 2392.820292032935,2598.3551441389477 2314.1639059191084,2598.6546938270985 2235.5938488674424,2594.9066913965 2157.6952645772544,2587.1087982249255 2081.050203263954,2575.3076872996107 2006.226116384355,2559.598268872701 1933.764706843266,2540.1217282843545 1864.171443435655,2517.0624307622006 1797.9060291152398,2490.643780469054 1735.3740850913646,2461.12315098869 1676.9202775485396,2428.786030937991 1622.8230719869646,2393.9395506990268 1573.2912530205726,2356.9055737254694 1528.462296321378,2318.0135479848595 1488.4026257616288,2277.5933194991294 1453.109734247545,2235.968110455 1422.5160928562611,2193.4478589603664 1396.494721257003,2150.323106382654 1374.8662445284217,2106.8596016482566 1357.407218775994,2063.2937703954403 1343.859471654812,2019.829171087341 1333.940175074304,1976.6340308637764 1327.3523468440512,1933.839921900956 1323.795466411804,1891.5416052956934 1322.975887482992,1849.7980349852073 1324.616737261437,1808.6344799667816 1328.467008106781,1768.0456900975157 1334.3095720916488,1728 1341.9678815343548,1688.444237976496 1351.3111581227752,1649.3092831517304 1362.257918570375,1610.516095016721 1374.7777345250254,1571.982025691319 1388.8911772236913,1533.6272169672907 1404.667951602001,1495.380881778441 1422.2232786356258,1457.1872732401562 1441.7126370231783,1419.0111537048929 1463.3250243816683,1380.8425911197178 1487.2749424750853,1342.700929911458 1513.7933493320718,1304.637808079785 1543.1178523038675,1266.7391204311255 1575.4824392518906,1229.1258591082797 1611.1070594548141,1191.9537958461747 1650.1873710630477,1155.4120047373976 1692.8849678480778,1119.7202587142733 1739.31838471198,1085.1253664375645 1789.5551593252871,1051.8965478428336 1843.6051969941223,1020.3199753080454 1901.4156483046054,990.6926324271412 1962.8674653518954,963.3156629693316 2027.773753712329,938.4873981674508 2095.8799851832505,916.4962605529292 2166.8660822218817,897.6137468426047 2240.350330545193,882.0876907558401 2315.8950231014687,870.1359991447292 2393.0136881501503,861.9410416727686 2471.179707967065,857.6448558610524 2549.8360940808925,857.3453061729017 2628.4061511325576,861.0933086035002 2706.304735422746,868.8912017750747 2782.9497967360458,880.6923127003894 2857.773883615645,896.4017311272993 2930.2352931567343,915.8782717156456 2999.8285565643455,938.9375692377997 3066.09397088476,965.3562195309462 3128.6259149086345,994.8768490113096 3187.07972245146,1027.2139690620088 3241.1769280130347,1062.0604493009728 3290.708746979428,1099.0944262745306 3335.5377036786217,1137.9864520151407 3375.5973742383712,1178.4066805008704 3410.890265752455,1220.0318895449996 3441.483907143739,1262.5521410396332 3467.505278742997,1305.6768936173455 3489.1337554715783,1349.1403983517434 3506.592781224006,1392.7062296045601 3520.1405283451886,1436.1708289126593 3530.059824925696,1479.3659691362234 3536.6476531559492,1522.1600780990443 3540.204533588196,1564.458394704306 3541.0241125170082,1606.2019650147924 3539.3832627385627,1647.3655200332187 3535.5329918932193,1687.9543099024845" fill="none" stroke="#17353b" stroke-width="0.45" opacity="0.41875"></polygon><polygon points="3385.7494315483737,1728 3392.904521602819,1762.86989964785 3398.126024650313,1798.3487872729781 3401.1851260698,1834.4402861577832 3401.83109734229,1871.121355054824 3399.799166013931,1908.3395898945469 3394.8190734107275,1946.0114250431068 3386.624066813832,1984.0212976737243 3374.960059185058,2022.2218104390538 3359.5946837428146,2060.4348981904127 3340.3259729015913,2098.4539748455054 3316.990401241331,2136.0470075285716 3289.470049972004,2172.960437645399 3257.698675284649,2208.923843415747 3221.666494305658,2243.6552163049155 3181.42353918107,2276.8667054224547 3137.0814710363247,2308.2706698288052 3088.8137899792578,2337.5858692252086 3036.854423641162,2364.543618977216 2981.4947236275702,2388.89373597165 2923.0789453059233,2410.410107416498 2861.9983302443443,2428.8957252001996 2798.6839510504565,2444.1870435252704 2733.598514158872,2456.1575367805453 2667.227346233345,2464.720357454718 2600.068813403828,2469.830019654082 2532.6244388609753,2471.4830617169305 2465.388992904474,2469.7176706997443 2398.840830136685,2464.6122812904496 2333.432741092689,2456.2831911112817 2269.5835704192536,2444.881262548898 2207.6708312034357,2430.587807369044 2148.024515866146,2413.6097736743022 2090.9222690319157,2394.174374565762 2036.58604798856,2372.5233135948456 1985.180352924848,2348.9067732814456 1936.812063352213,2323.5773393031877 1891.5318703184066,2296.784034244693 1849.3372475767792,2268.766630999448 1810.176860144086,2239.75040715352 1773.9562669714765,2209.9414882083042 1740.5447369880333,2179.522909715347 1709.7829656500028,2148.651506822613 1681.4914532809826,2117.4557150020687 1655.4792876744164,2086.0343385690626 1631.5530621988728,2054.4563148118486 1609.5256573258393,2022.7614719694964 1589.2246181842434,1990.9622497962384 1570.4998732962117,1959.046322895393 1553.2305596946985,1926.9800402339617 1537.3307465759317,1894.7125700451727 1522.753882706117,1862.1806184005145 1509.495831011292,1829.3135726990456 1497.5963960096758,1796.0389086796538 1487.1392947575896,1762.2876916824603 1478.2505684516263,1728 1471.0954783971808,1693.1301003521503 1465.873975349687,1657.6512127270216 1462.8148739301998,1621.559713842217 1462.16890265771,1584.878644945176 1464.2008339860688,1547.6604101054531 1469.1809265892725,1509.9885749568932 1477.3759331861675,1471.978702326276 1489.039940814942,1433.778189560946 1504.405316257185,1395.5651018095873 1523.6740270984087,1357.5460251544946 1547.009598758669,1319.9529924714284 1574.529950027996,1283.039562354601 1606.3013247153503,1247.076156584253 1642.333505694342,1212.3447836950843 1682.5764608189302,1179.1332945775453 1726.9185289636757,1147.7293301711945 1775.1862100207425,1118.414130774791 1827.145576358838,1091.4563810227837 1882.5052763724298,1067.1062640283499 1940.9210546940758,1045.5898925835027 2002.0016697556555,1027.1042747998006 2065.3160489495435,1011.8129564747294 2130.4014858411283,999.8424632194544 2196.7726537666545,991.2796425452822 2263.931186596172,986.169980345918 2331.375561139024,984.5169382830694 2398.6110070955256,986.2823293002555 2465.159169863315,991.3877187095504 2530.5672589073115,999.7168088887184 2594.4164295807464,1011.118737451102 2656.3291687965648,1025.4121926309558 2715.9754841338536,1042.3902263256975 2773.0777309680843,1061.8256254342382 2827.4139520114404,1083.4766864051549 2878.8196470751527,1107.093226718555 2927.187936647787,1132.422660696812 2972.468129681593,1159.215965755307 3014.662752423221,1187.233369000552 3053.8231398559133,1216.2495928464796 3090.043733028524,1246.0585117916958 3123.4552630119665,1276.4770902846528 3154.2170343499974,1307.348493177387 3182.508546719017,1338.544284997931 3208.5207123255836,1369.9656614309372 3232.446937801127,1401.5436851881507 3254.4743426741607,1433.2385280305034 3274.775381815757,1465.0377502037616 3293.5001267037887,1496.953677104607 3310.7694403053015,1529.0199597660383 3326.6692534240683,1561.2874299548275 3341.246117293883,1593.819381599485 3354.5041689887075,1626.6864273009544 3366.403603990324,1659.9610913203462 3376.8607052424104,1693.71230831754" fill="none" stroke="#17353b" stroke-width="0.45" opacity="0.375"></polygon><polygon points="3335.906621762496,1728 3346.7383468125845,1761.1945928448645 3354.3228271547887,1795.1592429031282 3358.403174911801,1829.741779132493 3358.7484523773855,1864.763498987288 3355.160800131474,1900.021681717419 3347.481845189854,1935.2928415968263 3335.5981994813546,1970.3366345445095 3319.445884786257,2004.900312314562 3299.0135509196757,2038.7236022167676 3274.344388507611,2071.5438776617025 3245.5366751713836,2103.1014760756743 3212.7429332132374,2133.14501615824 3176.167716833925,2161.4365661932484 3136.0640863446442,2187.756519181935 3092.7288646080274,2211.9080388257007 3046.4968059518014,2233.720952605976 2997.7338390209225,2253.054984032193 2946.8295715569266,2269.8022350941 2894.189266141976,2283.8888515071444 2840.2255109049443,2295.275826849499 2785.349817621359,2303.9589264691995 2729.9643813027387,2309.9677373654154 2674.454230216551,2313.363875378739 2619.1799834580715,2314.238405226928 2564.4714150573095,2312.7085514874575 2510.6219996803047,2308.9137988971233 2457.8845859762823,2303.011497719741 2406.4683103808566,2295.172103918183 2356.536827685162,2285.5741940486732 2308.207895991132,2274.3994008767577 2261.5543139278693,2261.827417519343 2216.6061683675944,2248.0312153943755 2173.354312513174,2233.172614484733 2131.7549582564916,2217.398333595852 2091.7352341813985,2200.8366337263137 2053.1995324591144,2183.5946498051926 2016.0364449810036,2165.7564854043358 1980.1260720639311,2147.382122214299 1945.34747644426,2128.507171749262 1911.5860513581492,2109.143471632974 1878.7405744017829,2089.2805036516515 1846.729728489482,2068.8875862793197 1815.4978872969791,2047.9167713048469 1785.0199846193232,2026.3063531949924 1755.305314440594,2003.9848815304886 1726.4001404024636,1980.8755517895063 1698.3890288346483,1956.900838367177 1671.3948575313404,1931.987226345625 1645.5774919079759,1906.0698953831156 1621.1311598944717,1879.0972102664462 1598.2805957485589,1851.0348781338917 1577.27605976637,1821.8696419674766 1558.3873745468811,1791.6123933927088 1541.897148043133,1760.300604717968 1528.093378237504,1728 1517.2616531874157,1694.8054071551358 1509.6771728452113,1660.8407570968716 1505.596825088199,1626.2582208675071 1505.2515476226142,1591.2365010127123 1508.8391998685258,1555.9783182825813 1516.518154810146,1520.7071584031737 1528.401800518645,1485.6633654554907 1544.554115213743,1451.0996876854379 1564.986449080324,1417.2763977832326 1589.6556114923892,1384.4561223382975 1618.4633248286164,1352.8985239243257 1651.2570667867626,1322.8549838417598 1687.8322831660748,1294.5634338067516 1727.9359136553558,1268.243480818065 1771.2711353919726,1244.0919611742993 1817.5031940481995,1222.2790473940238 1866.2661609790775,1202.9450159678067 1917.170428443074,1186.1977649058997 1969.8107338580242,1172.1111484928556 2023.7744890950553,1160.7241731505014 2078.6501823786407,1152.0410735308005 2134.0356186972613,1146.0322626345846 2189.5457697834495,1142.6361246212614 2244.820016541928,1141.761594773072 2299.5285849426905,1143.2914485125425 2353.378000319695,1147.0862011028764 2406.115414023717,1152.9885022802591 2457.5316896191434,1160.827896081817 2507.4631723148386,1170.4258059513268 2555.792104008868,1181.6005991232423 2602.4456860721307,1194.1725824806572 2647.393831632405,1207.9687846056243 2690.645687486826,1222.827385515267 2732.245041743509,1238.6016664041485 2772.264765818602,1255.1633662736863 2810.8004675408856,1272.4053501948074 2847.963555018996,1290.2435145956642 2883.873927936069,1308.6178777857008 2918.652523555739,1327.4928282507376 2952.413948641851,1346.8565283670257 2985.259425598217,1366.7194963483485 3017.270271510518,1387.1124137206803 3048.5021127030204,1408.083228695153 3078.980015380677,1429.6936468050076 3108.6946855594056,1452.015118469511 3137.599859597536,1475.1244482104937 3165.610971165352,1499.0991616328233 3192.60514246866,1524.0127736543752 3218.422508092024,1549.9301046168844 3242.8688401055283,1576.902789733554 3265.7194042514407,1604.9651218661081 3286.72394023363,1634.1303580325234 3305.6126254531187,1664.3876066072914 3322.102851956867,1695.6993952820321" fill="none" stroke="#17353b" stroke-width="0.45" opacity="0.33125"></polygon><polygon points="3257.690542746778,1728 3261.229162293748,1758.0915824873236 3260.977453796558,1788.362268548078 3256.877638333491,1818.5917863446969 3248.918003666429,1848.5554368939318 3237.1336772413238,1878.0285206506355 3221.606243152263,1906.7907895122516 3202.4622121822385,1934.6308007819512 3179.8703869321266,1961.3500523946823 3154.038195726235,1986.766784989888 3125.207098512582,2010.7193460237297 3093.6471944959417,2033.0690237713902 3059.651183977002,2053.7022744061765 3023.5278551579036,2072.532282908098 2985.5952799792767,2089.4998178365145 2946.1739109889945,2104.573360435269 2905.579773577681,2117.7485095266916 2864.1179445839543,2129.046684579109 2822.076499372881,2138.5131695888613 2779.721095286463,2146.214559410001 2737.2903402728616,2152.235687337479 2694.992072082198,2156.6761276007996 2653.0006463585305,2159.6463785209694 2611.455302053828,2161.263841070817 2570.45964071755,2161.648713195512 2530.082223309462,2160.919922332938 2490.3582552082944,2159.1912170627547 2451.292298011593,2156.5675337541174 2412.8619164827787,2153.141745624457 2375.0221414864236,2148.9918900146754 2337.7106057684023,2144.178955270738 2300.853189686705,2138.745291821691 2264.3699990600176,2132.713693352881 2228.1814876122776,2126.087173939597 2192.21453233592,2118.849446218507 2156.408271596002,2110.966084742469 2120.7195229074405,2102.3863382028976 2085.1276098294284,2093.045534813588 2049.638444967636,2082.8680073998858 2014.2877381411836,2071.7704491486106 1979.1432247104071,2059.665598004897 1944.3058381122592,2046.4661377332366 1909.9097819606775,2032.0886969846206 1876.121489721022,2016.4578245263285 1843.13749300291,1999.5098191900179 1811.1812519653458,1981.196297066543 1780.499032239798,1961.4873859069764 1751.3549412437642,1940.374447361778 1724.0252619437,1917.8722412921704 1698.7922432924001,1894.0204625218246 1675.9375230900969,1868.8845985910107 1655.7353704146258,1842.5560767971317 1638.445940698193,1815.1516894778179 1624.3087368205997,1786.8123075105204 1613.53646423062,1757.700912750517 1606.3094572532216,1728 1602.7708377062522,1697.9084175126764 1603.0225462034418,1667.637731451922 1607.1223616665088,1637.4082136553036 1615.0819963335712,1607.4445631060682 1626.8663227586762,1577.9714793493647 1642.3937568477372,1549.2092104877484 1661.537787817761,1521.369199218049 1684.1296130678734,1494.6499476053175 1709.9618042737648,1469.233215010112 1738.7929014874178,1445.2806539762703 1770.3528055040583,1422.9309762286098 1804.3488160229986,1402.2977255938235 1840.4721448420962,1383.4677170919024 1878.4047200207235,1366.5001821634858 1917.8260890110055,1351.4266395647312 1958.4202264223195,1338.2514904733082 1999.882055416046,1326.9533154208912 2041.9235006271194,1317.4868304111387 2084.278904713537,1309.7854405899986 2126.709659727138,1303.7643126625214 2169.007927917802,1299.3238723992006 2210.9993536414695,1296.3536214790306 2252.544697946172,1294.7361589291834 2293.5403592824496,1294.351286804488 2333.917776690538,1295.0800776670621 2373.641744791705,1296.8087829372453 2412.707701988407,1299.4324662458826 2451.1380835172217,1302.8582543755426 2488.977858513577,1307.0081099853248 2526.2893942315977,1311.8210447292622 2563.1468103132956,1317.2547081783093 2599.6300009399824,1323.2863066471189 2635.8185123877224,1329.912826060403 2671.7854676640804,1337.150553781493 2707.591728403998,1345.0339152575314 2743.2804770925595,1353.6136617971022 2778.8723901705716,1362.9544651864119 2814.361555032364,1373.1319926001142 2849.7122618588155,1384.229550851389 2884.8567752895933,1396.334401995103 2919.694161887741,1409.5338622667634 2954.0902180393223,1423.9113030153796 2987.878510278978,1439.5421754736713 3020.86250699709,1456.4901808099821 3052.8187480346537,1474.8037029334566 3083.500967760202,1494.5126140930236 3112.6450587562363,1515.6255526382222 3139.974738056301,1538.1277587078296 3165.2077567075994,1561.9795374781754 3188.062476909903,1587.1154014089896 3208.2646295853738,1613.443923202868 3225.554059301807,1640.8483105221821 3239.6912631794003,1669.1876924894798 3250.46353576938,1698.2990872494831" fill="none" stroke="#17353b" stroke-width="0.45" opacity="0.2875"></polygon><polygon points="3085.7157328162184,1728 3080.7590752904666,1751.5425719646692 3072.9351072957415,1774.6699026509004 3062.3712932386625,1797.2302213820221 3049.223052347974,1819.0857569582954 3033.6697084630027,1840.1150671405182 3015.909908558865,1860.2149038975301 2996.1566420207205,1879.301565299383 2974.63200383039,1897.3116999113709 2951.56185179503,1914.2025454999177 2927.170510526898,1929.9516003324077 2901.675673001801,1944.5557418572398 2875.283644238312,1958.0298236046453 2848.185061135993,1970.4047962832676 2820.5512080980343,1981.7254128193706 2792.531030165465,1992.0475890919024 2764.2489245322768,2001.4355020064227 2735.8033681057195,2009.958514035035 2707.2664139047397,2017.68801820941 2678.684063281851,2024.6942996481025 2650.0774949667325,2031.0435089670982 2621.4451065259072,2036.7948393861266 2592.7652997570394,2041.9979931071612 2563.9999194948964,2046.691013789289 2535.0982359452846,2050.8985509329946 2506.0013445511277,2054.63060904041 2476.646845003928,2057.881819916364 2446.973652707569,2060.631260843945 2416.9267920235525,2062.842825066625 2386.46202109415,2064.4661345152904 2355.5501429390874,2065.4379685169897 2324.180866708917,2065.6841667884464 2292.366096185005,2065.1219508045024 2260.1425394551557,2063.662595057062 2227.573553671826,2061.214369153169 2194.7501613311565,2057.6856634521237 2161.791198935256,2052.9882052536946 2128.8425845013903,2047.0402695901394 2096.0757164093607,2039.7697885315752 2063.6850417694022,2031.117265592456 2031.884857093885,2021.0384072489796 2000.905426845602,2009.5063915853088 1970.988525744826,1996.5137044468743 1942.3825279506773,1982.0734858891149 1915.3371798836993,1966.2203438071408 1890.0982031247745,1949.0106070038562 1866.9018792261234,1930.522006151496 1845.9697692435007,1910.8527876506332 1827.5037173149535,1890.1202818073825 1811.681279771066,1868.4589625535345 1798.6517092927043,1846.0180506633358 1788.5326078837547,1822.9587256437164 1781.4073433579756,1799.451022805051 1777.323302207611,1775.6705011256088 1776.2910277646818,1751.7947741383311 1778.2842671837816,1728 1783.2409247095334,1704.4574280353308 1791.0648927042587,1681.3300973490996 1801.628706761337,1658.769778617978 1814.7769476520257,1636.9142430417048 1830.3302915369973,1615.8849328594818 1848.090091441135,1595.7850961024699 1867.8433579792795,1576.6984347006173 1889.3679961696098,1558.6883000886291 1912.4381482049694,1541.7974545000823 1936.829489473102,1526.0483996675923 1962.324326998199,1511.4442581427602 1988.7163557616882,1497.9701763953547 2015.8149388640068,1485.5952037167324 2043.4487919019657,1474.2745871806294 2071.468969834535,1463.9524109080976 2099.7510754677237,1454.5644979935773 2128.1966318942805,1446.041485964965 2156.7335860952603,1438.3119817905897 2185.315936718149,1431.3057003518975 2213.922505033267,1424.9564910329018 2242.5548934740923,1419.2051606138734 2271.2347002429606,1414.0020068928388 2300.0000805051036,1409.308986210711 2328.9017640547154,1405.1014490670054 2357.998655448873,1401.36939095959 2387.353154996072,1398.1181800836362 2417.026347292431,1395.3687391560552 2447.0732079764475,1393.1571749333748 2477.53797890585,1391.5338654847094 2508.4498570609126,1390.5620314830105 2539.819133291083,1390.3158332115538 2571.6339038149945,1390.8780491954976 2603.8574605448443,1392.3374049429378 2636.426446328174,1394.785630846831 2669.249838668844,1398.3143365478766 2702.2088010647435,1403.0117947463054 2735.1574154986097,1408.9597304098606 2767.9242835906393,1416.2302114684248 2800.314958230597,1424.882734407544 2832.115142906115,1434.9615927510206 2863.094573154398,1446.4936084146914 2893.011474255174,1459.4862955531257 2921.6174720493227,1473.9265141108851 2948.6628201163007,1489.7796561928592 2973.901796875225,1506.9893929961434 2997.098120773877,1525.4779938485037 3018.0302307564993,1545.147212349367 3036.496282685047,1565.8797181926175 3052.3187202289337,1587.5410374464655 3065.3482907072957,1609.9819493366645 3075.467392116245,1633.0412743562833 3082.5926566420244,1656.5489771949487 3086.676697792389,1680.3294988743912 3087.7089722353185,1704.2052258616689" fill="none" stroke="#17353b" stroke-width="0.45" opacity="0.24375000000000002"></polygon><polygon points="2841.8431911527896,1728 2835.6636795111544,1742.648398128627 2828.1968686721098,1756.8492065437556 2819.574113211063,1770.5651389067682 2809.9265436413343,1783.7719371809787 2799.381621440995,1796.4578508352517 2788.0599114382867,1808.6227575222424 2776.072164449401,1820.2769549795162 2763.5167936213584,1831.4396634938319 2750.4778160536835,1842.1372866956465 2737.023317304641,1852.4014854657341 2723.204480741225,1862.2671251334461 2709.0552068262928,1871.7701597687158 2694.5923298462753,1880.945519111594 2679.8164217850476,1889.8250634932167 2664.7131555661144,1898.4356699865757 2649.2551832293075,1906.7975090466605 2633.404469268491,1914.9225651744493 2617.115005783499,1922.8134478360416 2600.335824691034,1930.4625302013437 2583.014213330501,1937.8514434905915 2565.099033653334,1944.950944118524 2546.5440419789666,1951.721159716266 2527.3111061317413,1958.1122088159868 2507.373219646051,1964.0651778346682 2486.717218558288,1969.5134283180882 2465.3461149231616,1974.3841975177654 2443.2809723465793,1978.6004465624949 2420.5622621909765,1982.0829030110283 2397.250654290488,1984.7522386531086 2373.427212568075,1986.5313192365873 2349.1929833897293,1987.3474604621865 2324.6679823112313,1987.1346241738136 2299.9896025485064,1985.8354901940384 2275.310485515484,1983.4033426676003 2250.7959096249197,1979.8037149813756 2226.620767773283,1975.015744175371 2202.966216113416,1969.0331940462152 2180.016086501001,1961.865115630273 2157.953162095836,1953.5361241607818 2136.955419798128,1944.0862826181205 2117.1923443798923,1933.5705933122647 2098.8214172967737,1922.0581102206668 2081.984878290422,1909.6306957234092 2066.806850157975,1896.3814556112184 2053.390906698881,1882.4128954917023 2041.818151153034,1867.834849714546 2032.1458577889796,1852.7622404437316 2024.4067131150348,1837.3127293340467 2018.6086759427344,1821.604327279187 2014.7354577350638,1805.7530288019605 2012.747606841738,1789.8705368215376 2012.5841628814928,1774.0621407831893 2014.1648311838621,1758.4248065534252 2017.3926123278836,1743.0455302023854 2022.1568088472104,1728 2028.3363204888456,1713.3516018713733 2035.8031313278902,1699.1507934562444 2044.4258867889366,1685.434861093232 2054.0734563586657,1672.2280628190213 2064.618378559005,1659.5421491647485 2075.9400885617133,1647.3772424777576 2087.927835550599,1635.7230450204838 2100.4832063786416,1624.5603365061681 2113.5221839463165,1613.8627133043535 2126.976682695359,1603.5985145342659 2140.795519258775,1593.732874866554 2154.9447931737072,1584.2298402312842 2169.4076701537247,1575.054480888406 2184.1835782149524,1566.1749365067833 2199.2868444338856,1557.5643300134243 2214.744816770693,1549.2024909533395 2230.5955307315094,1541.0774348255507 2246.884994216501,1533.1865521639581 2263.664175308966,1525.5374697986563 2280.985786669499,1518.1485565094088 2298.900966346666,1511.0490558814763 2317.4559580210334,1504.278840283734 2336.688893868259,1497.8877911840132 2356.626780353949,1491.9348221653318 2377.282781441712,1486.4865716819118 2398.653885076838,1481.6158024822346 2420.71902765342,1477.3995534375051 2443.4377378090235,1473.9170969889717 2466.7493457095125,1471.2477613468914 2490.572787431925,1469.4686807634127 2514.8070166102707,1468.6525395378135 2539.3320176887687,1468.8653758261864 2564.0103974514936,1470.1645098059616 2588.689514484516,1472.5966573323997 2613.2040903750803,1476.1962850186244 2637.379232226717,1480.984255824629 2661.033783886584,1486.9668059537848 2683.9839134989984,1494.134884369727 2706.0468379041636,1502.463875839218 2727.044580201872,1511.9137173818795 2746.8076556201077,1522.4294066877353 2765.1785827032263,1533.9418897793332 2782.015121709578,1546.3693042765906 2797.193149842025,1559.6185443887816 2810.6090933011187,1573.5871045082972 2822.1818488469657,1588.165150285454 2831.85414221102,1603.2377595562687 2839.5932868849654,1618.6872706659533 2845.3913240572656,1634.3956727208129 2849.264542264936,1650.2469711980395 2851.2523931582623,1666.1294631784622 2851.415837118507,1681.9378592168107 2849.835168816138,1697.5751934465748 2846.6073876721166,1712.9544697976148" fill="none" stroke="#17353b" stroke-width="0.45" opacity="0.2"></polygon><polygon points="2976.328398480569,1152 2970.6895165358173,1202.2550308250989 2959.8522731111134,1252.087923933805 2943.9899899808715,1301.2835614203336 2923.318534611397,1349.6466871340926 2898.0886052052106,1397.0053872095446 2868.5770238005043,1443.2135581419682 2835.0774067450407,1488.1522653374495 2797.890607163581,1531.7299438466673 2757.3153321874884,1573.881443882931 2713.6393283681477,1614.565974496446 2667.1315022694093,1653.764047204874 2618.0353008908855,1691.473565343063 2566.5636201707753,1727.705242465506 2512.8954418242656,1762.477562666138 2457.1743221671422,1795.8115158752917 2399.5087747049897,1827.7253511649692 2339.9745047159377,1858.2295903999 2278.6183724713364,1887.3225332383818 2215.4638856888328,1914.9864630041147 2150.51795461777,1941.184732252561 2083.7785877512542,1965.8598682803008 2015.2431649599016,1988.932794055725 1944.9168996445405,2010.303211037702 1872.8210934041133,2029.8511392350972 1799.0007960576484,2047.4395588761263 1723.5315102294398,2062.9180494294337 1646.5246219433325,2076.12727757305 1568.1312949204284,2086.9041479724565 1488.5446340666754,2095.0874010547846 1408,2100.523421651084 1326.7734380534566,2103.0720123126775 1245.1782684252566,2102.6118857336864 1163.5599653807135,2099.04564200609 1082.289529084622,2092.304017906913 1001.75562043829,2082.349226135616 922.3557842846296,2069.1772410466533 844.487127114932,2052.818932275253 768.5368401720062,2033.3399967801802 694.872966506014,2010.8396910855809 623.8358007597159,1985.4484166622703 555.7302836598597,1957.3242602189573 490.8197105369002,1926.6486350499379 429.32101654561495,1893.6212075765397 371.40183308666474,1858.4543231731748 317.17943321034363,1821.3671659845622 266.7216018699087,1782.5798978260123 220.04938336213104,1742.308020968017 177.14157679785762,1700.7571986606677 137.94077454823332,1658.1187461388868 102.36067163185226,1614.565974496446 70.2943188747372,1570.2515315590504 41.622951801990666,1525.3058394030422 16.225002398006836,1479.8366794069207 -6.015106808740711,1433.9299248243633 -25.19877707863475,1387.6513700593255 -41.40602009179338,1341.0495573307421 -54.689538001896835,1294.1594573594227 -65.07036125125683,1247.0068230209065 -72.53524014177765,1199.6130052346616 -77.03590923553998,1152 -78.4902615149415,1104.1954853327193 -76.785385448547,1056.2376073472046 -71.78233633967352,1008.179285843888 -63.32243714735296,960.0918310137283 -51.23483668702079,912.0676933282616 -35.34499767594116,864.2222070110884 -15.483745903897216,816.6942320052281 8.503513321485116,769.6456481099927 36.74781328853555,723.2597058245873 69.34827087731128,677.738289174458 106.36472417285404,633.2981941866161 147.8116859306565,590.1665705999462 193.65387957234134,548.5757119192112 243.8035562476732,508.75740839960315 298.119714748113,470.9370976863423 356.4092640484139,435.32805774296946 418.4300845664202,402.1258859417701 483.8958625195903,371.50349678551436 552.482495585005,343.6068491721376 623.8358007597147,318.5515833377299 697.5801998043224,296.42070895594384 773.3280163519868,277.26344101625705 850.6889934735129,261.09523100312674 929.2796323019388,247.8989896927327 1008.731961584446,237.62744680589333 1088.701374329586,230.20654403201934 1168.8732098928278,225.5397136945336 1248.96781603856,223.51285749266503 1328.743893264279,223.99980997818227 1407.9999999999998,226.86805100710797 1486.5741788558523,231.9844212360755 1564.3417473071245,239.22059525389488 1641.2113774312177,248.45807812757369 1717.119664984475,259.59251250949876 1792.0244549114923,272.537114065383 1865.8972453868032,287.2250915042887 1938.7150332859594,303.6109522406774 2010.4519887799202,321.67064374071197 2081.0713544529453,341.4005317612239 2150.51795461777,362.8152677474392 2218.7116737636866,385.9446463869799 2285.5422204886454,410.82959859707023 2350.8654366951314,437.51750311840954 2414.50134374324,466.0570297511749 2476.234040629372,496.49274779561233 2535.8134874465004,528.8597435594772 2592.959123960565,563.1784904217222 2647.3651917580855,599.450203917551 2698.707552644789,637.6528931206287 2746.6517291226883,677.7382891744578 2790.8618377736893,719.6297935007058 2831.010045644087,763.2215436663676 2866.7861550469443,808.3786460746987 2897.9069146677048,854.9385736934836 2924.1246648135966,902.7136761780419 2945.234951666956,951.4947012103769 2961.0827883186485,1001.0551817829765 2971.567297308404,1051.156506434305 2976.644537908982,1101.5534597422818" fill="none" stroke="#17353b" stroke-width="0.6" opacity="0.79"></polygon><polygon points="2695.4919942680526,1152 2687.7124033131845,1193.1546795414183 2676.4727925056027,1233.8111430889476 2661.9827473927335,1273.875150041032 2644.4512204169177,1313.2733441427754 2624.079099407144,1351.951821379541 2601.0525052486187,1389.8738398880182 2575.5371001761014,1427.016785518931 2547.6736431367426,1463.3685395680266 2517.574973429424,1498.9234216199702 2485.3245407639456,1533.6778992635375 2450.9765317496476,1567.6262668094473 2414.557572594622,1600.7564966169903 2376.0699185398184,1633.046459144279 2335.495975290012,1664.4606917038545 2292.803939283539,1694.9478718330806 2247.9542946128877,1724.4391202273455 2200.9068669058247,1752.8472216853688 2151.6281101344794,1780.0668120742635 2100.0982921950294,1805.9755367047705 2046.3182496289326,1830.4361425773889 1990.3154008330184,1853.2994255952904 1932.1487396936648,1874.4079158496138 1871.912576348279,1893.6001511297368 1809.738846761719,1910.715362338693 1745.7978755960319,1925.5983756626588 1680.2975446981447,1938.1045259806046 1613.4808894602502,1948.104374563491 1545.6222142594936,1955.4880316698209 1477.0218831382429,1960.1689008713793 1408,1962.086686136556 1338.8892413249075,1961.209533807842 1270.0271416195196,1957.5352182821305 1201.7481558790225,1951.0913208415957 1134.3758332025923,1941.9343939202981 1068.2154309317762,1930.148146262357 1003.5472794857342,1915.840726052216 940.621175285025,1899.1412173643048 879.6520342213772,1880.1954985231678 820.81698301007,1859.1616377400783 764.254002865974,1836.2050205350229 710.0621720260397,1811.4934141337426 658.3034836724734,1785.1921757877865 609.0061468545501,1757.4598047303211 562.1692130819042,1728.4440215735156 517.7683132113674,1698.2785350748427 475.7622406162038,1667.0806253977457 436.1000795427883,1634.9496366168903 398.72855365283135,1601.9664308627925 363.5992600707914,1568.1938139313734 330.6754592360544,1533.6778992635375 299.93811028698747,1498.4503358054333 271.3908747367909,1462.531287201519 245.06385640201916,1425.933016713438 221.01590094442872,1388.6639056422162 199.33534157014196,1350.7327140216053 180.13914564083757,1312.1528817754224 163.57048721358728,1272.9466668514162 149.79483977240284,1233.1489241289169 138.9947486226581,1192.8103448256027 131.3635007421351,1152 127.09795877245097,1110.8070625132739 126.3908631564118,1069.34161812702 129.42293054940978,1027.7345166811053 136.3550865013542,986.1362567518636 147.32116558677808,944.7149399751627 162.42139286271959,903.6533724554134 181.71692759654798,863.1454285625628 205.22570506417492,823.3918252830952 232.91975684054,784.5954816960947 264.7241268029784,746.9566569317219 300.51743179922164,710.6680703106008 340.1340455711222,675.9102088012821 383.36781513940446,642.8470194013348 429.97715346708037,611.6221678700906 479.6912936777161,582.3560211204169 532.2174409578645,555.1434795632738 587.2485206580643,530.0527491442059 644.4711966570288,507.12510230984344 703.5738238265387,486.37563446246384 764.2540028659731,467.7949794649775 826.225424660776,451.3519063248391 889.2237238219243,436.9966811232657 953.0111057527157,424.66504522864716 1017.379566501178,414.2826342837094 1082.152587381489,405.7696435456162 1147.1852541351768,399.0455347142358 1212.36282028111,394.0335778641786 1277.5978032104251,390.665029569181 1342.8257664997852,388.88276444865653 1407.9999999999998,388.6442014729248 1473.0853579633645,389.9233973851193 1538.0515526685874,392.7122161814906 1602.8662250581624,397.0205241422833 1667.4881237655595,402.8754026539293 1731.8607191463188,410.319414145314 1795.9065597462748,419.4079979972323 1859.5226458805878,430.20611146321517 1922.577050093117,442.7842637968196 1984.9069591823122,457.2141184696269 2046.3182496289326,473.56385742261125 2106.5866403945297,491.8935118914359 2165.460397149923,512.2504660233662 2222.66449310231,534.6653321891578 2277.9060667369267,559.1483809094437 2330.88095881719,585.6866843621788 2381.281062439135,614.2421015639815 2428.8021829432023,644.7501968739464 2473.152080676331,677.1201430470841 2514.058360021217,711.2356174325266 2551.2758731970216,746.9566569317216 2584.593326875871,784.122395881557 2613.8388128093584,822.5545729165876 2638.8840289815726,862.0616597570693 2659.647013330328,902.4434382096113 2676.093275390507,943.4958326172264 2688.235279556401,985.01579438451 2696.130304056911,1026.806033491489 2699.876769121594,1068.6793991669883 2699.609193163392,1110.462727797458" fill="none" stroke="#17353b" stroke-width="0.6" opacity="0.73"></polygon><polygon points="2497.050950889907,1152 2492.4558387043517,1186.8753613727185 2485.6009753519506,1221.5007162220381 2476.568237536049,1255.8546300174892 2465.4155073120796,1289.9212800284563 2452.17527075621,1323.686814886437 2436.854604711295,1357.1356452733357 2419.4365465857873,1390.2468426540247 2399.8827815048744,1422.990818257248 2378.137523337725,1455.3264421943586 2354.132413769982,1487.198743228102 2327.7922189394403,1518.5373041106366 2299.0410681510393,1549.255436720419 2267.8089553592827,1579.2501867840158 2234.0382124878997,1608.4031812784979 2197.689664750569,1636.5822942787584 2158.7481918900653,1663.6440706763492 2117.2274450604677,1689.4368134438264 2073.1735058059376,1713.8042104301917 2026.667319630925,1736.5893523507261 1977.8257899949886,1757.638975746105 1926.8014768667467,1776.8077540181166 1873.7809046856091,1793.9624566742912 1818.9815450518322,1808.985801767006 1762.6475970512956,1821.7798389880782 1705.0447403042276,1832.2687204382946 1646.4540803268367,1840.400741884273 1587.165540667704,1846.14956822145 1527.4709800047515,1849.5145915373932 1467.657323929292,1850.5204071047788 1408,1849.2154302200884 1348.756950875495,1845.6697134056105 1290.1634745360625,1839.9720575146803 1232.4281039154137,1832.2265402417606 1175.7296922913422,1822.548610135623 1120.2158175448221,1811.0609123752201 1066.002560223722,1797.8890235045337 1013.1756497888732,1783.1572755605853 961.7929131304294,1766.9848454298794 911.8879020631172,1749.4822730367368 863.4745245550466,1730.7485526392952 816.5524601938528,1710.868915932024 771.1131057870649,1689.913394946647 727.1457735499646,1667.9362182492403 684.6438530849656,1644.9760571578745 643.6106497994656,1621.057101259419 604.064626486924,1596.190906021869 566.0438008985117,1570.3789213730095 529.6090891239782,1543.615580228398 494.8464308676512,1515.8918014056544 461.867586230018,1487.198743228102 430.80955205039686,1457.5316331885447 401.8326066792939,1426.8934957879399 375.11705257330027,1395.2986052227077 350.8587836957022,1362.7755017653567 329.2638568447055,1329.3694299301724 310.54229043787245,1295.1440819935262 294.9013490128134,1260.182561029324 282.5385952390088,1224.5875119829052 273.63500254100677,1188.4804059353967 268.3484200100231,1152 266.8076671854319,1115.3000316082637 269.10751012922015,1078.5462396968717 275.30473313111224,1041.9128350151236 285.41547398256034,1005.5785661380811 299.4139370635196,969.722545722406 317.2325398344808,934.520012293672 338.7634872715523,900.1382059330739 363.8617079829876,866.732531501229 392.3490278486199,834.4431707022297 424.0194045493297,803.3922848899557 458.6450015850039,773.681924897974 495.98284526275677,745.3927334533994 535.7817841970505,718.5834912564827 577.7894591361412,693.2915210786837 621.758991917782,669.5339268586391 667.455116008886,647.3096083923156 714.6594967933769,626.6019584124566 763.1750264078313,607.382119112382 812.8289238769562,589.612650792322 863.4745245550458,573.2514473607049 914.9917011017951,558.2557226952573 967.2859188609848,544.585888831315 1020.2859889139863,532.2091517332707 1073.9406396029551,521.1026628136693 1128.2140794443249,511.256083854144 1183.08076880178,502.6734487047954 1238.5196525157003,495.37423597296583 1294.5081293711462,489.39360151435415 1351.0160457946247,484.781756399987 1407.9999999999998,481.6025135437957 1465.398229010162,479.93106270081876 1523.126325169667,479.85106749164106 1581.073992067417,481.4512079932766 1639.1030038163983,484.8213169561453 1697.0464784047247,490.04827579106916 1754.709517672062,497.21184733012444 1811.8712059267186,506.3806255268496 1868.287898955053,517.608277586903 1923.6976778280682,530.9302417138773 1977.8257899949886,546.361024253895 2030.390855947821,563.8922143736197 2081.111585185171,583.491303628837 2129.7137218170546,605.1013632178701 2175.9369289661445,628.6415948738409 2219.5413226322526,654.0087338392995 2260.313379838682,681.0792458220543 2298.070972060744,709.7122258454765 2332.6673120122605,739.752876961378 2363.993648222088,771.0364221929917 2391.98059545067,803.3922848899555 2416.598047539501,836.6483616964152 2437.853680201181,870.6352090319207 2455.790111887535,905.1899685017565 2470.4808485725166,940.1598687856931 2482.0251905373957,975.405160766141 2490.5423237673917,1010.8013681031505 2496.1648534177502,1046.240766026958 2499.032060461739,1081.6330354577383 2499.2831740599268,1116.9050761709414" fill="none" stroke="#17353b" stroke-width="0.6" opacity="0.6699999999999999"></polygon><polygon points="2357.9322254587096,1152 2358.276569204821,1182.56024742754 2356.6558991862366,1213.184302863285 2352.99810564686,1243.844793043338 2347.215522758619,1274.5041681587836 2339.209222758919,1305.1125567957267 2328.874052040859,1335.6062083173365 2316.1041898963363,1365.906603211062 2300.798987443343,1395.920282373936 2282.868831661613,1425.5394144756438 2262.2407779636037,1454.6430878175256 2238.8637044040615,1483.0992809297647 2212.7127610566517,1510.767435929077 2183.792918366761,1537.501531720394 2152.141457101894,1563.153531650325 2117.8292881691395,1587.5770631946993 2080.9610410589144,1610.6311764363147 2041.6739128006457,1632.1840239403375 2000.1353227595737,1652.1163073500747 1956.539470031733,1670.32434549147 1911.1029373622414,1686.7226345820613 1864.0595263630378,1701.2457926033323 1815.6545415594596,1713.8498060812155 1766.1387640243493,1724.5125272880734 1715.7623680541924,1733.2334019342359 1664.769035955407,1740.032440361218 1613.3905164763432,1744.9484776461425 1561.8418521652022,1748.0367984651907 1510.3174708483216,1749.3662297159342 1458.9882978291678,1749.0158265802154 1408,1747.0712949319072 1357.4724228274495,1743.6213040065363 1307.5002283227445,1738.7538475726435 1258.1546889540055,1732.552809289936 1209.4865413319005,1725.0948786190797 1161.529756642057,1716.4469479698664 1114.3060442622511,1706.664100423468 1067.829872566838,1695.7882712730438 1022.1137680082638,1683.8476369343837 977.1736411818222,1670.856752780849 933.0338872706454,1656.8174285513567 889.7320180938761,1641.7202976025346 847.3226035154888,1625.5470058393066 805.8803303188806,1608.2729189895922 765.5020254881186,1589.8702241732544 726.3075364637469,1570.311284442701 688.439411364924,1549.5720938944914 652.0613751854324,1527.6356765490034 617.3556512597916,1504.4952746578479 584.5192285255622,1480.1571813155997 553.7592220363963,1454.6430878175256 525.2875147521465,1427.9918374351578 499.3149010691477,1400.2605032459974 476.04497543226216,1371.5247372149265 455.66802168407844,1341.8783695885656 438.35516001073063,1311.4322704350798 424.25299837790465,1280.3125174064917 413.4790146424265,1248.6579441076221 406.11786497097773,1216.617170499349 402.2187751247101,1184.345239361088 401.79412527551756,1152 404.8192883031842,1119.738391372057 411.2337281899554,1087.712781093073 420.94331150199775,1056.0675142781513 433.8237333604452,1024.9358168674787 449.724912003941,994.4371824819095 468.4761650884129,964.6753505872202 489.8919480398862,935.7369577625979 513.777911499361,907.6909143045729 539.9370221849496,880.5885265468522 568.1754898943301,854.4643525340464 598.3082529437411,829.3377464870977 630.1637946641259,805.2150172507224 663.588093757282,782.0920989436021 698.4475500315749,759.9576095224706 734.6307725922344,738.7961559088712 772.04916796167,718.5917334613458 810.6363186458735,699.3310633845207 850.346196024477,681.0067143364794 891.1503027918309,663.6198639135462 933.0338872706448,647.1825714486436 975.9914127013026,631.7194549699254 1020.0214972982748,617.2686912974083 1065.1215640342593,603.8822879670698 1111.2824517532622,591.625607667962 1158.4832407773342,580.5761587615724 1206.686536594216,570.8216977881722 1255.8344349182307,562.4577202399345 1305.8453612968647,555.5844429682162 1356.6119398128253,550.3034042087564 1407.9999999999998,546.7138243649486 1459.8487808437917,544.9088816350775 1511.972337874201,544.9720608249254 1564.1621062009767,546.9737310646797 1616.1905212140273,550.9680987611094 1667.8155518201295,556.9906663702209 1718.7859605631807,565.0563061571937 1768.8470725569277,575.1580319520403 1817.7468122694481,587.2665221505763 1865.241754843557,601.3304151474422 1911.1029373622414,617.2773654179388 1955.1211853337777,635.0158160246106 1997.111730250585,654.4374128257111 2036.9179244736524,675.419958433775 2074.413898585363,697.8307811982856 2109.506052040652,721.5303771568726 2142.1333184352434,746.3761717666368 2172.2661997949117,772.2262437722113 2199.904617652317,798.9428559794931 2225.0746799858825,826.3956468729326 2247.82451010567,854.464352534046 2268.2193242288095,883.0409495063657 2286.3359770131297,912.0311351766342 2302.257217288712,941.3550917664618 2316.065908636525,970.9475118584494 2327.839470765708,1000.7568961212623 2337.6447877760784,1030.744166115186 2345.5338087872888,1060.8806653424351 2351.540035967259,1091.1456487291366 2355.6760560263474,1121.5233833056047" fill="none" stroke="#17353b" stroke-width="0.6" opacity="0.61"></polygon><polygon points="2258.384764205316,1152 2261.166748881397,1179.437261727481 2261.6678473449397,1207.0579742996438 2259.765604225477,1234.7834840874875 2255.3471816724373,1262.5215566791153 2248.3144658980355,1290.167334731599 2238.5887924422964,1317.60490385545 2226.1150864001675,1344.7094061613802 2210.8652386371205,1371.3496167344292 2192.840571579963,1397.3908776232981 2172.073287084092,1422.6982678505062 2148.626832450329,1447.1398771685165 2122.595166993938,1470.5900462832067 2094.1009586356668,1492.9324372613564 2063.2927857380582,1514.062804793162 2030.3414618561537,1533.8913515935487 1995.4356383612317,1552.344568949041 1958.7768704063212,1569.3664854784338 1920.574354106313,1584.9192726137774 1881.0395561315238,1598.9831830137282 1840.380960586345,1611.5558268851503 1798.7991519109257,1622.6508197554072 1756.4824368790514,1632.2958623598363 1713.6031842613793,1640.5303378018855 1670.3150284579756,1647.4025319374266 1626.7510447947202,1652.9665991211848 1583.0229609186524,1657.279406324432 1539.2214227145732,1660.3973937134692 1495.4172864161465,1662.3735888450965 1451.6638631478336,1663.2549047279053 1408,1663.0798394173094 1364.4538447542614,1661.8766771059586 1321.0471111596792,1659.6622686115134 1277.7996395365356,1656.4414437127436 1234.7340344223794,1652.207080052658 1191.8801575474072,1646.9408245235259 1149.279260783868,1640.6144344296622 1106.987559579332,1633.1916785379608 1065.0790720625753,1624.6307135590448 1023.64758142359,1614.8868307247303 982.8076178973422,1603.9154508502766 942.6944000290657,1591.6752353016605 903.4627209692453,1578.131175106013 865.2848123214781,1563.2575212718189 828.3472634972525,1547.0404261864405 792.8471166275334,1529.4801784331046 758.9872939964678,1510.5929309711173 726.9715450778931,1490.4118445813515 696.9991222479056,1468.9875938334776 669.2594071483771,1446.3882104733866 643.926712915908,1422.6982678505062 621.1554809192364,1398.017438550115 601.0760745452104,1372.458484518283 583.7913476351639,1346.144763482101 569.3741324821456,1319.2073563051792 557.8657532761499,1291.781936168814 549.2756272272354,1264.0055114242791 543.5819692060126,1236.0131791447973 540.7335686378758,1207.935025592671 540.6525616234982,1179.8933030460903 543.2380788273099,1152 548.3706124265092,1124.3549042125564 555.9169149681934,1097.044236183015 565.7352206672233,1070.1399053783716 577.6805664634013,1043.6994139825188 591.6099866173282,1017.7664043305127 607.3873609115102,992.3718177657463 624.8877123597065,967.5356056653569 644.0007750192797,943.2689090022167 664.6336849681055,919.5766021192647 686.7126863300628,896.4600802913452 710.1837877146451,873.9201598479601 735.0123506772699,851.9599546024164 761.1816387878395,830.5875933011787 788.6904015646888,809.8186497318663 817.5496098957357,789.678169708747 847.7784967798603,770.2021968426554 879.4000876564021,751.438721026358 912.4364269228026,733.4479989649128 946.9037204980243,716.3022237441041 982.8076178973415,700.0845491497234 1020.1388510895373,684.8875029708585 1058.8694316858155,670.8108505943433 1098.9495834530449,657.9589946406936 1140.3055548303105,646.4380171344442 1182.8384174744313,636.3524868352963 1226.4239135612354,627.8021651734329 1270.9133685219394,620.8787492572682 1316.1356391149734,615.6627894320933 1361.9000212716603,612.2209119033153 1407.9999999999998,610.6034642989877 1454.2176866304342,610.8426842813686 1500.3287584608518,612.9514691985102 1546.1076937291691,616.9227992565426 1591.3330817797962,622.7298389016586 1635.7927848676961,630.3267122376374 1679.288734411533,639.6499196266798 1721.6411603876663,650.6203353767689 1762.6920772558108,663.1457017935516 1802.3078822449781,677.1235139401815 1840.380960586345,692.4441731148497 1876.830235662565,708.9942760320363 1911.6006481527552,726.6599014571483 1944.6615950713967,745.3297568197428 1976.0044050786234,764.8980540800549 2005.6389685879512,785.2669965483026 2033.589678169837,806.3487759098211 2059.8908649257205,828.067000621174 2084.5819385645736,850.357502152687 2107.702451884061,873.1684931528303 2129.2873136699372,896.460080291345 2149.3623675310932,920.203163046081 2167.9405381630513,944.3777767860702 2185.0187216756244,968.9709629860774 2200.575564012932,993.9742702154756 2214.5702325568573,1019.3810057677273 2226.942242436271,1045.1833687276821 2237.6123527642662,1071.369600435681 2246.484501014622,1097.921287476042 2253.448698078386,1124.8109455311658" fill="none" stroke="#17353b" stroke-width="0.6" opacity="0.55"></polygon><polygon points="2167.4674116426177,1152 2168.8776215658877,1176.4693062321733 2167.7692918454477,1201.0019136531712 2164.090119934089,1225.4847405222308 2157.813791138494,1249.8000390023496 2148.941465953659,1273.8280913842593 2137.5023306581493,1297.450028257349 2123.553187072817,1320.5506502079552 2107.177098328003,1343.021134266663 2088.4811476791474,1364.7615111677264 2067.5934051083605,1385.682809315122 2044.6592300088637,1405.7087757424997 2019.8370662105601,1424.777102680093 1993.2939067530465,1442.8401098000795 1965.2006192297329,1459.864855865278 1935.7273276335739,1475.832678320602 1905.0390432145791,1490.738184257424 1873.2917250674814,1504.5877400595066 1840.6289315259737,1517.397528860864 1807.1791968118587,1529.1912637560029 1773.0542349422385,1539.997659677951 1738.3480360582541,1549.8477773432942 1703.136880719197,1558.7723581961104 1667.480257041339,1566.7992696205201 1631.4226256319769,1573.9511748177301 1594.9959398235728,1580.243531868818 1558.2227953890692,1585.6830120584268 1521.1200561751446,1590.2664091461481 1483.7027811386795,1593.9800897430544 1445.9882650287202,1596.8000112193552 1408,1598.6923086704728 1369.771368990028,1599.6144274891376 1331.3488935830878,1599.5167541201683 1292.7948787991506,1598.344675658295 1254.1893239190988,1596.0409800439782 1215.6310009205733,1592.5484935425213 1177.237638928488,1587.8128416153652 1139.145192666705,1581.7852136706088 1101.506213497892,1574.4250117576323 1064.4873814775067,1565.702268066304 1028.2662941786916,1555.5997258950192 993.0276412303197,1544.1144931355682 958.9589210943612,1531.259195658499 926.2458773795695,1517.0625794698008 895.0678450324452,1501.569534210509 865.5932014873559,1484.8405354509407 837.975114082434,1466.9505282051355 812.3477629155595,1447.9872980693726 788.8231983499048,1428.0493983257868 767.4889654482787,1407.2437202919634 748.4065948916394,1385.682809315122 731.611022844962,1363.4820394474077 717.110962389765,1340.7567655352427 704.8902082842818,1317.6195719651018 694.9098167215159,1294.1777326116555 687.1110641812646,1270.5309868408947 681.4190560540177,1246.7697221577992 677.7468279108156,1222.9736358824364 675.9997613171281,1199.2109268892843 676.0801228561734,1175.5380448887288 677.8915301155233,1152 681.3431520148513,1128.6312105454472 686.3534628542559,1105.4568431748107 692.8533893180544,1082.4945776491609 700.7887165118228,1059.7567098318812 710.1216517693337,1037.2524914718986 720.8314820157087,1014.9905948782873 732.9143002968073,992.9815850355701 746.3818179449531,971.2402813395458 761.2593189648674,949.78789596158 777.5828508412975,928.6538456647636 795.3957794507301,907.8771482696014 814.7448636440974,887.5073332717063 835.6760261405577,867.6048175489885 858.2300107169449,848.2407207234282 882.4381207138362,829.496119528945 908.3182303908236,811.4607653973044 935.8712488064443,794.2313133200248 965.0781961937877,777.9091318314438 995.898026115284,762.5977827316937 1028.266294178691,748.4002741049809 1062.0947372037926,735.4162006322587 1097.271787060191,723.7388906883298 1133.6640026863408,713.4526800079689 1171.1183638290613,704.6304267871417 1209.4653325589848,697.3313731648 1248.5225552594165,691.5994435375154 1288.0990500116231,687.462051722672 1327.9997033220916,684.9294674075502 1368.0298868725738,683.9947685403102 1407.9999999999998,684.6343813697559 1447.7297471461738,686.8091848100926 1487.0519713996753,690.466131784664 1525.8158849626718,695.5403182348189 1563.8895640487513,701.9574115230666 1601.1616081851612,709.6363348385032 1637.5419007314033,718.4920935847767 1672.961447021703,728.4386240580573 1707.3713071568977,739.3915442498516 1740.740680331968,751.2706913552685 1773.0542349422385,764.0023403220489 1804.3088119268941,777.5210121112586 1834.509656426547,791.7707986290789 1863.666353640606,806.7061527303188 1891.7886578562006,822.2921153503889 1918.8824084070934,838.5039766592836 1944.9457225952217,855.3263930632854 1969.9656435280485,872.7520058182819 1993.9154009163672,890.7796289173998 2016.7524160064124,909.412092819065 2038.4171491587024,928.6538456647634 2058.832851559242,948.5084242412609 2077.906242772815,968.9759126081256 2095.529095060291,990.0505067927164 2111.5806653639565,1011.7182992325936 2125.9308783655906,1033.9553869285337 2138.4441306806884,1056.7263929873302 2148.9835585268506,1079.9834730093662 2157.41559030832,1103.6658564109234 2163.61459240721,1127.6999492020025" fill="none" stroke="#17353b" stroke-width="0.6" opacity="0.49"></polygon><polygon points="2060.7802303448534,1152 2059.221972305133,1172.9428552158756 2055.4378876008423,1193.757012035782 2049.4769555971243,1214.3454352731846 2041.409304680301,1234.6171183223043 2031.3237753736553,1254.4889945529821 2019.3248918366398,1273.8875102315849 2005.5293703272685,1292.7497942941343 1990.0623125753536,1311.0243779836458 1973.0532449475006,1328.671437107826 1954.6321702230175,1345.6625506113896 1934.9257974882503,1361.9799903725939 1914.0541071568387,1377.6155776971154 1892.1273928103356,1392.5691609934931 1869.243900100178,1406.8467857400806 1845.4881562986993,1420.458641365111 1820.9300534010058,1433.4168794663315 1795.624714304228,1445.7334034640699 1769.6131369859052,1457.4177310616176 1742.9235772824366,1468.475027721411 1715.57359833196,1478.904401890884 1687.5726854155878,1488.6975412527459 1658.9253000878741,1497.8377543297393 1629.634228216352,1506.2994639950743 1599.7040636915701,1514.048179602155 1569.1446636832172,1521.040953416543 1537.974412659429,1527.2273057273142 1506.223140893682,1532.5505823642702 1473.9345584818552,1536.9496892537459 1441.1680873088615,1540.361131943045 1408,1542.721274441695 1374.5238055003983,1543.9687218604683 1340.8498542047391,1544.046725608136 1307.1041700500944,1542.905508581966 1273.4265511753306,1540.5044109199148 1239.968013142434,1536.813764334725 1206.8876778881968,1531.8164144985853 1174.3492362495308,1525.5088258931808 1142.5171309997193,1517.9017213326845 1111.5526200074266,1509.0202282313262 1081.6098848275738,1498.9035247569616 1052.83234850047,1487.604000369539 1025.3493576365686,1475.185965958048 999.2733683759063,1461.7239679591833 974.697754207941,1447.3007776310662 951.6953268608343,1432.0051403353973 930.3176306875362,1415.9293796569398 910.5950375330032,1399.1669570277015 892.5376344229281,1381.810088972857 876.1368620827975,1363.9475210964256 861.3678297769824,1345.6625506113896 848.192202672192,1327.0313779142343 836.5615331582854,1308.121852904997 826.4208883856162,1288.9926641106472 817.7126135408863,1269.6929989558434 810.3800646411596,1250.2626826050866 804.3711461309857,1230.7327815906085 799.6414972568587,1211.1266378701914 796.1571866890907,1191.4612799292674 793.8967964889463,1171.7491408854235 792.8528033360798,1152 793.0321957687978,1132.2230541441186 794.4562997026593,1112.4290200366072 797.1598192197663,1092.632166719622 801.1891340470818,1072.852180823274 806.5999277656335,1053.1157745580258 813.4542501905986,1033.4579577394277 821.8171422529183,1013.9229099961041 831.7529710110183,994.5644069885847 843.321635285313,975.4457741993683 856.5748082783803,956.6393627791524 871.5523821652222,938.2255631337553 888.2792710726404,920.2913924819281 906.762713489939,902.9287116054174 926.9901936377418,886.2321426163988 948.9280746083845,870.2967730551451 972.5210053475982,855.2157414098367 997.6921301162528,841.0778047901903 1024.3440944130068,827.9649907372232 1052.360806967292,815.9504319550073 1081.609884827573,805.0964752430385 1111.9456791943971,795.4531444145854 1143.212754762589,787.05702200617 1175.2496760269694,779.9305967676323 1207.8929411117583,774.0821040466295 1240.9808977655107,769.5058651116206 1274.3574774758235,766.1831101114753 1307.8755921397283,764.0832486781643 1341.4000530017177,763.1655330434971 1374.809892969702,763.3810417957484 1407.9999999999998,764.6748987772205 1440.8819998395575,766.9886317131718 1473.3843596848762,770.2625693978873 1505.4517188040481,774.4381748958599 1537.0434863589358,779.460215304076 1568.1317790601408,785.2786760298025 1598.6988004680084,791.8503389430599 1628.7337884389133,799.1399586657387 1658.229676325004,807.120989009115 1687.179626228617,815.7758313931656 1715.57359833196,825.0955981091159 1743.3951188156143,835.0794046031355 1770.6184002094665,845.7332256336535 1797.205952563881,857.0683692853033 1823.1068022613483,869.0996395745713 1848.255408551149,881.8432720254311 1872.5713371499721,895.3147365332579 1895.9597168533996,909.5265076396258 1918.3124705071264,924.4859037576696 1939.5102774058255,940.193093857587 1959.4251917216197,956.6393627791523 1977.9238123343794,973.8057150057764 1994.8708747226206,991.6618819099359 2010.1331164599662,1010.1657798126166 2023.5832551869278,1029.263446463686 2035.1039122491811,1048.88946261013 2044.5913167642047,1068.967844091578 2051.9586336342163,1089.4133693166289 2057.138774587274,1110.1332879300921 2060.0865730252817,1131.0293398136664" fill="none" stroke="#17353b" stroke-width="0.6" opacity="0.43000000000000005"></polygon><polygon points="1933.600400257434,1152 1930.584204321773,1168.805952186279 1926.0473458776041,1185.4118680281076 1920.0750030649774,1201.7688010146603 1912.7565206120164,1217.8366223533858 1904.1821919939957,1233.5839471903266 1894.4401613177986,1248.987675344849 1883.6135756108627,1264.0321715634864 1871.7781068194859,1278.7081262023019 1858.999946273373,1293.0111513492363 1845.334353375552,1306.9401790789918 1830.8248157473986,1320.4957372805652 1815.502851069525,1333.678183927432 1799.3884525898754,1346.4859825334754 1782.4911519553216,1358.9140997706106 1764.8116458987165,1370.952600892394 1746.343908563811,1382.5855099435048 1727.0776899555908,1393.7899901154128 1707.001284092069,1404.5358855407658 1686.104438642281,1414.785649917214 1664.3812716769332,1424.4946703101439 1641.8330608993674,1433.611977047708 1618.4707763736799,1442.0813135527567 1594.3172390741263,1449.8425240011495 1569.4088040481663,1456.8332025523423 1543.796487891824,1462.9905361851336 1517.5464846637587,1468.2532644020284 1490.7400412428574,1472.5636736244749 1463.4726912856972,1475.8695422276123 1435.8528751316549,1478.1259539409089 1408,1479.2969026944054 1380.042019442638,1479.3566206875576 1352.1126321799684,1478.2905731210967 1324.3482172286112,1476.0960771547577 1296.8846338932976,1472.7825186205791 1269.8540212297482,1468.3711571377632 1243.3817317259418,1462.894527795567 1217.5835281887107,1456.395464732624 1192.563161412314,1448.9257879973516 1168.4104296438754,1440.5447093259247 1145.199799871283,1431.317024301809 1122.9896464599806,1421.311167249965 1101.8221357274829,1410.5972107839902 1081.7237568467006,1399.2448939250821 1062.7064712449046,1387.3217610630331 1044.7694256494997,1374.891488805989 1027.901149307174,1362.012469198025 1012.0821347477131,1348.73670624829 997.2876847045832,1335.1090687185683 983.4908961761073,1321.1669262710698 970.6656466244481,1306.9401790789918 958.789447228828,1292.4516735930922 947.8460339407403,1277.7179800999538 937.8275785800803,1262.7504917480185 928.7364188626497,1247.5567905537125 920.5862273362159,1232.1422141512917 913.4025638051598,1216.5115482296899 907.2227828698942,1200.670764092855 902.0952965168503,1184.6287188267374 898.0782200327227,1168.3987372408137 895.2374566461336,1152 893.6443010368304,1135.4586709433097 893.3726631171139,1118.8087081221145 894.4960303540491,1102.0923170774172 897.0842986277308,1085.3600206989372 901.2006076983009,1068.6703369754719 906.8983175168541,1052.0890733121819 914.2182558553347,1035.6882630949249 923.1863562989821,1019.5447860789678 933.8117890402659,1003.738728272185 946.085665859777,988.3515486527972 959.9803760954269,973.4641287964021 975.4495833587875,959.1547869022836 992.4288844357807,945.4973395657858 1010.8371034431084,932.5592928583753 1030.578167138341,920.4002389258002 1051.5434824846125,909.070525629192 1073.6147162304671,898.6102551117638 1096.6668593103454,889.0486530819043 1120.5714470384592,880.4038346762311 1145.1997998712827,872.6829756981913 1170.4261492182463,865.8828805637561 1196.130518394913,859.9909211879021 1222.2012400883223,854.9863050602576 1248.5370081430792,850.8416165835811 1275.0483823565046,847.5245640036844 1301.6586893750273,844.9998554571259 1328.304289641424,843.2311221882235 1354.9342084759305,842.1828050791297 1381.5091575505198,841.8219223796939 1408,842.1196418420164 1434.3857370237731,843.0525891263426 1460.6511149897349,844.6038359726142 1486.7839688300444,846.7635257185063 1512.7724291820286,849.5291096756766 1538.6021267650676,852.9051849563142 1564.2535276310289,856.9029418268055 1589.6995271745147,861.5392457917321 1614.9034193910804,866.8353956324968 1639.8173413249965,872.8156128419726 1664.3812716769332,879.5053296898561 1688.5226380638019,886.9293520089823 1712.1565605092062,895.1099783251286 1735.186730571824,904.0651589214331 1757.506897324103,913.8067767487205 1779.0029044098749,924.3391268393948 1799.5551978193869,935.6576622857895 1819.041702901808,947.7480632806004 1837.3409524153203,960.58567169342 1854.3353358280792,974.1353177869065 1869.9143341402228,988.3515486527971 1883.977604461935,1003.1792505160404 1896.437784461244,1018.5546399766197 1907.222898335608,1034.4065832794565 1916.278262663594,1050.6581885210453 1923.5678116319104,1067.2286039364365 1929.0747857894455,1084.0349465752408 1932.8017555808224,1100.994280155612 1934.7699792773406,1118.025558920744 1935.0181233176654,1135.0514559978442" fill="none" stroke="#17353b" stroke-width="0.6" opacity="0.37"></polygon><polygon points="1792.5155796172787,1152 1790.5298966032315,1164.3019010122582 1787.695726239665,1176.488772304131 1784.0562150947687,1188.5490735289866 1779.6475445680012,1200.474894411704 1774.4977969787055,1212.260802174141 1768.6262765377674,1223.9025833206567 1762.0433123118214,1235.3959397708097 1754.7505491132997,1246.7352013640145 1746.7417108313493,1257.912116063502 1738.0037999928204,1268.9147757842104 1728.5186782132325,1279.7267298095267 1718.2649554990946,1290.3263295053214 1707.2201028230425,1300.6863378472917 1695.36269260183,1310.7738255948439 1682.6746660901567,1320.5503632825962 1669.143525504186,1329.972505113006 1654.7643519578723,1338.992547893381 1639.5415578880904,1347.5595359341416 1623.4902942274134,1355.6204718481367 1606.6374476483204,1363.1216839441531 1589.0221810896578,1370.0102937971021 1570.6959907021906,1376.2357229151196 1551.72227344301,1381.7511754154905 1532.1754208855052,1386.5150343566008 1512.1394754592372,1390.4921128218416 1491.7064043894034,1393.6547068649386 1470.97406323546,1395.9834057438518 1450.0439344059955,1397.4676251308604 1429.0187357631846,1398.1058407435294 1408,1397.9055125833024 1387.0857266339494,1396.882703140849 1366.3682051626367,1395.0614059564691 1345.9321003141026,1392.4726132425546 1325.8528787327234,1389.1531623469818 1306.1956413775385,1385.1444101794702 1287.0144080343355,1380.490791930897 1268.35188043871,1375.2383251750584 1250.2396894465926,1369.433122547013 1232.6991103939374,1363.1199755514078 1215.7422101913608,1356.3410686973966 1199.3733707048987,1349.1348772317504 1183.5911164132676,1341.535293508438 1168.390160931169,1333.5710168519513 1153.7635773353559,1325.2652300884652 1139.7049917495242,1316.6355732446102 1126.2106985774012,1307.6944118022911 1113.2815991694254,1298.4493839226561 1100.9248734207458,1288.9041987799171 1089.1553054917113,1279.0596471122599 1077.9962000071796,1268.9147757842104 1067.4798430665728,1258.4681709689155 1057.6474823982278,1247.7192898130015 1048.548822146148,1236.6697783474715 1040.2410491608746,1225.324714046061 1032.7874283448377,1213.693714778526 1026.2555236726164,1201.7918618128667 1020.7151181344699,1189.640392727989 1016.2359193101938,1177.2671302465342 1012.8851469808614,1164.7066246415663 1010.7251047033593,1152 1009.8108383643867,1139.194507686608 1010.1879813474113,1126.3428032727425 1011.8908782339549,1113.5019754073708 1014.9410672544083,1100.7323660793531 1019.3461865125546,1088.0962309681954 1025.0993509934015,1075.6562957002186 1032.1790273102347,1063.4742685057736 1040.5494119274367,1051.609371805189 1050.1612971347245,1040.1169545466778 1060.953388280665,1029.0472437083488 1072.8540166028529,1018.44428740706 1085.7831752532727,1008.3451337893549 1099.6547925381624,998.7792796750103 1114.379146562036,989.7684112273954 1129.8653198114728,981.3264462479492 1146.023590979455,973.4598745885871 1162.7676645660065,966.1683802185684 1180.01664635096,959.4457162378418 1197.6966843863565,953.2807931326764 1215.7422101913603,947.6589313026034 1234.0967326918699,942.5632217559914 1252.7131573470674,937.9759341874309 1271.553623974062,933.8799096190622 1290.588878096643,930.2598754998309 1309.7972112717703,927.1036245812488 1329.1630248848312,924.403004877052 1348.675088518753,922.1546763065342 1368.3245774659542,920.3605998560683 1388.1029836769396,919.0282368242382 1408,918.170448431579 1428.0014787201944,917.8050992215578 1448.0875621026778,917.9543806816771 1468.2310750308095,918.643883805237 1488.3962582372956,919.9014603590952 1508.5379055650053,921.7559219388777 1528.6009508231973,924.2356330741271 1548.5205299076579,927.3670593786303 1568.2225228017155,931.1733338193244 1587.6245587917253,935.672903510297 1606.6374476483204,940.878316055847 1625.1669805459553,946.7951985162899 1643.116027950398,953.4214738121381 1660.3868483230347,960.7468491771385 1676.8835118600866,968.7525995640462 1692.5143380282082,977.4116562099631 1707.194244617195,986.6889974348428 1720.8469094543054,996.5423257503747 1733.4066536665678,1006.9230030639505 1744.8199671020907,1017.7772047097931 1755.046611719335,1029.0472437083488 1764.0602567631977,1040.673009452091 1771.8486195840908,1052.5934602541759 1778.413107147735,1064.748107082435 1783.7679747052405,1077.0784264256229 1787.9390388109887,1089.5291435725806 1790.9620009862092,1102.0493334805155 1792.8804549952838,1114.593294606373 1793.7436642024477,1127.121161215145 1793.6042052197063,1139.5992313159159" fill="none" stroke="#17353b" stroke-width="0.6" opacity="0.31"></polygon><polygon points="1621.3170958684098,1152 1621.1104268040588,1158.8534862203016 1620.4786251941027,1165.703974820588 1619.4141182355365,1172.5474337141568 1617.9048445046578,1179.3784001067352 1615.9349172381549,1186.189359434302 1613.4855093301385,1192.9702229622487 1610.5359212128308,1199.7079297914102 1607.0647847438136,1206.386193519848 1603.0513502221477,1212.9854074137215 1598.4767999606825,1219.4827149262571 1593.3255306132348,1225.8522450778862 1587.5863477460014,1232.0655048940682 1581.2535198956389,1238.0919141106974 1574.3276454073946,1243.8994610066043 1566.816293430719,1249.455452787032 1558.7343902134228,1254.727329659698 1550.1043328518758,1259.6835088043747 1540.9558244426025,1264.294222967539 1531.3254366249173,1268.53231848086 1521.255917278965,1272.3739791044227 1510.7952721345712,1275.7993451637365 1499.9956587739505,1278.7930018508541 1488.9121395512148,1281.3443161031341 1477.6013459533117,1283.4476079171627 1466.1201106292124,1285.1021490196158 1454.524124556248,1286.3119891936394 1442.8666755413917,1287.0856179272932 1431.1975205279286,1287.4354760886276 1419.561938158647,1287.3773387333072 1408,1286.9295956363758 1396.5460891108164,1286.1124604706902 1385.228683670507,1284.9471425420911 1374.0704116462691,1283.4550165054104 1363.0883704910157,1281.6568254602303 1352.2946941491186,1279.5719512622645 1341.6973387190685,1277.2177828538913 1331.3010484598901,1274.609209048335 1321.1084558552993,1271.7582566872416 1311.1212635159045,1268.6738886718472 1301.3414520657952,1265.3619693240048 1291.7724569855343,1261.8253971725492 1282.4202587211757,1258.0643979042675 1273.2943341608386,1254.0769631881003 1264.408423661526,1249.8594146829578 1255.7810759140411,1245.4070670527476 1247.4359427091204,1240.7149594760592 1239.401806686239,1235.778622141301 1231.7123369263786,1230.5948426912041 1224.405579276379,1225.1623975895154 1217.5232000393175,1219.4827149262571 1211.1095126187752,1213.560438187968 1205.2103263853705,1207.4038648635203 1199.8716650176307,1201.0252392438965 1195.138407506083,1194.4408851651126 1191.0529086387542,1187.6711714573687 1187.6536569480133,1180.7403101932664 1184.9740267406441,1173.6759951526815 1183.041177012869,1166.5088949209292 1181.875143935014,1159.2720214038798 1181.48816544207,1152 1181.8842666408013,1144.7282719761267 1183.0591236686992,1137.49226256265 1185.0002117970107,1130.3265497847829 1187.6872314748177,1123.264069014038 1191.0927941902555,1116.335386659347 1195.1833389930405,1109.568073388922 1199.9202407596006,1102.9862029144801 1205.2610632130275,1096.6099968696392 1211.1609036854873,1090.4556299148026 1217.5737728921338,1084.535202181812 1224.453951733748,1078.8568788402608 1231.7572684133363,1073.4251892445975 1239.44224288287,1068.2414711276233 1247.4710516658033,1063.3044389479837 1255.810274164228,1058.6108500553219 1264.431391303078,1054.1562380455398 1273.3110183609401,1049.9356797283574 1282.430865606428,1045.9445606497673 1291.7774323858243,1042.1793041684477 1301.341452065795,1038.6380306759952 1311.117116210407,1035.3211166071494 1321.1011160847213,1032.2316272751445 1331.2915476036248,1029.375603097743 1341.6867318338163,1026.762185210307 1352.284006847804,1024.4035735129503 1363.0785479607407,1022.314817561692 1374.0622721009302,1020.5134480672889 1385.2228783298074,1019.018963788948 1396.5430705014735,1017.8521949967629 1408,1017.0345701474855 1419.56495676799,1016.5873167341459 1431.203325868628,1016.5306302424115 1442.8748150867305,1016.8828466454061 1454.5339470865226,1017.6596538282831 1466.1307979305268,1018.873375755599 1477.6119528385636,1020.5323601470357 1488.92164040748,1022.6404960429438 1500.0029985445283,1025.1968821115317 1510.7994194400687,1028.1956601152601 1521.255917278965,1031.6260208955773 1531.3204612246273,1035.4723828601368 1540.9452175573506,1039.7147355864956 1550.0876486517743,1044.329134112083 1558.7114225718708,1049.2883230687996 1566.7870951805319,1054.5624643210372 1574.2925364507116,1060.1199374174385 1581.213083699008,1065.9281791582266 1587.541416259044,1071.9545270417334 1593.2771581558657,1078.1670313518903 1598.4262271078662,1084.535202181812 1602.9999591554354,1091.0306606890488 1607.0140479161566,1097.6276682133116 1610.4873454708609,1104.3035123669663 1613.440577843181,1111.038735591786 1615.8950316866533,1117.8171986824136 1617.8712699778534,1124.6259791005689 1619.38793317917,1131.4551112233075 1620.4606785382728,1138.2971826629912 1621.1013040982714,1145.146807159705" fill="none" stroke="#17353b" stroke-width="0.6" opacity="0.25"></polygon><line x1="-281.5999999999999" y1="1152" x2="3097.6" y2="1152" stroke="#17353b" stroke-width="0.35" stroke-dasharray="2 4" opacity="0.45"></line><line x1="0" y1="1148" x2="0" y2="1156" stroke="#17353b" stroke-width="0.5" opacity="0.6"></line><text x="0" y="1166" font-family="&#39;JetBrains Mono&#39;, monospace" font-size="27.200000000000003" fill="#17353b" opacity="0.55" text-anchor="middle">−2σ</text><line x1="704" y1="1148" x2="704" y2="1156" stroke="#17353b" stroke-width="0.5" opacity="0.6"></line><text x="704" y="1166" font-family="&#39;JetBrains Mono&#39;, monospace" font-size="27.200000000000003" fill="#17353b" opacity="0.55" text-anchor="middle">−σ</text><line x1="2112" y1="1148" x2="2112" y2="1156" stroke="#17353b" stroke-width="0.5" opacity="0.6"></line><text x="2112" y="1166" font-family="&#39;JetBrains Mono&#39;, monospace" font-size="27.200000000000003" fill="#17353b" opacity="0.55" text-anchor="middle">+σ</text><line x1="2816" y1="1148" x2="2816" y2="1156" stroke="#17353b" stroke-width="0.5" opacity="0.6"></line><text x="2816" y="1166" font-family="&#39;JetBrains Mono&#39;, monospace" font-size="27.200000000000003" fill="#17353b" opacity="0.55" text-anchor="middle">+2σ</text><circle cx="1408" cy="1152" r="2.5" fill="#17353b"></circle><text x="1408" y="1144" font-family="&#39;JetBrains Mono&#39;, monospace" font-size="28.799999999999997" fill="#17353b" opacity="0.7" text-anchor="middle" letter-spacing="2">μ</text><path d="M-160.0,2183.1 L-128.0,2140.7 L-96.0,2098.1 L-64.0,2055.2 L-32.0,2012.2 L0.0,1969.0 L32.0,1925.8 L64.0,1882.7 L96.0,1839.7 L128.0,1796.8 L160.0,1754.2 L192.0,1711.9 L224.0,1669.9 L256.0,1628.5 L288.0,1587.5 L320.0,1547.2 L352.0,1507.5 L384.0,1468.6 L416.0,1430.4 L448.0,1393.2 L480.0,1356.9 L512.0,1321.7 L544.0,1287.5 L576.0,1254.5 L608.0,1222.7 L640.0,1192.2 L672.0,1162.9 L704.0,1135.1 L736.0,1108.7 L768.0,1083.7 L800.0,1060.3 L832.0,1038.4 L864.0,1018.1 L896.0,999.4 L928.0,982.3 L960.0,967.0 L992.0,953.3 L1024.0,941.3 L1056.0,931.1 L1088.0,922.7 L1120.0,916.0 L1152.0,911.1 L1184.0,908.0 L1216.0,906.8 L1248.0,907.3 L1280.0,909.7 L1312.0,913.9 L1344.0,920.0 L1376.0,927.8 L1408.0,937.5 L1440.0,949.1 L1472.0,962.4 L1504.0,977.6 L1536.0,994.6 L1568.0,1013.3 L1600.0,1033.9 L1632.0,1056.1 L1664.0,1080.1 L1696.0,1105.7 L1728.0,1133.0 L1760.0,1161.9 L1792.0,1192.4 L1824.0,1224.3 L1856.0,1257.8 L1888.0,1292.6 L1920.0,1328.7 L1952.0,1366.2 L1984.0,1404.8 L2016.0,1444.6 L2048.0,1485.4 L2080.0,1527.2 L2112.0,1569.9 L2144.0,1613.4 L2176.0,1657.6 L2208.0,1702.5 L2240.0,1748.0 L2272.0,1793.9 L2304.0,1840.2 L2336.0,1886.8 L2368.0,1933.7 L2400.0,1980.6 L2432.0,2027.6 L2464.0,2074.5 L2496.0,2121.3 L2528.0,2167.9 L2560.0,2214.2 L2592.0,2260.1 L2624.0,2305.6 L2656.0,2350.5 L2688.0,2394.7 L2720.0,2438.3 L2752.0,2481.1 L2784.0,2523.0 L2816.0,2563.9 L2848.0,2603.8 L2880.0,2642.7 L2912.0,2680.3 L2944.0,2716.7 L2976.0,2751.8 L3008.0,2785.4 L3040.0,2817.6 L3072.0,2848.3 L3104.0,2877.3 L3136.0,2904.7 L3168.0,2930.3 L3200.0,2954.1 L3232.0,2976.1 L3264.0,2996.2 L3296.0,3014.3 L3328.0,3030.4" fill="none" stroke="#17353b" stroke-width="2.2" opacity="0.28" stroke-linecap="round"></path><path d="M-160.0,2183.1 L-128.0,2140.7 L-96.0,2098.1 L-64.0,2055.2 L-32.0,2012.2 L0.0,1969.0 L32.0,1925.8 L64.0,1882.7 L96.0,1839.7 L128.0,1796.8 L160.0,1754.2 L192.0,1711.9 L224.0,1669.9 L256.0,1628.5 L288.0,1587.5 L320.0,1547.2 L352.0,1507.5 L384.0,1468.6 L416.0,1430.4 L448.0,1393.2 L480.0,1356.9 L512.0,1321.7 L544.0,1287.5 L576.0,1254.5 L608.0,1222.7 L640.0,1192.2 L672.0,1162.9 L704.0,1135.1 L736.0,1108.7 L768.0,1083.7 L800.0,1060.3 L832.0,1038.4 L864.0,1018.1 L896.0,999.4 L928.0,982.3 L960.0,967.0 L992.0,953.3 L1024.0,941.3 L1056.0,931.1 L1088.0,922.7 L1120.0,916.0 L1152.0,911.1 L1184.0,908.0 L1216.0,906.8 L1248.0,907.3 L1280.0,909.7 L1312.0,913.9 L1344.0,920.0 L1376.0,927.8 L1408.0,937.5 L1440.0,949.1 L1472.0,962.4 L1504.0,977.6 L1536.0,994.6 L1568.0,1013.3 L1600.0,1033.9 L1632.0,1056.1 L1664.0,1080.1 L1696.0,1105.7 L1728.0,1133.0 L1760.0,1161.9 L1792.0,1192.4 L1824.0,1224.3 L1856.0,1257.8 L1888.0,1292.6 L1920.0,1328.7 L1952.0,1366.2 L1984.0,1404.8 L2016.0,1444.6 L2048.0,1485.4 L2080.0,1527.2 L2112.0,1569.9 L2144.0,1613.4 L2176.0,1657.6 L2208.0,1702.5 L2240.0,1748.0 L2272.0,1793.9 L2304.0,1840.2 L2336.0,1886.8 L2368.0,1933.7 L2400.0,1980.6 L2432.0,2027.6 L2464.0,2074.5 L2496.0,2121.3 L2528.0,2167.9 L2560.0,2214.2 L2592.0,2260.1 L2624.0,2305.6 L2656.0,2350.5 L2688.0,2394.7 L2720.0,2438.3 L2752.0,2481.1 L2784.0,2523.0 L2816.0,2563.9 L2848.0,2603.8 L2880.0,2642.7 L2912.0,2680.3 L2944.0,2716.7 L2976.0,2751.8 L3008.0,2785.4 L3040.0,2817.6 L3072.0,2848.3 L3104.0,2877.3 L3136.0,2904.7 L3168.0,2930.3 L3200.0,2954.1 L3232.0,2976.1 L3264.0,2996.2 L3296.0,3014.3 L3328.0,3030.4" fill="none" stroke="#17353b" stroke-width="1.35" opacity="0.92" stroke-linecap="round"></path><circle cx="256" cy="1628.4521170383273" r="2" fill="#17353b"></circle><text x="256" y="1618.4521170383273" font-family="&#39;JetBrains Mono&#39;, monospace" font-size="35.199999999999996" fill="#17353b" text-anchor="middle" letter-spacing="1">A</text><circle cx="896.0000000000002" cy="999.3778946367785" r="2" fill="#17353b"></circle><text x="896.0000000000002" y="989.3778946367785" font-family="&#39;JetBrains Mono&#39;, monospace" font-size="35.199999999999996" fill="#17353b" text-anchor="middle" letter-spacing="1">G</text><circle cx="2208.0000000000014" cy="1702.5278085387165" r="2" fill="#17353b"></circle><text x="2208.0000000000014" y="1692.5278085387165" font-family="&#39;JetBrains Mono&#39;, monospace" font-size="35.199999999999996" fill="#17353b" text-anchor="middle" letter-spacing="1">C</text><circle cx="2912.000000000002" cy="2680.3188472931743" r="2" fill="#17353b"></circle><text x="2912.000000000002" y="2670.3188472931743" font-family="&#39;JetBrains Mono&#39;, monospace" font-size="35.199999999999996" fill="#17353b" text-anchor="middle" letter-spacing="1">T</text><circle cx="1440.0000000000007" cy="949.0871199791529" r="6" fill="#c88a4a"></circle><circle cx="1440.0000000000007" cy="949.0871199791529" r="13" fill="none" stroke="#c88a4a" stroke-width="0.9"></circle></g>
<g font-family="&#39;JetBrains Mono&#39;, &#39;Courier New&#39;, monospace" fill="#17353b">
    <text x="190" y="204" font-size="33.6" letter-spacing="2.5">PLATE I</text>
    <text x="3010" y="204" font-size="33.6" letter-spacing="2.5" text-anchor="end">DIST. N(μ,σ²) · n = 10⁴</text>
    <text x="190" y="2262.72" font-size="33.6" letter-spacing="2">DENIZ FRAEMKE · BIOSOCIAL PERSPECTIVES</text>
    <text x="3010" y="2262.72" font-size="28.799999999999997" letter-spacing="2.5" text-anchor="end" opacity="0.72">AGCTAGG·CTAGC·CATGA·GGTCA·TCGAT·AGCTC·CGATA·GCTAG</text>
  </g>
<text x="1600" y="2338.4" font-family="&#39;Fraunces&#39;, &#39;Times New Roman&#39;, serif" fill="#17353b" font-size="49.6" text-anchor="middle" font-style="italic">A cognitive trajectory crossing a biosocial terrain.</text>
</svg>