<?xml version="1.0" encoding="UTF-8"?>
<svg xmlns="http://www.w3.org/2000/svg" xmlns:xlink="http://www.w3.org/1999/xlink" viewBox="0 0 900 1125" preserveAspectRatio="xMidYMid meet" style="display: block; background: rgb(247, 243, 236);"><defs><pattern id="ap-grid-mobile-hero" width="24" height="24" patternUnits="userSpaceOnUse"><path d="M24 0H0v24" fill="none" stroke="#17353b" stroke-width="0.35" opacity="0.07"></path></pattern><clipPath id="ap-clip-mobile-hero"><rect x="60" y="60" width="780" height="1005"></rect></clipPath></defs><rect x="50" y="50" width="800" height="1025" fill="none" stroke="#17353b" stroke-width="1"></rect><rect x="56" y="56" width="788" height="1013" fill="none" stroke="#17353b" stroke-width="0.4"></rect><rect x="60" y="60" width="780" height="1005" fill="url(#ap-grid-mobile-hero)"></rect><g clip-path="url(#ap-clip-mobile-hero)"><g><polygon points="1218.4279772413183,810 1212.8073173573223,841.9828135448548 1204.9859020132528,873.2262690681177 1195.0985943353419,903.5519251733004 1183.297732906256,932.805177632087 1169.7491172041487,960.8573949094404 1154.6277376655225,987.607310633852 1138.113373534561,1012.9816399722513 1120.386185087521,1036.9349095195782 1101.6224265463527,1059.4485132428497 1081.9904020303738,1080.5290295574064 1061.646779356132,1100.2058560991686 1040.7333656057667,1118.5282385622693 1019.3744344635026,1135.5617875168316 997.674678777452,1151.3845918936208 975.7178431254945,1166.0830493888654 953.5660708979144,1179.747542065706 931.2599791505307,1192.4680896743537 908.8194528540229,1204.330113557698 886.2451288025879,1215.4104404437137 863.5205189746656,1225.77366805606 840.6147041607518,1235.4690035167825 817.4855117449692,1244.5276712921118 794.0830771447033,1252.9609703618844 770.3536769981721,1260.7590408763751 746.2437140782142,1267.8903793713685 721.7037293399584,1274.3021192652877 696.6923156146634,1279.921070517054 671.1798102684555,1284.6554896506923 645.1516505709767,1288.397529518068 618.611285376996,1291.0262978155588 591.582549725156,1292.4114350916484 564.111424721357,1292.4171073172693 536.2671231379932,1290.90629549953 508.1424609950251,1287.7452556725582 479.853496413425,1282.8080171659276 451.53843862965414,1275.9807854921219 423.3558515984129,1267.1661185568455 395.48219745853,1256.2867511118677 368.108784682227,1243.2889522588612 341.43820339791506,1228.1453140859942 315.6803456527902,1210.856885789406 291.0481208155108,1191.454586423827 267.75298554601324,1169.9998501912376 246.0004135078375,1146.584480306587 225.98543209876595,1121.3297103280881 207.88835186550267,1094.3844947382663 191.87080899355016,1065.9230728410741 178.07223247769315,1036.1418710483365 166.6068355376325,1005.2558277510793 157.56121589877966,973.4942416486707 150.99263214640018,941.096258153373 146.92800399086127,908.306118897983 145.36366351866786,875.3683061453892 146.26586295503444,842.5227168333441 149.57202275868178,810.0000000000001 155.1926826426776,778.0171864551453 163.01409798674717,746.7737309318823 172.90140566465806,716.4480748266998 184.7022670937439,687.1948223679132 198.25088279585145,659.1426050905598 213.37226233447745,632.3926893661479 229.88662646543878,607.0183600277489 247.6138149124793,583.0650904804216 266.37757345364713,560.5514867571504 286.0095979696261,539.4709704425936 306.35322064386816,519.7941439008314 327.2666343942333,501.47176143773066 348.62556553649733,484.43821248316857 370.32532122254804,468.6154081063792 392.2821568745054,453.9169506111346 414.4339291020858,440.2524579342939 436.7400208494694,427.5319103256464 459.18054714597724,415.6698864423018 481.754871197412,404.5895595562864 504.47948102533405,394.2263319439403 527.385295839248,384.5309964832176 550.5144882550308,375.4723287078883 573.9169228552968,367.0390296381155 597.6463230018278,359.24095912362486 621.7562859217859,352.10962062863166 646.2962706600414,345.69788073471244 671.3076843853365,340.07892948294597 696.8201897315445,335.3445103493076 722.8483494290235,331.6024704819319 749.388714623004,328.9737021844412 776.4174502748442,327.58856490835143 803.8885752786429,327.5828926827305 831.7328768620067,329.0937045004701 859.8575390049751,332.2547443274418 888.1465035865754,337.1919828340725 916.4615613703459,344.019214507878 944.6441484015868,352.8338814431542 972.51780254147,363.7132488881323 999.8912153177725,376.7110477411385 1026.5617966020852,391.85468591400576 1052.31965434721,409.1431142105937 1076.9518791844891,428.54541357617273 1100.2470144539866,450.0001498087623 1121.9995864921625,473.415519693413 1142.0145679012337,498.6702896719115 1160.1116481344973,525.6155052617337 1176.12919100645,554.0769271589259 1189.927767522307,583.8581289516637 1201.3931644623674,614.7441722489206 1210.4387841012203,646.5057583513295 1217.0073678535996,678.9037418466266 1221.0719960091387,711.6938811020169 1222.6363364813321,744.6316938546111 1221.7341370449653,777.4772831666561" fill="none" stroke="#17353b" stroke-width="0.45" opacity="0.55"></polygon><polygon points="1082.1678334649428,810 1076.095291770785,833.7143288243245 1068.94907818013,856.7169915740285 1060.8517607287026,878.9792695809812 1051.92008965494,900.4920831534625 1042.2619703608013,921.2641600973599 1031.9738040271723,941.319696137886 1021.1382721479174,960.6955825708296 1009.8226278944263,979.438289082922 998.0775420339357,997.6004996935626 985.9365345460051,1015.2376068918949 973.4160055990048,1032.4041730657943 960.515861675528,1049.150469125335 947.2207148967946,1065.5191977896113 933.5016165120383,1081.5425034042742 919.3182695908918,1097.239361552488 904.6216516524412,1112.6134303669803 889.3569657037551,1127.6514316788025 873.4668283033033,1142.322114353556 856.8945961002689,1156.575834831435 839.5877280399216,1170.344771512141 821.5010791934285,1183.5437707487695 802.6000240044345,1196.0718033901362 782.8633115912558,1207.8139925911314 762.2855634611542,1218.6441565303985 740.8793343562278,1228.4277942353674 718.6766696557775,1237.0254293698345 695.7301074357435,1244.296215980987 672.1130895022525,1250.1017021502853 647.9197629986629,1254.3096424830528 623.2641720275886,1256.7977485529825 598.2788566085942,1257.4572678445913 573.1128936848663,1256.1962863684037 547.9294312885653,1252.9426578259447 522.9027818943034,1247.6464727501198 498.21515399601543,1240.2819941335388 474.05311165309035,1230.8490013007358 450.60385985292703,1219.3735007347557 428.05145879131425,1205.9077807388612 406.57307242481625,1190.529805669095 386.3353558341226,1173.3419644620085 367.4910820773491,1154.4692067489984 350.17610241997943,1134.0566174516036 334.50672430170823,1112.2664968763113 320.577579418193,1089.2750275016028 308.46004020779054,1065.2686204599986 298.2012272515258,1040.440043818723 289.8236330801982,1014.9844408886615 283.32537013310133,989.0953497639465 278.68103264721043,962.9608350274948 275.84314459914657,936.7598390597262 274.74414899084553,910.6588537616819 275.29887825560314,884.809003944529 277.4074318173711,859.343621425591 280.9583752642655,834.3763743647824 285.8321665350574,810 291.9047082292151,786.2856711756756 299.0509218198701,763.2830084259714 307.1482392712973,741.020730419019 316.07991034505994,719.5079168465375 325.73802963919866,698.7358399026402 336.0261959728276,678.680303862114 346.8617278520825,659.3044174291706 358.17737210557374,640.561710917078 369.9224579660641,622.3995003064375 382.0634654539949,604.7623931081051 394.58399440099515,587.5958269342057 407.4841383244721,570.849530874665 420.77928510320544,554.4808022103889 434.49838348796175,538.4574965957258 448.68173040910824,522.7606384475123 463.378348347559,507.38656963301946 478.64303429624493,492.3485683211974 494.53317169669685,477.677885646444 511.10540389973096,463.424165168565 528.4122719600782,449.65522848785923 546.4989208065713,436.45622925123064 565.3999759955655,423.9281966098637 585.1366884087444,412.18600740886853 605.7144365388456,401.3558434696016 627.1206656437722,391.5722057646325 649.3233303442223,382.97457063016554 672.2698925642563,375.7037840190131 695.8869104977476,369.8982978497146 720.0802370013373,365.69035751694713 744.7358279724114,363.2022514470175 769.721143391406,362.54273215540866 794.8871063151336,363.8037136315963 820.0705687114347,367.0573421740552 845.0972181056967,372.35352724988036 869.7848460039849,379.7180058664613 893.9468883469096,389.15099869926405 917.3961401470727,400.6264992652441 939.9485412086857,414.0922192611388 961.4269275751833,429.470194330905 981.6646441658776,446.6580355379916 1000.5089179226509,465.5307932510016 1017.8238975800206,485.94338254839624 1033.4932756982917,507.7335031236884 1047.422420581807,530.7249724983972 1059.5399597922092,554.731379540001 1069.7987727484742,579.5599561812768 1078.1763669198017,605.0155591113387 1084.6746298668986,630.9046502360537 1089.3189673527895,657.0391649725052 1092.1568554008534,683.2401609402739 1093.2558510091544,709.3411462383178 1092.701121744397,735.1909960554709 1090.5925681826288,760.6563785744091 1087.0416247357343,785.6236256352179" fill="none" stroke="#17353b" stroke-width="0.45" opacity="0.50625"></polygon><polygon points="992.7254328492238,810 990.5715333184628,828.5417634485176 987.9437367779695,846.8862735226263 984.864960402082,865.0705804609122 981.3437621648366,883.1334254571942 977.3743564058368,901.1122420465827 972.9371386119373,919.0402116663556 967.9997028837303,936.943465668677 962.518320837231,954.8385217008313 956.4398368926556,972.7300354126323 949.7039224288823,990.6089391040041 942.2456205003548,1008.4510274626009 933.9981040395372,1026.21603729791 924.8955639604056,1043.847253542994 914.8761395283336,1061.2716581971056 903.8848018885178,1078.400622779345 891.8761027927283,1095.1311287276842 878.8167042997558,1111.3474844823916 864.6876114397631,1126.9234931986716 849.486038345403,1141.7250115743536 833.2268489143295,1155.6128285497778 815.9435253697793,1168.4457829831258 797.6886317684074,1180.0840321090075 778.533754167211,1190.3923778658145 758.5689143750956,1199.243556167529 737.9014695341646,1206.5213949582 716.6545247527117,1212.1237504009082 694.9649002077701,1215.9651367158897 672.980707134263,1217.9789738151317 650.8585985397492,1218.1193877314522 628.7607699939682,1216.3625115921093 606.8517931623528,1212.7072491679337 585.295369667987,1207.1754784216923 564.2510952330998,1199.8116885340785 543.8713237996685,1190.682060133291 524.2982184662781,1179.8730144197814 505.6610706886612,1167.489272094869 488.0739614319464,1153.6514770259487 471.6338280605268,1138.4934520021834 456.4189889963338,1122.1591643901688 442.48816491203615,1104.7994876838138 429.8800208403876,1086.5688506179026 418.61323849545806,1067.621868515217 408.687112757122,1048.1100517757814 400.0826511158234,1028.178683887672 392.7641403535321,1007.963956116869 386.68113127361863,987.5904382726202 381.7707802807483,967.1689548728625 377.96047640291584,946.7949239471911 375.170674239648,926.5472019673953 373.3178475498894,906.4874633910731 372.3174749283199,886.6601274823563 372.0869683545915,867.0928288993159 372.5484573547792,847.7974124844288 373.6313460300321,828.7714172332105 375.27456715077625,810 377.42846668153726,791.4582365514825 380.0562632220305,773.1137264773736 383.1350395979179,754.9294195390879 386.6562378351634,736.8665745428058 390.6256435941632,718.8877579534175 395.06286138806274,700.9597883336443 400.0002971162697,683.0565343313232 405.48167916276896,665.1614782991685 411.56016310734424,647.2699645873677 418.29607757111773,629.3910608959959 425.75437949964515,611.5489725373992 434.0018959604627,593.7839627020901 443.10443603959425,576.1527464570061 453.1238604716664,558.7283418028944 464.1151981114822,541.5993772206552 476.12389720727197,524.8688712723156 489.1832957002443,508.65251551760844 503.31238856023697,493.0765068013282 518.5139616545969,478.27498842564626 534.7731510856702,464.3871714502224 552.0564746302206,451.55421701687425 570.3113682315925,439.91596789099253 589.4662458327891,429.60762213418553 609.4310856249042,420.756443832471 630.0985304658356,413.4786050418 651.345475247288,407.87624959909186 673.0350997922297,404.03486328411026 695.019292865737,402.0210261848683 717.141401460251,401.88061226854774 739.2392300060318,403.63748840789077 761.1482068376474,407.2927508320663 782.7046303320129,412.8245215783075 803.7489047669001,420.18831146592146 824.1286762003315,429.3179398667089 843.7017815337222,440.1269855802186 862.3389293113387,452.51072790513103 879.9260385680535,466.3485229740513 896.3661719394731,481.5065479978167 911.5810110036659,497.84083560983095 925.511835087964,515.2005123161862 938.1199791596124,533.4311493820973 949.3867615045419,552.3781314847829 959.3128872428779,571.8899482242186 967.9173488841766,591.8213161123281 975.2358596464678,612.0360438831308 981.3188687263814,632.4095617273798 986.2292197192517,652.8310451271375 990.0395235970841,673.2050760528091 992.829325760352,693.4527980326047 994.6821524501106,713.512536608927 995.6825250716802,733.3398725176435 995.9130316454086,752.907171100684 995.4515426452208,772.2025875155713 994.3686539699679,791.2285827667896" fill="none" stroke="#17353b" stroke-width="0.45" opacity="0.46249999999999997"></polygon><polygon points="952.24202762298,810 954.2543967007928,826.3452654599296 955.7229444329005,842.9759940342085 956.5833167071312,859.8938841364609 956.764996127519,877.0881351819488 956.1935154414181,894.5341827630689 954.7928643967671,912.1928554889563 952.4880187913903,930.0099832845582 949.2075166457976,947.9164736433065 944.8860048026667,965.828858526756 939.4666798785726,983.6503007088306 932.9035503491243,1001.2720347790179 925.1634515546261,1018.5752051462807 916.2277524238076,1035.4330516011314 906.0937015234663,1051.7133826429292 894.7753703946759,1067.2812681667756 882.3041637289664,1082.0018764822523 868.7288784316662,1095.7433761993166 854.1153066490768,1108.37982139557 838.5453910202541,1119.793938736711 822.1159533672909,1129.8797378514832 804.9370303812218,1138.5448711875936 787.1298612329408,1145.7126766524707 768.8245821071829,1151.3238453658807 750.1576911281282,1155.337667556899 731.2693537698266,1157.732821712851 712.3006234296494,1158.5076851798112 693.3906542543833,1157.6801581405052 674.6739834759427,1155.2870068548982 656.2779584323188,1151.3827458334133 638.320379180415,1146.038091819796 620.9074212759663,1139.3380347042394 604.1318950873535,1131.3795814098291 588.0718881652263,1122.2692380777007 572.7898259967825,1112.1203032475837 558.3319742601135,1101.0500499756774 544.7283928178099,1089.1768777983693 531.993338527052,1076.6175160521998 520.1261008809691,1063.4843582809913 509.11224191552424,1049.8830033532124 498.92520008572774,1035.9100725976427 489.52820727788435,1021.6513639290689 480.87645908906325,1007.1803938230998 472.9194712352763,992.5573664072197 465.6035496584296,977.8285962042481 458.8742987434329,963.0263975680541 452.6790911228924,948.1694399857014 446.96942386431846,933.2635545919868 441.7030893645595,918.3029638572154 436.8460949141339,903.2718938596695 432.3742724744808,888.1465172086747 428.27452951109547,872.8971648752412 424.5457024719259,857.4907372026776 421.1989863777213,841.8932384435877 418.25792665057213,826.0723554761532 415.7579723770199,810 413.7456032992072,793.6547345400704 412.27705556709947,777.0240059657914 411.41668329286875,760.1061158635392 411.235003872481,742.9118648180513 411.8064845585819,725.4658172369312 413.2071356032328,707.8071445110437 415.5119812086096,689.9900167154419 418.79248335420243,672.0835263566935 423.1139951973333,654.1711414732441 428.53332012142744,636.3496992911694 435.0964496508757,618.7279652209821 442.83654844537386,601.4247948537192 451.7722475761923,584.5669483988687 461.9062984765337,568.2866173570708 473.2246296053241,552.7187318332244 485.69583627103384,537.9981235177474 499.2711215683338,524.2566238006833 513.8846933509233,511.62017860442995 529.4546089797459,500.20606126328903 545.8840466327089,490.12026214851693 563.0629696187781,481.45512881240654 580.8701387670591,474.28732334752937 599.1754178928172,468.67615463411926 617.8423088718716,464.66233244310104 636.7306462301734,462.267178287149 655.6993765703505,461.4923148201888 674.6093457456166,462.3198418594948 693.3260165240574,464.7129931451018 711.7220415676813,468.6172541665868 729.6796208195849,473.9619081802041 747.0925787240338,480.6619652957606 763.8681049126463,488.62041859017074 779.9281118347737,497.7307619222991 795.2101740032176,507.8796967524163 809.6680257398866,518.9499500243227 823.27160718219,530.8231222016307 836.006661472948,543.3824839478001 847.8738991190309,556.5156417190087 858.8877580844756,570.1169966467874 869.0747999142724,584.0899274023574 878.4717927221157,598.348636070931 887.1235409109368,612.8196061769002 895.0805287647236,627.4426335927802 902.3964503415705,642.1714037957519 909.125701256567,656.9736024319457 915.3209088771077,671.8305600142985 921.0305761356816,686.7364454080133 926.2969106354406,701.6970361427847 931.153905085866,716.7281061403304 935.6257275255193,731.8534827913254 939.7254704889044,747.1028351247586 943.454297528074,762.5092627973224 946.8010136222787,778.1067615564124 949.7420733494279,793.9276445238468" fill="none" stroke="#17353b" stroke-width="0.45" opacity="0.41875"></polygon><polygon points="938.2237373707019,810 941.2701600410394,825.5599653960302 943.4032951372843,841.4808951108414 944.5508929439441,857.6914589683562 944.6480022311397,874.1078901502912 943.6389750369771,890.6351633050401 941.4792689596466,907.1685194985123 938.136993604131,923.5952974427389 933.5941550961347,939.797021397451 927.8475611961588,955.6516885391097 920.9093592677656,971.0361926539231 912.8071898919516,985.8288169104724 903.5839499662231,999.9117263241751 893.2971703595415,1013.1733904030853 882.0180242844312,1025.510868366532 869.8299931710077,1036.8318931995473 856.8272266739441,1047.0566965340513 843.1126422246344,1056.1195237650904 828.7958170003856,1063.9697977003595 813.9907311024307,1070.572899143974 798.8134249420156,1075.9105438357026 783.3796362060073,1079.980746782437 767.8024822413952,1082.7973768900383 752.1902522484049,1084.3893165837837 736.6443703475826,1084.7992524501226 721.2575854848683,1084.0821335097457 706.1124374100857,1082.3033432330267 691.2800398058295,1079.5366395561284 676.819212294616,1075.8619237116482 662.7759827864518,1071.3629034603157 649.1834707475058,1066.12471916098 636.0621507922133,1060.231601962192 623.4204848533859,1053.7646322161136 611.2559003943303,1046.7996630397188 599.5560820096382,1039.4054688730555 588.3005346135183,1031.6421720592095 577.4623685041258,1023.5599920961839 567.0102501509073,1015.1983525332823 556.9104577679807,1006.5853697879527 547.1289777499481,997.7377367574666 537.6335769444795,988.6610023279567 528.3957865505014,979.3502360867117 519.3927361376668,969.7910560684312 510.6087808022754,959.9609865491469 502.0368706741847,949.8311030601526 493.679619686417,939.3679132174165 485.55003948819285,928.535414901331 477.67191435974485,917.2972679846141 470.0798036806895,905.6190123495116 462.8186695991182,893.4702634608354 455.9431387203202,880.8268173123967 449.51641755428216,867.6725991252617 443.60889180929155,854.0013946722546 438.29644909131036,839.8183094028323 433.6585728871312,825.1409084615475 429.776262629298,810 426.72983995896067,794.4400346039698 424.5967048627156,778.5191048891586 423.449107056056,762.3085410316439 423.35199776886026,745.8921098497088 424.36102496302294,729.36483669496 426.5207310403535,712.8314805014877 429.86300639586887,696.4047025572613 434.40584490386516,680.2029786025489 440.15243880384116,664.3483114608903 447.0906407322344,648.9638073460769 455.1928101080484,634.1711830895276 464.41605003377697,620.0882736758249 474.7028296404585,606.8266095969149 485.98197571556875,594.4891316334681 498.1700068289923,583.1681068004528 511.1727733260561,572.9433034659487 524.8873577753656,563.8804762349095 539.2041829996145,556.0302022996405 554.0092688975693,549.4271008560261 569.1865750579843,544.0894561642974 584.6203637939926,540.0192532175629 600.1975177586048,537.2026231099617 615.8097477515952,535.6106834162163 631.3556296524173,535.2007475498774 646.7424145151317,535.9178664902543 661.8875625899142,537.6966567669733 676.7199601941705,540.4633604438716 691.1807877053841,544.1380762883518 705.2240172135483,548.6370965396843 718.8165292524942,553.8752808390199 731.9378492077868,559.7683980378081 744.579515146614,566.2353677838864 756.7440996056697,573.2003369602813 768.4439179903618,580.5945311269446 779.6994653864817,588.3578279407905 790.537631495874,596.440007903816 800.9897498490926,604.8016474667176 811.0895422320193,613.4146302120473 820.8710222500517,622.2622632425333 830.3664230555206,631.3389976720433 839.6042134494985,640.6497639132883 848.6072638623332,650.2089439315688 857.3912191977245,660.039013450853 865.9631293258153,670.1688969398473 874.3203803135829,680.6320867825833 882.4499605118071,691.464585098669 890.3280856402553,702.7027320153859 897.9201963193107,714.3809876504884 905.1813304008817,726.5297365391646 912.0568612796799,739.1731826876035 918.4835824457177,752.3274008747383 924.3911081907083,765.9986053277453 929.7035509086896,780.1816905971679 934.3414271128688,794.8590915384525" fill="none" stroke="#17353b" stroke-width="0.45" opacity="0.375"></polygon><polygon points="916.2254651475314,810 917.2207018951166,824.105429290933 917.1499088802819,838.2948133819116 915.9968357812944,852.4648998490766 913.758188531183,866.5103610440306 910.4438467241223,880.3258690549853 906.0767558865739,893.8081825838681 900.6924971762546,906.8581878665395 894.3385463246607,919.3828370600073 887.0732425480036,931.2969304640101 878.9644964566637,942.5246934486233 870.0882734519836,953.0011048928392 860.5268954935318,962.6729411278952 850.3672092631604,971.4995076131707 839.6986724941715,979.4530396108661 828.6114124656547,986.5187627040323 817.1943113187228,992.6946138406367 805.5331719142371,997.9906333964573 793.7090154486227,1002.4280482447787 781.7965580493177,1006.0380747234381 769.8629082017422,1008.8604784394431 757.9665202731181,1010.9419348128747 746.1564317883367,1012.3342399317044 734.4718037026391,1013.0924255019453 722.9417739518109,1013.2728343103963 711.5856253057862,1012.9312135935645 700.4132592773328,1012.1208829981663 689.4259588157606,1010.8910314472425 678.6174140107814,1009.2851932614644 667.9749772930566,1007.339948444379 657.4811078723632,1005.0838852831583 647.1149595993857,1002.5368555414175 636.85406223563,999.709543759163 626.676043390953,996.6033627841862 616.5603372194774,993.2106779149251 606.4898263863756,989.5153522230321 596.4523658177177,985.4935960326084 586.4421402645268,981.1150944438693 576.4608126471477,976.3443784686964 566.5184263522079,971.1423980384113 556.634031949802,965.4682490647955 546.8360169690728,959.2810020624547 537.1621261764406,952.5415767115408 527.6591689840375,945.2146052467165 518.3824199070684,937.2702277453209 509.3947271152535,928.6857642499419 500.76535281744316,919.4472121438952 492.5685772248087,909.5505222008334 484.8821049216656,899.0026131057049 477.7853184259876,887.8220918071052 471.3574283690897,876.0396555895362 465.6755729291135,863.6981609986555 460.8129208213668,850.8523544427271 456.8368322307937,837.5682691455564 453.8071305648619,823.9223028518048 451.77453485246855,810 450.7792981048834,795.894570709067 450.85009111971806,781.7051866180884 452.0031642187056,767.5351001509235 454.2418114688169,753.4896389559696 457.5561532758777,739.6741309450147 461.9232441134261,726.1918174161319 467.3075028237453,713.1418121334605 473.6614536753394,700.6171629399926 480.9267574519964,688.70306953599 489.0355035433363,677.4753065513767 497.9117265480164,666.9988951071608 507.4731045064683,657.3270588721048 517.6327907368395,648.5004923868293 528.3013275058285,640.5469603891339 539.3885875343453,633.4812372959677 550.8056886812774,627.3053861593633 562.4668280857629,622.0093666035427 574.2909845513773,617.5719517552213 586.2034419506823,613.9619252765619 598.1370917982576,611.1395215605569 610.0334797268818,609.0580651871253 621.8435682116633,607.6657600682956 633.528196297361,606.9075744980547 645.058226048189,606.7271656896037 656.4143746942138,607.0687864064355 667.5867407226671,607.8791170018337 678.5740411842394,609.1089685527575 689.3825859892186,610.7148067385356 700.0250227069436,612.6600515556211 710.5188921276368,614.9161147168417 720.8850404006143,617.4631444585825 731.14593776437,620.290456240837 741.323956609047,623.3966372158138 751.4396627805226,626.7893220850749 761.5101736136245,630.4846477769679 771.5476341822823,634.5064039673916 781.5578597354731,638.8849055561305 791.5391873528523,643.6556215313036 801.4815736477918,648.8576019615887 811.365968050198,654.5317509352045 821.163983030927,660.7189979375454 830.8378738235594,667.4584232884592 840.3408310159625,674.7853947532834 849.6175800929315,682.7297722546791 858.6052728847465,691.3142357500578 867.2346471825568,700.5527878561047 875.4314227751914,710.4494777991666 883.1178950783346,720.9973868942951 890.2146815740124,732.1779081928947 896.6425716309103,743.9603444104639 902.3244270708864,756.3018390013444 907.1870791786332,769.1476455572729 911.1631677692063,782.4317308544436 914.1928694351382,796.0776971481952" fill="none" stroke="#17353b" stroke-width="0.45" opacity="0.33125"></polygon><polygon points="867.8575498545614,810 866.4634899254438,821.0355806084387 864.2629989269274,831.8765168676096 861.2919262233738,842.4516662728229 857.5939834728676,852.696448574201 853.2196055052195,862.553937722118 848.2246617821809,871.9757362019673 842.6690555683276,880.9226087340858 836.6152510772972,889.3648593334551 830.1267708173523,897.2824432030864 823.26670608569,904.664812655816 816.0962830317566,911.5105039955812 808.6735249420252,917.8264798146776 801.052048444498,923.6272482577817 793.2800272775721,928.93378725908 785.399352234037,933.7723073868293 777.4450100247028,938.1728915655106 769.4446972797336,942.1680534539227 761.4186789107081,945.791258535661 753.3798927980206,949.0754529600481 745.3342954593935,952.0516448283273 737.2814362104114,954.7475809622468 729.2152405566673,957.1865592689819 721.1249773579397,959.3864127137292 712.9963788596112,961.3586957498412 704.8128781550046,963.1080979876922 696.5569251573547,964.6321030857955 688.2113398240036,965.9209035205992 679.7606602566241,966.9575742499807 671.1924434327296,967.7185005540425 662.4984777016183,968.1740477423389 653.675868761883,968.2894531820841 644.7279645520327,968.0259144396106 635.6650892217625,967.3418414329979 626.5050619702012,966.194235540548 617.2734828743877,964.5401547431828 608.0037747005408,962.3382212126693 598.736976891016,959.5501263703778 589.5212952401328,956.1420883741758 580.4114179976444,952.0862182464638 571.4676160576552,947.3617533979592 562.7546513003256,941.9561210556135 554.3405228657323,935.8657989594723 546.295085986128,929.0969465105226 538.6885818422904,921.6657861595972 531.5901196288428,913.5987220330576 525.0661535323472,904.9321903835138 519.1789975997347,895.7122442112343 513.9854204948306,885.9938820972106 509.5353599356123,875.8401386969693 505.8707932385731,865.3209612484386 503.0247959673061,854.511902645492 501.02081531943065,843.4926669398677 499.8721787458906,832.3455474026291 499.58185155881677,821.1538003773428 500.1424501454386,810 501.5365100745562,798.9644193915614 503.73700107307275,788.1234831323904 506.70807377662607,777.5483337271772 510.40601652713224,767.3035514257991 514.7803944947805,757.4460622778821 519.7753382178191,748.0242637980327 525.3309444316723,739.0773912659143 531.3847489227028,730.6351406665449 537.8732291826477,722.7175567969136 544.73329391431,715.335187344184 551.9037169682434,708.4894960044188 559.3264750579748,702.1735201853224 566.947951555502,696.3727517422184 574.7199727224278,691.06621274092 582.600647765963,686.2276926131707 590.5549899752973,681.8271084344893 598.5553027202665,677.8319465460773 606.581321089292,674.2087414643389 614.6201072019793,670.9245470399519 622.6657045406063,667.9483551716727 630.7185637895885,665.2524190377532 638.7847594433327,662.8134407310181 646.8750226420603,660.6135872862708 655.0036211403886,658.6413042501588 663.1871218449954,656.8919020123078 671.4430748426453,655.3678969142045 679.7886601759963,654.0790964794008 688.2393397433759,653.0424257500193 696.8075565672705,652.2814994459576 705.5015222983816,651.8259522576612 714.324131238117,651.7105468179159 723.2720354479673,651.9740855603894 732.3349107782374,652.6581585670021 741.494938029799,653.805764459452 750.7265171256124,655.4598452568172 759.9962252994592,657.6617787873306 769.2630231089839,660.4498736296222 778.4787047598672,663.8579116258242 787.5885820023555,667.9137817535361 796.5323839423448,672.6382466020409 805.2453486996744,678.0438789443865 813.6594771342677,684.1342010405277 821.704914013872,690.9030534894773 829.3114181577096,698.3342138404028 836.4098803711571,706.4012779669423 842.9338464676528,715.0678096164861 848.8210024002655,724.2877557887657 854.0145795051694,734.0061179027895 858.4646400643876,744.1598613030307 862.129206761427,754.6790387515614 864.9752040326939,765.4880973545079 866.9791846805693,776.5073330601323 868.1278212541094,787.6544525973709 868.4181484411832,798.8461996226573" fill="none" stroke="#17353b" stroke-width="0.45" opacity="0.2875"></polygon><polygon points="799.2683975117221,810 797.5304098625122,816.8664366227938 795.4303693140309,823.5230655673854 793.0052193406115,829.9524088625476 790.2918403991252,836.1430955535837 787.3260810302797,842.0896175790242 784.1418500920181,847.7919175885512 780.770296251394,853.2548226466482 777.239098206007,858.4873422627337 773.5718857650985,863.5018531385844 769.7878079919303,868.3131963120628 765.9012602084696,872.9377149063029 761.9217769198948,877.3922623915855 757.8540927692649,881.6932120835597 753.6983686270446,885.8554985124454 749.4505750029697,889.8917203062074 745.1030202832427,893.8113323656221 740.645006981763,897.6199524255231 736.0635953766091,901.3188036731445 731.3444506943532,904.9043110318798 726.4727474992035,908.3678641362147 721.4341032150002,911.695755055558 716.2155118065843,914.8692936169997 710.8062485995522,917.8650978824938 705.1987180254519,920.6555521100007 699.3892177195186,923.2094195241039 693.3785948221392,925.4925925864526 687.1727734724755,927.4689593261695 680.7831362412121,929.1013607864195 674.2267465191997,930.3526118686447 667.526403534771,931.1865558921503 660.7105265783614,931.5691220916499 653.8128700250338,931.4693550814751 646.8720757167674,930.8603860284555 639.9310740512299,929.7203168754377 633.0363495820087,928.0329913975198 626.2370909362359,925.7886300822051 619.5842482818982,922.9843097091633 613.1295243284067,919.6242729516905 606.9243268394539,915.7200582003665 601.0187118182234,911.2904449772441 595.4603468568447,906.361215615124 590.2935236147175,900.9647391659375 585.5582470191811,895.1393886203481 581.2894266069305,888.9288073177586 577.5161925090603,882.3810447617356 574.2613550117908,875.5475858036934 571.5410225031505,868.4823002079992 569.3643880636035,861.2403418753345 567.733690108894,853.8770284121189 566.6443474879867,846.446732250919 566.0852644242387,839.0018141350957 566.0392958104198,831.59162849212 566.4838587704612,824.261628071918 567.3916722172173,817.0525922823681 568.7316024882779,810 570.4695901374878,803.1335633772062 572.5696306859691,796.4769344326146 574.9947806593884,790.0475911374525 577.7081596008748,783.8569044464163 580.6739189697203,777.9103824209758 583.8581499079819,772.2080824114488 587.229703748606,766.7451773533518 590.760901793993,761.5126577372663 594.4281142349015,756.4981468614156 598.2121920080697,751.6868036879372 602.0987397915304,747.0622850936971 606.0782230801052,742.6077376084145 610.1459072307351,738.3067879164403 614.3016313729554,734.1445014875546 618.5494249970303,730.1082796937926 622.8969797167574,726.1886676343779 627.354993018237,722.3800475744769 631.936404623391,718.6811963268555 636.6555493056468,715.0956889681202 641.5272525007965,711.6321358637854 646.5658967849998,708.304244944442 651.7844881934157,705.1307063830003 657.1937514004478,702.1349021175062 662.8012819745481,699.3444478899993 668.6107822804814,696.7905804758961 674.6214051778608,694.5074074135474 680.8272265275244,692.5310406738305 687.2168637587879,690.8986392135805 693.7732534808003,689.6473881313553 700.4735964652289,688.8134441078498 707.2894734216386,688.4308779083501 714.1871299749662,688.5306449185249 721.1279242832326,689.1396139715445 728.0689259487702,690.2796831245623 734.9636504179914,691.9670086024802 741.7629090637641,694.2113699177947 748.4157517181017,697.0156902908366 754.8704756715933,700.3757270483095 761.075673160546,704.2799417996334 766.9812881817766,708.7095550227559 772.5396531431553,713.638784384876 777.7064763852825,719.0352608340625 782.4417529808188,724.8606113796519 786.7105733930695,731.0711926822413 790.4838074909396,737.6189552382643 793.7386449882091,744.4524141963066 796.4589774968495,751.5176997920009 798.6356119363965,758.7596581246656 800.266309891106,766.1229715878811 801.3556525120133,773.5532677490811 801.9147355757613,780.9981858649041 801.9607041895802,788.40837150788 801.5161412295388,795.738371928082 800.6083277827828,802.9474077176319" fill="none" stroke="#17353b" stroke-width="0.45" opacity="0.24375000000000002"></polygon><polygon points="837.0923620726601,540 835.5064265256987,563.5570456992651 832.4584518125007,586.9162143439711 827.9971846821202,609.9766694157814 822.1833378594553,632.646884594106 815.0874202139655,654.846275254474 806.7872879438919,676.5063553790476 797.3655206470428,697.5713743769294 786.9067332647573,717.9984111781253 775.4949371777311,737.7569268201239 763.2110611035415,756.8278005452091 750.1307350132713,775.2018971272846 736.3224283755615,792.8782337545607 721.8460181730305,809.861832405706 706.7518430130747,826.1613574997522 691.0802781095088,841.786648066543 674.8618428857783,856.7462583585793 658.1178294513575,871.0451204999531 640.8614172575633,884.6824374554915 623.0992178499841,897.6499045331788 604.8331747362479,909.9303432433879 586.0627278050403,921.496813256391 566.7871401449722,932.312247213621 547.007878025027,942.3296301739229 526.7309325199069,951.4927215164519 505.96897389121364,959.7372932231842 484.74323725203,966.992835670047 463.08504992156224,973.1846613623671 441.03692669637053,978.236319362089 418.65317833125243,982.0722192444302 396,984.6203538989455 373.1550294525347,985.8150057715677 350.20638799460346,985.5993214376655 327.25124026332566,983.9276446903546 304.39393005504996,980.7675083938655 281.7437682482691,976.10119975107 259.4125643300521,969.9268317406188 237.5120045010746,962.2588745040248 216.15098629837678,953.1281234907094 195.43302182981643,942.581105196366 175.45381896367007,930.6789453104393 156.29914227933554,917.4957469776363 138.04304358850322,903.1165476796584 120.74653590345423,887.6349410515031 104.45676555562449,871.1504639874256 89.20671559040909,853.7658590552635 75.01545052591177,835.5843271059433 61.88888907059936,816.7068848287579 49.821068474397464,797.229936872188 38.79584284169067,777.2431622526032 28.78893889645849,756.8278005452091 19.770277183519852,736.0554054183049 11.706455194309854,714.9871122201761 4.563281924439423,693.673443471994 -1.6917487899582966,672.1546522614203 -7.087156053366016,650.4615797153087 -11.645443150816845,628.6169799987854 -15.3814325630334,606.6372456372294 -18.30103910191599,584.5344482910499 -20.400536289874992,562.3185962037477 -21.666349472495597,540 -22.075386051077317,517.5916337497122 -21.595889657403802,495.1113784440021 -20.188782095533156,472.58404023932246 -17.809435447693033,450.0430457876852 -14.409797818224604,427.5317312476226 -9.94078059635848,405.1041595364477 -4.354803535471149,382.8254212524506 2.3916131216677172,360.77139755155906 10.335322487400617,339.0279871052753 19.50420118424381,317.68982305052714 29.91507867361514,296.8585285249763 41.57203666799717,276.6405799687248 54.46515362972099,257.14486496213027 68.56975019465807,238.480035187314 83.84616977290676,220.7517645404729 100.24010551361636,204.0600270670169 117.68346128430568,188.49650903520472 136.09571133363477,174.14226411820988 155.38570188328268,161.06571054943947 175.45381896366976,149.32105468956092 196.1944311949657,138.94720732309872 217.49850459899625,129.96723797637048 239.25627941442548,122.38838953271568 261.3598965849203,116.2026514184684 283.7058641956254,111.38786569026252 306.19726153019604,107.90931751500909 328.74559028235785,105.72174079431267 351.27219826084496,104.77165194968671 373.7092199805785,104.99991092727288 395.99999999999994,106.3443989095818 418.09898780320844,108.7426974544104 439.97111643012875,112.13465402526322 461.59069990253,116.4647241223002 482.9399057768836,121.68399023882756 504.00687794385715,127.75177221814829 524.7836002650384,134.63676164263535 545.263603111676,142.31763386281756 565.4396218443526,150.78311425345868 585.3013184398908,160.03149926307373 604.8331747362479,170.06965675661212 624.012658246037,180.91155299389686 642.8087495124315,192.57637434237665 661.1809040705058,205.08632958675452 679.0785029277863,218.4642326958632 696.4408239270108,232.7309755291933 713.1975433443282,247.90300479350498 729.269753613909,263.9899173851823 744.5714601819616,280.99228308635196 759.0114991813468,298.8997936502947 772.4957988157561,317.6898230505271 784.9298918738501,337.3264657034558 796.2215753373994,357.76009859360977 806.2836061069531,378.927490347515 815.036319750292,400.75245641882043 822.410061978824,423.1470357084571 828.3473301563314,446.0131411923642 832.8045342146198,469.2446164607702 835.7533023679885,492.7296123910804 837.181276286901,516.3531842541946" fill="none" stroke="#17353b" stroke-width="0.6" opacity="0.85"></polygon><polygon points="758.1071233878897,540 755.919113431833,559.2912560350399 752.7579728922008,578.3489733229442 748.6826477042064,597.1289765817337 743.7519057422583,615.5968800669259 738.0222467082592,633.7274162716599 731.546017101174,651.5033624475086 724.3698094245285,668.9141182119989 716.5332121322089,685.9540029225125 708.0679612770255,702.6203538843611 698.9975270898597,718.9115152797833 689.3371495545883,734.8248125669285 679.0943172922374,750.3546077892142 668.2696645893238,765.4905277238807 656.8582430503159,780.2159492361818 644.8511079234954,794.5068149217566 632.2371453598746,808.3308376065681 619.0050563172632,821.6471351650166 605.1454059753223,834.406318159811 590.6526446798521,846.5510328303612 575.5270077081373,858.0169418331509 559.7762064842865,868.7341057477922 543.4168330388432,878.6287105545065 526.4754120979535,887.6250708420641 508.9890506517335,895.6478260962624 491.00565251138397,902.6242385918713 472.58368444635323,908.4864965534084 453.79150016069536,913.1739255766364 434.7062477604826,916.6350148452285 415.4124046326308,918.829172283459 396,919.7281341265107 376.5625991226302,919.3169689724259 357.1951335804899,917.5946335697486 337.9916688409751,914.574056644498 319.043203088229,910.2817471501396 300.43558994956203,904.7569435604798 282.24767235536274,898.0503403369762 264.54970554891327,890.2224456395179 247.40213462476237,881.3416399327349 230.8547764715822,871.4820176906617 214.9464383060552,860.7211033757919 199.70498588232365,849.1375378751918 185.14785478288312,836.808832400525 171.2829788028422,823.809283467338 158.11009117928555,810.2081351125853 145.62233809069707,796.0680633163327 133.8081301733073,781.4440431551933 122.6531473714092,766.3826421641674 112.1424057148588,750.9217644669341 102.26229189491016,735.0908502803312 93.00247291014034,718.9115152797833 84.3575935182152,702.3985949087969 76.32868351972246,685.561540875712 68.92420961306789,668.406101584424 62.16072214062052,650.9362057697888 56.063064816602434,633.1559596976274 50.66413471148553,615.0716633322293 46.00419952882146,596.6937500866013 42.12979868598836,578.0385581854298 39.09227305012263,559.1298491370013 36.94598458372542,540 35.74630090475188,520.6908105530971 35.547430262740875,501.2538834970406 36.40019921702151,481.7505546942681 38.34986807850589,462.2513703524361 41.434077821281335,442.8351281133575 45.68101674263983,423.5875183384751 51.10788588652906,404.5994196387013 57.7197295492993,385.96491810145085 65.50868161140181,367.7791320450444 74.4536606633377,350.13593293674467 84.52052769353111,333.12565795809417 95.6627003168781,316.83291037560105 107.82219800795752,301.3345403443757 120.93107441261634,286.69789118910495 134.91317634685765,272.97938490019544 149.68615526939934,260.2235060452846 165.16364643508055,248.46222616134645 181.25752405978935,237.71489170773907 197.880137951214,227.98857865427988 214.94643830605497,219.2788966242082 232.37590068584322,211.57120608976834 250.0941723249162,204.84219427653085 268.03437349295126,199.0617399509283 286.13800307845634,194.19498482048874 304.3554152010438,190.20452041200764 322.64585272551847,187.0525943972981 340.97704320406217,184.70323962383378 359.32438215293206,183.12423261055358 377.6697468280646,182.28879583530772 395.99999999999994,182.17696944043348 414.30525692719624,182.77659252427463 432.5769991880402,184.0838513350737 450.8061257976082,186.10337069169532 468.98103480906366,188.8478449940294 487.08582725990215,192.33722538061602 505.09871992863975,196.59749906120265 522.9907441539153,201.65911474838208 540.7247953386891,207.55512365475914 558.2550822700252,214.31911803263762 575.5270077081373,221.98305816684905 592.4774926109615,230.57508369911056 609.0357366984159,240.11740594845287 625.1243886850248,250.62437446366766 640.6610812697608,262.1008035513018 655.5602696673345,274.54063329477134 669.7352988110067,287.9259851081163 683.1006139527756,302.2266547846624 695.574022690218,317.40006705332064 707.0789137559673,333.39169567149685 717.5463393366622,350.13593293674455 726.9168731838388,367.55737306947987 735.142166102632,385.5724560546504 742.1861331510672,404.0914030111262 748.0257224991547,423.02036166075527 752.6512337035803,442.2636715393249 756.0661723752378,461.72615361773904 758.2866480160062,481.3153281991355 759.3403413154483,500.94346835952575 759.2650855772039,520.5294036550584" fill="none" stroke="#17353b" stroke-width="0.6" opacity="0.79"></polygon><polygon points="702.2955799377864,540 701.0032046355989,556.3478256434619 699.0752743177361,572.5784607290803 696.5348168070137,588.681857820698 693.3981114315225,604.6506000133389 689.6742949001839,620.4781944780174 685.3653575750518,636.1573337218761 680.4665287272528,651.6782074940741 674.967032298246,667.0269460580851 668.851178438735,682.1842697786057 662.0997413728073,697.1244108881729 654.6915615767176,711.8143613018609 646.6053004174798,726.2134859626964 637.8212686947983,740.2735250550074 628.3232472622218,753.9389912242959 618.1002182110976,767.147950443168 607.1479289690809,779.8331581295387 595.4702189232567,791.9235063017936 583.08004850792,803.3457236391524 570.0001836461977,814.0262589144029 556.2635034360906,823.8932698809866 541.9129153687725,832.8786346959922 527.0008794428276,840.9199015660739 511.5885595458278,847.962094578284 495.74463667067687,853.9592995256617 479.543833210564,858.8759627054505 463.06521009192284,862.687847758253 446.3903083127917,865.3826101038046 429.60121312633635,866.959964783153 412.7786223551134,867.4314408303651 396,866.8197329156665 379.337892433733,865.15767815888 362.8584772132676,862.4869019600063 346.6204042262101,858.8561907383253 330.67397595694,854.3196610010733 315.06069868448117,848.9348026758844 299.8132200629218,842.7604797677501 284.9556515031206,835.8549729190242 270.5042568179333,828.2741462952558 256.4684724552517,820.0698154859704 242.85221003110686,811.2883840496696 229.65537942952108,801.9698043431363 216.87556100261196,792.1469038812409 204.5097488109275,781.8451023043314 192.55608368014657,771.0825267927537 181.01549525609968,759.8705162153526 169.89317619944734,748.214487197751 159.19981900270645,736.1151193935982 148.9525563161189,723.5698032320615 139.17555868152698,710.5742819089005 129.9002586271926,697.1244108881729 121.16518651417408,683.2179530571303 113.01542062855145,668.8563261505968 105.50167103624074,654.0462211981443 98.67903291441621,638.801016452511 92.60545973757343,623.1419202797683 87.34001918565161,607.0987884344654 82.9410044098538,590.7105754824956 79.46397991097126,574.0253962419869 76.95984446465815,557.1001902822172 75.472993127819,540 75.03965639590274,522.7968898163736 75.68648722384313,505.56854985790864 77.42945619312525,488.39664141333924 80.27310205759511,471.3649528772255 84.21016979911491,454.55744330737787 89.2216518284477,438.0562557626588 95.27723079512401,421.9397840311284 102.33610537021525,406.280874141201 110.34816408242432,391.1452362666702 119.25545752949898,376.5901335421667 128.99390669578236,362.66340229592527 139.49517523015032,349.40284380628094 150.68862680542043,336.8360115264763 162.5032853820397,324.980400505633 174.8697164768762,313.8440282149871 187.7217513774992,303.4263789338979 200.99798347313725,293.719668005839 214.64297617720257,284.71036833392907 228.60813484039394,276.38093005890096 242.85221003110667,268.71161595033044 257.3414159348799,261.68237001340185 272.049164679652,255.2746353896789 286.9554343820587,249.4730398749706 302.0458048883311,244.2668731939075 317.3102098437164,239.65128930663002 332.74146622550063,235.62817908037283 348.3336522700407,232.2066731123278 364.0804113856349,229.40325070985347 379.9732628797382,227.24144831249384 395.99999999999994,225.75117822365428 412.1432519091081,224.9676856410087 428.3792789539689,224.93018788670673 444.67706026896104,225.68025374684845 460.99771982336205,227.2599923231931 477.2943220513288,229.7101292770637 493.5120518452674,233.06805343599586 509.58877666688966,237.36591821571074 525.4559715811085,242.62888011886076 541.0399718891442,248.87355080338 556.2635034360906,256.1067301190134 571.0474282353247,264.32447548763423 585.3126333333292,273.51154857601733 598.9819842610467,283.64126400837665 611.9822612717281,294.67574759711295 624.2459969903209,306.5665939871716 635.7131380796293,319.25589647908794 646.3324608920843,332.6776058650671 656.0626815034483,346.7591610756459 664.8732135624622,361.42332290296486 672.744542470501,376.59013354216665 679.6682008704847,392.1789195451946 685.6463475565821,408.1102542337128 690.6909689683692,424.3077977351984 694.8227386610204,440.69993849329364 698.0695848386424,457.2211691091286 700.465028559579,473.8131412983518 702.0463650237423,490.42535907513656 702.8527670048642,507.0154853708148 702.9233927043545,523.5492544551288" fill="none" stroke="#17353b" stroke-width="0.6" opacity="0.73"></polygon><polygon points="663.1684384102621,540 663.2652850888559,554.3251159816593 662.809471646129,568.6801419671648 661.7807172131793,583.0522467390647 660.1543657758616,597.4238288244298 657.9025939009459,611.7715109979969 654.9958271364917,626.0654101487514 651.4043034083446,640.2687202551854 647.0997152184402,654.3376323627825 642.0568589048287,668.221600535458 636.2552188022635,681.8639474144652 629.6804168636422,695.2027879358272 622.3254640471832,708.1722355917549 614.1917582906516,720.7038429939348 605.2897848099078,732.7282179610899 595.6394872975706,744.1767483725152 585.2702927978197,754.9833639545225 574.2207879751817,765.0862612220332 562.5380595261302,774.4295190703475 550.2767259464249,782.9645369491266 537.4977011331304,790.6512349603412 524.2667417896043,797.458965282812 510.652839813598,803.3670966005698 496.7265273818482,808.3652471662845 482.55816601524157,812.4531571566731 468.2162913624582,815.640206419321 453.76608275897155,817.9445988966293 439.2680209214631,819.3922492805582 424.7767886760904,820.0154201793441 410.34045876445344,819.851168709476 396,818.9396694993316 381.7891189202202,817.322486253064 367.7344392157719,815.0408660496767 353.85600626831405,812.1341293546575 340.168089749597,808.6382243526937 326.68024405557856,804.5845068608749 313.3985749487581,799.9987970735006 300.3271516594232,794.9007521592393 287.46949725232423,789.3035798129923 274.8300865823875,783.214102866023 262.4157807948691,776.6331696334485 250.23713008890266,769.556389501188 238.30948223873122,761.9751589871751 226.65384290218515,753.8779307763714 215.29744466853336,745.251667581213 204.2739946304288,736.0834145825161 193.62358444638485,726.3619190130429 183.39226177090288,716.0792233823454 173.6312769168164,705.2321599958663 164.39603302281438,693.8236787416874 155.74478119773647,681.8639474144652 147.73711352404118,669.3711737977302 140.43231592569782,656.3721108965613 133.88764934032372,642.9022205694968 128.1566310986471,629.00548574464 123.28738875301804,614.7338767664437 119.32115579378569,600.146492534293 116.29097286818251,585.3084113004479 114.2206495230875,570.2892986715699 113.12403050382477,555.16183095051 113.00459773373933,540 113.85542483527064,524.8773709556517 115.65948605342498,509.86536613737803 118.39030635993691,495.0316473178834 122.01292500762526,480.43866415663064 126.48513150110836,466.14242928839514 131.75892143111616,452.19157058775954 137.782110386218,438.62669895121775 144.50003760919532,425.4801160802685 151.85728748951706,412.775871818837 159.7993565327804,400.5301652503342 168.27419614042716,388.75206866582704 177.2335672492854,377.44453933627614 186.63415136923552,366.60567137981343 196.4383734463804,356.23012946365816 206.61490479156595,346.31069808228335 217.13882848921972,336.83987506000585 227.99146461915194,327.811435961494 239.15986763188417,319.22189734522476 250.63602266020243,311.0718112094748 262.41578079486885,303.36683036655165 274.4975848222414,296.1184945171526 286.8810461151398,289.3446990456602 299.5654398846354,283.06982248456404 312.54818955560506,277.3245035943571 325.8234114686253,272.1450744194871 339.38058841712325,267.5726708382057 353.2034348207524,263.65205636246935 367.2690078647432,260.43020764135133 381.5471080723571,257.9547207228546 395.99999999999994,256.27210517106965 410.5824696123164,255.42603826644256 425.242220027119,255.4556535116838 439.9205923690247,256.3939364365686 454.5535840914452,258.26629629427003 469.0731239494114,261.08937486104105 483.40855140839454,264.8701435111846 497.4882391566359,269.6053274775189 511.2412909507823,275.2811822580826 524.5992435497503,281.8736321003635 537.4977011331304,289.3487650396588 549.877833375125,297.6636637615362 561.687674132977,306.7675372620521 572.8831662582147,316.6031055158321 583.4289089771332,327.1081786866964 593.2985771364333,338.21736429228406 602.4749958099122,349.86383051561097 610.9498686923189,361.98105176822406 618.7231737147142,374.50446374038734 625.8022537460295,387.3729594716872 632.2006434672196,400.5301652503341 637.9366849393527,413.92544508110893 643.0319935349428,427.51459461404727 647.5098423624502,441.26019926552897 651.3935368040226,455.1316461836482 654.7048511528554,469.10479505684174 657.4625965620221,483.1613278664935 659.6813837214249,497.2878118792664 661.3706351157916,511.4745228417828 662.5338907574101,525.7140859245022" fill="none" stroke="#17353b" stroke-width="0.6" opacity="0.6699999999999999"></polygon><polygon points="635.1707149327451,540 635.9531481228928,552.8612164347567 636.0940820657643,565.808425452958 635.5590761884155,578.8047581660098 634.316394845373,591.8069796933353 632.3384435338226,604.7659381554371 629.6030978743959,617.6272986822422 626.0948680500471,630.332534138147 621.80584836669,642.8201328442638 616.7364107568646,655.0269738859209 610.8956119924009,666.8898130549247 604.301296626655,678.3468174227421 596.9798907170451,689.3390841952532 588.9658946162813,699.8120799662609 580.3010959888289,709.7169397467948 571.0335361470433,719.011571059476 561.2162732890964,727.661516694863 550.9059948017779,735.6405400680159 540.1615370924005,742.9309090377081 529.042375161991,749.5233670376851 517.6071451649095,755.4167938524142 505.91226147494785,760.6175717603471 494.0106853722332,765.1386854811733 481.9508955735129,768.9985958446339 469.7761017538056,772.2199368456687 457.52373134851507,774.8280933380554 445.22520775837097,776.8497217145775 432.9060251384737,778.3112783031887 420.5861118045412,779.237619771139 408.28046151032817,779.6507365912057 396,779.5686747268638 383.752643837136,779.0046923934182 371.54450001365973,777.9666884116469 359.3811486196506,776.4569267403486 347.26894718129427,774.4720687746835 335.2162943102083,772.0035114954028 323.2347920954629,769.0380161389041 311.3402511316871,765.5585993146691 299.5534890175993,761.5456469808023 287.90088227538473,756.9782019022173 276.4146425336275,751.8353675860672 265.13280000817474,746.0977665476535 254.09889027260024,739.7489883309436 243.3613534654157,732.7769630961651 232.97266785860225,725.175199774894 222.98825155149373,716.9438336405178 213.46517643650657,708.0904363927112 204.46074705315746,698.6305521475085 196.03100313222345,688.5879346094425 188.22920826048107,677.9944736594 181.10438800759914,666.8898130549247 174.6999790085352,655.3206743203664 169.05264596584044,643.3399146179452 164.19131652238985,631.0053578822349 160.13647476060345,618.3784482680528 156.8997431089172,605.5227825791314 154.48377015765996,592.5025834801309 152.88242883919105,579.3811777241236 152.0813161794026,566.2195432465646 152.05853295660887,553.0749858028548 152.78570967018092,540 154.22923474495573,527.0413613496358 156.35163233480438,514.2394857107884 159.11303081265655,501.6280806461117 162.47265931783159,489.2341003043057 166.39030873612356,477.07800202992786 170.82769525636223,465.17428957769357 175.74966910116746,453.53231515563607 181.12521797417244,442.15730109478903 186.92822389727965,431.05153224340535 193.13794303033018,420.215662636568 199.7391902947439,409.65007492873127 206.72222362798212,399.35622871988267 214.08233590907986,389.33793435992754 221.81917544006873,379.6024920618123 229.93582778317563,370.1616420509751 238.43770221933573,361.0322797699947 247.3312746533631,352.2369004811053 256.62274507203824,343.8037495148029 266.31667139006936,335.76666738004883 276.41464253362733,328.16463241393285 286.91405186893235,321.0410170175899 297.8070276616356,314.4425862160984 309.07957034616885,308.4182787378252 320.7109372960248,303.01782053177067 332.6733049146838,298.29022820404515 344.93172568909745,294.28226492504666 357.44438489679544,291.03691371434445 370.16314850108625,288.5919325462937 383.03438098265445,286.97855245467895 395.99999999999994,286.2203738901504 408.9987243648096,286.3325082568915 421.96746331711455,287.3210011868016 434.8427888613288,289.1825621515044 447.5624292505677,291.9046119851525 460.0667207440395,295.4656463613925 472.29995655324365,299.8358998250061 484.21157635903114,304.9782822078604 495.75714672819674,310.8495477157273 506.89909188140007,317.4016471594601 517.6071451649095,324.58320614758577 527.8585037800964,332.34106689001703 537.6376822929624,340.6218288080383 546.9360736138303,349.3733235092544 555.7512389283629,358.5459628500257 564.0859599153613,368.0939046320168 571.9470969852666,377.9759887077287 579.3443057603589,388.15640654117533 586.2886702212863,398.60507913407196 592.7913145923922,409.29773116538917 598.8620569696698,420.21566263656797 604.50816586812,431.3452326778505 609.7332763583581,442.6770828684704 614.5365154712694,454.2051388997238 618.9118773786371,465.92543916350417 622.8478779066161,477.83484645362216 626.3275056852013,489.92970409110103 629.3284742149499,502.20450020422544 631.8237659103625,514.6506035043947 633.782446334546,527.2551307177339" fill="none" stroke="#17353b" stroke-width="0.6" opacity="0.61"></polygon><polygon points="609.6002095244861,540 609.9968310654059,551.4699872963312 609.6851133315322,562.9696470249239 608.6503462314627,574.4459721197957 606.8851287577013,585.8437682823513 604.3897872994667,597.1069178363715 601.1725304976044,608.1797007456324 597.2493338642298,619.008117284979 592.6435589047509,629.5411566874983 587.3853227847602,639.7319583598718 581.5106451867264,649.5388168664634 575.0604084399929,658.9259886292966 568.0791748717199,667.8642668812937 560.6139112742943,676.3313014687873 552.7126741583623,684.3116511868491 544.4233108969427,691.7965679627822 535.7922309041003,698.7835238706675 526.8632976752292,705.2755031528936 517.6768869916801,711.28009165353 508.2691491033353,716.8084048856264 498.67150357750455,721.8739029740395 488.910385141384,726.4911456296692 479.0072477022742,730.6745429044267 468.9788222928766,734.4371576346189 458.8376134589935,737.7896131958111 448.59260807537987,740.7391555635083 438.2501612031757,743.2889119023876 427.8150157992594,745.4373792872569 417.2914071952536,747.1781670670567 406.68419953932755,748.5000052590727 396,749.3870196892841 385.24819752844536,749.8192628855332 374.4418763202434,749.7734784938289 363.5985596622611,749.2240667148258 352.74074735224656,748.1442093956148 341.89621900891126,746.5071063480568 331.0980859486373,744.2872695072024 320.38458543751085,741.4618189080978 309.79862254628216,738.0117242613901 299.3870760405487,733.92293815608 289.199895237757,729.1873715132903 279.2890240960274,723.8036686572975 269.7071965577891,717.7777479649214 260.50665301300387,711.123084126469 251.73783141537524,703.860719161176 243.44808791831886,696.0190009926284 235.68050083568454,687.6330600961572 228.47280832000118,678.7440459700184 221.85652453591078,669.3981554652125 215.85627153232844,659.6454938868578 210.48935481327365,649.5388168664634 205.76560017514555,639.1322059909724 201.68745817212138,628.4797338446451 198.25037107995425,617.6341743586415 195.44338595292635,606.6458121617135 193.2499868009807,595.5614000816694 191.64910951519244,584.4233072614684 190.6162953499169,573.268891819892 190.1249328704423,562.1301219793521 190.14753455329878,551.0334585415916 190.65699284499095,540 191.62776150417693,529.0458799431783 193.03691142775946,518.1828952381925 194.86501574570278,507.4193332730442 197.09682651895017,496.7609577336943 199.7217145601251,486.2121053774525 202.73385431691807,475.7768413491972 206.13214695847705,465.4601179854235 209.91988629701805,455.2688818779121 214.10418345886893,445.2130762319906 218.69517679911496,435.3064901553579 223.70506297051782,425.5674132513757 229.14699289990241,416.0190624711123 235.03388235203187,406.68975822608843 241.37719051414075,397.612837839107 248.1857214507664,388.82630602919295 255.46450229741913,380.3722337799864 263.2137887268125,372.2959281187616 271.4282426795028,364.64490554598933 280.09631984492364,357.46771065548137 289.19989523775683,350.8126284867098 298.71414483856665,344.72634404637125 308.6076901106787,339.25260501015464 318.84300075553335,334.4309437537354 329.37703982692346,330.29551255647266 340.1621247822145,326.87408117099994 351.14696866671085,324.18723915821033 362.27785781576904,322.2478367450025 373.49991655933826,321.06068784728916 384.7584056829114,320.6225477532704 395.99999999999994,320.92236626707313 407.1739913848614,321.9418053797309 418.2333669561587,323.65599927406123 429.13571764575147,326.0345241725713 439.8439398887113,329.0425366514375 450.32670230207657,332.6420319555484 460.5586595807072,336.7931688678641 470.520406974854,341.45560502721435 480.1981801378775,346.58978636711794 489.58331634336594,352.1581365727821 498.67150357750455,358.12609702596046 507.46185335443903,364.4629744271525 515.9558408699663,371.14256185738066 524.1561619614205,378.1435090923369 532.0655600220564,385.4494290704948 539.685677364495,393.0487390590392 547.0159844799061,400.93424674841503 554.0528372422635,409.10250272731963 560.7887065077282,417.55295105503114 567.2116170018035,426.28691850893676 573.304823200885,435.3064901553579 579.0467395010368,444.613323863091 584.4111307798541,454.20745903505883 589.367557985707,464.0861750590858 593.8820621336126,474.24295276527823 597.9180595403222,484.6665876227502 601.4374117539436,495.34049671281105 604.4016258356767,506.2422529731404 606.7731347742151,517.3433701926203 608.5166041145277,528.6093511884386" fill="none" stroke="#17353b" stroke-width="0.6" opacity="0.55"></polygon><polygon points="579.59443978449,540 579.1561797108186,549.8169633824416 578.091905887737,559.5735993917729 576.4153937616911,569.2244227843053 574.1463669413346,578.7267742135801 571.3098118238405,588.0417161967104 567.935125829055,597.1347704210555 564.0551354045442,605.9764660753755 559.7050254118183,614.542677179834 554.9212251414846,622.8147361442934 549.7402978752236,630.7793205990889 544.1978805435704,638.4281204871534 538.3277176378608,645.7573020455229 532.1608292279068,652.7667942156999 525.7248469031751,659.4594308156628 519.0435439590092,665.8399881398958 512.1365775190329,671.9141622498429 505.0194508980641,677.6875328737827 497.7036947772858,683.1645614351332 490.19725611068526,688.3476692444113 482.5050745308638,693.2364383863519 474.62981777313405,697.8269724622246 466.5727406497146,702.1114473420653 458.334626685849,706.0778737476911 449.9167679132541,709.7100841885101 441.3219366609049,712.9879469140045 432.5553035604644,715.8877995596786 423.6252583763481,718.3830854832516 414.54409457302177,720.4451668376934 405.3285245556173,722.0442805983023 396,723.1505973945445 386.58482029698706,723.7353383720945 377.11402149508285,723.7719026288138 367.6230478265891,723.2369571477965 358.15121751806174,722.11144261871 348.74100369630963,720.3814520319023 339.43715940605534,718.0389442962119 330.28572269518054,715.0822621374285 321.332943093671,711.5164318746959 312.6241743770887,707.3532319834342 304.2027801077551,702.6110272298257 296.1090980157572,697.3143751732215 288.37950683528493,691.493421542835 281.0456348557236,685.1831099808671 274.1337433709834,678.4222395145623 267.6643106796096,671.2524095322175 261.65183363086953,663.7168967141905 256.1048543061571,655.8595111067351 251.02620968144856,647.7234792060268 246.4134924607868,639.3504005139496 242.25970212477634,630.7793205990889 238.55405700155399,622.0459583972973 235.28293120076776,613.1821185492174 232.43087485845456,604.2153113018658 229.98167255837427,595.1685932605516 227.91939318032615,586.0606324711343 226.22938484933977,576.9059913705978 224.89917110349154,567.7156115016522 223.91920875630674,558.4974749668442 223.28347401251617,549.2574097900423 222.98985093827244,540 223.0403050599744,530.7295566300556 223.4408342913729,521.4511031421596 224.20119915555927,512.1713281498229 225.33444395074176,502.89945976090974 226.85622968408444,493.64801932407465 228.7840078661058,484.4334176903567 231.13607125863328,475.27636406067376 233.9305230968489,466.20206577589903 237.18420992399427,457.2402066559539 240.91166482829448,448.4247013027277 245.12410748396871,439.79323271894776 249.82854498918007,431.38659022590383 255.02701316904532,423.2478335650394 260.7159919606149,415.421316851437 266.8860209836081,407.9516123695993 273.521532754012,400.8823787858609 280.60091159519607,394.2552209954017 288.0967765536582,388.1085894080734 295.9764769595509,382.47676497890967 304.20278010775496,377.3889727701743 312.73472227342415,372.8686614443369 321.52858727697816,368.93297906539215 330.53897138258515,365.5924672348276 339.71988968768204,362.85098627185755 349.02587749654987,360.70587427107216 358.4130405400754,359.148332864754 367.84001028929856,358.16402281788953 377.2687649067331,357.7338436141393 386.66528239772873,357.83486334175706 395.99999999999994,358.4413588018221 405.24806245487554,359.52592111554924 414.3893511613714,361.06057940525966 423.40829591363854,363.0178944824344 432.29348053845064,365.3719759237856 441.0370628606646,368.09937938896985 449.63403763162734,371.1798463795593 458.0813779984444,374.596855624565 466.37709646640735,378.3379635980226 474.5192698767986,382.3949209655464 482.5050745308638,386.7635616136481 490.3298771668915,391.44347090771976 497.98642505891246,396.4374495157751 505.4641741585916,401.750798102486 512.7487881360042,407.39045605058027 519.8218336550107,413.3640337619209 526.6606885734296,419.6787827499646 533.2386703650186,426.3405504560746 539.5253823301293,433.3527673864076 545.4872655203884,440.7155127457439 551.0883351717055,448.42470130272767 556.2910722190443,456.4714289089577 561.0574335157371,464.84150714528243 565.3499390043655,473.51520928716405 569.1327905213234,482.46724052985286 572.3729753200822,491.6669355984985 575.0413078399326,501.0786769179271 577.1133657096234,510.66251686716976 578.5702803526708,520.3749787172306 579.3993486633605,530.1700030376562" fill="none" stroke="#17353b" stroke-width="0.6" opacity="0.49"></polygon><polygon points="543.8251125724033,540 542.9768074654987,547.8777900873183 541.7008160280761,555.6618131381754 540.0210946120249,563.329125475622 537.9627714221297,570.8609167281496 535.5512414983114,578.2424752454657 532.8112953706309,585.4629728178979 529.7663181405551,592.5150804203843 526.4375925429804,599.394434157329 522.8437348893862,606.0989771949545 519.0002868868739,612.6282089432774 514.9194794289559,618.9823768502649 510.6101768633039,625.1616487159838 506.0780022909024,631.1653043125666 501.3256364874342,636.9909842674738 496.35327540901403,642.6340316683097 491.1592242835719,648.0869577860178 485.74060030001,653.3390578665998 480.0941111508944,658.376196347234 474.21687336814153,663.180773398694 468.1072326591375,667.7318767078799 461.7655483779471,672.0056142411131 455.1949058550975,675.9756157278547 448.40172348959806,679.6136831255388 441.39622613854675,682.8905636964105 434.1927622195755,685.7768138367813 426.80994881168215,688.2437176884509 419.27063659955365,690.2642220114726 411.6016944241024,691.8138479191932 403.83362113077794,692.8715409098011 396,693.4204231380025 388.1368179682419,693.4484159472927 380.28167780061614,692.9487061505141 372.47293609554686,691.9200361662927 364.74880328249,690.3668056033965 357.1464434708667,688.2989799083266 349.70111204792113,685.731809904172 342.4453673030749,682.6853740934175 335.4083891472133,679.1839631237585 328.61543333733994,675.2553324965272 322.08744371379834,670.9298551414729 315.84083806686954,666.239609648421 309.8874756733546,661.2174425549955 304.23480661313454,655.8960440273823 298.8861950376294,650.3070754982969 293.8414009639218,644.4803853778072 289.09719824264266,638.4433449365741 284.64810039779434,632.220331053886 280.487161323164,625.8323759618289 276.6068145495302,619.296996689564 272.999713113126,612.6282089432774 269.65953203310784,605.836721996762 266.5816970458332,598.9303031718533 263.7640064756476,591.9142930068836 261.2071178051202,584.7922455720528 258.9148764383107,577.566662883418 256.89447107020123,570.2397882326671 255.1564076821578,562.8144206685258 253.71430214536417,555.2947119500332 252.58449938420327,547.6869080816314 251.78553468172507,540 251.33745966660854,532.2462520046764 251.2610615016883,524.4415819322412 251.57700853707632,516.6057736300394 252.3049589890493,508.7625097026268 253.46267091514713,500.9392204572524 255.06515180161523,493.1667531150852 257.1238844593129,485.478873325746 259.6461627090887,477.91161847451616 262.63456566757475,470.50252887758666 266.08659352306233,463.2897884309987 269.9944807768388,456.3113103733134 274.34519531965896,449.60380636044545 279.1206237475633,443.201877921462 284.29793534337426,437.13716852736343 289.85010950765843,431.43761199646883 295.74660444879726,426.12680888868374 301.9541389398189,421.22355708363926 308.43755418103467,416.7415561321426 315.16071947956664,412.68929750448336 322.0874437137983,409.0701448585271 329.18235446763174,405.88260026426065 336.4117082985693,403.1207443068291 343.7440987748406,400.7748304969957 351.151033540241,398.83200777355364 358.6073575377669,397.27713937672706 366.09150638672645,396.0936822455278 373.5855814616505,395.2645885257298 381.07524613385544,394.7731898808421 388.5494505610837,394.6040261154815 396,394.7435821134452 403.4209885379362,395.1809011529731 410.8081260908629,395.9080481121629 418.15799123345,396.92040268054984 425.4672457074456,398.21677016047346 432.73184815267524,399.79930544827226 439.94630464622685,401.6732539813151 447.10299201783226,403.8465214648744 454.1915867037414,406.32909170273285 461.1986272476552,409.13231851967464 468.1072326591375,412.2681232921201 474.89699195544426,415.7481337542104 481.5440326432142,419.58280233990405 488.0212679733255,423.7805432444218 494.29881487240397,428.3469266009628 500.34456686527733,433.28396570596635 506.12489938670257,438.5895291964638 511.60547894113347,444.25690466278144 516.7521428668089,450.27453360629056 521.5318132016472,456.6259302126124 525.9134064769377,463.28978843099867 529.8687012549192,470.2402736793939 533.3731268797249,477.44748748904044 536.4064401568897,484.87808591224524 538.9532613741358,492.49602586924004 541.0034470214748,500.2634080952046 542.5522835032816,508.14138120714415 543.6004937571063,516.091068822943 544.154056671752,524.0744807440988 544.2238471830934,532.0553699989895" fill="none" stroke="#17353b" stroke-width="0.6" opacity="0.43000000000000005"></polygon><polygon points="504.14500676735963,540 503.58653341965885,545.766516099496 502.7894230049058,551.4791120175615 501.76581049540374,557.1323782167125 500.5258719097503,562.7226067554863 499.0775054002609,568.2472510191286 497.4261402762471,573.7043359315578 495.5746815876998,579.0918467675671 493.52359193811554,584.4071256393818 491.271106171317,589.6463044047666 488.8135687479807,594.8038011488487 486.14587824747167,599.8719045982156 483.2620187341204,604.8404669556194 480.15565391898065,609.696720865918 476.8207572942647,614.425230747583 473.2522498378566,619.007982788717 469.4466165480523,623.4246117717216 465.4024739881516,627.6527568250224 461.12106315602546,631.6685324691289 456.60664525146,635.4470961788141 451.8667821510901,638.9632893488217 446.9124884314663,642.1923252173916 441.75824738499114,645.1104951164623 436.42188940584657,647.6958634760111 430.9243371240483,649.9289223546566 425.28922747291045,651.7931778852382 419.54242623451967,653.27564384294 413.71145528497317,654.3672214424305 407.8248565516862,655.0629492800908 401.91151943339565,655.3621128485294 396,655.268209023423 390.1178606157983,654.788767097273 384.2910577019916,653.9350340420949 378.5434032133413,652.7215374574474 372.8961221435785,651.1655448501476 367.3675241374327,649.2864422716267 361.9728022596568,647.105058717608 356.72396637338716,644.6429649258087 351.6299126568542,641.9217761939124 346.6966247982949,638.9624885397224 341.9274966163202,635.7848759519047 337.3237605107527,632.406973702383 332.8850014912315,628.8446688320803 328.6097327618913,625.1114141493522 324.4960061255689,621.218076603968 320.5420289295537,617.172924958411 316.7467589748941,612.981755532324 313.1104497664009,608.6481487137451 309.6351206495848,604.1738431780861 306.3249296695438,599.5592095838718 303.1864312520193,594.8038011488487 300.2287058624736,589.9069551416792 297.4633544245016,584.8684170998445 294.9043562286042,579.6889586003772 292.56779507649594,574.3709597090912 290.4714642219856,568.9189288024342 288.63436603292337,563.3399352247814 287.07612697531965,557.6439340912448 285.81635230599204,551.8439673030629 284.8739475883673,545.9562303007342 284.2664356978198,540 284.0092982899838,533.9974254780974 284.11536975395944,527.973189034098 284.5943095032998,521.9540509722051 285.4521751653023,515.9682965996967 286.69111495665595,510.04510826634163 288.30919246689416,504.21388860947746 290.3003514310035,498.50356336208137 292.6545221045916,492.9418930336824 295.35786481914124,487.5548224437552 298.39314045393706,482.3658954882885 301.74019216955236,477.3957597220593 305.37651803998295,472.6617814637601 309.2779104013582,468.17778734766114 313.41913497057266,463.9539427628416 317.7746211969767,459.9967716787262 322.31913496297176,456.3093162134002 327.02840565918933,452.8914282274539 331.87968178620747,449.74017948648833 336.85219248366275,446.8503717809421 341.9274966163201,444.2151240480953 347.08970606958843,441.826510198121 352.3255755038627,439.67621915035824 357.6244567427049,437.7562076339354 362.97812196468084,436.0593166405457 368.3804656701854,434.5798240224604 373.82710074885875,433.3139085361181 379.3148686458993,432.2600045186879 384.8412874122996,431.419031182532 390.40396415913926,430.79448601136164 396,430.3923977023027 401.6254158900546,430.2211402601052 407.2746268413781,430.29111594453616 412.9399898524152,430.6143205337048 418.61144762923936,431.20380954332586 424.2762859401577,432.0730884088489 429.91901741902427,433.2354530034971 435.52139903652875,434.7033090837329 441.0625845379825,436.48750022780825 446.5194071601727,438.59667352045176 451.8667821510901,441.0367106511783 457.0782132785499,443.81024930451093 462.1263828610495,446.91631584943974 466.9838010908535,450.3500855517837 471.6234877106494,454.1027810456467 476.01965757043354,458.1617138484202 480.14838129858606,462.5104675475825 483.9881932840234,467.12921519548814 487.52062134372215,471.99515768622683 490.73061574746305,477.08306470771555 493.60685954606294,482.36589548828846 496.14194721464935,487.8154731806677 498.3324242580255,493.40318449414497 500.1786863853004,499.10067519489144 501.6847428858489,504.8805123870107 502.85785466559054,510.7167860496471 503.70806277737137,516.5856250689917 504.2476279674235,522.4656068467374 504.4904055569384,528.3380443195992 504.45118271804233,534.1871396793356" fill="none" stroke="#17353b" stroke-width="0.6" opacity="0.37"></polygon><polygon points="455.99543321299024,540 455.93730753864156,543.2125716657664 455.75961333584144,546.4237381971506 455.46022075374464,549.631609553511 455.035737516935,552.8336250500321 454.48169547323107,556.0262622348291 453.7927994991015,559.2047920135541 452.9632278411086,562.3630920897235 451.9869707091976,565.4935282124286 450.858192249979,568.586909725182 449.5715999889419,571.632522621683 448.1228054849723,574.6182398802591 446.5086603035629,577.5307054190945 444.72755247064845,580.3555847393894 442.7796502708297,583.0778723468458 440.66708252738977,585.6822434939213 438.3940472475252,588.1534357779834 435.96684361459006,590.4766447520506 433.393825624482,592.637917016034 430.685279050758,594.6245242879031 427.8532267347089,596.4253027051982 424.91117028784817,598.0309430455014 421.8737790301735,599.4342196175879 418.7565392487791,600.6301481733442 415.5753785493689,601.61606621117 412.34628111446597,602.391632352945 409.0849100314447,602.9587449345184 405.8062524960164,603.3213834034187 402.52430264847993,603.4853794165441 399.2517951071195,603.4581275312378 396,603.2482479545512 392.77858756241716,602.865215845636 389.59556728233014,602.3189730666052 386.4573032755132,601.6195389869112 383.36860420059816,600.776636934483 380.3328827294396,599.7993521541865 377.352376514738,598.6958357127615 374.42841987934406,597.4730667414071 371.56175320930294,596.1366828221444 368.75285536384814,594.6908853149284 366.0022833935049,593.1384231206272 363.3110035271815,591.4806549246324 360.6806977653307,589.7176865176255 358.11403148273587,587.848576494422 355.6148691548042,585.8716006326364 353.18842760082407,583.7845626809755 350.84135888694016,581.5851372544028 348.58175813050474,579.2712291287348 346.419094760544,576.841332511502 344.3640691714816,574.2948738700854 342.4284000110581,571.632522621683 340.6245504240305,568.85645540061 338.96540429588543,565.9705616547751 337.4639057862086,562.9805808955765 336.13267711108585,559.8941649211466 334.9836305546496,556.7208616206416 334.0275910166288,553.4720204030937 333.2739450208062,550.1606227278195 332.73033103486944,546.8010444941856 332.40238423172264,543.4087600330687 332.2935465305822,540 332.4049499927254,536.5913774888095 332.73537853182165,533.1994980762422 333.28130956790926,529.840570211617 334.0370338522925,526.5300323503302 334.9948483660094,523.282212496569 336.14531409179267,520.1100344010572 337.47756771363765,517.0247826161625 338.979674028664,514.0359360326433 340.63900416154326,511.1510765225637 342.44262362591263,508.3758760227244 344.37767392511665,505.7141619563723 346.4317317412508,503.16805745840503 348.59313081080717,500.7381895910734 350.8512332810072,498.4239557568673 353.19663960868917,496.2238359634321 355.6213288039907,494.1357365838468 358.1187239140144,492.1573498726675 360.68368095180784,490.28651280457836 363.3124028585131,488.5215488289599 366.00228339350485,486.8615768793728 368.75168893417697,485.30677340960125 371.55968889882786,483.858575285224 374.42574776351944,482.519813952067 377.3493933282608,481.2947743173315 380.3298769259449,480.1891750841955 383.36584161395837,479.21007073204316 386.45501402838664,478.36567878154165 389.59393453025837,477.66513927606934 392.7777385785394,477.1182164047326 396,476.73495475663384 399.2526440909972,476.5253047191309 402.52593540055165,476.49873292613034 405.80854174314294,476.66383436503406 409.08767261808447,477.0279627320077 412.3492869179606,477.59689488543705 415.57836173584604,478.3745438189229 418.75921136460374,479.36273252012995 421.87584334064854,480.5610384897805 424.91233671751934,481.9667156790282 427.8532267347089,483.5746972948018 430.68387971942644,485.37767946568914 433.3908424380048,487.36628230616986 435.96215118331156,489.5292816150389 438.38758759833865,491.85390143849975 440.6588705195246,494.32615515048616 442.7697758767626,496.9312206644243 444.71617979034596,499.65383398041877 446.49602332285605,502.47868455081255 448.10920073133724,505.3907959461985 449.55737637408737,508.3758760227244 450.8437385124662,511.42062219799163 451.97270097641905,514.5129694749897 452.94956591367963,517.6422714220155 453.78016251839466,520.7994073086496 454.4704776618712,523.9768118823814 455.0262946812713,527.1684277033917 455.4528562066415,530.3695833859254 455.7545658388892,533.5768043732771 455.9347417776388,536.7875658561118" fill="none" stroke="#17353b" stroke-width="0.6" opacity="0.31"></polygon><line x1="-79.19999999999999" y1="540" x2="871.2" y2="540" stroke="#17353b" stroke-width="0.35" stroke-dasharray="2 4" opacity="0.45"></line><g><line x1="0" y1="536" x2="0" y2="544" stroke="#17353b" stroke-width="0.5" opacity="0.6"></line><text x="0" y="554" font-family="'JetBrains Mono', monospace" font-size="9" fill="#17353b" opacity="0.55" text-anchor="middle">−2σ</text></g><g><line x1="198" y1="536" x2="198" y2="544" stroke="#17353b" stroke-width="0.5" opacity="0.6"></line><text x="198" y="554" font-family="'JetBrains Mono', monospace" font-size="9" fill="#17353b" opacity="0.55" text-anchor="middle">−σ</text></g><g><line x1="594" y1="536" x2="594" y2="544" stroke="#17353b" stroke-width="0.5" opacity="0.6"></line><text x="594" y="554" font-family="'JetBrains Mono', monospace" font-size="9" fill="#17353b" opacity="0.55" text-anchor="middle">+σ</text></g><g><line x1="792" y1="536" x2="792" y2="544" stroke="#17353b" stroke-width="0.5" opacity="0.6"></line><text x="792" y="554" font-family="'JetBrains Mono', monospace" font-size="9" fill="#17353b" opacity="0.55" text-anchor="middle">+2σ</text></g><circle cx="396" cy="540" r="2.5" fill="#17353b"></circle><text x="396" y="532" font-family="'JetBrains Mono', monospace" font-size="9" fill="#17353b" opacity="0.7" text-anchor="middle" letter-spacing="2">μ</text><path d="M-45.0,1023.4 L-36.0,1003.6 L-27.0,983.8 L-18.0,963.8 L-9.0,943.7 L0.0,923.5 L9.0,903.3 L18.0,883.1 L27.0,863.0 L36.0,842.9 L45.0,822.9 L54.0,803.0 L63.0,783.3 L72.0,763.7 L81.0,744.5 L90.0,725.4 L99.0,706.7 L108.0,688.4 L117.0,670.4 L126.0,652.8 L135.0,635.7 L144.0,619.1 L153.0,603.0 L162.0,587.5 L171.0,572.5 L180.0,558.2 L189.0,544.5 L198.0,531.5 L207.0,519.1 L216.0,507.5 L225.0,496.6 L234.0,486.4 L243.0,477.0 L252.0,468.3 L261.0,460.4 L270.0,453.3 L279.0,447.0 L288.0,441.5 L297.0,436.9 L306.0,433.0 L315.0,429.9 L324.0,427.7 L333.0,426.3 L342.0,425.7 L351.0,425.9 L360.0,427.0 L369.0,428.9 L378.0,431.7 L387.0,435.3 L396.0,439.8 L405.0,445.1 L414.0,451.2 L423.0,458.2 L432.0,466.1 L441.0,474.8 L450.0,484.3 L459.0,494.6 L468.0,505.8 L477.0,517.7 L486.0,530.5 L495.0,544.0 L504.0,558.3 L513.0,573.3 L522.0,589.0 L531.0,605.4 L540.0,622.4 L549.0,640.0 L558.0,658.2 L567.0,677.0 L576.0,696.2 L585.0,716.0 L594.0,736.1 L603.0,756.6 L612.0,777.4 L621.0,798.5 L630.0,819.9 L639.0,841.5 L648.0,863.2 L657.0,885.1 L666.0,907.0 L675.0,929.0 L684.0,951.0 L693.0,972.9 L702.0,994.8 L711.0,1016.5 L720.0,1038.1 L729.0,1059.5 L738.0,1080.7 L747.0,1101.6 L756.0,1122.3 L765.0,1142.6 L774.0,1162.6 L783.0,1182.1 L792.0,1201.3 L801.0,1219.9 L810.0,1238.1 L819.0,1255.8 L828.0,1272.8 L837.0,1289.3 L846.0,1305.2 L855.0,1320.3 L864.0,1334.8 L873.0,1348.5 L882.0,1361.4 L891.0,1373.6 L900.0,1384.8 L909.0,1395.2 L918.0,1404.8 L927.0,1413.3 L936.0,1421.0" fill="none" stroke="#17353b" stroke-width="2.2" opacity="0.28" stroke-linecap="round"></path><path d="M-45.0,1023.4 L-36.0,1003.6 L-27.0,983.8 L-18.0,963.8 L-9.0,943.7 L0.0,923.5 L9.0,903.3 L18.0,883.1 L27.0,863.0 L36.0,842.9 L45.0,822.9 L54.0,803.0 L63.0,783.3 L72.0,763.7 L81.0,744.5 L90.0,725.4 L99.0,706.7 L108.0,688.4 L117.0,670.4 L126.0,652.8 L135.0,635.7 L144.0,619.1 L153.0,603.0 L162.0,587.5 L171.0,572.5 L180.0,558.2 L189.0,544.5 L198.0,531.5 L207.0,519.1 L216.0,507.5 L225.0,496.6 L234.0,486.4 L243.0,477.0 L252.0,468.3 L261.0,460.4 L270.0,453.3 L279.0,447.0 L288.0,441.5 L297.0,436.9 L306.0,433.0 L315.0,429.9 L324.0,427.7 L333.0,426.3 L342.0,425.7 L351.0,425.9 L360.0,427.0 L369.0,428.9 L378.0,431.7 L387.0,435.3 L396.0,439.8 L405.0,445.1 L414.0,451.2 L423.0,458.2 L432.0,466.1 L441.0,474.8 L450.0,484.3 L459.0,494.6 L468.0,505.8 L477.0,517.7 L486.0,530.5 L495.0,544.0 L504.0,558.3 L513.0,573.3 L522.0,589.0 L531.0,605.4 L540.0,622.4 L549.0,640.0 L558.0,658.2 L567.0,677.0 L576.0,696.2 L585.0,716.0 L594.0,736.1 L603.0,756.6 L612.0,777.4 L621.0,798.5 L630.0,819.9 L639.0,841.5 L648.0,863.2 L657.0,885.1 L666.0,907.0 L675.0,929.0 L684.0,951.0 L693.0,972.9 L702.0,994.8 L711.0,1016.5 L720.0,1038.1 L729.0,1059.5 L738.0,1080.7 L747.0,1101.6 L756.0,1122.3 L765.0,1142.6 L774.0,1162.6 L783.0,1182.1 L792.0,1201.3 L801.0,1219.9 L810.0,1238.1 L819.0,1255.8 L828.0,1272.8 L837.0,1289.3 L846.0,1305.2 L855.0,1320.3 L864.0,1334.8 L873.0,1348.5 L882.0,1361.4 L891.0,1373.6 L900.0,1384.8 L909.0,1395.2 L918.0,1404.8 L927.0,1413.3 L936.0,1421.0" fill="none" stroke="#17353b" stroke-width="1.35" opacity="0.92" stroke-linecap="round"></path><g><circle cx="72" cy="763.748394673154" r="2" fill="#17353b"></circle><text x="72" y="753.748394673154" font-family="'JetBrains Mono', monospace" font-size="11" fill="#17353b" text-anchor="middle" letter-spacing="1">A</text></g><g><circle cx="252.00000000000009" cy="468.3048810274671" r="2" fill="#17353b"></circle><text x="252.00000000000009" y="458.3048810274671" font-family="'JetBrains Mono', monospace" font-size="11" fill="#17353b" text-anchor="middle" letter-spacing="1">G</text></g><g><circle cx="621.0000000000003" cy="798.5403753780512" r="2" fill="#17353b"></circle><text x="621.0000000000003" y="788.5403753780512" font-family="'JetBrains Mono', monospace" font-size="11" fill="#17353b" text-anchor="middle" letter-spacing="1">C</text></g><g><circle cx="819.0000000000006" cy="1255.7652239453785" r="2" fill="#17353b"></circle><text x="819.0000000000006" y="1245.7652239453785" font-family="'JetBrains Mono', monospace" font-size="11" fill="#17353b" text-anchor="middle" letter-spacing="1">T</text></g><circle cx="405.0000000000002" cy="445.0880126962257" r="6" fill="#c88a4a"></circle><circle cx="405.0000000000002" cy="445.0880126962257" r="13" fill="none" stroke="#c88a4a" stroke-width="0.9"></circle></g></g><g font-family="'JetBrains Mono', 'Courier New', monospace" fill="#17353b"><text x="64" y="78" font-size="11" letter-spacing="2.5">PLATE I</text><text x="836" y="78" font-size="11" letter-spacing="2.5" text-anchor="end">DIST. N(μ,σ²) · n = 10⁴</text><text x="64" y="1086" font-size="11" letter-spacing="2">DENIZ FRAEMKE · BIOSOCIAL PERSPECTIVES</text></g><text x="450" y="1107.5" font-family="'Fraunces', 'Times New Roman', serif" fill="#17353b" font-size="13.95" text-anchor="middle" font-style="italic">A cognitive trajectory crossing a biosocial terrain.</text></svg>